<!--/ <svg width="211" height="209" xmlns="http://www.w3.org/2000/svg"> /-->
<svg version="1.1" xmlns="http://www.w3.org/2000/svg" xmlns:xlink="http://www.w3.org/1999/xlink" x="0px" y="0px" viewBox="0 0 612 792" enable-background="new 0 0 612 792" xml:space="preserve">
	<g id="hikari-stars">
		<!--/ biggest star /-->
		<path fill="#191919" d="m211,106c-63,7 -93,44 -102,103c-3,-29 -13,-53 -35,-72c-21,-19 -47,-27 -74,-32c11,-1 22,-2 32,-6c11,-3 20,-8 29,-14c9,-7 17,-15 23,-24c6,-9 11,-19 15,-29c4,-10 6,-21 8,-32c8,63 45,95 104,106z" id="hikari-star-01"/>

		<!--/ second biggest star /-->
		<path fill="#191919" d="m194,47.099518c-12.540283,1.393372 -18.511841,8.758301 -20.303314,20.50238c-0.597168,-5.772522 -2.587677,-10.549774 -6.966827,-14.331757c-4.180084,-3.781982 -9.355438,-5.37442 -14.729858,-6.369659c2.189575,-0.199066 4.37915,-0.398102 6.369659,-1.194305c2.189575,-0.597168 3.981049,-1.592438 5.772522,-2.786743c1.791473,-1.393372 3.383881,-2.985779 4.578186,-4.777252c1.194336,-1.791473 2.189575,-3.781982 2.985779,-5.772522c0.796234,-1.990509 1.194336,-4.180084 1.592438,-6.369659c1.592407,12.540283 8.957336,18.909943 20.701416,21.099518z" id="hikari-star-02"/>

		<!--/ smallest star /-->
		<path fill="#191919" d="m151,13.540283c-5.075836,0.563995 -7.492889,3.545013 -8.218018,8.298584c-0.241699,-2.336487 -1.047394,-4.270142 -2.819885,-5.800934c-1.691956,-1.530823 -3.786743,-2.175385 -5.962097,-2.578217c0.886261,-0.080566 1.772522,-0.161133 2.578217,-0.483398c0.88623,-0.241699 1.611359,-0.644562 2.336487,-1.12796c0.725098,-0.563995 1.369659,-1.208557 1.853058,-1.933655c0.483429,-0.725128 0.886261,-1.530823 1.208557,-2.336487c0.322266,-0.805695 0.483398,-1.691956 0.644531,-2.578217c0.644562,5.075836 3.62558,7.654053 8.37915,8.540283z" id="hikari-star-03"/>
	</g>
</svg>
