<?xml version="1.0" encoding="utf-8"?>
<svg version="1.1" xmlns="http://www.w3.org/2000/svg" xmlns:xlink="http://www.w3.org/1999/xlink" viewBox="0 0 96 96">
  <path d="M96,44c0,18.529-14.001,33.79-32,35.78v-8.064C77.569,69.775,88,58.105,88,44c0-15.464-12.536-28-28-28 c-14.104,0-25.76,10.434-27.702,24H24c-8.836,0-16,7.163-16,16c0,6.628,4.029,12.313,9.772,14.743C19.687,71.552,21.791,72,24,72 h16v8H24.078c-0.026,0-0.051,0.002-0.077,0.002C10.746,80.002,0,69.256,0,56.001C0,42.745,10.746,32,24,32l0,0h2.058 C31.002,18.02,44.327,8,60,8C79.882,8,96,24.118,96,44z M66.828,58.83c1.562-1.562,1.562-4.095,0-5.656l-12-12 c-0.75-0.75-1.768-1.172-2.828-1.172s-2.078,0.422-2.828,1.172l-12,12c-1.562,1.562-1.562,4.095,0,5.656 c1.562,1.562,4.095,1.562,5.656,0L48,53.659v26.343c0,2.209,1.791,4,4,4s4-1.791,4-4V53.659l5.172,5.171 C62.733,60.393,65.267,60.393,66.828,58.83z"/>
</svg>