<?xml version="1.0" encoding="utf-8"?>
<svg version="1.1" xmlns="http://www.w3.org/2000/svg" xmlns:xlink="http://www.w3.org/1999/xlink" viewBox="0 0 96 96">
  <path d="M48,4C26.809,4,4,9.007,4,20v56c0,10.993,22.809,16,44,16s44-5.007,44-16V20C92,9.007,69.191,4,48,4z M48,12 c23.189,0,35.18,5.736,35.986,8C83.18,22.264,71.189,28,48,28s-35.18-5.736-35.987-8C12.82,17.736,24.811,12,48,12z M12,29.723 C20.513,33.989,34.577,36,48,36c13.424,0,27.488-2.013,36.001-6.279l0.002,18.229C83.369,50.173,71.374,56.001,48,56.001 c-23.4,0-35.396-5.841-36-8V29.723L12,29.723z M48,84c-23.4,0-35.396-5.841-36-8V57.723C20.513,61.989,34.577,64,48,64 c13.426,0,27.492-2.013,36.004-6.281l0.002,18.223C83.396,78.159,71.4,84,48,84z"/>
</svg>