<?xml version="1.0" encoding="utf-8"?>
<svg version="1.1" xmlns="http://www.w3.org/2000/svg" xmlns:xlink="http://www.w3.org/1999/xlink" viewBox="0 0 96 96">
  <path d="M16,76V24.689C11.34,26.33,8,30.77,8,36v40c0,6.63,5.37,12,12,12h40c5.23,0,9.67-3.34,11.311-8H20 C17.79,80,16,78.21,16,76z M76,8H36c-6.63,0-12,5.37-12,12v40c0,6.63,5.37,12,12,12h40c6.63,0,12-5.37,12-12V20 C88,13.37,82.63,8,76,8z M80,60c0,2.21-1.79,4-4,4H36c-2.21,0-4-1.79-4-4V20c0-2.21,1.79-4,4-4h40c2.21,0,4,1.79,4,4V60z"/>
</svg>