<?xml version="1.0" standalone="no"?>
<!DOCTYPE svg PUBLIC "-//W3C//DTD SVG 1.1//EN" "http://www.w3.org/Graphics/SVG/1.1/DTD/svg11.dtd" >
<svg xmlns="http://www.w3.org/2000/svg">
<metadata>
This is a custom SVG webfont generated by Font Squirrel.
Copyright   : Font data copyright Punchcut 2009
Designer    : Punchcut
Foundry URL : Punchcutcom
</metadata>
<defs>
<font id="AmbleLightCondensed" horiz-adv-x="1057" >
<font-face units-per-em="2048" ascent="1548" descent="-500" />
<missing-glyph horiz-adv-x="432" />
<glyph unicode="&#xfb01;" horiz-adv-x="1068" d="M62 890l22 110h134v43q0 104 26.5 177.5t76.5 120t122 67.5t163 21q32 0 67 -2.5t69 -6.5t65 -9.5t55 -11.5v-106q-21 4 -51 8.5t-63 8.5t-67.5 6.5t-65.5 2.5q-68 0 -118 -14.5t-82.5 -47t-48 -85.5t-15.5 -129v-43h246v-110h-246v-890h-133v890h-156zM764 0v1000h133 v-1000h-133z" />
<glyph unicode="&#xfb02;" horiz-adv-x="1159" d="M62 890l22 110h134v43q0 104 26.5 177.5t76.5 120t122 67.5t163 21q31 0 65.5 -2.5t67.5 -6.5t64 -9t55 -11h121v-1400h-134v1296q-23 4 -51 8t-58.5 7.5t-61.5 5.5t-59 2q-68 0 -118 -14.5t-82.5 -47t-48 -85.5t-15.5 -129v-43h246v-110h-246v-890h-133v890h-156z" />
<glyph unicode=" "  horiz-adv-x="432" />
<glyph unicode="&#x09;" horiz-adv-x="432" />
<glyph unicode="&#xa0;" horiz-adv-x="432" />
<glyph unicode="!" horiz-adv-x="517" d="M187 0v126h149v-126h-149zM194 384v976h134v-976h-134z" />
<glyph unicode="&#x22;" horiz-adv-x="524" d="M74 950v410h147l-62 -420zM307 950v410h148l-63 -420z" />
<glyph unicode="#" horiz-adv-x="1175" d="M91 344v110h216l50 436h-222v110h235l41 360h130l-40 -360h230l40 360h133l-40 -360h210v-110h-223l-48 -436h225v-110h-238l-38 -344h-133l38 344h-230l-38 -344h-133l39 344h-204zM440 454h230l48 436h-230z" />
<glyph unicode="$" horiz-adv-x="1043" d="M130 1010q0 77 22 140.5t64 111t102 77t136 37.5v220h134v-220q85 -8 150.5 -29t103.5 -37l-34 -108q-32 13 -63 25t-65.5 21.5t-75 15.5t-91.5 6q-125 0 -187 -68t-62 -182q0 -46 14 -86.5t44 -76.5t78.5 -66.5t117.5 -56.5q90 -33 158.5 -70.5t115 -83.5t70 -103 t23.5 -129q0 -71 -20.5 -131.5t-59 -106.5t-93.5 -77t-124 -44v-249h-134v241q-48 1 -95 7t-89.5 15t-78 20.5t-60.5 24.5l32 108q36 -14 72 -26t75.5 -21t84 -14t97.5 -5q58 0 106 16.5t82 48.5t53 79t19 108q0 55 -21 99t-59.5 79t-92.5 63t-119 51q-69 24 -129.5 58 t-105 80.5t-70 105.5t-25.5 132z" />
<glyph unicode="%" horiz-adv-x="1521" d="M159 1076q0 71 19 127.5t54 95.5t83.5 60t107.5 21q58 0 107 -21t84.5 -60t55.5 -95.5t20 -127.5q0 -72 -20 -128.5t-55.5 -95.5t-84.5 -59.5t-107 -20.5q-59 0 -107.5 20.5t-83.5 59.5t-54 95.5t-19 128.5zM287 1076q0 -41 9.5 -76t27.5 -61.5t43 -41.5t56 -15t56.5 15 t44 41.5t28.5 61.5t10 76q0 40 -10 75.5t-28.5 62t-44 41.5t-56.5 15t-56 -15t-43 -41.5t-27.5 -62t-9.5 -75.5zM300 0l801 1360h105l-797 -1360h-109zM837 284q0 71 19 127.5t54 95.5t83.5 60t107.5 21t108 -21t84 -60t54 -95.5t19 -127.5q0 -72 -19 -128.5t-54 -95.5 t-84 -59.5t-108 -20.5t-107.5 20.5t-83.5 59.5t-54 95.5t-19 128.5zM963 284q0 -41 10 -76t28 -61.5t43.5 -41.5t56.5 -15t56.5 15t43.5 41.5t28 61.5t10 76q0 40 -10 75.5t-28 62t-43.5 41.5t-56.5 15t-56.5 -15t-43.5 -41.5t-28 -62t-10 -75.5z" />
<glyph unicode="&#x26;" horiz-adv-x="1163" d="M84 332q0 70 22 127t61 106.5t92.5 95.5t116.5 96l-61 77q-30 37 -49.5 70t-31.5 63t-16.5 59.5t-4.5 61.5q0 67 21.5 121.5t61 92t95 58t124.5 20.5q61 0 114 -20.5t91 -57.5t60 -88.5t22 -113.5q0 -51 -17 -93t-46.5 -79.5t-70 -74.5t-88.5 -77l-39 -33l315 -393 q35 54 65.5 109.5t57.5 108.5l83 -72q-29 -65 -61.5 -124.5t-70.5 -113.5l160 -200l-93 -78l-145 181q-78 -84 -171.5 -132.5t-204.5 -48.5q-83 0 -155 24.5t-124.5 70.5t-82.5 111t-30 146zM217 332q0 -52 19 -96t53.5 -76.5t82.5 -51t105 -18.5q93 0 168 45t136 115 l-334 418q-48 -38 -89.5 -74.5t-73 -76t-49.5 -85t-18 -100.5zM346 1090q0 -29 6 -55.5t15.5 -50.5t21.5 -44t23 -34l59 -74q14 11 29 23t30 25q33 26 59 48.5t43.5 47.5t27 55t9.5 71q0 34 -13 65t-35 53.5t-51 36t-61 13.5q-33 0 -62.5 -13t-52 -36.5t-35.5 -57t-13 -73.5 z" />
<glyph unicode="'" horiz-adv-x="320" d="M77 970v390h143l-49 -400z" />
<glyph unicode="(" horiz-adv-x="611" d="M127 560q0 142 23.5 279t64.5 261t97.5 229.5t121.5 184.5l93 -60q-47 -66 -94.5 -154t-86 -199t-62.5 -246t-24 -295q0 -153 23.5 -282.5t61 -237t83 -193t89.5 -149.5l-92 -60q-63 93 -117.5 197.5t-94.5 220t-63 241.5t-23 263z" />
<glyph unicode=")" horiz-adv-x="613" d="M86 -302q47 66 95 153.5t86.5 198.5t63 246t24.5 296q0 153 -23.5 282.5t-61 237t-83.5 192.5t-91 150l93 60q145 -187 222 -417t77 -505q0 -142 -23.5 -279t-64.5 -261t-97 -229.5t-121 -184.5z" />
<glyph unicode="*" horiz-adv-x="839" d="M73 1060l57 134l254 -171l-24 357h132l-24 -351l250 181l59 -128l-276 -138l204 -269l-103 -87l-162 298h-16l-156 -310l-109 84l196 280z" />
<glyph unicode="+" horiz-adv-x="901" d="M104 484v110h285v316h124v-316h289v-110h-289v-318h-124v318h-285z" />
<glyph unicode="," horiz-adv-x="446" d="M118 -232l61 390h147l-114 -404z" />
<glyph unicode="-" horiz-adv-x="688" d="M104 586v120h484v-120h-484z" />
<glyph unicode="." horiz-adv-x="509" d="M193 0v132h151v-132h-151z" />
<glyph unicode="/" horiz-adv-x="737" d="M45 -140l492 1500h131l-492 -1500h-131z" />
<glyph unicode="0" horiz-adv-x="1040" d="M107 670q0 161 26.5 292t79 224t129.5 143.5t179 50.5q103 0 182 -50.5t132.5 -143.5t81 -224t27.5 -292q0 -162 -27.5 -290t-81 -217t-132.5 -136t-182 -47q-102 0 -179 47t-129.5 136t-79 217t-26.5 290zM240 670q0 -132 17.5 -239t52.5 -183t87.5 -117t123.5 -41 q70 0 123.5 41t90.5 117t56 183t19 239t-19 242t-56 189.5t-90.5 124t-123.5 44.5q-71 0 -123.5 -44.5t-87.5 -124t-52.5 -189.5t-17.5 -242z" />
<glyph unicode="1" horiz-adv-x="1045" d="M229 1138v110l348 112h81v-1250h277v-110h-700v110h289v1109z" />
<glyph unicode="2" horiz-adv-x="1042" d="M149 1248q27 21 66.5 44t87.5 42.5t103 32.5t114 13q86 0 155.5 -25.5t119 -73t76.5 -115t27 -152.5q0 -77 -24.5 -137.5t-65 -108.5t-93.5 -87.5t-110 -74.5q-69 -45 -125.5 -91.5t-97.5 -104t-64.5 -130.5t-25.5 -170h629v-110h-762v36q0 140 23.5 239.5t72.5 175.5 t124 136.5t179 122.5q111 67 159 146t48 166q0 55 -18 101t-50.5 78.5t-78.5 50.5t-102 18q-48 0 -91.5 -9.5t-83 -25.5t-76.5 -37t-72 -44z" />
<glyph unicode="3" horiz-adv-x="1042" d="M125 72l48 88q31 -15 62.5 -28t65 -22t70.5 -14.5t79 -5.5q70 0 129.5 16.5t103 50t67.5 84.5t24 119q0 72 -23 124.5t-64 87t-97 51.5t-122 17h-156v110h156q58 0 106.5 15.5t84 47.5t55.5 81t20 116q0 70 -22 119.5t-60.5 81t-91 45.5t-114.5 14q-40 0 -74 -5.5 t-65 -16t-60 -24.5t-58 -30l-53 88q28 23 66 41.5t82 31t90.5 19t90.5 6.5q94 0 168 -26t125.5 -74.5t78.5 -118t27 -157.5q0 -109 -50.5 -188t-144.5 -119q112 -40 173.5 -126t61.5 -205q0 -86 -30.5 -157t-87.5 -122t-139.5 -79t-186.5 -28q-47 0 -94.5 6t-92 18t-82.5 29 t-66 39z" />
<glyph unicode="4" horiz-adv-x="1037" d="M63 314v76l574 970h164v-936h181v-110h-181v-314h-133v314h-605zM222 424h446v763z" />
<glyph unicode="5" horiz-adv-x="1042" d="M139 66l39 100q28 -17 58.5 -30.5t65.5 -24t76 -16t92 -5.5q157 0 239 80.5t82 249.5q0 77 -24 133.5t-65.5 93.5t-98 55t-121.5 18q-63 0 -125.5 -12t-109.5 -38l-105 40l90 650h627v-110h-526l-67 -454q50 16 113.5 25t146.5 9q91 0 165 -29.5t125.5 -83.5t79.5 -129.5 t28 -167.5q0 -98 -27.5 -179t-82.5 -139t-137 -90t-191 -32q-53 0 -103.5 7t-95.5 19t-83 27.5t-65 32.5z" />
<glyph unicode="6" horiz-adv-x="1040" d="M114 630q0 170 33.5 308.5t97 236.5t156 151.5t210.5 53.5q49 0 88.5 -5t72 -14t59 -21t50.5 -26l-36 -96q-48 26 -101.5 39t-118.5 13q-83 0 -151.5 -35.5t-118 -109.5t-77.5 -189t-31 -275q61 94 150 142.5t187 48.5q96 0 166 -30t115 -85.5t67 -133t22 -171.5 q0 -83 -26 -163.5t-77 -145t-126 -104t-172 -39.5q-109 0 -191.5 46.5t-137.5 132t-82.5 205.5t-27.5 266zM249 546q12 -236 94 -346t230 -110q61 0 107 28.5t77.5 76t47.5 108t16 125.5q0 66 -13.5 123.5t-42 100t-73.5 66.5t-109 24q-42 0 -86.5 -9t-88 -31.5t-84 -60.5 t-75.5 -95z" />
<glyph unicode="7" horiz-adv-x="1040" d="M107 1240v120h826v-112l-482 -1248h-138l481 1240h-687z" />
<glyph unicode="8" horiz-adv-x="1040" d="M97 366q0 116 63 203t175 128q-94 38 -146 116t-52 193q0 88 26.5 157.5t76 117.5t120 73.5t158.5 25.5t160 -25.5t124 -73.5t80.5 -117.5t28.5 -157.5q0 -115 -55.5 -193t-152.5 -116q57 -20 102 -52.5t77 -75.5t49 -94t17 -109q0 -93 -31 -165t-88 -121t-136 -74.5 t-175 -25.5t-173.5 25.5t-132.5 74.5t-85 121t-30 165zM230 366q0 -67 21 -118.5t59.5 -86.5t91.5 -53t116 -18q64 0 118 18t94 53t62.5 86.5t22.5 118.5q0 59 -22.5 109.5t-62.5 87.5t-94 58t-118 21q-63 0 -116 -20.5t-91.5 -57.5t-59.5 -87.5t-21 -110.5zM270 1006 q0 -61 18 -108t51 -79.5t78.5 -49.5t100.5 -17t102.5 17t82.5 49.5t55 79.5t20 108q0 63 -20 112t-55 83t-82.5 51.5t-102.5 17.5t-100.5 -17.5t-78.5 -51.5t-51 -83t-18 -112z" />
<glyph unicode="9" horiz-adv-x="1041" d="M106 938q0 82 27 161t78 141.5t126 101t171 38.5q102 0 180 -39.5t130.5 -123.5t79.5 -215t27 -314q0 -160 -31.5 -290.5t-90 -223.5t-142.5 -143.5t-188 -50.5q-54 0 -95.5 5t-75.5 14t-61.5 21t-52.5 26l29 102q52 -27 111.5 -42.5t131.5 -15.5t132 34t103.5 104.5 t68 179.5t26.5 260q-59 -73 -143 -111.5t-181 -38.5q-81 0 -147.5 32t-113.5 88.5t-73 133.5t-26 166zM239 936q0 -65 12.5 -121t39.5 -97.5t69.5 -65.5t103.5 -24q43 0 86.5 8t85 28t80.5 54t72 86q-7 142 -31 232.5t-63 142.5t-92.5 71.5t-119.5 19.5q-59 0 -104.5 -27.5 t-76.5 -74t-46.5 -107t-15.5 -125.5z" />
<glyph unicode=":" horiz-adv-x="528" d="M193 706v132h151v-132h-151zM193 0v132h151v-132h-151z" />
<glyph unicode=";" horiz-adv-x="499" d="M118 -232l61 390h147l-114 -404zM179 716v132h151v-132h-151z" />
<glyph unicode="&#x3c;" horiz-adv-x="935" d="M104 440v118l731 348v-134l-613 -274l613 -274v-132z" />
<glyph unicode="=" horiz-adv-x="1070" d="M128 362v110h818v-110h-818zM128 704v110h818v-110h-818z" />
<glyph unicode="&#x3e;" horiz-adv-x="935" d="M104 92v134l613 274l-613 274v132l731 -348v-118z" />
<glyph unicode="?" horiz-adv-x="898" d="M87 1238q26 22 62.5 46t81.5 44t97 33t109 13q83 0 149 -23t111.5 -65t70 -102.5t24.5 -135.5q0 -70 -25 -127.5t-63.5 -105.5t-83.5 -89t-84 -78q-22 -22 -36 -48.5t-21.5 -61.5t-10.5 -79.5t-3 -102.5h-128q0 77 8 136.5t25 107.5t44.5 87t66.5 77q40 37 73 69t56.5 64 t36 67t12.5 78q0 48 -14 88.5t-42.5 70.5t-73 46.5t-104.5 16.5q-46 0 -85.5 -10t-74.5 -26.5t-67.5 -38t-64.5 -45.5zM324 0v158h148v-158h-148z" />
<glyph unicode="@" horiz-adv-x="1607" d="M119 380q0 20 0.5 40t1.5 40q5 211 58.5 381.5t148 290t224.5 184t288 64.5q156 0 277.5 -55t205 -158t127 -250.5t43.5 -331.5v-31q0 -16 -1 -32q-2 -63 -12.5 -128t-30 -125.5t-49 -113t-71 -91.5t-95 -61.5t-120.5 -22.5q-60 0 -102 43t-59 121q-42 -81 -104 -122.5 t-149 -41.5q-52 0 -93.5 24t-71 69t-45.5 108t-16 141q0 19 1 38.5t3 39.5q10 121 41 219.5t76.5 168t102.5 107t119 37.5q58 0 100.5 -8.5t76.5 -23.5t63 -34t59 -40h1l-42 -544q-1 -11 -1 -22v-20q0 -47 7 -76t18.5 -45.5t26.5 -22.5t30 -6q51 0 90.5 33.5t66.5 92t42 137 t18 169.5q1 17 1 34v34q0 160 -32 286.5t-98 214t-167.5 133.5t-240.5 46q-134 0 -240.5 -55.5t-182.5 -160t-119.5 -254.5t-49.5 -340q-1 -18 -1.5 -35.5t-0.5 -34.5q0 -170 36 -303t104.5 -224.5t168 -140t225.5 -48.5q44 0 89.5 6.5t88.5 18.5t82 28t71 35l12 -112 q-33 -22 -75 -38t-88 -26.5t-93.5 -16t-91.5 -5.5q-153 0 -274 56.5t-205 162t-128.5 257t-44.5 340.5zM607 326q0 -108 31 -172t93 -64q61 0 117.5 48t99.5 165v2l36 484q-26 14 -59.5 23.5t-73.5 9.5q-112 0 -168 -107.5t-73 -314.5q-3 -39 -3 -74z" />
<glyph unicode="A" horiz-adv-x="1177" d="M85 0l434 1360h141l439 -1360h-137l-132 422h-477l-132 -422h-136zM387 532h408l-204 652z" />
<glyph unicode="B" horiz-adv-x="1125" d="M184 0v1360h321q99 0 175.5 -26t129 -74t80 -115t27.5 -149q0 -56 -12 -100.5t-31.5 -79.5t-43 -61t-45.5 -44q49 -16 89.5 -45.5t68.5 -71.5t43.5 -95t15.5 -115q0 -86 -29.5 -157t-86 -121.5t-138 -78t-185.5 -27.5h-379zM318 110h226q72 0 132 15.5t102.5 47.5t66 82 t23.5 119q0 68 -19 119.5t-53.5 86t-81.5 51.5t-104 17h-292v-538zM318 758h369q12 16 29 36t32 48.5t25.5 69t10.5 98.5q0 63 -21 108.5t-60 74.5t-94.5 43t-124.5 14h-166v-492z" />
<glyph unicode="C" horiz-adv-x="1023" d="M119 682q0 158 37 287t106 220.5t167.5 141t221.5 49.5q89 0 151.5 -22t106.5 -49l-42 -95q-45 26 -101 41t-119 15q-87 0 -160 -34t-125 -105.5t-81 -183t-29 -265.5q0 -155 31 -266.5t87 -184t133 -107t170 -34.5q39 0 72.5 6.5t62.5 16t53 20.5t43 21l34 -92 q-45 -35 -114 -58.5t-166 -23.5q-124 0 -223.5 50.5t-169.5 142.5t-108 221.5t-38 287.5z" />
<glyph unicode="D" horiz-adv-x="1216" d="M184 0v1360h348q129 0 233 -48.5t177.5 -137t113.5 -213.5t40 -279t-40 -279.5t-113.5 -215t-177.5 -138.5t-233 -49h-348zM318 110h196q98 0 180.5 33.5t142 103.5t93 178t33.5 257t-33.5 256.5t-93 176.5t-142 102t-180.5 33h-196v-1140z" />
<glyph unicode="E" horiz-adv-x="949" d="M184 0v1360h670v-110h-536v-492h479v-110h-479v-538h536v-110h-670z" />
<glyph unicode="F" horiz-adv-x="874" d="M184 0v1360h634v-110h-500v-492h441v-110h-441v-648h-134z" />
<glyph unicode="G" horiz-adv-x="1219" d="M121 680q0 167 43 297.5t123 220t193.5 136t255.5 46.5q92 0 157 -20t102 -38l-31 -106q-42 18 -98 36t-128 18q-109 0 -198 -35t-152.5 -107.5t-98 -184t-34.5 -263.5q0 -114 31.5 -220.5t89 -188.5t139 -131.5t180.5 -49.5q63 0 125 8.5t113 31.5v424h-293v110h425 v-596q-84 -41 -174 -64.5t-196 -23.5q-132 0 -238 56t-180.5 152t-115 223t-40.5 269z" />
<glyph unicode="H" horiz-adv-x="1236" d="M184 0v1360h134v-626h614v626h133v-1360h-133v624h-614v-624h-134z" />
<glyph unicode="I" horiz-adv-x="742" d="M136 0v110h173v1140h-173v110h474v-110h-168v-1140h168v-110h-474z" />
<glyph unicode="J" horiz-adv-x="850" d="M79 58l47 98q19 -12 45 -24t54.5 -21t56.5 -15t50 -6q54 0 94 16t67 51t40 90.5t13 134.5v978h133v-972q0 -118 -24.5 -196.5t-69 -125.5t-107.5 -66.5t-139 -19.5q-82 0 -148.5 24t-111.5 54z" />
<glyph unicode="K" horiz-adv-x="1119" d="M183 0v1360h133v-622h172l366 622h160l-403 -674h-1l468 -686h-166l-425 628h-171v-628h-133z" />
<glyph unicode="L" horiz-adv-x="925" d="M184 0v1360h134v-1250h560v-110h-694z" />
<glyph unicode="M" horiz-adv-x="1495" d="M184 0v1360h171l400 -706l399 706h170v-1360h-133v778l4 415l-387 -689h-106l-389 692l5 -406v-790h-134z" />
<glyph unicode="N" horiz-adv-x="1278" d="M184 0v1360h134l656 -1123v1123h134v-1360h-134l-656 1111v-1111h-134z" />
<glyph unicode="O" horiz-adv-x="1235" d="M115 680q0 161 36.5 290.5t102 220.5t157 140t201.5 49t203.5 -49t162 -140t107 -220.5t38.5 -290.5q0 -162 -38.5 -291.5t-107 -220.5t-162 -139.5t-203.5 -48.5t-201.5 48.5t-157 139.5t-102 220.5t-36.5 291.5zM249 680q0 -150 27 -261t75.5 -184t115 -109t145.5 -36 q81 0 150 36t119.5 109t79.5 184t29 261t-29 261t-79.5 184t-119.5 109t-150 36q-79 0 -145.5 -36t-115 -109t-75.5 -184t-27 -261z" />
<glyph unicode="P" horiz-adv-x="1060" d="M184 0v1360h347q105 0 186.5 -29t137.5 -83t85 -130t29 -170t-29 -170.5t-85 -131t-137.5 -84.5t-186.5 -30h-213v-532h-134zM318 642h193q75 0 135 18.5t102.5 56t65 95t22.5 136.5t-22.5 136.5t-65 94t-102.5 54t-135 17.5h-193v-608z" />
<glyph unicode="Q" horiz-adv-x="1200" d="M101 680q0 161 36.5 290.5t102 220.5t157 140t201.5 49t203.5 -49t162 -140t107 -220.5t38.5 -290.5q0 -186 -49.5 -327t-136.5 -232l244 -291h-153l-183 216q-52 -32 -110.5 -49t-122.5 -17q-110 0 -201.5 48.5t-157 139.5t-102 220.5t-36.5 291.5zM235 680 q0 -150 27 -261t75.5 -184t115 -109t145.5 -36q81 0 150 36t119.5 109t79.5 184t29 261t-29 261t-79.5 184t-119.5 109t-150 36q-79 0 -145.5 -36t-115 -109t-75.5 -184t-27 -261z" />
<glyph unicode="R" horiz-adv-x="1092" d="M184 0v1360h368q96 0 170 -24.5t124.5 -71.5t77 -115.5t26.5 -156.5q0 -54 -15.5 -104t-42 -93.5t-62 -78.5t-75.5 -60l250 -656h-138l-235 626h-314v-626h-134zM318 736h377q21 19 42.5 40.5t39 50t29 68.5t11.5 97q0 72 -20 121.5t-57.5 79.5t-90.5 43.5t-120 13.5 h-211v-514z" />
<glyph unicode="S" horiz-adv-x="964" d="M110 1010q0 84 26.5 152.5t76 116.5t120.5 74.5t160 26.5q55 0 104.5 -7.5t92 -18t76 -22.5t56.5 -22l-34 -108q-32 13 -63 25t-65.5 21.5t-75 15.5t-91.5 6q-125 0 -187 -68t-62 -182q0 -46 14 -86.5t44 -76.5t78.5 -66.5t117.5 -56.5q90 -33 158.5 -70.5t115 -83.5 t70 -103t23.5 -129q0 -83 -28 -151t-79.5 -116t-124.5 -74.5t-163 -26.5q-52 0 -104.5 5.5t-100 14.5t-87.5 21.5t-67 26.5l32 108q36 -14 72 -26t75.5 -21t84 -14t97.5 -5q58 0 106 16.5t82 48.5t53 79t19 108q0 55 -21 99t-59.5 79t-92.5 63t-119 51q-69 24 -129.5 58 t-105 80.5t-70 105.5t-25.5 132z" />
<glyph unicode="T" horiz-adv-x="1066" d="M81 1250v110h908v-110h-384v-1250h-133v1250h-391z" />
<glyph unicode="U" horiz-adv-x="1254" d="M184 398v962h134v-962q0 -74 22.5 -131t63.5 -96.5t98 -60t126 -20.5q70 0 128.5 20.5t101 60t66.5 96.5t24 131v962h134v-960q0 -101 -33 -179t-93 -131.5t-143.5 -81.5t-184.5 -28t-182.5 27.5t-140 81t-90 131t-31.5 178.5z" />
<glyph unicode="V" horiz-adv-x="1158" d="M77 1360h141l247 -772l115 -395l115 387l246 780h142l-437 -1360h-131z" />
<glyph unicode="W" horiz-adv-x="1617" d="M101 1360h142l209 -1158l290 1158h139l286 -1153l212 1153h141l-272 -1360h-148l-287 1085l-295 -1085h-144z" />
<glyph unicode="X" horiz-adv-x="1027" d="M70 0l353 689l-353 671h159l287 -566l286 566h158l-354 -671l354 -689h-160l-286 577l-283 -577h-161z" />
<glyph unicode="Y" horiz-adv-x="1024" d="M77 1360h144l292 -712l294 712h143l-369 -870v-490h-133v486z" />
<glyph unicode="Z" horiz-adv-x="1118" d="M136 0v102l650 1148h-644v110h818v-80l-676 -1170h741l-39 -110h-850z" />
<glyph unicode="[" horiz-adv-x="665" d="M251 -294v1818h275v-110h-142v-1598h142v-110h-275z" />
<glyph unicode="\" horiz-adv-x="721" d="M47 1360h134l491 -1500h-133z" />
<glyph unicode="]" horiz-adv-x="672" d="M143 -184h142v1598h-142v110h275v-1818h-275v110z" />
<glyph unicode="^" horiz-adv-x="805" d="M81 708l260 652h128l259 -652h-138l-185 486l-187 -486h-137z" />
<glyph unicode="_" horiz-adv-x="810" d="M3 -88h804v-110h-804v110z" />
<glyph unicode="`" horiz-adv-x="525" d="M92 1360l150 66l186 -280l-101 -34z" />
<glyph unicode="a" horiz-adv-x="978" d="M112 276q0 61 26 117t73.5 98.5t112.5 67.5t143 25h216v38q0 81 -13 136t-39.5 89t-66 48.5t-93.5 14.5q-35 0 -70.5 -5.5t-69 -15.5t-63.5 -22.5t-54 -26.5l-33 98q28 19 64 34t75.5 25.5t81 16.5t81.5 6q75 0 136.5 -18t105 -63t67.5 -122t24 -195v-622h-99l-20 111 q-17 -15 -46.5 -37.5t-70.5 -43.5t-92 -35.5t-111 -14.5q-68 0 -117.5 23.5t-82.5 64t-49 94.5t-16 114zM245 258q0 -40 12.5 -71t34.5 -52.5t52 -33t65 -11.5q54 0 100 16t81.5 37.5t59 42.5t33.5 32v266h-196q-72 0 -118.5 -21.5t-74 -54.5t-38.5 -73t-11 -77z" />
<glyph unicode="b" horiz-adv-x="1063" d="M180 0v1402h133v-476q47 42 108 68t150 26q83 0 150.5 -37t115 -104.5t73.5 -163t26 -213.5t-26 -214t-73.5 -164.5t-115 -106t-150.5 -37.5q-49 0 -88 7.5t-71.5 22t-61 36t-55.5 49.5l-21 -95h-94zM313 175q44 -34 98.5 -59.5t114.5 -25.5q142 0 210 106t68 306 q0 199 -68 303.5t-210 104.5q-61 0 -115.5 -22.5t-97.5 -57.5v-655z" />
<glyph unicode="c" horiz-adv-x="858" d="M124 502q0 118 28.5 213.5t82 163t131.5 104.5t177 37q81 0 140 -14t100 -40l-44 -98q-16 7 -33 14.5t-38.5 13.5t-48.5 10t-63 4q-67 0 -122 -23.5t-94.5 -73t-61 -127t-21.5 -184.5t21 -185t60 -128.5t93.5 -74.5t121.5 -24q75 0 128 16.5t92 37.5l44 -98 q-42 -32 -105 -49t-148 -17q-104 0 -185.5 37.5t-138 106t-86.5 164.5t-30 214z" />
<glyph unicode="d" horiz-adv-x="1049" d="M140 502q0 118 24 213.5t70 163t111.5 104.5t149.5 37q45 0 80.5 -5.5t66 -16.5t56.5 -27.5t51 -38.5v468h134v-1400h-127l-4 71q-25 -22 -50.5 -39t-55.5 -28.5t-67 -17.5t-84 -6q-84 0 -149.5 37.5t-111.5 106t-70 164.5t-24 214zM273 502q0 -200 62 -306t205 -106 q60 0 113.5 21.5t95.5 54.5v667q-42 33 -95.5 55t-113.5 22q-72 0 -122.5 -26.5t-82.5 -78t-47 -127.5t-15 -176z" />
<glyph unicode="e" horiz-adv-x="984" d="M122 492q0 125 26.5 223.5t77 166t123.5 103t165 35.5q75 0 139 -26t110 -76.5t72 -124t26 -167.5v-110h-605v-24q0 -95 18 -170t54 -126.5t90.5 -78.5t126.5 -27q47 0 85 6.5t69 16t55 20.5t43 21l37 -102q-53 -33 -127 -52.5t-159 -19.5q-104 0 -183.5 34.5t-133.5 100 t-81.5 160.5t-27.5 217zM263 626h464q0 76 -17 129.5t-46 88t-67 50.5t-79 16q-52 0 -94.5 -14t-75 -47t-54.5 -87.5t-31 -135.5z" />
<glyph unicode="f" horiz-adv-x="667" d="M64 890l22 110h131v74q0 92 19.5 157.5t55.5 107.5t88.5 61.5t118.5 19.5q45 0 91 -9t78 -21l-4 -102q-26 8 -68.5 15t-82.5 7q-44 0 -74.5 -12.5t-50.5 -40.5t-29 -73t-9 -110v-74h246v-110h-246v-890h-133v890h-153z" />
<glyph unicode="g" horiz-adv-x="1050" d="M95 -200q0 80 34 139t115 104q-19 26 -35.5 62t-16.5 84q0 63 23 105.5t62 76.5q-63 47 -96.5 119.5t-33.5 169.5q0 89 26.5 156.5t74.5 112.5t116.5 68t152.5 23q76 0 142 -20h320l-17 -110h-138q33 -44 51 -101t18 -129q0 -84 -27.5 -151t-77.5 -113.5t-119 -71 t-152 -24.5q-86 0 -156 26q-20 -24 -31 -53.5t-11 -67.5q0 -9 2.5 -22.5t7 -27t10.5 -26t13 -19.5h273q76 0 136 -19t101 -55t62.5 -87t21.5 -115q-2 -68 -33.5 -124.5t-88.5 -98t-137 -64.5t-178 -23q-73 0 -146.5 12t-133 43t-97 84.5t-37.5 136.5zM229 -198 q0 -32 14.5 -57.5t38.5 -44t54 -31.5t62 -20.5t62 -11t53 -3.5q65 0 120 14.5t95 39.5t62.5 59.5t22.5 75.5q0 37 -10 69.5t-34.5 56.5t-67 37.5t-107.5 13.5h-250q-28 -22 -49.5 -42.5t-36 -43.5t-22 -50.5t-7.5 -61.5zM280 660q0 -56 14.5 -102t44 -79t74 -51t104.5 -18 q58 0 103 18t76 51t47.5 79t16.5 102q0 63 -19 110t-52 78t-77.5 46.5t-94.5 15.5q-51 0 -94.5 -15.5t-75 -46.5t-49.5 -78t-18 -110z" />
<glyph unicode="h" d="M180 0v1400h133v-509q129 129 298 129q145 0 213 -87t68 -271v-662h-133v662q0 70 -11 117.5t-33 76.5t-55.5 41.5t-77.5 12.5q-79 0 -146.5 -33.5t-122.5 -86.5v-790h-133z" />
<glyph unicode="i" horiz-adv-x="517" d="M180 1244v158h161v-158h-161zM196 0v1000h134v-1000h-134z" />
<glyph unicode="j" horiz-adv-x="538" d="M-60 -397l13 105q13 -4 30.5 -7t36.5 -5.5t38 -4t36 -1.5q36 0 63.5 13t46 43t28 79.5t9.5 122.5v1052h133v-1052q0 -110 -19 -181.5t-55 -113t-88 -57.5t-118 -16q-41 0 -82 6t-72 17zM221 1244v158h163v-158h-163z" />
<glyph unicode="k" horiz-adv-x="954" d="M180 0v1400h133v-822h102l293 422h154l-336 -474h-1l396 -526h-163l-346 468h-99v-468h-133z" />
<glyph unicode="l" horiz-adv-x="518" d="M198 0v1400h134v-1400h-134z" />
<glyph unicode="m" horiz-adv-x="1610" d="M180 0v1000h120l8 -90q65 57 141 83.5t163 26.5q86 0 149.5 -24.5t97.5 -89.5q60 53 137 83.5t165 30.5q64 0 116 -17t89 -59t57 -114t20 -182v-648h-134v648q0 73 -11 123.5t-32.5 81t-54.5 44t-76 13.5q-74 0 -135 -28.5t-112 -74.5q2 -17 3.5 -35t1.5 -38v-734h-133 v746q0 90 -44 127t-133 37q-78 0 -146 -34.5t-124 -88.5v-787h-133z" />
<glyph unicode="n" d="M180 0v1000h120l10 -112q129 132 301 132q145 0 213 -87t68 -271v-662h-133v662q0 70 -11 117.5t-33 76.5t-55.5 41.5t-77.5 12.5q-79 0 -146.5 -33.5t-122.5 -86.5v-790h-133z" />
<glyph unicode="o" horiz-adv-x="1045" d="M123 500q0 121 28 217t79.5 163.5t126 103.5t167.5 36q92 0 168.5 -36t131 -103.5t85 -163.5t30.5 -217q0 -122 -30.5 -218t-85 -163.5t-131 -103t-168.5 -35.5q-93 0 -167.5 35.5t-126 103t-79.5 163.5t-28 218zM256 500q0 -106 19 -183t54.5 -127.5t85 -75t109.5 -24.5 q61 0 113 24.5t89.5 75t58.5 127.5t21 183t-21 183.5t-58.5 128t-89.5 74.5t-113 24q-60 0 -109.5 -24t-85 -74.5t-54.5 -128t-19 -183.5z" />
<glyph unicode="p" horiz-adv-x="1059" d="M180 -400v1400h116l9 -79q26 24 52.5 42t57.5 31t69 19.5t87 6.5q83 0 151 -36.5t116 -104t74.5 -162.5t26.5 -213t-26.5 -214.5t-74.5 -165.5t-116 -106.5t-151 -37.5q-87 0 -147 22.5t-111 68.5v-471h-133zM313 169q43 -34 97.5 -56.5t115.5 -22.5q142 0 210.5 107 t68.5 307q0 198 -68.5 302t-210.5 104q-61 0 -115.5 -22.5t-97.5 -57.5v-661z" />
<glyph unicode="q" horiz-adv-x="1049" d="M140 504q0 118 24 213t70 162.5t111.5 104t149.5 36.5q47 0 85 -6.5t69.5 -19t58.5 -31t54 -43.5l17 80h104v-1400h-134v467q-24 -23 -49.5 -39t-55.5 -27t-66.5 -16t-82.5 -5q-84 0 -149.5 37.5t-111.5 106.5t-70 165.5t-24 214.5zM273 504q0 -100 15 -177t47 -129.5 t82.5 -80t122.5 -27.5q60 0 113.5 21.5t95.5 54.5v667q-42 33 -95.5 55t-113.5 22q-72 0 -122.5 -26.5t-82.5 -77.5t-47 -127t-15 -175z" />
<glyph unicode="r" horiz-adv-x="671" d="M180 0v1000h120l9 -131q53 83 113.5 117t126.5 34q18 0 37 -1t38 -3l-15 -134q-23 5 -46 6.5t-52 1.5q-56 0 -106.5 -38t-91.5 -99v-753h-133z" />
<glyph unicode="s" horiz-adv-x="858" d="M109 54l32 112q35 -16 66.5 -29.5t65 -24t73.5 -16.5t91 -6q45 0 79 12.5t57 35t35 52t12 64.5q0 40 -13.5 70t-40 53.5t-66.5 42t-94 36.5q-61 19 -112.5 48t-89 65.5t-59 80t-21.5 90.5q0 134 84 207t236 73q96 0 167 -20.5t113 -41.5l-29 -108q-29 11 -55 22t-55 19.5 t-64 13.5t-80 5q-94 0 -139 -41.5t-45 -112.5q0 -27 8.5 -54.5t29.5 -53t56.5 -47.5t89.5 -39q163 -50 237.5 -126.5t74.5 -169.5q0 -59 -22.5 -111t-64 -91t-101 -61.5t-134.5 -22.5q-47 0 -92.5 5.5t-87.5 15.5t-78.5 23.5t-63.5 29.5z" />
<glyph unicode="t" horiz-adv-x="714" d="M59 890l23 110h135v260l133 20v-280h263v-110h-263v-604q0 -56 7.5 -93.5t23.5 -60t40.5 -32.5t59.5 -10q43 0 87.5 7t72.5 13l7 -104q-32 -11 -79.5 -18.5t-92.5 -7.5q-62 0 -110.5 12.5t-81.5 46t-50 93t-17 154.5v604h-158z" />
<glyph unicode="u" d="M180 338v662h133v-662q0 -69 9.5 -116.5t30 -76.5t52.5 -42t76 -13q76 0 146.5 33.5t131.5 87.5v789h133v-1000h-127l-4 114q-66 -64 -143.5 -99t-163.5 -35q-65 0 -116 16.5t-86 57t-53.5 109.5t-18.5 175z" />
<glyph unicode="v" horiz-adv-x="889" d="M53 1000h144l179 -594l71 -250l82 252l178 592h134l-337 -1000h-115z" />
<glyph unicode="w" horiz-adv-x="1337" d="M72 1000h142l161 -799l255 799h84l251 -797l164 797h143l-246 -1000h-110l-244 756l-248 -756h-108z" />
<glyph unicode="x" horiz-adv-x="927" d="M88 0l314 504l-314 496h150l228 -380l226 380h148l-312 -498l314 -502h-146l-230 387l-231 -387h-147z" />
<glyph unicode="y" horiz-adv-x="917" d="M73 1000h137l245 -858l256 858h137l-330 -1050h1q-29 -106 -58 -175.5t-63 -110.5t-77 -57.5t-101 -16.5q-25 0 -50 4t-44 12l14 106q4 0 14 -2t21 -4t21.5 -4t17.5 -2q32 0 55 10t42.5 37t39 76t44.5 127z" />
<glyph unicode="z" horiz-adv-x="989" d="M163 116l529 774h-522v110h684v-102l-550 -788h587l-27 -110h-700z" />
<glyph unicode="{" horiz-adv-x="648" d="M88 542v102q36 0 68 10.5t56 38.5t37.5 76t13.5 123v220q0 109 13 190t43 135t79.5 80.5t122.5 26.5l14 -76q-75 0 -107 -86.5t-32 -269.5v-220q0 -70 -12 -121t-35.5 -87t-58 -58t-78.5 -33q44 -11 78.5 -33t58 -58t35.5 -87t12 -121v-272q0 -182 32 -269t107 -87 l-14 -76q-73 0 -122.5 26.5t-79.5 80.5t-43 135t-13 190v272q0 75 -13.5 123t-37.5 76t-56 38.5t-68 10.5z" />
<glyph unicode="|" horiz-adv-x="374" d="M125 -300v1824h133v-1824h-133z" />
<glyph unicode="}" horiz-adv-x="648" d="M115 -334q75 0 112 87t37 269v220q0 70 11 121t33 87t55 58t76 33q-43 11 -76 33t-55 58t-33 87t-11 121v272q0 184 -37 270t-112 86l15 76q144 0 206 -107.5t62 -324.5v-272q0 -75 12 -123t33.5 -76t52 -38.5t67.5 -10.5v-102q-37 0 -67.5 -10.5t-52 -38.5t-33.5 -76 t-12 -123v-220q0 -218 -62 -325t-206 -107z" />
<glyph unicode="~" horiz-adv-x="1239" d="M103 410q13 79 45 132.5t72 85t83.5 45t81.5 13.5q46 0 82.5 -9.5t68 -26t61.5 -39.5t64 -51q50 -41 97 -63.5t89 -22.5q21 0 45 7t47 28t43 58.5t33 98.5l109 -28q-14 -79 -45 -131.5t-70.5 -84t-82 -45t-79.5 -13.5q-47 0 -84 9t-69.5 25.5t-62.5 39t-63 50.5 q-49 42 -94 65t-93 23q-21 0 -44.5 -7.5t-46 -28.5t-43 -59t-33.5 -99z" />
<glyph unicode="&#xa1;" horiz-adv-x="515" d="M334.012 1000v-125.992h-148.991v125.992h148.991zM327.012 616.023v-975.94h-133.992v975.94h133.992z" />
<glyph unicode="&#xa2;" horiz-adv-x="1045" d="M128 502q0 108 24 197t69.5 155.5t111.5 108t150 52.5v177h119v-174q60 -5 105.5 -18t79.5 -34l-44 -98q-16 7 -33 14.5t-38.5 13.5t-48.5 10t-63 4q-67 0 -122 -23.5t-94.5 -73t-61 -127t-21.5 -184.5t21 -185t60 -128.5t93.5 -74.5t121.5 -24q75 0 128 16.5t92 37.5 l44 -98q-38 -29 -92.5 -45.5t-126.5 -19.5v-215h-119v221q-84 15 -150 57.5t-111.5 109t-69.5 155t-24 193.5z" />
<glyph unicode="&#xa3;" horiz-adv-x="1032" d="M61 620l25 110h154v264q0 105 22.5 178.5t67 119.5t111 67t155.5 21q27 0 56 -2.5t56.5 -6.5t53 -9.5t46.5 -11.5l-4 -102q-17 4 -40.5 8t-50 7t-54.5 5t-53 2q-62 0 -106 -14.5t-72.5 -47t-41.5 -85.5t-13 -129v-264h336v-110h-336v-242q0 -95 -26.5 -157.5 t-77.5 -110.5h580v-110h-787v110h5l-3 2q45 0 78.5 26t55 66.5t32 90.5t10.5 99v226h-179z" />
<glyph unicode="&#xa4;" horiz-adv-x="1270" d="M79 20l155 161q-54 71 -84 162.5t-30 198.5q0 106 28.5 196t82.5 161l-152 157l85 80l148 -153q59 48 131 73.5t155 25.5t155 -25.5t131 -73.5l148 153l86 -80l-152 -158q54 -70 83 -160t29 -196q0 -107 -30.5 -198.5t-84.5 -162.5l155 -161l-86 -80l-152 157 q-59 -46 -130 -70.5t-152 -24.5t-152 25t-130 70l-152 -157zM237 542q0 -102 28.5 -182t77.5 -135t115 -84t140 -29t140 29t115.5 84t78.5 135t29 182t-29 182t-78.5 135t-115.5 84t-140 29t-140 -29t-115 -84t-77.5 -135t-28.5 -182z" />
<glyph unicode="&#xa5;" horiz-adv-x="1040" d="M106 1360h144l292 -712l294 712h143l-322 -760h254v-110h-301v-158h301v-110h-301v-222h-133v222h-291v110h291v154l-2 4h-289v110h243z" />
<glyph unicode="&#xa6;" horiz-adv-x="352" d="M104 -300v828h125v-828h-125zM104 756v768h125v-768h-125z" />
<glyph unicode="&#xa7;" horiz-adv-x="1027" d="M90 552q0 93 34.5 159.5t97.5 111.5q-37 44 -57 96t-20 115q0 84 26 149t75 110t120.5 68t161.5 23q54 0 103 -7.5t91 -18t75.5 -22.5t54.5 -22l-32 -108q-30 13 -61 25t-65.5 21.5t-75.5 15.5t-91 6q-249 0 -249 -230q0 -46 16 -87.5t51 -78.5t91.5 -69t137.5 -57 q183 -63 276 -164t93 -246q0 -85 -31.5 -150t-86.5 -111q32 -41 48.5 -87.5t16.5 -103.5q0 -83 -26 -148t-73 -109.5t-114.5 -67.5t-149.5 -23q-53 0 -103.5 5.5t-96.5 14.5t-84.5 21.5t-65.5 26.5l25 108q36 -14 71.5 -26t74.5 -21t83 -14t97 -5q50 0 92 13.5t72.5 42 t47.5 72t17 104.5q0 55 -25 99t-69.5 79t-106.5 63t-136 51q-75 21 -135.5 57.5t-104 85.5t-67 108t-23.5 125zM221 562q0 -41 14.5 -82t46 -79t81 -70.5t118.5 -54.5q78 -25 142 -53.5t114 -62.5q35 30 55.5 73.5t20.5 102.5q0 55 -21 103t-60.5 87.5t-96 71t-127.5 54.5 q-56 17 -105.5 39.5t-91.5 51.5q-43 -29 -66.5 -72t-23.5 -109z" />
<glyph unicode="&#xa8;" horiz-adv-x="828" d="M124 1226v170h174v-170h-174zM538 1226v170h176v-170h-176z" />
<glyph unicode="&#xa9;" horiz-adv-x="1546" d="M158 680q0 161 47 290.5t129.5 220.5t195 140t244.5 49q131 0 243.5 -49t195 -140t129.5 -220.5t47 -290.5t-47 -290.5t-129.5 -220.5t-195 -140t-243.5 -49q-132 0 -244.5 49t-195 140t-129.5 220.5t-47 290.5zM263 680q0 -154 40 -267.5t109 -188.5t162 -111.5 t200 -36.5q106 0 199 36.5t162.5 111.5t109.5 188.5t40 267.5t-40 267.5t-109.5 188.5t-162.5 111.5t-199 36.5q-107 0 -200 -36.5t-162 -111.5t-109 -188.5t-40 -267.5zM451 670q0 91 21.5 164.5t62.5 125.5t101 80t137 28q76 0 128 -17.5t89 -44.5l-29 -98q-15 10 -31 19 t-37 16t-48.5 11t-65.5 4q-95 0 -151 -68.5t-56 -219.5q0 -76 15 -131t42 -91t65.5 -53t85.5 -17q39 0 70 4.5t56.5 12t46.5 17t41 20.5l31 -90q-38 -30 -93.5 -52t-133.5 -22q-83 0 -147.5 29t-109 81.5t-67.5 126.5t-23 165z" />
<glyph unicode="&#xaa;" horiz-adv-x="753" d="M78 868q0 43 20 82t57 67.5t89 45.5t117 17h131v20q0 49 -8.5 82t-24.5 52.5t-40.5 27.5t-55.5 8q-54 0 -112 -13t-101 -33l-29 94q24 14 54 25.5t63 19.5t67.5 12.5t67.5 4.5q54 0 99 -13t77.5 -44.5t50 -86t17.5 -136.5v-432h-102l-14 80q-17 -16 -38.5 -33 t-47.5 -30.5t-55 -22t-61 -8.5q-58 0 -99.5 17t-68.5 46.5t-40 68t-13 82.5zM203 856q0 -47 34.5 -69.5t85.5 -22.5q23 0 46.5 7t45.5 18t41.5 24.5t35.5 26.5v142h-117q-54 0 -88 -14t-52.5 -34t-25 -41.5t-6.5 -36.5z" />
<glyph unicode="&#xab;" horiz-adv-x="943" d="M98 434v84l298 400l75 -70l-245 -372l245 -364l-75 -70zM484 434v84l298 400l75 -70l-245 -372l245 -364l-75 -70z" />
<glyph unicode="&#xac;" horiz-adv-x="1067" d="M101 610v110h857v-350h-128v240h-729z" />
<glyph unicode="&#xad;" horiz-adv-x="1024" d="M85 610v110h859v-110h-859z" />
<glyph unicode="&#xae;" horiz-adv-x="1548" d="M170 680q0 161 46 290.5t127 220.5t191.5 140t239.5 49t240 -49t192 -140t127 -220.5t46 -290.5t-46 -290.5t-127 -220.5t-192 -140t-240 -49t-239.5 49t-191.5 140t-127 220.5t-46 290.5zM275 680q0 -154 39 -267.5t106.5 -188.5t158.5 -111.5t195 -36.5 q103 0 194.5 36.5t159.5 111.5t107.5 188.5t39.5 267.5t-39.5 267.5t-107.5 188.5t-159.5 111.5t-194.5 36.5q-104 0 -195 -36.5t-158.5 -111.5t-106.5 -188.5t-39 -267.5zM537 332v722h254q52 0 97 -13.5t78 -41.5t52 -71.5t19 -103.5q0 -34 -10.5 -62.5t-29 -52 t-43.5 -41.5t-53 -30l149 -306h-113l-136 284h-154v-284h-110zM647 714h179q16 3 34 10t33 19.5t25 32t10 48.5q0 72 -39.5 102t-112.5 30h-129v-242z" />
<glyph unicode="&#xaf;" horiz-adv-x="879" d="M111 1294v108h661v-108h-661z" />
<glyph unicode="&#xb0;" horiz-adv-x="631" d="M101 1150q0 46 17 87.5t46 72t68.5 48.5t83.5 18q45 0 85 -18t70 -48.5t47 -72t17 -87.5q0 -47 -17 -88t-47 -72.5t-70 -49.5t-85 -18q-44 0 -83.5 18t-68.5 49.5t-46 72.5t-17 88zM202 1150q0 -24 9.5 -45.5t25.5 -37.5t36.5 -25.5t42.5 -9.5q24 0 45 9.5t36.5 25.5 t24.5 37.5t9 45.5q0 25 -9 46t-24.5 36.5t-36.5 24.5t-45 9q-22 0 -42.5 -9t-36.5 -24.5t-25.5 -36.5t-9.5 -46z" />
<glyph unicode="&#xb1;" horiz-adv-x="912" d="M91 0v110h743v-110h-743zM104 524v110h285v316h124v-316h289v-110h-289v-318h-124v318h-285z" />
<glyph unicode="&#xb2;" horiz-adv-x="661" d="M106 668v34q0 67 12 117t37.5 89t66.5 70t100 60q37 16 60.5 32.5t37 34.5t18.5 37t5 40q0 50 -31 78t-91 28q-52 0 -93 -19.5t-84 -46.5l-33 80q17 12 39 25.5t49 25.5t58 19.5t66 7.5q106 0 164.5 -52.5t58.5 -149.5q0 -41 -15.5 -74t-41 -60t-59 -49t-69.5 -39 q-32 -20 -58.5 -39.5t-45.5 -42.5t-31 -51t-16 -63h351v-92h-455z" />
<glyph unicode="&#xb3;" horiz-adv-x="622" d="M60 702l27 74q45 -18 87 -30t93 -12q77 0 122.5 29t45.5 91q0 65 -42.5 94.5t-116.5 29.5h-129v86h129q66 0 103 27.5t37 86.5q0 62 -40.5 88t-109.5 26q-49 0 -89 -12t-83 -32l-27 74q20 15 47.5 26t56.5 18t56 10.5t47 3.5q122 0 183.5 -54.5t61.5 -149.5 q0 -113 -101 -155q119 -43 119 -165q0 -93 -66.5 -150.5t-197.5 -57.5q-56 0 -111.5 12.5t-101.5 41.5z" />
<glyph unicode="&#xb4;" horiz-adv-x="525" d="M128 1152l187 274l151 -66l-235 -248z" />
<glyph unicode="&#xb5;" horiz-adv-x="1059" d="M182 -400v1400h133v-714q1 -54 13 -91.5t37 -61t62.5 -33.5t89.5 -10q68 0 128 32.5t115 83.5v794h134v-1000h-128l-5 116q-57 -62 -124 -99t-142 -37q-56 0 -101 11.5t-79 38.5v-430h-133z" />
<glyph unicode="&#x3bc;" horiz-adv-x="1059" d="M182 -400v1400h133v-714q1 -54 13 -91.5t37 -61t62.5 -33.5t89.5 -10q68 0 128 32.5t115 83.5v794h134v-1000h-128l-5 116q-57 -62 -124 -99t-142 -37q-56 0 -101 11.5t-79 38.5v-430h-133z" />
<glyph unicode="&#xb6;" horiz-adv-x="920" d="M104 942q0 95 30.5 172.5t89 132t143 84t193.5 29.5h193v-1360h-133v520h-60q-109 0 -193.5 30t-143 85.5t-89 133.5t-30.5 173z" />
<glyph unicode="&#xb7;" horiz-adv-x="400" d="M131 0v156h167v-156h-167z" />
<glyph unicode="&#xb8;" horiz-adv-x="538" d="M155 -274q51 1 87 13.5t58.5 33.5t33 49t10.5 60q0 34 -10.5 70.5t-28.5 71.5l131 -12q29 -64 29 -129q0 -50 -18 -96t-54 -80t-90 -52.5t-126 -14.5z" />
<glyph unicode="&#xb9;" horiz-adv-x="442" d="M73 1228v90l161 62h53v-626h103v-86h-311v86h107v510z" />
<glyph unicode="&#xba;" horiz-adv-x="773" d="M103 1018q0 84 20 151t57 114t90 72t118 25q66 0 120.5 -25t93.5 -72t60.5 -114t21.5 -151t-21.5 -151t-60.5 -114t-93.5 -72t-120.5 -25q-65 0 -118 25t-90 72t-57 114t-20 151zM228 1018q0 -66 12 -113.5t33 -78.5t50.5 -45.5t64.5 -14.5q37 0 69 14.5t54.5 45.5 t35.5 78.5t13 113.5q0 67 -13 114.5t-35.5 78t-54.5 45t-69 14.5q-35 0 -64.5 -14.5t-50.5 -45t-33 -78t-12 -114.5z" />
<glyph unicode="&#xbb;" horiz-adv-x="944" d="M92 112l245 371l-245 365l77 70l296 -392v-84l-296 -400zM479 112l245 371l-245 365l77 70l296 -392v-84l-296 -400z" />
<glyph unicode="&#xbc;" horiz-adv-x="1242" d="M105 1228v90l161 62h53v-626h103v-86h-311v86h107v510zM174 0l801 1360h105l-797 -1360h-109zM636 157v66l354 490h107v-468h90v-88h-90v-156h-102v156h-359zM756 245h239v333z" />
<glyph unicode="&#xbd;" horiz-adv-x="1353" d="M771 -1v34q0 67 12 117t37.5 89t66.5 70t100 60q37 16 60.5 32.5t37 34.5t18.5 37t5 40q0 50 -31 78t-91 28q-52 0 -93 -19.5t-84 -46.5l-33 80q17 12 39 25.5t49 25.5t58 19.5t66 7.5q106 0 164.5 -52.5t58.5 -149.5q0 -41 -15.5 -74t-41 -60t-59 -49t-69.5 -39 q-32 -20 -58.5 -39.5t-45.5 -42.5t-31 -51t-16 -63h351v-92h-455zM105 1228v90l161 62h53v-626h103v-86h-311v86h107v510zM178 0l801 1360h105l-797 -1360h-109z" />
<glyph unicode="&#xbe;" horiz-adv-x="1252" d="M60 702l27 74q45 -18 87 -30t93 -12q77 0 122.5 29t45.5 91q0 65 -42.5 94.5t-116.5 29.5h-129v86h129q66 0 103 27.5t37 86.5q0 62 -40.5 88t-109.5 26q-49 0 -89 -12t-83 -32l-27 74q20 15 47.5 26t56.5 18t56 10.5t47 3.5q122 0 183.5 -54.5t61.5 -149.5 q0 -113 -101 -155q119 -43 119 -165q0 -93 -66.5 -150.5t-197.5 -57.5q-56 0 -111.5 12.5t-101.5 41.5zM214 0l801 1360h105l-797 -1360h-109zM650 157v66l354 490h107v-468h90v-88h-90v-156h-102v156h-359zM770 245h239v333z" />
<glyph unicode="&#xbf;" horiz-adv-x="939" d="M877.005 -237.925q-25.998 -21.998 -62.4961 -45.9971q-36.4971 -23.998 -81.4951 -43.9971q-44.9971 -19.999 -96.9941 -32.998q-51.9961 -12.999 -108.993 -12.999q-82.9951 0 -148.99 22.998q-65.9961 22.999 -111.493 64.9961q-45.498 41.998 -69.9961 102.494 t-24.498 135.492q0 69.9951 24.998 127.492q24.998 57.4961 63.4961 105.493t83.4951 88.9941q44.9971 40.998 83.9951 77.9951q21.998 21.999 35.9971 48.4971q13.999 26.499 21.499 61.4971q7.49902 34.9971 10.499 79.4951q3 44.4971 3 102.493h127.992 q0 -76.9951 -7.99902 -136.491q-8 -59.4971 -24.999 -107.493q-16.999 -47.998 -44.4971 -86.9951q-27.498 -38.998 -66.4961 -76.9951q-39.9971 -36.998 -72.9951 -68.9961t-56.4971 -63.9961q-23.498 -31.998 -35.998 -66.9961q-12.499 -34.998 -12.499 -77.9951 q0 -47.9971 13.999 -88.4941q13.999 -40.498 42.498 -70.4961q28.498 -29.998 72.9951 -46.4971t104.494 -16.499q45.9971 0 85.4941 9.99902q39.498 10 74.4961 26.499q34.9971 16.499 67.4951 37.9971q32.498 21.499 64.4961 45.498zM640.02 1000v-157.99h-147.99v157.99 h147.99z" />
<glyph unicode="&#xc0;" horiz-adv-x="1177" d="M85 0l434 1360h141l439 -1360h-137l-132 422h-477l-132 -422h-136zM387 532h408l-204 652zM298 1720l150 66l186 -280l-101 -34z" />
<glyph unicode="&#xc1;" horiz-adv-x="1177" d="M85 0l434 1360h141l439 -1360h-137l-132 422h-477l-132 -422h-136zM387 532h408l-204 652zM501 1514l187 274l151 -66l-235 -248z" />
<glyph unicode="&#xc2;" horiz-adv-x="1177" d="M85 0l434 1360h141l439 -1360h-137l-132 422h-477l-132 -422h-136zM387 532h408l-204 652zM285 1472l260 232h94l258 -232h-166l-139 117l-140 -117h-167z" />
<glyph unicode="&#xc3;" horiz-adv-x="1177" d="M85 0l434 1360h141l439 -1360h-137l-132 422h-477l-132 -422h-136zM387 532h408l-204 652zM259 1548q11 35 30.5 63t42.5 48t47.5 33t47.5 18q15 3 29 3q47 0 85.5 -23.5t73.5 -51.5q25 -24 48.5 -32t40.5 -10q28 0 58.5 24.5t45.5 71.5l85 -66q-12 -36 -31.5 -64 t-42 -48t-47 -32t-46.5 -16q-9 -2 -18.5 -3t-17.5 -1q-46 0 -83 23t-71 51q-27 23 -50 33.5t-40 10.5q-14 -1 -26 -4.5t-24 -13.5t-24.5 -28t-27.5 -46z" />
<glyph unicode="&#xc4;" horiz-adv-x="1177" d="M85 0l434 1360h141l439 -1360h-137l-132 422h-477l-132 -422h-136zM387 532h408l-204 652zM298 1472v170h174v-170h-174zM712 1472v170h176v-170h-176z" />
<glyph unicode="&#xc5;" horiz-adv-x="1177" d="M85 0l434 1360h141l439 -1360h-137l-132 422h-477l-132 -422h-136zM387 532h408l-204 652zM389 1666q0 40 15 75t40.5 61.5t59.5 42t72 15.5t71.5 -15.5t59 -42t40.5 -61.5t15 -75q0 -41 -15 -75t-40.5 -59.5t-59 -39.5t-71.5 -14t-72 14t-59.5 39.5t-40.5 59.5t-15 75z M501 1666q0 -32 23 -55t52 -23q32 0 52 23t20 55q0 33 -20 58.5t-52 25.5q-14 0 -27.5 -7t-24 -18.5t-17 -27t-6.5 -31.5z" />
<glyph unicode="&#xc6;" horiz-adv-x="1690" d="M116 2l262 470v8h4l491 880h714v-110h-536v-492h479v-110h-479v-538h536v-110h-670v370h-438l-204 -370zM540 480h377v681z" />
<glyph unicode="&#xc7;" horiz-adv-x="1023" d="M119 682q0 158 37 287t106 220.5t167.5 141t221.5 49.5q89 0 151.5 -22t106.5 -49l-42 -95q-45 26 -101 41t-119 15q-87 0 -160 -34t-125 -105.5t-81 -183t-29 -265.5q0 -155 31 -266.5t87 -184t133 -107t170 -34.5q39 0 72.5 6.5t62.5 16t53 20.5t43 21l34 -92 q-45 -35 -114 -58.5t-166 -23.5q-124 0 -223.5 50.5t-169.5 142.5t-108 221.5t-38 287.5zM446 -274q51 1 87 13.5t58.5 33.5t33 49t10.5 60q0 34 -10.5 70.5t-28.5 71.5l131 -12q29 -64 29 -129q0 -50 -18 -96t-54 -80t-90 -52.5t-126 -14.5z" />
<glyph unicode="&#xc8;" horiz-adv-x="949" d="M184 0v1360h670v-110h-536v-492h479v-110h-479v-538h536v-110h-670zM226 1718l150 66l186 -280l-101 -34z" />
<glyph unicode="&#xc9;" horiz-adv-x="949" d="M184 0v1360h670v-110h-536v-492h479v-110h-479v-538h536v-110h-670zM429 1512l187 274l151 -66l-235 -248z" />
<glyph unicode="&#xca;" horiz-adv-x="949" d="M184 0v1360h670v-110h-536v-492h479v-110h-479v-538h536v-110h-670zM213 1470l260 232h94l258 -232h-166l-139 117l-140 -117h-167z" />
<glyph unicode="&#xcb;" horiz-adv-x="949" d="M184 0v1360h670v-110h-536v-492h479v-110h-479v-538h536v-110h-670zM226 1470v170h174v-170h-174zM640 1470v170h176v-170h-176z" />
<glyph unicode="&#xcc;" horiz-adv-x="742" d="M136 0v110h173v1140h-173v110h474v-110h-168v-1140h168v-110h-474zM92 1718l150 66l186 -280l-101 -34z" />
<glyph unicode="&#xcd;" horiz-adv-x="742" d="M136 0v110h173v1140h-173v110h474v-110h-168v-1140h168v-110h-474zM295 1512l187 274l151 -66l-235 -248z" />
<glyph unicode="&#xce;" horiz-adv-x="742" d="M136 0v110h173v1140h-173v110h474v-110h-168v-1140h168v-110h-474zM80 1470l260 232h94l258 -232h-166l-139 117l-140 -117h-167z" />
<glyph unicode="&#xcf;" horiz-adv-x="742" d="M136 0v110h173v1140h-173v110h474v-110h-168v-1140h168v-110h-474zM93 1470v170h174v-170h-174zM507 1470v170h176v-170h-176z" />
<glyph unicode="&#xd0;" horiz-adv-x="1245" d="M104 666v110h129v584h348q129 0 233 -48.5t177.5 -137t113.5 -213.5t40 -279t-40 -279.5t-113.5 -215t-177.5 -138.5t-233 -49h-348v666h-129zM367 110h196q98 0 180.5 33.5t142 103.5t93 178t33.5 257t-33.5 256.5t-93 176.5t-142 102t-180.5 33h-196v-474h256v-110 h-256v-556z" />
<glyph unicode="&#xd1;" horiz-adv-x="1278" d="M184 0v1360h134l656 -1123v1123h134v-1360h-134l-656 1111v-1111h-134zM298 1546q11 35 30.5 63t42.5 48t47.5 33t47.5 18q15 3 29 3q47 0 85.5 -23.5t73.5 -51.5q25 -24 48.5 -32t40.5 -10q28 0 58.5 24.5t45.5 71.5l85 -66q-12 -36 -31.5 -64t-42 -48t-47 -32 t-46.5 -16q-9 -2 -18.5 -3t-17.5 -1q-46 0 -83 23t-71 51q-27 23 -50 33.5t-40 10.5q-14 -1 -26 -4.5t-24 -13.5t-24.5 -28t-27.5 -46z" />
<glyph unicode="&#xd2;" horiz-adv-x="1235" d="M115 680q0 161 36.5 290.5t102 220.5t157 140t201.5 49t203.5 -49t162 -140t107 -220.5t38.5 -290.5q0 -162 -38.5 -291.5t-107 -220.5t-162 -139.5t-203.5 -48.5t-201.5 48.5t-157 139.5t-102 220.5t-36.5 291.5zM249 680q0 -150 27 -261t75.5 -184t115 -109t145.5 -36 q81 0 150 36t119.5 109t79.5 184t29 261t-29 261t-79.5 184t-119.5 109t-150 36q-79 0 -145.5 -36t-115 -109t-75.5 -184t-27 -261zM325 1736l150 66l186 -280l-101 -34z" />
<glyph unicode="&#xd3;" horiz-adv-x="1235" d="M115 680q0 161 36.5 290.5t102 220.5t157 140t201.5 49t203.5 -49t162 -140t107 -220.5t38.5 -290.5q0 -162 -38.5 -291.5t-107 -220.5t-162 -139.5t-203.5 -48.5t-201.5 48.5t-157 139.5t-102 220.5t-36.5 291.5zM249 680q0 -150 27 -261t75.5 -184t115 -109t145.5 -36 q81 0 150 36t119.5 109t79.5 184t29 261t-29 261t-79.5 184t-119.5 109t-150 36q-79 0 -145.5 -36t-115 -109t-75.5 -184t-27 -261zM528 1530l187 274l151 -66l-235 -248z" />
<glyph unicode="&#xd4;" horiz-adv-x="1235" d="M115 680q0 161 36.5 290.5t102 220.5t157 140t201.5 49t203.5 -49t162 -140t107 -220.5t38.5 -290.5q0 -162 -38.5 -291.5t-107 -220.5t-162 -139.5t-203.5 -48.5t-201.5 48.5t-157 139.5t-102 220.5t-36.5 291.5zM249 680q0 -150 27 -261t75.5 -184t115 -109t145.5 -36 q81 0 150 36t119.5 109t79.5 184t29 261t-29 261t-79.5 184t-119.5 109t-150 36q-79 0 -145.5 -36t-115 -109t-75.5 -184t-27 -261zM312 1488l260 232h94l258 -232h-166l-139 117l-140 -117h-167z" />
<glyph unicode="&#xd5;" horiz-adv-x="1235" d="M115 680q0 161 36.5 290.5t102 220.5t157 140t201.5 49t203.5 -49t162 -140t107 -220.5t38.5 -290.5q0 -162 -38.5 -291.5t-107 -220.5t-162 -139.5t-203.5 -48.5t-201.5 48.5t-157 139.5t-102 220.5t-36.5 291.5zM249 680q0 -150 27 -261t75.5 -184t115 -109t145.5 -36 q81 0 150 36t119.5 109t79.5 184t29 261t-29 261t-79.5 184t-119.5 109t-150 36q-79 0 -145.5 -36t-115 -109t-75.5 -184t-27 -261zM286 1564q11 35 30.5 63t42.5 48t47.5 33t47.5 18q15 3 29 3q47 0 85.5 -23.5t73.5 -51.5q25 -24 48.5 -32t40.5 -10q28 0 58.5 24.5 t45.5 71.5l85 -66q-12 -36 -31.5 -64t-42 -48t-47 -32t-46.5 -16q-9 -2 -18.5 -3t-17.5 -1q-46 0 -83 23t-71 51q-27 23 -50 33.5t-40 10.5q-14 -1 -26 -4.5t-24 -13.5t-24.5 -28t-27.5 -46z" />
<glyph unicode="&#xd6;" horiz-adv-x="1235" d="M115 680q0 161 36.5 290.5t102 220.5t157 140t201.5 49t203.5 -49t162 -140t107 -220.5t38.5 -290.5q0 -162 -38.5 -291.5t-107 -220.5t-162 -139.5t-203.5 -48.5t-201.5 48.5t-157 139.5t-102 220.5t-36.5 291.5zM249 680q0 -150 27 -261t75.5 -184t115 -109t145.5 -36 q81 0 150 36t119.5 109t79.5 184t29 261t-29 261t-79.5 184t-119.5 109t-150 36q-79 0 -145.5 -36t-115 -109t-75.5 -184t-27 -261zM325 1488v170h174v-170h-174zM739 1488v170h176v-170h-176z" />
<glyph unicode="&#xd7;" horiz-adv-x="922" d="M103 298l279 293l-278 293l85 80l274 -288l276 288l83 -84l-277 -290l277 -290l-83 -84l-275 289l-275 -289z" />
<glyph unicode="&#xd8;" horiz-adv-x="1134" d="M56 -2l132 198q-57 91 -88 212t-31 272q0 161 36.5 290.5t102 220.5t157 140t201.5 49q94 0 174.5 -35.5t145.5 -101.5l78 117h123l-134 -201q59 -90 91.5 -210t32.5 -269q0 -162 -38.5 -291.5t-107 -220.5t-162 -139.5t-203.5 -48.5q-93 0 -171 33.5t-141 97.5l-75 -113 h-123zM203 680q0 -115 16 -207t46 -161l556 833q-51 63 -115.5 94t-139.5 31q-79 0 -145.5 -36t-115 -109t-75.5 -184t-27 -261zM322 212q48 -62 109.5 -92t134.5 -30q81 0 150 36t119.5 109t79.5 184t29 261q0 115 -17 206.5t-49 160.5z" />
<glyph unicode="&#xd9;" horiz-adv-x="1254" d="M184 398v962h134v-962q0 -74 22.5 -131t63.5 -96.5t98 -60t126 -20.5q70 0 128.5 20.5t101 60t66.5 96.5t24 131v962h134v-960q0 -101 -33 -179t-93 -131.5t-143.5 -81.5t-184.5 -28t-182.5 27.5t-140 81t-90 131t-31.5 178.5zM332 1718l150 66l186 -280l-101 -34z" />
<glyph unicode="&#xda;" horiz-adv-x="1254" d="M184 398v962h134v-962q0 -74 22.5 -131t63.5 -96.5t98 -60t126 -20.5q70 0 128.5 20.5t101 60t66.5 96.5t24 131v962h134v-960q0 -101 -33 -179t-93 -131.5t-143.5 -81.5t-184.5 -28t-182.5 27.5t-140 81t-90 131t-31.5 178.5zM535 1512l187 274l151 -66l-235 -248z" />
<glyph unicode="&#xdb;" horiz-adv-x="1254" d="M184 398v962h134v-962q0 -74 22.5 -131t63.5 -96.5t98 -60t126 -20.5q70 0 128.5 20.5t101 60t66.5 96.5t24 131v962h134v-960q0 -101 -33 -179t-93 -131.5t-143.5 -81.5t-184.5 -28t-182.5 27.5t-140 81t-90 131t-31.5 178.5zM319 1470l260 232h94l258 -232h-166 l-139 117l-140 -117h-167z" />
<glyph unicode="&#xdc;" horiz-adv-x="1254" d="M184 398v962h134v-962q0 -74 22.5 -131t63.5 -96.5t98 -60t126 -20.5q70 0 128.5 20.5t101 60t66.5 96.5t24 131v962h134v-960q0 -101 -33 -179t-93 -131.5t-143.5 -81.5t-184.5 -28t-182.5 27.5t-140 81t-90 131t-31.5 178.5zM332 1470v170h174v-170h-174zM746 1470v170 h176v-170h-176z" />
<glyph unicode="&#xdd;" horiz-adv-x="1024" d="M77 1360h144l292 -712l294 712h143l-369 -870v-490h-133v486zM438 1512l187 274l151 -66l-235 -248z" />
<glyph unicode="&#xde;" horiz-adv-x="1002" d="M132 0v1360h132v-324h254q96 0 170 -25.5t124.5 -72t77 -113.5t26.5 -149q0 -83 -26.5 -150t-77 -114.5t-124.5 -73.5t-170 -26h-254v-312h-132zM264 422h234q64 0 116.5 15t89.5 46.5t57 79.5t20 113t-20 112.5t-57 78t-89.5 45t-116.5 14.5h-234v-504z" />
<glyph unicode="&#xdf;" horiz-adv-x="1087" d="M134 -192v1170q0 91 25.5 168.5t74.5 134.5t120 89t161 32q168 0 248.5 -68.5t80.5 -199.5q0 -34 -5.5 -60.5t-14.5 -48.5t-20.5 -40.5t-24.5 -34.5q-26 -42 -41.5 -85.5t-15.5 -94.5q0 -53 30.5 -92.5t80.5 -79.5q28 -24 56 -51t50 -60t35.5 -74.5t13.5 -94.5 q0 -92 -32 -158.5t-85.5 -109t-122 -62.5t-140.5 -20q-71 0 -131 11.5t-92 20.5l24 112q31 -11 79.5 -22.5t120.5 -11.5q48 0 92.5 13.5t78.5 41.5t54.5 71.5t20.5 103.5q0 31 -12 57.5t-30 50t-39 44t-38 38.5q-31 27 -57.5 54.5t-46.5 59.5t-31.5 70.5t-11.5 87.5 q0 71 17 129t55 118q6 10 15 24.5t16.5 30.5t13 32.5t5.5 31.5q0 34 -12.5 62.5t-38 49.5t-63.5 32.5t-89 11.5q-56 0 -100.5 -24t-75.5 -66t-48 -99.5t-17 -124.5v-1170h-133z" />
<glyph unicode="&#xe0;" horiz-adv-x="978" d="M112 276q0 61 26 117t73.5 98.5t112.5 67.5t143 25h216v38q0 81 -13 136t-39.5 89t-66 48.5t-93.5 14.5q-35 0 -70.5 -5.5t-69 -15.5t-63.5 -22.5t-54 -26.5l-33 98q28 19 64 34t75.5 25.5t81 16.5t81.5 6q75 0 136.5 -18t105 -63t67.5 -122t24 -195v-622h-99l-20 111 q-17 -15 -46.5 -37.5t-70.5 -43.5t-92 -35.5t-111 -14.5q-68 0 -117.5 23.5t-82.5 64t-49 94.5t-16 114zM245 258q0 -40 12.5 -71t34.5 -52.5t52 -33t65 -11.5q54 0 100 16t81.5 37.5t59 42.5t33.5 32v266h-196q-72 0 -118.5 -21.5t-74 -54.5t-38.5 -73t-11 -77zM213 1398 l150 66l186 -280l-101 -34z" />
<glyph unicode="&#xe1;" horiz-adv-x="978" d="M112 276q0 61 26 117t73.5 98.5t112.5 67.5t143 25h216v38q0 81 -13 136t-39.5 89t-66 48.5t-93.5 14.5q-35 0 -70.5 -5.5t-69 -15.5t-63.5 -22.5t-54 -26.5l-33 98q28 19 64 34t75.5 25.5t81 16.5t81.5 6q75 0 136.5 -18t105 -63t67.5 -122t24 -195v-622h-99l-20 111 q-17 -15 -46.5 -37.5t-70.5 -43.5t-92 -35.5t-111 -14.5q-68 0 -117.5 23.5t-82.5 64t-49 94.5t-16 114zM245 258q0 -40 12.5 -71t34.5 -52.5t52 -33t65 -11.5q54 0 100 16t81.5 37.5t59 42.5t33.5 32v266h-196q-72 0 -118.5 -21.5t-74 -54.5t-38.5 -73t-11 -77zM416 1192 l187 274l151 -66l-235 -248z" />
<glyph unicode="&#xe2;" horiz-adv-x="978" d="M112 276q0 61 26 117t73.5 98.5t112.5 67.5t143 25h216v38q0 81 -13 136t-39.5 89t-66 48.5t-93.5 14.5q-35 0 -70.5 -5.5t-69 -15.5t-63.5 -22.5t-54 -26.5l-33 98q28 19 64 34t75.5 25.5t81 16.5t81.5 6q75 0 136.5 -18t105 -63t67.5 -122t24 -195v-622h-99l-20 111 q-17 -15 -46.5 -37.5t-70.5 -43.5t-92 -35.5t-111 -14.5q-68 0 -117.5 23.5t-82.5 64t-49 94.5t-16 114zM245 258q0 -40 12.5 -71t34.5 -52.5t52 -33t65 -11.5q54 0 100 16t81.5 37.5t59 42.5t33.5 32v266h-196q-72 0 -118.5 -21.5t-74 -54.5t-38.5 -73t-11 -77zM200 1150 l260 232h94l258 -232h-166l-139 117l-140 -117h-167z" />
<glyph unicode="&#xe3;" horiz-adv-x="978" d="M112 276q0 61 26 117t73.5 98.5t112.5 67.5t143 25h216v38q0 81 -13 136t-39.5 89t-66 48.5t-93.5 14.5q-35 0 -70.5 -5.5t-69 -15.5t-63.5 -22.5t-54 -26.5l-33 98q28 19 64 34t75.5 25.5t81 16.5t81.5 6q75 0 136.5 -18t105 -63t67.5 -122t24 -195v-622h-99l-20 111 q-17 -15 -46.5 -37.5t-70.5 -43.5t-92 -35.5t-111 -14.5q-68 0 -117.5 23.5t-82.5 64t-49 94.5t-16 114zM245 258q0 -40 12.5 -71t34.5 -52.5t52 -33t65 -11.5q54 0 100 16t81.5 37.5t59 42.5t33.5 32v266h-196q-72 0 -118.5 -21.5t-74 -54.5t-38.5 -73t-11 -77zM174 1226 q11 35 30.5 63t42.5 48t47.5 33t47.5 18q15 3 29 3q47 0 85.5 -23.5t73.5 -51.5q25 -24 48.5 -32t40.5 -10q28 0 58.5 24.5t45.5 71.5l85 -66q-12 -36 -31.5 -64t-42 -48t-47 -32t-46.5 -16q-9 -2 -18.5 -3t-17.5 -1q-46 0 -83 23t-71 51q-27 23 -50 33.5t-40 10.5 q-14 -1 -26 -4.5t-24 -13.5t-24.5 -28t-27.5 -46z" />
<glyph unicode="&#xe4;" horiz-adv-x="978" d="M112 276q0 61 26 117t73.5 98.5t112.5 67.5t143 25h216v38q0 81 -13 136t-39.5 89t-66 48.5t-93.5 14.5q-35 0 -70.5 -5.5t-69 -15.5t-63.5 -22.5t-54 -26.5l-33 98q28 19 64 34t75.5 25.5t81 16.5t81.5 6q75 0 136.5 -18t105 -63t67.5 -122t24 -195v-622h-99l-20 111 q-17 -15 -46.5 -37.5t-70.5 -43.5t-92 -35.5t-111 -14.5q-68 0 -117.5 23.5t-82.5 64t-49 94.5t-16 114zM245 258q0 -40 12.5 -71t34.5 -52.5t52 -33t65 -11.5q54 0 100 16t81.5 37.5t59 42.5t33.5 32v266h-196q-72 0 -118.5 -21.5t-74 -54.5t-38.5 -73t-11 -77zM213 1151 v170h174v-170h-174zM627 1151v170h176v-170h-176z" />
<glyph unicode="&#xe5;" horiz-adv-x="978" d="M112 276q0 61 26 117t73.5 98.5t112.5 67.5t143 25h216v38q0 81 -13 136t-39.5 89t-66 48.5t-93.5 14.5q-35 0 -70.5 -5.5t-69 -15.5t-63.5 -22.5t-54 -26.5l-33 98q28 19 64 34t75.5 25.5t81 16.5t81.5 6q75 0 136.5 -18t105 -63t67.5 -122t24 -195v-622h-99l-20 111 q-17 -15 -46.5 -37.5t-70.5 -43.5t-92 -35.5t-111 -14.5q-68 0 -117.5 23.5t-82.5 64t-49 94.5t-16 114zM245 258q0 -40 12.5 -71t34.5 -52.5t52 -33t65 -11.5q54 0 100 16t81.5 37.5t59 42.5t33.5 32v266h-196q-72 0 -118.5 -21.5t-74 -54.5t-38.5 -73t-11 -77zM304 1345 q0 40 15 75t40.5 61.5t59.5 42t72 15.5t71.5 -15.5t59 -42t40.5 -61.5t15 -75q0 -41 -15 -75t-40.5 -59.5t-59 -39.5t-71.5 -14t-72 14t-59.5 39.5t-40.5 59.5t-15 75zM416 1345q0 -32 23 -55t52 -23q32 0 52 23t20 55q0 33 -20 58.5t-52 25.5q-14 0 -27.5 -7t-24 -18.5 t-17 -27t-6.5 -31.5z" />
<glyph unicode="&#xe6;" horiz-adv-x="1544" d="M118 266q0 61 25 113t69 90.5t104.5 60.5t132.5 22h240v70q0 81 -12.5 134t-38.5 84.5t-65.5 44.5t-93.5 13q-35 0 -72.5 -6.5t-73.5 -16.5t-67.5 -22.5t-53.5 -24.5l-41 102q31 18 68.5 34.5t79.5 28.5t85.5 19.5t86.5 7.5q52 0 97 -7.5t81.5 -25.5t65 -47.5t48.5 -73.5 q51 75 126 114.5t173 39.5q75 0 139 -26t110 -76.5t72 -124t26 -167.5v-110h-605v-24q0 -95 18 -170t54 -126.5t90.5 -78.5t126.5 -27q47 0 85 6.5t69 16t55 20.5t43 21l37 -102q-53 -33 -127 -52.5t-159 -19.5q-107 0 -187 35.5t-134 103.5q-27 -19 -64 -43t-87 -45.5 t-114 -36t-145 -14.5q-68 0 -118 22t-83 61t-49.5 91t-16.5 112zM251 248q0 -40 13 -69.5t35.5 -49t53 -29.5t65.5 -10q49 0 91 9t76 22.5t60.5 28.5t43.5 28v276h-220q-63 0 -105 -15.5t-67 -43t-35.5 -65t-10.5 -82.5zM831 626h464q0 76 -17 129.5t-46 88t-67 50.5t-79 16 q-52 0 -94.5 -14t-75 -47t-54.5 -87.5t-31 -135.5z" />
<glyph unicode="&#xe7;" horiz-adv-x="858" d="M124 502q0 118 28.5 213.5t82 163t131.5 104.5t177 37q81 0 140 -14t100 -40l-44 -98q-16 7 -33 14.5t-38.5 13.5t-48.5 10t-63 4q-67 0 -122 -23.5t-94.5 -73t-61 -127t-21.5 -184.5t21 -185t60 -128.5t93.5 -74.5t121.5 -24q75 0 128 16.5t92 37.5l44 -98 q-42 -32 -105 -49t-148 -17q-104 0 -185.5 37.5t-138 106t-86.5 164.5t-30 214zM342 -274q51 1 87 13.5t58.5 33.5t33 49t10.5 60q0 34 -10.5 70.5t-28.5 71.5l131 -12q29 -64 29 -129q0 -50 -18 -96t-54 -80t-90 -52.5t-126 -14.5z" />
<glyph unicode="&#xe8;" horiz-adv-x="984" d="M122 492q0 125 26.5 223.5t77 166t123.5 103t165 35.5q75 0 139 -26t110 -76.5t72 -124t26 -167.5v-110h-605v-24q0 -95 18 -170t54 -126.5t90.5 -78.5t126.5 -27q47 0 85 6.5t69 16t55 20.5t43 21l37 -102q-53 -33 -127 -52.5t-159 -19.5q-104 0 -183.5 34.5t-133.5 100 t-81.5 160.5t-27.5 217zM263 626h464q0 76 -17 129.5t-46 88t-67 50.5t-79 16q-52 0 -94.5 -14t-75 -47t-54.5 -87.5t-31 -135.5zM232 1398l150 66l186 -280l-101 -34z" />
<glyph unicode="&#xe9;" horiz-adv-x="984" d="M122 492q0 125 26.5 223.5t77 166t123.5 103t165 35.5q75 0 139 -26t110 -76.5t72 -124t26 -167.5v-110h-605v-24q0 -95 18 -170t54 -126.5t90.5 -78.5t126.5 -27q47 0 85 6.5t69 16t55 20.5t43 21l37 -102q-53 -33 -127 -52.5t-159 -19.5q-104 0 -183.5 34.5t-133.5 100 t-81.5 160.5t-27.5 217zM263 626h464q0 76 -17 129.5t-46 88t-67 50.5t-79 16q-52 0 -94.5 -14t-75 -47t-54.5 -87.5t-31 -135.5zM435 1192l187 274l151 -66l-235 -248z" />
<glyph unicode="&#xea;" horiz-adv-x="984" d="M122 492q0 125 26.5 223.5t77 166t123.5 103t165 35.5q75 0 139 -26t110 -76.5t72 -124t26 -167.5v-110h-605v-24q0 -95 18 -170t54 -126.5t90.5 -78.5t126.5 -27q47 0 85 6.5t69 16t55 20.5t43 21l37 -102q-53 -33 -127 -52.5t-159 -19.5q-104 0 -183.5 34.5t-133.5 100 t-81.5 160.5t-27.5 217zM263 626h464q0 76 -17 129.5t-46 88t-67 50.5t-79 16q-52 0 -94.5 -14t-75 -47t-54.5 -87.5t-31 -135.5zM219 1150l260 232h94l258 -232h-166l-139 117l-140 -117h-167z" />
<glyph unicode="&#xeb;" horiz-adv-x="984" d="M122 492q0 125 26.5 223.5t77 166t123.5 103t165 35.5q75 0 139 -26t110 -76.5t72 -124t26 -167.5v-110h-605v-24q0 -95 18 -170t54 -126.5t90.5 -78.5t126.5 -27q47 0 85 6.5t69 16t55 20.5t43 21l37 -102q-53 -33 -127 -52.5t-159 -19.5q-104 0 -183.5 34.5t-133.5 100 t-81.5 160.5t-27.5 217zM263 626h464q0 76 -17 129.5t-46 88t-67 50.5t-79 16q-52 0 -94.5 -14t-75 -47t-54.5 -87.5t-31 -135.5zM232 1151v170h174v-170h-174zM646 1151v170h176v-170h-176z" />
<glyph unicode="&#xec;" horiz-adv-x="344" d="M113 0v1000h133v-1000h-133zM-89 1385l150 66l186 -280l-101 -34z" />
<glyph unicode="&#xed;" horiz-adv-x="344" d="M113 0v1000h133v-1000h-133zM114 1179l187 274l151 -66l-235 -248z" />
<glyph unicode="&#xee;" horiz-adv-x="344" d="M113 0v1000h133v-1000h-133zM-102 1138l260 232h94l258 -232h-166l-139 117l-140 -117h-167z" />
<glyph unicode="&#xef;" horiz-adv-x="344" d="M113 0v1000h133v-1000h-133zM-89 1138v170h174v-170h-174zM325 1138v170h176v-170h-176z" />
<glyph unicode="&#xf0;" horiz-adv-x="1070" d="M129 422q-2 106 20.5 191.5t70 145t118.5 91.5t165 32q45 0 89.5 -11t86 -32t76.5 -51t60 -67q-9 126 -37 221t-72 162l-204 -106l-48 90l184 95q-50 45 -111 66t-131 21l13 110q101 0 186 -36t152 -105l193 99l47 -88l-175 -91q69 -103 106 -245t37 -318 q0 -139 -27 -252t-80.5 -193t-132 -123.5t-180.5 -43.5q-97 0 -171.5 38.5t-126 100.5t-79 140.5t-29.5 158.5zM266 414q0 -62 16 -120t47.5 -102.5t78.5 -71t109 -26.5q71 0 127 28t94.5 87t59.5 151t22 220q-32 57 -70 94t-80 58.5t-85 30.5t-85 9q-64 0 -108.5 -29 t-72.5 -78t-40.5 -114t-12.5 -137z" />
<glyph unicode="&#xf1;" d="M180 0v1000h120l10 -112q129 132 301 132q145 0 213 -87t68 -271v-662h-133v662q0 70 -11 117.5t-33 76.5t-55.5 41.5t-77.5 12.5q-79 0 -146.5 -33.5t-122.5 -86.5v-790h-133zM204 1226q11 35 30.5 63t42.5 48t47.5 33t47.5 18q15 3 29 3q47 0 85.5 -23.5t73.5 -51.5 q25 -24 48.5 -32t40.5 -10q28 0 58.5 24.5t45.5 71.5l85 -66q-12 -36 -31.5 -64t-42 -48t-47 -32t-46.5 -16q-9 -2 -18.5 -3t-17.5 -1q-46 0 -83 23t-71 51q-27 23 -50 33.5t-40 10.5q-14 -1 -26 -4.5t-24 -13.5t-24.5 -28t-27.5 -46z" />
<glyph unicode="&#xf2;" horiz-adv-x="1045" d="M123 500q0 121 28 217t79.5 163.5t126 103.5t167.5 36q92 0 168.5 -36t131 -103.5t85 -163.5t30.5 -217q0 -122 -30.5 -218t-85 -163.5t-131 -103t-168.5 -35.5q-93 0 -167.5 35.5t-126 103t-79.5 163.5t-28 218zM256 500q0 -106 19 -183t54.5 -127.5t85 -75t109.5 -24.5 q61 0 113 24.5t89.5 75t58.5 127.5t21 183t-21 183.5t-58.5 128t-89.5 74.5t-113 24q-60 0 -109.5 -24t-85 -74.5t-54.5 -128t-19 -183.5zM237 1396l150 66l186 -280l-101 -34z" />
<glyph unicode="&#xf3;" horiz-adv-x="1045" d="M123 500q0 121 28 217t79.5 163.5t126 103.5t167.5 36q92 0 168.5 -36t131 -103.5t85 -163.5t30.5 -217q0 -122 -30.5 -218t-85 -163.5t-131 -103t-168.5 -35.5q-93 0 -167.5 35.5t-126 103t-79.5 163.5t-28 218zM256 500q0 -106 19 -183t54.5 -127.5t85 -75t109.5 -24.5 q61 0 113 24.5t89.5 75t58.5 127.5t21 183t-21 183.5t-58.5 128t-89.5 74.5t-113 24q-60 0 -109.5 -24t-85 -74.5t-54.5 -128t-19 -183.5zM440 1190l187 274l151 -66l-235 -248z" />
<glyph unicode="&#xf4;" horiz-adv-x="1045" d="M123 500q0 121 28 217t79.5 163.5t126 103.5t167.5 36q92 0 168.5 -36t131 -103.5t85 -163.5t30.5 -217q0 -122 -30.5 -218t-85 -163.5t-131 -103t-168.5 -35.5q-93 0 -167.5 35.5t-126 103t-79.5 163.5t-28 218zM256 500q0 -106 19 -183t54.5 -127.5t85 -75t109.5 -24.5 q61 0 113 24.5t89.5 75t58.5 127.5t21 183t-21 183.5t-58.5 128t-89.5 74.5t-113 24q-60 0 -109.5 -24t-85 -74.5t-54.5 -128t-19 -183.5zM224 1148l260 232h94l258 -232h-166l-139 117l-140 -117h-167z" />
<glyph unicode="&#xf5;" horiz-adv-x="1045" d="M123 500q0 121 28 217t79.5 163.5t126 103.5t167.5 36q92 0 168.5 -36t131 -103.5t85 -163.5t30.5 -217q0 -122 -30.5 -218t-85 -163.5t-131 -103t-168.5 -35.5q-93 0 -167.5 35.5t-126 103t-79.5 163.5t-28 218zM256 500q0 -106 19 -183t54.5 -127.5t85 -75t109.5 -24.5 q61 0 113 24.5t89.5 75t58.5 127.5t21 183t-21 183.5t-58.5 128t-89.5 74.5t-113 24q-60 0 -109.5 -24t-85 -74.5t-54.5 -128t-19 -183.5zM198 1224q11 35 30.5 63t42.5 48t47.5 33t47.5 18q15 3 29 3q47 0 85.5 -23.5t73.5 -51.5q25 -24 48.5 -32t40.5 -10q28 0 58.5 24.5 t45.5 71.5l85 -66q-12 -36 -31.5 -64t-42 -48t-47 -32t-46.5 -16q-9 -2 -18.5 -3t-17.5 -1q-46 0 -83 23t-71 51q-27 23 -50 33.5t-40 10.5q-14 -1 -26 -4.5t-24 -13.5t-24.5 -28t-27.5 -46z" />
<glyph unicode="&#xf6;" horiz-adv-x="1045" d="M123 500q0 121 28 217t79.5 163.5t126 103.5t167.5 36q92 0 168.5 -36t131 -103.5t85 -163.5t30.5 -217q0 -122 -30.5 -218t-85 -163.5t-131 -103t-168.5 -35.5q-93 0 -167.5 35.5t-126 103t-79.5 163.5t-28 218zM256 500q0 -106 19 -183t54.5 -127.5t85 -75t109.5 -24.5 q61 0 113 24.5t89.5 75t58.5 127.5t21 183t-21 183.5t-58.5 128t-89.5 74.5t-113 24q-60 0 -109.5 -24t-85 -74.5t-54.5 -128t-19 -183.5zM237 1149v170h174v-170h-174zM651 1149v170h176v-170h-176z" />
<glyph unicode="&#xf7;" horiz-adv-x="923" d="M101 552v110h724v-110h-724zM384 212v166h150v-166h-150zM384 800v166h150v-166h-150z" />
<glyph unicode="&#xf8;" horiz-adv-x="1044" d="M83 0l109 148q-42 66 -64 154.5t-22 197.5q0 121 28 217t79.5 163.5t126 103.5t167.5 36q76 0 141.5 -24.5t117.5 -71.5l56 76h132l-119 -160q42 -65 64.5 -150.5t22.5 -189.5q0 -122 -30.5 -218t-85 -163.5t-131 -103t-168.5 -35.5q-147 0 -245 86l-49 -66h-130z M239 500q0 -74 9.5 -133.5t26.5 -106.5l420 568q-37 42 -84.5 62t-103.5 20q-60 0 -109.5 -24t-85 -74.5t-54.5 -128t-19 -183.5zM333 163q34 -38 78 -55.5t96 -17.5q61 0 113 24.5t89.5 75t58.5 127.5t21 183q0 70 -9.5 127t-26.5 102z" />
<glyph unicode="&#xf9;" d="M180 338v662h133v-662q0 -69 9.5 -116.5t30 -76.5t52.5 -42t76 -13q76 0 146.5 33.5t131.5 87.5v789h133v-1000h-127l-4 114q-66 -64 -143.5 -99t-163.5 -35q-65 0 -116 16.5t-86 57t-53.5 109.5t-18.5 175zM243 1378l150 66l186 -280l-101 -34z" />
<glyph unicode="&#xfa;" d="M180 338v662h133v-662q0 -69 9.5 -116.5t30 -76.5t52.5 -42t76 -13q76 0 146.5 33.5t131.5 87.5v789h133v-1000h-127l-4 114q-66 -64 -143.5 -99t-163.5 -35q-65 0 -116 16.5t-86 57t-53.5 109.5t-18.5 175zM446 1172l187 274l151 -66l-235 -248z" />
<glyph unicode="&#xfb;" d="M180 338v662h133v-662q0 -69 9.5 -116.5t30 -76.5t52.5 -42t76 -13q76 0 146.5 33.5t131.5 87.5v789h133v-1000h-127l-4 114q-66 -64 -143.5 -99t-163.5 -35q-65 0 -116 16.5t-86 57t-53.5 109.5t-18.5 175zM230 1131l260 232h94l258 -232h-166l-139 117l-140 -117h-167z " />
<glyph unicode="&#xfc;" d="M180 338v662h133v-662q0 -69 9.5 -116.5t30 -76.5t52.5 -42t76 -13q76 0 146.5 33.5t131.5 87.5v789h133v-1000h-127l-4 114q-66 -64 -143.5 -99t-163.5 -35q-65 0 -116 16.5t-86 57t-53.5 109.5t-18.5 175zM243 1131v170h174v-170h-174zM657 1131v170h176v-170h-176z " />
<glyph unicode="&#xfd;" horiz-adv-x="917" d="M73 1000h137l245 -858l256 858h137l-330 -1050h1q-29 -106 -58 -175.5t-63 -110.5t-77 -57.5t-101 -16.5q-25 0 -50 4t-44 12l14 106q4 0 14 -2t21 -4t21.5 -4t17.5 -2q32 0 55 10t42.5 37t39 76t44.5 127zM383 1172l187 274l151 -66l-235 -248z" />
<glyph unicode="&#xfe;" horiz-adv-x="967" d="M113 -400v1800h133v-475q24 23 50 40.5t56.5 29.5t67.5 18.5t84 6.5q83 0 150.5 -36.5t115 -104t73.5 -162.5t26 -213t-26 -214.5t-73.5 -165.5t-115 -106.5t-150.5 -37.5q-45 0 -81.5 6t-67.5 17.5t-57.5 28.5t-51.5 40v-472h-133zM246 166q42 -33 96.5 -54.5 t114.5 -21.5q143 0 210.5 107t67.5 307q0 199 -67 302.5t-211 103.5q-60 0 -114.5 -21.5t-96.5 -54.5v-668z" />
<glyph unicode="&#xff;" horiz-adv-x="917" d="M73 1000h137l245 -858l256 858h137l-330 -1050h1q-29 -106 -58 -175.5t-63 -110.5t-77 -57.5t-101 -16.5q-25 0 -50 4t-44 12l14 106q4 0 14 -2t21 -4t21.5 -4t17.5 -2q32 0 55 10t42.5 37t39 76t44.5 127zM180 1131v170h174v-170h-174zM594 1131v170h176v-170h-176z" />
<glyph unicode="&#x100;" horiz-adv-x="1177" d="M85 0l434 1360h141l439 -1360h-137l-132 422h-477l-132 -422h-136zM387 532h408l-204 652zM252 1510v108h661v-108h-661z" />
<glyph unicode="&#x101;" horiz-adv-x="978" d="M112 276q0 61 26 117t73.5 98.5t112.5 67.5t143 25h216v38q0 81 -13 136t-39.5 89t-66 48.5t-93.5 14.5q-35 0 -70.5 -5.5t-69 -15.5t-63.5 -22.5t-54 -26.5l-33 98q28 19 64 34t75.5 25.5t81 16.5t81.5 6q75 0 136.5 -18t105 -63t67.5 -122t24 -195v-622h-99l-20 111 q-17 -15 -46.5 -37.5t-70.5 -43.5t-92 -35.5t-111 -14.5q-68 0 -117.5 23.5t-82.5 64t-49 94.5t-16 114zM245 258q0 -40 12.5 -71t34.5 -52.5t52 -33t65 -11.5q54 0 100 16t81.5 37.5t59 42.5t33.5 32v266h-196q-72 0 -118.5 -21.5t-74 -54.5t-38.5 -73t-11 -77zM167 1189 v108h661v-108h-661z" />
<glyph unicode="&#x102;" horiz-adv-x="1177" d="M85 0l434 1360h141l439 -1360h-137l-132 422h-477l-132 -422h-136zM387 532h408l-204 652zM282 1710h122q0 -62 44 -99t132 -37t132.5 37t44.5 99h119q0 -58 -22 -101.5t-61 -73t-93.5 -44t-119.5 -13.5q-66 -1 -120.5 13.5t-94 44t-61.5 73t-22 101.5z" />
<glyph unicode="&#x103;" horiz-adv-x="978" d="M112 276q0 61 26 117t73.5 98.5t112.5 67.5t143 25h216v38q0 81 -13 136t-39.5 89t-66 48.5t-93.5 14.5q-35 0 -70.5 -5.5t-69 -15.5t-63.5 -22.5t-54 -26.5l-33 98q28 19 64 34t75.5 25.5t81 16.5t81.5 6q75 0 136.5 -18t105 -63t67.5 -122t24 -195v-622h-99l-20 111 q-17 -15 -46.5 -37.5t-70.5 -43.5t-92 -35.5t-111 -14.5q-68 0 -117.5 23.5t-82.5 64t-49 94.5t-16 114zM245 258q0 -40 12.5 -71t34.5 -52.5t52 -33t65 -11.5q54 0 100 16t81.5 37.5t59 42.5t33.5 32v266h-196q-72 0 -118.5 -21.5t-74 -54.5t-38.5 -73t-11 -77zM197 1388 h122q0 -62 44 -99t132 -37t132.5 37t44.5 99h119q0 -58 -22 -101.5t-61 -73t-93.5 -44t-119.5 -13.5q-66 -1 -120.5 13.5t-94 44t-61.5 73t-22 101.5z" />
<glyph unicode="&#x104;" horiz-adv-x="1177" d="M85 0l434 1360h141l439 -1360h-137l-132 422h-477l-132 -422h-136zM387 532h408l-204 652zM758 -200q0 49 18 89t47 70.5t65.5 52t72.5 32.5l95 -40v-4q-36 -17 -67.5 -34.5t-55 -40t-37 -52t-13.5 -69.5q0 -33 19 -53.5t42 -20.5q14 0 22.5 1t15 2.5t13.5 4t17 6.5 l19 -90q-11 -8 -43 -15t-65 -7q-38 0 -68.5 12t-52 34.5t-33 53t-11.5 68.5z" />
<glyph unicode="&#x105;" horiz-adv-x="978" d="M112 276q0 61 26 117t73.5 98.5t112.5 67.5t143 25h216v38q0 81 -13 136t-39.5 89t-66 48.5t-93.5 14.5q-35 0 -70.5 -5.5t-69 -15.5t-63.5 -22.5t-54 -26.5l-33 98q28 19 64 34t75.5 25.5t81 16.5t81.5 6q75 0 136.5 -18t105 -63t67.5 -122t24 -195v-622h-99l-20 111 q-17 -15 -46.5 -37.5t-70.5 -43.5t-92 -35.5t-111 -14.5q-68 0 -117.5 23.5t-82.5 64t-49 94.5t-16 114zM245 258q0 -40 12.5 -71t34.5 -52.5t52 -33t65 -11.5q54 0 100 16t81.5 37.5t59 42.5t33.5 32v266h-196q-72 0 -118.5 -21.5t-74 -54.5t-38.5 -73t-11 -77zM491 -200 q0 49 18 89t47 70.5t65.5 52t72.5 32.5l95 -40v-4q-36 -17 -67.5 -34.5t-55 -40t-37 -52t-13.5 -69.5q0 -33 19 -53.5t42 -20.5q14 0 22.5 1t15 2.5t13.5 4t17 6.5l19 -90q-11 -8 -43 -15t-65 -7q-38 0 -68.5 12t-52 34.5t-33 53t-11.5 68.5z" />
<glyph unicode="&#x106;" horiz-adv-x="1023" d="M119 682q0 158 37 287t106 220.5t167.5 141t221.5 49.5q89 0 151.5 -22t106.5 -49l-42 -95q-45 26 -101 41t-119 15q-87 0 -160 -34t-125 -105.5t-81 -183t-29 -265.5q0 -155 31 -266.5t87 -184t133 -107t170 -34.5q39 0 72.5 6.5t62.5 16t53 20.5t43 21l34 -92 q-45 -35 -114 -58.5t-166 -23.5q-124 0 -223.5 50.5t-169.5 142.5t-108 221.5t-38 287.5zM548 1532l187 274l151 -66l-235 -248z" />
<glyph unicode="&#x107;" horiz-adv-x="858" d="M124 502q0 118 28.5 213.5t82 163t131.5 104.5t177 37q81 0 140 -14t100 -40l-44 -98q-16 7 -33 14.5t-38.5 13.5t-48.5 10t-63 4q-67 0 -122 -23.5t-94.5 -73t-61 -127t-21.5 -184.5t21 -185t60 -128.5t93.5 -74.5t121.5 -24q75 0 128 16.5t92 37.5l44 -98 q-42 -32 -105 -49t-148 -17q-104 0 -185.5 37.5t-138 106t-86.5 164.5t-30 214zM444 1192l187 274l151 -66l-235 -248z" />
<glyph unicode="&#x108;" horiz-adv-x="1023" d="M119 682q0 158 37 287t106 220.5t167.5 141t221.5 49.5q89 0 151.5 -22t106.5 -49l-42 -95q-45 26 -101 41t-119 15q-87 0 -160 -34t-125 -105.5t-81 -183t-29 -265.5q0 -155 31 -266.5t87 -184t133 -107t170 -34.5q39 0 72.5 6.5t62.5 16t53 20.5t43 21l34 -92 q-45 -35 -114 -58.5t-166 -23.5q-124 0 -223.5 50.5t-169.5 142.5t-108 221.5t-38 287.5zM332 1490l260 232h94l258 -232h-166l-139 117l-140 -117h-167z" />
<glyph unicode="&#x109;" horiz-adv-x="858" d="M124 502q0 118 28.5 213.5t82 163t131.5 104.5t177 37q81 0 140 -14t100 -40l-44 -98q-16 7 -33 14.5t-38.5 13.5t-48.5 10t-63 4q-67 0 -122 -23.5t-94.5 -73t-61 -127t-21.5 -184.5t21 -185t60 -128.5t93.5 -74.5t121.5 -24q75 0 128 16.5t92 37.5l44 -98 q-42 -32 -105 -49t-148 -17q-104 0 -185.5 37.5t-138 106t-86.5 164.5t-30 214zM228 1150l260 232h94l258 -232h-166l-139 117l-140 -117h-167z" />
<glyph unicode="&#x10a;" horiz-adv-x="1023" d="M119 682q0 158 37 287t106 220.5t167.5 141t221.5 49.5q89 0 151.5 -22t106.5 -49l-42 -95q-45 26 -101 41t-119 15q-87 0 -160 -34t-125 -105.5t-81 -183t-29 -265.5q0 -155 31 -266.5t87 -184t133 -107t170 -34.5q39 0 72.5 6.5t62.5 16t53 20.5t43 21l34 -92 q-45 -35 -114 -58.5t-166 -23.5q-124 0 -223.5 50.5t-169.5 142.5t-108 221.5t-38 287.5zM524 1490v164h164v-164h-164z" />
<glyph unicode="&#x10b;" horiz-adv-x="858" d="M124 502q0 118 28.5 213.5t82 163t131.5 104.5t177 37q81 0 140 -14t100 -40l-44 -98q-16 7 -33 14.5t-38.5 13.5t-48.5 10t-63 4q-67 0 -122 -23.5t-94.5 -73t-61 -127t-21.5 -184.5t21 -185t60 -128.5t93.5 -74.5t121.5 -24q75 0 128 16.5t92 37.5l44 -98 q-42 -32 -105 -49t-148 -17q-104 0 -185.5 37.5t-138 106t-86.5 164.5t-30 214zM420 1151v164h164v-164h-164z" />
<glyph unicode="&#x10c;" horiz-adv-x="1023" d="M119 682q0 158 37 287t106 220.5t167.5 141t221.5 49.5q89 0 151.5 -22t106.5 -49l-42 -95q-45 26 -101 41t-119 15q-87 0 -160 -34t-125 -105.5t-81 -183t-29 -265.5q0 -155 31 -266.5t87 -184t133 -107t170 -34.5q39 0 72.5 6.5t62.5 16t53 20.5t43 21l34 -92 q-45 -35 -114 -58.5t-166 -23.5q-124 0 -223.5 50.5t-169.5 142.5t-108 221.5t-38 287.5zM320 1724h167l140 -133l139 133h166l-258 -232h-94z" />
<glyph unicode="&#x10d;" horiz-adv-x="858" d="M124 502q0 118 28.5 213.5t82 163t131.5 104.5t177 37q81 0 140 -14t100 -40l-44 -98q-16 7 -33 14.5t-38.5 13.5t-48.5 10t-63 4q-67 0 -122 -23.5t-94.5 -73t-61 -127t-21.5 -184.5t21 -185t60 -128.5t93.5 -74.5t121.5 -24q75 0 128 16.5t92 37.5l44 -98 q-42 -32 -105 -49t-148 -17q-104 0 -185.5 37.5t-138 106t-86.5 164.5t-30 214zM216 1384h167l140 -133l139 133h166l-258 -232h-94z" />
<glyph unicode="&#x10e;" horiz-adv-x="1216" d="M184 0v1360h348q129 0 233 -48.5t177.5 -137t113.5 -213.5t40 -279t-40 -279.5t-113.5 -215t-177.5 -138.5t-233 -49h-348zM318 110h196q98 0 180.5 33.5t142 103.5t93 178t33.5 257t-33.5 256.5t-93 176.5t-142 102t-180.5 33h-196v-1140zM161 1704h167l140 -133 l139 133h166l-258 -232h-94z" />
<glyph unicode="&#x10f;" horiz-adv-x="1166" d="M143 502q0 118 24 213.5t70 163t111.5 104.5t149.5 37q45 0 80.5 -5.5t66 -16.5t56.5 -27.5t51 -38.5v468h134v-1400h-127l-4 71q-25 -22 -50.5 -39t-55.5 -28.5t-67 -17.5t-84 -6q-84 0 -149.5 37.5t-111.5 106t-70 164.5t-24 214zM276 502q0 -200 62 -306t205 -106 q60 0 113.5 21.5t95.5 54.5v667q-42 33 -95.5 55t-113.5 22q-72 0 -122.5 -26.5t-82.5 -78t-47 -127.5t-15 -176zM966 965l80 436h178l-153 -456z" />
<glyph unicode="&#x110;" horiz-adv-x="1245" d="M104 666v110h129v584h348q129 0 233 -48.5t177.5 -137t113.5 -213.5t40 -279t-40 -279.5t-113.5 -215t-177.5 -138.5t-233 -49h-348v666h-129zM367 110h196q98 0 180.5 33.5t142 103.5t93 178t33.5 257t-33.5 256.5t-93 176.5t-142 102t-180.5 33h-196v-474h256v-110 h-256v-556z" />
<glyph unicode="&#x111;" horiz-adv-x="1049" d="M140 502q0 118 24 213.5t70 163t111.5 104.5t149.5 37q45 0 80.5 -5.5t66 -16.5t56.5 -27.5t51 -38.5v468h134v-1400h-127l-4 71q-25 -22 -50.5 -39t-55.5 -28.5t-67 -17.5t-84 -6q-84 0 -149.5 37.5t-111.5 106t-70 164.5t-24 214zM273 502q0 -200 62 -306t205 -106 q60 0 113.5 21.5t95.5 54.5v667q-42 33 -95.5 55t-113.5 22q-72 0 -122.5 -26.5t-82.5 -78t-47 -127.5t-15 -176zM351 1161v108h661v-108h-661z" />
<glyph unicode="&#x112;" horiz-adv-x="949" d="M184 0v1360h670v-110h-536v-492h479v-110h-479v-538h536v-110h-670zM180 1508v108h661v-108h-661z" />
<glyph unicode="&#x113;" horiz-adv-x="984" d="M122 492q0 125 26.5 223.5t77 166t123.5 103t165 35.5q75 0 139 -26t110 -76.5t72 -124t26 -167.5v-110h-605v-24q0 -95 18 -170t54 -126.5t90.5 -78.5t126.5 -27q47 0 85 6.5t69 16t55 20.5t43 21l37 -102q-53 -33 -127 -52.5t-159 -19.5q-104 0 -183.5 34.5t-133.5 100 t-81.5 160.5t-27.5 217zM263 626h464q0 76 -17 129.5t-46 88t-67 50.5t-79 16q-52 0 -94.5 -14t-75 -47t-54.5 -87.5t-31 -135.5zM186 1189v108h661v-108h-661z" />
<glyph unicode="&#x116;" horiz-adv-x="949" d="M184 0v1360h670v-110h-536v-492h479v-110h-479v-538h536v-110h-670zM405 1470v164h164v-164h-164z" />
<glyph unicode="&#x117;" horiz-adv-x="984" d="M122 492q0 125 26.5 223.5t77 166t123.5 103t165 35.5q75 0 139 -26t110 -76.5t72 -124t26 -167.5v-110h-605v-24q0 -95 18 -170t54 -126.5t90.5 -78.5t126.5 -27q47 0 85 6.5t69 16t55 20.5t43 21l37 -102q-53 -33 -127 -52.5t-159 -19.5q-104 0 -183.5 34.5t-133.5 100 t-81.5 160.5t-27.5 217zM263 626h464q0 76 -17 129.5t-46 88t-67 50.5t-79 16q-52 0 -94.5 -14t-75 -47t-54.5 -87.5t-31 -135.5zM411 1151v164h164v-164h-164z" />
<glyph unicode="&#x118;" horiz-adv-x="949" d="M184 0v1360h670v-110h-536v-492h479v-110h-479v-538h536v-110h-670zM528 -200q0 49 18 89t47 70.5t65.5 52t72.5 32.5l95 -40v-4q-36 -17 -67.5 -34.5t-55 -40t-37 -52t-13.5 -69.5q0 -33 19 -53.5t42 -20.5q14 0 22.5 1t15 2.5t13.5 4t17 6.5l19 -90q-11 -8 -43 -15 t-65 -7q-38 0 -68.5 12t-52 34.5t-33 53t-11.5 68.5z" />
<glyph unicode="&#x119;" horiz-adv-x="984" d="M122 492q0 125 26.5 223.5t77 166t123.5 103t165 35.5q75 0 139 -26t110 -76.5t72 -124t26 -167.5v-110h-605v-24q0 -95 18 -170t54 -126.5t90.5 -78.5t126.5 -27q47 0 85 6.5t69 16t55 20.5t43 21l37 -102q-53 -33 -127 -52.5t-159 -19.5q-104 0 -183.5 34.5t-133.5 100 t-81.5 160.5t-27.5 217zM263 626h464q0 76 -17 129.5t-46 88t-67 50.5t-79 16q-52 0 -94.5 -14t-75 -47t-54.5 -87.5t-31 -135.5zM383 -200q0 49 18 89t47 70.5t65.5 52t72.5 32.5l95 -40v-4q-36 -17 -67.5 -34.5t-55 -40t-37 -52t-13.5 -69.5q0 -33 19 -53.5t42 -20.5 q14 0 22.5 1t15 2.5t13.5 4t17 6.5l19 -90q-11 -8 -43 -15t-65 -7q-38 0 -68.5 12t-52 34.5t-33 53t-11.5 68.5z" />
<glyph unicode="&#x11a;" horiz-adv-x="949" d="M184 0v1360h670v-110h-536v-492h479v-110h-479v-538h536v-110h-670zM201 1704h167l140 -133l139 133h166l-258 -232h-94z" />
<glyph unicode="&#x11b;" horiz-adv-x="984" d="M122 492q0 125 26.5 223.5t77 166t123.5 103t165 35.5q75 0 139 -26t110 -76.5t72 -124t26 -167.5v-110h-605v-24q0 -95 18 -170t54 -126.5t90.5 -78.5t126.5 -27q47 0 85 6.5t69 16t55 20.5t43 21l37 -102q-53 -33 -127 -52.5t-159 -19.5q-104 0 -183.5 34.5t-133.5 100 t-81.5 160.5t-27.5 217zM263 626h464q0 76 -17 129.5t-46 88t-67 50.5t-79 16q-52 0 -94.5 -14t-75 -47t-54.5 -87.5t-31 -135.5zM207 1384h167l140 -133l139 133h166l-258 -232h-94z" />
<glyph unicode="&#x11c;" horiz-adv-x="1219" d="M121 680q0 167 43 297.5t123 220t193.5 136t255.5 46.5q92 0 157 -20t102 -38l-31 -106q-42 18 -98 36t-128 18q-109 0 -198 -35t-152.5 -107.5t-98 -184t-34.5 -263.5q0 -114 31.5 -220.5t89 -188.5t139 -131.5t180.5 -49.5q63 0 125 8.5t113 31.5v424h-293v110h425 v-596q-84 -41 -174 -64.5t-196 -23.5q-132 0 -238 56t-180.5 152t-115 223t-40.5 269zM404 1488l260 232h94l258 -232h-166l-139 117l-140 -117h-167z" />
<glyph unicode="&#x11d;" horiz-adv-x="1050" d="M95 -200q0 80 34 139t115 104q-19 26 -35.5 62t-16.5 84q0 63 23 105.5t62 76.5q-63 47 -96.5 119.5t-33.5 169.5q0 89 26.5 156.5t74.5 112.5t116.5 68t152.5 23q76 0 142 -20h320l-17 -110h-138q33 -44 51 -101t18 -129q0 -84 -27.5 -151t-77.5 -113.5t-119 -71 t-152 -24.5q-86 0 -156 26q-20 -24 -31 -53.5t-11 -67.5q0 -9 2.5 -22.5t7 -27t10.5 -26t13 -19.5h273q76 0 136 -19t101 -55t62.5 -87t21.5 -115q-2 -68 -33.5 -124.5t-88.5 -98t-137 -64.5t-178 -23q-73 0 -146.5 12t-133 43t-97 84.5t-37.5 136.5zM229 -198 q0 -32 14.5 -57.5t38.5 -44t54 -31.5t62 -20.5t62 -11t53 -3.5q65 0 120 14.5t95 39.5t62.5 59.5t22.5 75.5q0 37 -10 69.5t-34.5 56.5t-67 37.5t-107.5 13.5h-250q-28 -22 -49.5 -42.5t-36 -43.5t-22 -50.5t-7.5 -61.5zM280 660q0 -56 14.5 -102t44 -79t74 -51t104.5 -18 q58 0 103 18t76 51t47.5 79t16.5 102q0 63 -19 110t-52 78t-77.5 46.5t-94.5 15.5q-51 0 -94.5 -15.5t-75 -46.5t-49.5 -78t-18 -110zM219 1148l260 232h94l258 -232h-166l-139 117l-140 -117h-167z" />
<glyph unicode="&#x11e;" horiz-adv-x="1219" d="M121 680q0 167 43 297.5t123 220t193.5 136t255.5 46.5q92 0 157 -20t102 -38l-31 -106q-42 18 -98 36t-128 18q-109 0 -198 -35t-152.5 -107.5t-98 -184t-34.5 -263.5q0 -114 31.5 -220.5t89 -188.5t139 -131.5t180.5 -49.5q63 0 125 8.5t113 31.5v424h-293v110h425 v-596q-84 -41 -174 -64.5t-196 -23.5q-132 0 -238 56t-180.5 152t-115 223t-40.5 269zM401 1726h122q0 -62 44 -99t132 -37t132.5 37t44.5 99h119q0 -58 -22 -101.5t-61 -73t-93.5 -44t-119.5 -13.5q-66 -1 -120.5 13.5t-94 44t-61.5 73t-22 101.5z" />
<glyph unicode="&#x11f;" horiz-adv-x="1050" d="M95 -200q0 80 34 139t115 104q-19 26 -35.5 62t-16.5 84q0 63 23 105.5t62 76.5q-63 47 -96.5 119.5t-33.5 169.5q0 89 26.5 156.5t74.5 112.5t116.5 68t152.5 23q76 0 142 -20h320l-17 -110h-138q33 -44 51 -101t18 -129q0 -84 -27.5 -151t-77.5 -113.5t-119 -71 t-152 -24.5q-86 0 -156 26q-20 -24 -31 -53.5t-11 -67.5q0 -9 2.5 -22.5t7 -27t10.5 -26t13 -19.5h273q76 0 136 -19t101 -55t62.5 -87t21.5 -115q-2 -68 -33.5 -124.5t-88.5 -98t-137 -64.5t-178 -23q-73 0 -146.5 12t-133 43t-97 84.5t-37.5 136.5zM229 -198 q0 -32 14.5 -57.5t38.5 -44t54 -31.5t62 -20.5t62 -11t53 -3.5q65 0 120 14.5t95 39.5t62.5 59.5t22.5 75.5q0 37 -10 69.5t-34.5 56.5t-67 37.5t-107.5 13.5h-250q-28 -22 -49.5 -42.5t-36 -43.5t-22 -50.5t-7.5 -61.5zM280 660q0 -56 14.5 -102t44 -79t74 -51t104.5 -18 q58 0 103 18t76 51t47.5 79t16.5 102q0 63 -19 110t-52 78t-77.5 46.5t-94.5 15.5q-51 0 -94.5 -15.5t-75 -46.5t-49.5 -78t-18 -110zM216 1386h122q0 -62 44 -99t132 -37t132.5 37t44.5 99h119q0 -58 -22 -101.5t-61 -73t-93.5 -44t-119.5 -13.5q-66 -1 -120.5 13.5t-94 44 t-61.5 73t-22 101.5z" />
<glyph unicode="&#x120;" horiz-adv-x="1219" d="M121 680q0 167 43 297.5t123 220t193.5 136t255.5 46.5q92 0 157 -20t102 -38l-31 -106q-42 18 -98 36t-128 18q-109 0 -198 -35t-152.5 -107.5t-98 -184t-34.5 -263.5q0 -114 31.5 -220.5t89 -188.5t139 -131.5t180.5 -49.5q63 0 125 8.5t113 31.5v424h-293v110h425 v-596q-84 -41 -174 -64.5t-196 -23.5q-132 0 -238 56t-180.5 152t-115 223t-40.5 269zM596 1488v164h164v-164h-164z" />
<glyph unicode="&#x121;" horiz-adv-x="1050" d="M95 -200q0 80 34 139t115 104q-19 26 -35.5 62t-16.5 84q0 63 23 105.5t62 76.5q-63 47 -96.5 119.5t-33.5 169.5q0 89 26.5 156.5t74.5 112.5t116.5 68t152.5 23q76 0 142 -20h320l-17 -110h-138q33 -44 51 -101t18 -129q0 -84 -27.5 -151t-77.5 -113.5t-119 -71 t-152 -24.5q-86 0 -156 26q-20 -24 -31 -53.5t-11 -67.5q0 -9 2.5 -22.5t7 -27t10.5 -26t13 -19.5h273q76 0 136 -19t101 -55t62.5 -87t21.5 -115q-2 -68 -33.5 -124.5t-88.5 -98t-137 -64.5t-178 -23q-73 0 -146.5 12t-133 43t-97 84.5t-37.5 136.5zM229 -198 q0 -32 14.5 -57.5t38.5 -44t54 -31.5t62 -20.5t62 -11t53 -3.5q65 0 120 14.5t95 39.5t62.5 59.5t22.5 75.5q0 37 -10 69.5t-34.5 56.5t-67 37.5t-107.5 13.5h-250q-28 -22 -49.5 -42.5t-36 -43.5t-22 -50.5t-7.5 -61.5zM280 660q0 -56 14.5 -102t44 -79t74 -51t104.5 -18 q58 0 103 18t76 51t47.5 79t16.5 102q0 63 -19 110t-52 78t-77.5 46.5t-94.5 15.5q-51 0 -94.5 -15.5t-75 -46.5t-49.5 -78t-18 -110zM411 1149v164h164v-164h-164z" />
<glyph unicode="&#x122;" horiz-adv-x="1219" d="M121 680q0 167 43 297.5t123 220t193.5 136t255.5 46.5q92 0 157 -20t102 -38l-31 -106q-42 18 -98 36t-128 18q-109 0 -198 -35t-152.5 -107.5t-98 -184t-34.5 -263.5q0 -114 31.5 -220.5t89 -188.5t139 -131.5t180.5 -49.5q63 0 125 8.5t113 31.5v424h-293v110h425 v-596q-84 -41 -174 -64.5t-196 -23.5q-132 0 -238 56t-180.5 152t-115 223t-40.5 269zM524 -480l78 378h145l-125 -398z" />
<glyph unicode="&#x123;" horiz-adv-x="1050" d="M95 -200q0 80 34 139t115 104q-19 26 -35.5 62t-16.5 84q0 63 23 105.5t62 76.5q-63 47 -96.5 119.5t-33.5 169.5q0 89 26.5 156.5t74.5 112.5t116.5 68t152.5 23q76 0 142 -20h320l-17 -110h-138q33 -44 51 -101t18 -129q0 -84 -27.5 -151t-77.5 -113.5t-119 -71 t-152 -24.5q-86 0 -156 26q-20 -24 -31 -53.5t-11 -67.5q0 -9 2.5 -22.5t7 -27t10.5 -26t13 -19.5h273q76 0 136 -19t101 -55t62.5 -87t21.5 -115q-2 -68 -33.5 -124.5t-88.5 -98t-137 -64.5t-178 -23q-73 0 -146.5 12t-133 43t-97 84.5t-37.5 136.5zM229 -198 q0 -32 14.5 -57.5t38.5 -44t54 -31.5t62 -20.5t62 -11t53 -3.5q65 0 120 14.5t95 39.5t62.5 59.5t22.5 75.5q0 37 -10 69.5t-34.5 56.5t-67 37.5t-107.5 13.5h-250q-28 -22 -49.5 -42.5t-36 -43.5t-22 -50.5t-7.5 -61.5zM280 660q0 -56 14.5 -102t44 -79t74 -51t104.5 -18 q58 0 103 18t76 51t47.5 79t16.5 102q0 63 -19 110t-52 78t-77.5 46.5t-94.5 15.5q-51 0 -94.5 -15.5t-75 -46.5t-49.5 -78t-18 -110zM419 1148l156 456l103 -20l-81 -436h-178z" />
<glyph unicode="&#x124;" horiz-adv-x="1236" d="M184 0v1360h134v-626h614v626h133v-1360h-133v624h-614v-624h-134zM310 1460l260 232h94l258 -232h-166l-139 117l-140 -117h-167z" />
<glyph unicode="&#x125;" d="M180 0v1400h133v-509q129 129 298 129q145 0 213 -87t68 -271v-662h-133v662q0 70 -11 117.5t-33 76.5t-55.5 41.5t-77.5 12.5q-79 0 -146.5 -33.5t-122.5 -86.5v-790h-133zM-43 1500l260 232h94l258 -232h-166l-139 117l-140 -117h-167z" />
<glyph unicode="&#x126;" horiz-adv-x="1265" d="M43 1018v108h141v234h134v-234h614v234h133v-234h168v-108h-168v-1018h-133v624h-614v-624h-134v1018h-141zM318 734h614v284h-614v-284z" />
<glyph unicode="&#x127;" horiz-adv-x="1094" d="M-7 1148v108h187v144h133v-144h341v-108h-341v-257q129 129 298 129q145 0 213 -87t68 -271v-662h-133v662q0 70 -11 117.5t-33 76.5t-55.5 41.5t-77.5 12.5q-79 0 -146.5 -33.5t-122.5 -86.5v-790h-133v1148h-187z" />
<glyph unicode="&#x128;" horiz-adv-x="742" d="M136 0v110h173v1140h-173v110h474v-110h-168v-1140h168v-110h-474zM54 1546q11 35 30.5 63t42.5 48t47.5 33t47.5 18q15 3 29 3q47 0 85.5 -23.5t73.5 -51.5q25 -24 48.5 -32t40.5 -10q28 0 58.5 24.5t45.5 71.5l85 -66q-12 -36 -31.5 -64t-42 -48t-47 -32t-46.5 -16 q-9 -2 -18.5 -3t-17.5 -1q-46 0 -83 23t-71 51q-27 23 -50 33.5t-40 10.5q-14 -1 -26 -4.5t-24 -13.5t-24.5 -28t-27.5 -46z" />
<glyph unicode="&#x129;" horiz-adv-x="344" d="M113 0v1000h133v-1000h-133zM-128 1213q11 35 30.5 63t42.5 48t47.5 33t47.5 18q15 3 29 3q47 0 85.5 -23.5t73.5 -51.5q25 -24 48.5 -32t40.5 -10q28 0 58.5 24.5t45.5 71.5l85 -66q-12 -36 -31.5 -64t-42 -48t-47 -32t-46.5 -16q-9 -2 -18.5 -3t-17.5 -1q-46 0 -83 23 t-71 51q-27 23 -50 33.5t-40 10.5q-14 -1 -26 -4.5t-24 -13.5t-24.5 -28t-27.5 -46z" />
<glyph unicode="&#x12a;" horiz-adv-x="742" d="M136 0v110h173v1140h-173v110h474v-110h-168v-1140h168v-110h-474zM47 1508v108h661v-108h-661z" />
<glyph unicode="&#x12b;" horiz-adv-x="344" d="M113 0v1000h133v-1000h-133zM-135 1176v108h661v-108h-661z" />
<glyph unicode="&#x12e;" horiz-adv-x="742" d="M136 0v110h173v1140h-173v110h474v-110h-168v-1140h168v-110h-474zM299 -200q0 49 18 89t47 70.5t65.5 52t72.5 32.5l95 -40v-4q-36 -17 -67.5 -34.5t-55 -40t-37 -52t-13.5 -69.5q0 -33 19 -53.5t42 -20.5q14 0 22.5 1t15 2.5t13.5 4t17 6.5l19 -90q-11 -8 -43 -15 t-65 -7q-38 0 -68.5 12t-52 34.5t-33 53t-11.5 68.5z" />
<glyph unicode="&#x12f;" horiz-adv-x="517" d="M180 1244v158h161v-158h-161zM196 0v1000h134v-1000h-134zM31 -200q0 49 18 89t47 70.5t65.5 52t72.5 32.5l95 -40v-4q-36 -17 -67.5 -34.5t-55 -40t-37 -52t-13.5 -69.5q0 -33 19 -53.5t42 -20.5q14 0 22.5 1t15 2.5t13.5 4t17 6.5l19 -90q-11 -8 -43 -15t-65 -7 q-38 0 -68.5 12t-52 34.5t-33 53t-11.5 68.5z" />
<glyph unicode="&#x130;" horiz-adv-x="742" d="M136 0v110h173v1140h-173v110h474v-110h-168v-1140h168v-110h-474zM271 1470v164h164v-164h-164z" />
<glyph unicode="&#x131;" horiz-adv-x="344" d="M113 0v1000h133v-1000h-133z" />
<glyph unicode="&#x134;" horiz-adv-x="850" d="M79 58l47 98q19 -12 45 -24t54.5 -21t56.5 -15t50 -6q54 0 94 16t67 51t40 90.5t13 134.5v978h133v-972q0 -118 -24.5 -196.5t-69 -125.5t-107.5 -66.5t-139 -19.5q-82 0 -148.5 24t-111.5 54zM299 1422l260 232h94l258 -232h-166l-139 117l-140 -117h-167z" />
<glyph unicode="&#x135;" horiz-adv-x="466" d="M-133 -397l13 105q27 -8 67.5 -13t74.5 -5q36 0 63.5 13t46 43t28 79.5t9.5 122.5v1052h132v-1052q0 -110 -19 -181.5t-55 -113t-88 -57.5t-118 -16q-40 0 -81.5 6t-72.5 17zM-47 1159l260 232h94l258 -232h-166l-139 117l-140 -117h-167z" />
<glyph unicode="&#x136;" horiz-adv-x="1119" d="M183 0v1360h133v-622h172l366 622h160l-403 -674h-1l468 -686h-166l-425 628h-171v-628h-133zM381 -480l78 378h145l-125 -398z" />
<glyph unicode="&#x137;" horiz-adv-x="954" d="M180 0v1400h133v-822h102l293 422h154l-336 -474h-1l396 -526h-163l-346 468h-99v-468h-133zM355 -480l78 378h145l-125 -398z" />
<glyph unicode="&#x138;" horiz-adv-x="987" d="M180 0v1000h133v-422h179l292 422h154l-336 -474h-1l389 -526h-161l-341 468h-175v-468h-133z" />
<glyph unicode="&#x139;" horiz-adv-x="925" d="M184 0v1360h134v-1250h560v-110h-694zM176 1512l187 274l151 -66l-235 -248z" />
<glyph unicode="&#x13a;" horiz-adv-x="518" d="M198 0v1400h134v-1400h-134zM191 1572l187 274l151 -66l-235 -248z" />
<glyph unicode="&#x13b;" horiz-adv-x="925" d="M184 0v1360h134v-1250h560v-110h-694zM372 -480l78 378h145l-125 -398z" />
<glyph unicode="&#x13c;" horiz-adv-x="518" d="M198 0v1400h134v-1400h-134zM118 -480l78 378h145l-125 -398z" />
<glyph unicode="&#x13d;" horiz-adv-x="925" d="M184 0v1360h134v-1250h560v-110h-694zM430 931l80 436h178l-153 -456z" />
<glyph unicode="&#x13e;" horiz-adv-x="518" d="M198 0v1400h134v-1400h-134zM445 990l80 436h178l-153 -456z" />
<glyph unicode="&#x141;" horiz-adv-x="1025" d="M98 520v118l135 67v655h134v-589l186 93v-118l-186 -93v-543h560v-110h-694v587z" />
<glyph unicode="&#x142;" horiz-adv-x="660" d="M102 508v130l163 84v678h134v-608l161 84v-130l-161 -84v-662h-134v592z" />
<glyph unicode="&#x143;" horiz-adv-x="1278" d="M184 0v1360h134l656 -1123v1123h134v-1360h-134l-656 1111v-1111h-134zM540 1512l187 274l151 -66l-235 -248z" />
<glyph unicode="&#x144;" d="M180 0v1000h120l10 -112q129 132 301 132q145 0 213 -87t68 -271v-662h-133v662q0 70 -11 117.5t-33 76.5t-55.5 41.5t-77.5 12.5q-79 0 -146.5 -33.5t-122.5 -86.5v-790h-133zM446 1192l187 274l151 -66l-235 -248z" />
<glyph unicode="&#x145;" horiz-adv-x="1278" d="M184 0v1360h134l656 -1123v1123h134v-1360h-134l-656 1111v-1111h-134zM477 -480l78 378h145l-125 -398z" />
<glyph unicode="&#x146;" d="M180 0v1000h120l10 -112q129 132 301 132q145 0 213 -87t68 -271v-662h-133v662q0 70 -11 117.5t-33 76.5t-55.5 41.5t-77.5 12.5q-79 0 -146.5 -33.5t-122.5 -86.5v-790h-133zM373 -480l78 378h145l-125 -398z" />
<glyph unicode="&#x147;" horiz-adv-x="1278" d="M184 0v1360h134l656 -1123v1123h134v-1360h-134l-656 1111v-1111h-134zM312 1704h167l140 -133l139 133h166l-258 -232h-94z" />
<glyph unicode="&#x148;" d="M180 0v1000h120l10 -112q129 132 301 132q145 0 213 -87t68 -271v-662h-133v662q0 70 -11 117.5t-33 76.5t-55.5 41.5t-77.5 12.5q-79 0 -146.5 -33.5t-122.5 -86.5v-790h-133zM218 1384h167l140 -133l139 133h166l-258 -232h-94z" />
<glyph unicode="&#x14a;" horiz-adv-x="1298" d="M184 0v1360h134l652 -1116v716h4v400h134v-1360h-5v-12q0 -118 -24.5 -196.5t-69 -125.5t-107.5 -66.5t-139 -19.5q-82 0 -148.5 24t-111.5 54l47 98q19 -12 45 -24t54.5 -21t56.5 -15t50 -6q54 0 94 16t67 51t40 90.5t13 134.5v25l-652 1104v-1111h-134z" />
<glyph unicode="&#x14b;" horiz-adv-x="1080" d="M180 0v1000h120l10 -112q129 132 301 132q145 0 213 -87t68 -271v-222h1v-452q0 -118 -24.5 -196.5t-69 -125.5t-107.5 -66.5t-139 -19.5q-83 0 -149.5 24t-113.5 54l52 98q18 -12 44.5 -24t55 -21t56.5 -15t49 -6q54 0 94 16t66 51t39 90.5t13 134.5v680q0 70 -11 117.5 t-33 76.5t-55.5 41.5t-77.5 12.5q-79 0 -146.5 -33.5t-122.5 -86.5v-790h-133z" />
<glyph unicode="&#x14c;" horiz-adv-x="1235" d="M115 680q0 161 36.5 290.5t102 220.5t157 140t201.5 49t203.5 -49t162 -140t107 -220.5t38.5 -290.5q0 -162 -38.5 -291.5t-107 -220.5t-162 -139.5t-203.5 -48.5t-201.5 48.5t-157 139.5t-102 220.5t-36.5 291.5zM249 680q0 -150 27 -261t75.5 -184t115 -109t145.5 -36 q81 0 150 36t119.5 109t79.5 184t29 261t-29 261t-79.5 184t-119.5 109t-150 36q-79 0 -145.5 -36t-115 -109t-75.5 -184t-27 -261zM279 1526v108h661v-108h-661z" />
<glyph unicode="&#x14d;" horiz-adv-x="1045" d="M123 500q0 121 28 217t79.5 163.5t126 103.5t167.5 36q92 0 168.5 -36t131 -103.5t85 -163.5t30.5 -217q0 -122 -30.5 -218t-85 -163.5t-131 -103t-168.5 -35.5q-93 0 -167.5 35.5t-126 103t-79.5 163.5t-28 218zM256 500q0 -106 19 -183t54.5 -127.5t85 -75t109.5 -24.5 q61 0 113 24.5t89.5 75t58.5 127.5t21 183t-21 183.5t-58.5 128t-89.5 74.5t-113 24q-60 0 -109.5 -24t-85 -74.5t-54.5 -128t-19 -183.5zM191 1187v108h661v-108h-661z" />
<glyph unicode="&#x150;" horiz-adv-x="1235" d="M115 680q0 161 36.5 290.5t102 220.5t157 140t201.5 49t203.5 -49t162 -140t107 -220.5t38.5 -290.5q0 -162 -38.5 -291.5t-107 -220.5t-162 -139.5t-203.5 -48.5t-201.5 48.5t-157 139.5t-102 220.5t-36.5 291.5zM249 680q0 -150 27 -261t75.5 -184t115 -109t145.5 -36 q81 0 150 36t119.5 109t79.5 184t29 261t-29 261t-79.5 184t-119.5 109t-150 36q-79 0 -145.5 -36t-115 -109t-75.5 -184t-27 -261zM371 1530l208 288l171 -60l-269 -268zM681 1530l263 288l187 -60l-327 -268z" />
<glyph unicode="&#x151;" horiz-adv-x="1045" d="M123 500q0 121 28 217t79.5 163.5t126 103.5t167.5 36q92 0 168.5 -36t131 -103.5t85 -163.5t30.5 -217q0 -122 -30.5 -218t-85 -163.5t-131 -103t-168.5 -35.5q-93 0 -167.5 35.5t-126 103t-79.5 163.5t-28 218zM256 500q0 -106 19 -183t54.5 -127.5t85 -75t109.5 -24.5 q61 0 113 24.5t89.5 75t58.5 127.5t21 183t-21 183.5t-58.5 128t-89.5 74.5t-113 24q-60 0 -109.5 -24t-85 -74.5t-54.5 -128t-19 -183.5zM283 1190l208 288l171 -60l-269 -268zM593 1190l263 288l187 -60l-327 -268z" />
<glyph unicode="&#x152;" horiz-adv-x="1533" d="M116 680q0 157 40 283.5t115.5 215.5t184.5 137t246 48q17 0 34 -0.5t33 -3.5h663v-110h-536v-492h479v-110h-479v-538h536v-110h-644q-8 -1 -19.5 -2t-25 -1.5t-27.5 -0.5h-25q-138 0 -245 48t-180.5 136.5t-111.5 215t-38 284.5zM249 680q0 -131 29.5 -237t86 -181 t138.5 -115.5t188 -40.5q11 0 31.5 1t39.5 4v1136q-14 3 -29 5t-31 2q-105 0 -189 -40.5t-142.5 -115.5t-90 -181t-31.5 -237z" />
<glyph unicode="&#x153;" horiz-adv-x="1647" d="M113 500q0 121 28 217t79.5 163.5t126 103.5t167.5 36q115 0 203.5 -54.5t142.5 -155.5q49 103 132.5 156.5t198.5 53.5q75 0 139 -26t110 -76.5t72 -124t26 -167.5v-110h-605v-24q0 -95 18 -170t54 -126.5t90.5 -78.5t126.5 -27q47 0 85 6.5t69 16t55 20.5t43 21 l37 -102q-53 -33 -127 -52.5t-159 -19.5q-131 0 -222.5 53t-142.5 155q-54 -100 -142.5 -154t-203.5 -54q-93 0 -167.5 35.5t-126 103t-79.5 163.5t-28 218zM246 500q0 -106 19 -183t54.5 -127.5t85 -75t109.5 -24.5q61 0 113 24.5t89.5 75t58.5 127.5t21 183t-21 183.5 t-58.5 128t-89.5 74.5t-113 24q-60 0 -109.5 -24t-85 -74.5t-54.5 -128t-19 -183.5zM940 626h464q0 76 -17 129.5t-46 88t-67 50.5t-79 16q-52 0 -94.5 -14t-75 -47t-54.5 -87.5t-31 -135.5z" />
<glyph unicode="&#x154;" horiz-adv-x="1092" d="M184 0v1360h368q96 0 170 -24.5t124.5 -71.5t77 -115.5t26.5 -156.5q0 -54 -15.5 -104t-42 -93.5t-62 -78.5t-75.5 -60l250 -656h-138l-235 626h-314v-626h-134zM318 736h377q21 19 42.5 40.5t39 50t29 68.5t11.5 97q0 72 -20 121.5t-57.5 79.5t-90.5 43.5t-120 13.5 h-211v-514zM412 1512l187 274l151 -66l-235 -248z" />
<glyph unicode="&#x155;" horiz-adv-x="671" d="M180 0v1000h120l9 -131q53 83 113.5 117t126.5 34q18 0 37 -1t38 -3l-15 -134q-23 5 -46 6.5t-52 1.5q-56 0 -106.5 -38t-91.5 -99v-753h-133zM193 1192l187 274l151 -66l-235 -248z" />
<glyph unicode="&#x156;" horiz-adv-x="1092" d="M184 0v1360h368q96 0 170 -24.5t124.5 -71.5t77 -115.5t26.5 -156.5q0 -54 -15.5 -104t-42 -93.5t-62 -78.5t-75.5 -60l250 -656h-138l-235 626h-314v-626h-134zM318 736h377q21 19 42.5 40.5t39 50t29 68.5t11.5 97q0 72 -20 121.5t-57.5 79.5t-90.5 43.5t-120 13.5 h-211v-514zM381 -480l78 378h145l-125 -398z" />
<glyph unicode="&#x157;" horiz-adv-x="671" d="M180 0v1000h120l9 -131q53 83 113.5 117t126.5 34q18 0 37 -1t38 -3l-15 -134q-23 5 -46 6.5t-52 1.5q-56 0 -106.5 -38t-91.5 -99v-753h-133zM97 -480l78 378h145l-125 -398z" />
<glyph unicode="&#x158;" horiz-adv-x="1092" d="M184 0v1360h368q96 0 170 -24.5t124.5 -71.5t77 -115.5t26.5 -156.5q0 -54 -15.5 -104t-42 -93.5t-62 -78.5t-75.5 -60l250 -656h-138l-235 626h-314v-626h-134zM318 736h377q21 19 42.5 40.5t39 50t29 68.5t11.5 97q0 72 -20 121.5t-57.5 79.5t-90.5 43.5t-120 13.5 h-211v-514zM184 1704h167l140 -133l139 133h166l-258 -232h-94z" />
<glyph unicode="&#x159;" horiz-adv-x="671" d="M180 0v1000h120l9 -131q53 83 113.5 117t126.5 34q18 0 37 -1t38 -3l-15 -134q-23 5 -46 6.5t-52 1.5q-56 0 -106.5 -38t-91.5 -99v-753h-133zM-34 1384h167l140 -133l139 133h166l-258 -232h-94z" />
<glyph unicode="&#x15a;" horiz-adv-x="964" d="M110 1010q0 84 26.5 152.5t76 116.5t120.5 74.5t160 26.5q55 0 104.5 -7.5t92 -18t76 -22.5t56.5 -22l-34 -108q-32 13 -63 25t-65.5 21.5t-75 15.5t-91.5 6q-125 0 -187 -68t-62 -182q0 -46 14 -86.5t44 -76.5t78.5 -66.5t117.5 -56.5q90 -33 158.5 -70.5t115 -83.5 t70 -103t23.5 -129q0 -83 -28 -151t-79.5 -116t-124.5 -74.5t-163 -26.5q-52 0 -104.5 5.5t-100 14.5t-87.5 21.5t-67 26.5l32 108q36 -14 72 -26t75.5 -21t84 -14t97.5 -5q58 0 106 16.5t82 48.5t53 79t19 108q0 55 -21 99t-59.5 79t-92.5 63t-119 51q-69 24 -129.5 58 t-105 80.5t-70 105.5t-25.5 132zM402 1528l187 274l151 -66l-235 -248z" />
<glyph unicode="&#x15b;" horiz-adv-x="858" d="M109 54l32 112q35 -16 66.5 -29.5t65 -24t73.5 -16.5t91 -6q45 0 79 12.5t57 35t35 52t12 64.5q0 40 -13.5 70t-40 53.5t-66.5 42t-94 36.5q-61 19 -112.5 48t-89 65.5t-59 80t-21.5 90.5q0 134 84 207t236 73q96 0 167 -20.5t113 -41.5l-29 -108q-29 11 -55 22t-55 19.5 t-64 13.5t-80 5q-94 0 -139 -41.5t-45 -112.5q0 -27 8.5 -54.5t29.5 -53t56.5 -47.5t89.5 -39q163 -50 237.5 -126.5t74.5 -169.5q0 -59 -22.5 -111t-64 -91t-101 -61.5t-134.5 -22.5q-47 0 -92.5 5.5t-87.5 15.5t-78.5 23.5t-63.5 29.5zM348 1192l187 274l151 -66 l-235 -248z" />
<glyph unicode="&#x15c;" horiz-adv-x="964" d="M110 1010q0 84 26.5 152.5t76 116.5t120.5 74.5t160 26.5q55 0 104.5 -7.5t92 -18t76 -22.5t56.5 -22l-34 -108q-32 13 -63 25t-65.5 21.5t-75 15.5t-91.5 6q-125 0 -187 -68t-62 -182q0 -46 14 -86.5t44 -76.5t78.5 -66.5t117.5 -56.5q90 -33 158.5 -70.5t115 -83.5 t70 -103t23.5 -129q0 -83 -28 -151t-79.5 -116t-124.5 -74.5t-163 -26.5q-52 0 -104.5 5.5t-100 14.5t-87.5 21.5t-67 26.5l32 108q36 -14 72 -26t75.5 -21t84 -14t97.5 -5q58 0 106 16.5t82 48.5t53 79t19 108q0 55 -21 99t-59.5 79t-92.5 63t-119 51q-69 24 -129.5 58 t-105 80.5t-70 105.5t-25.5 132zM186 1486l260 232h94l258 -232h-166l-139 117l-140 -117h-167z" />
<glyph unicode="&#x15d;" horiz-adv-x="858" d="M109 54l32 112q35 -16 66.5 -29.5t65 -24t73.5 -16.5t91 -6q45 0 79 12.5t57 35t35 52t12 64.5q0 40 -13.5 70t-40 53.5t-66.5 42t-94 36.5q-61 19 -112.5 48t-89 65.5t-59 80t-21.5 90.5q0 134 84 207t236 73q96 0 167 -20.5t113 -41.5l-29 -108q-29 11 -55 22t-55 19.5 t-64 13.5t-80 5q-94 0 -139 -41.5t-45 -112.5q0 -27 8.5 -54.5t29.5 -53t56.5 -47.5t89.5 -39q163 -50 237.5 -126.5t74.5 -169.5q0 -59 -22.5 -111t-64 -91t-101 -61.5t-134.5 -22.5q-47 0 -92.5 5.5t-87.5 15.5t-78.5 23.5t-63.5 29.5zM132 1150l260 232h94l258 -232h-166 l-139 117l-140 -117h-167z" />
<glyph unicode="&#x15e;" horiz-adv-x="964" d="M110 1010q0 84 26.5 152.5t76 116.5t120.5 74.5t160 26.5q55 0 104.5 -7.5t92 -18t76 -22.5t56.5 -22l-34 -108q-32 13 -63 25t-65.5 21.5t-75 15.5t-91.5 6q-125 0 -187 -68t-62 -182q0 -46 14 -86.5t44 -76.5t78.5 -66.5t117.5 -56.5q90 -33 158.5 -70.5t115 -83.5 t70 -103t23.5 -129q0 -83 -28 -151t-79.5 -116t-124.5 -74.5t-163 -26.5q-52 0 -104.5 5.5t-100 14.5t-87.5 21.5t-67 26.5l32 108q36 -14 72 -26t75.5 -21t84 -14t97.5 -5q58 0 106 16.5t82 48.5t53 79t19 108q0 55 -21 99t-59.5 79t-92.5 63t-119 51q-69 24 -129.5 58 t-105 80.5t-70 105.5t-25.5 132zM277 -274q51 1 87 13.5t58.5 33.5t33 49t10.5 60q0 34 -10.5 70.5t-28.5 71.5l131 -12q29 -64 29 -129q0 -50 -18 -96t-54 -80t-90 -52.5t-126 -14.5z" />
<glyph unicode="&#x15f;" horiz-adv-x="858" d="M109 54l32 112q35 -16 66.5 -29.5t65 -24t73.5 -16.5t91 -6q45 0 79 12.5t57 35t35 52t12 64.5q0 40 -13.5 70t-40 53.5t-66.5 42t-94 36.5q-61 19 -112.5 48t-89 65.5t-59 80t-21.5 90.5q0 134 84 207t236 73q96 0 167 -20.5t113 -41.5l-29 -108q-29 11 -55 22t-55 19.5 t-64 13.5t-80 5q-94 0 -139 -41.5t-45 -112.5q0 -27 8.5 -54.5t29.5 -53t56.5 -47.5t89.5 -39q163 -50 237.5 -126.5t74.5 -169.5q0 -59 -22.5 -111t-64 -91t-101 -61.5t-134.5 -22.5q-47 0 -92.5 5.5t-87.5 15.5t-78.5 23.5t-63.5 29.5zM237 -274q51 1 87 13.5t58.5 33.5 t33 49t10.5 60q0 34 -10.5 70.5t-28.5 71.5l131 -12q29 -64 29 -129q0 -50 -18 -96t-54 -80t-90 -52.5t-126 -14.5z" />
<glyph unicode="&#x160;" horiz-adv-x="964" d="M110 1010q0 84 26.5 152.5t76 116.5t120.5 74.5t160 26.5q55 0 104.5 -7.5t92 -18t76 -22.5t56.5 -22l-34 -108q-32 13 -63 25t-65.5 21.5t-75 15.5t-91.5 6q-125 0 -187 -68t-62 -182q0 -46 14 -86.5t44 -76.5t78.5 -66.5t117.5 -56.5q90 -33 158.5 -70.5t115 -83.5 t70 -103t23.5 -129q0 -83 -28 -151t-79.5 -116t-124.5 -74.5t-163 -26.5q-52 0 -104.5 5.5t-100 14.5t-87.5 21.5t-67 26.5l32 108q36 -14 72 -26t75.5 -21t84 -14t97.5 -5q58 0 106 16.5t82 48.5t53 79t19 108q0 55 -21 99t-59.5 79t-92.5 63t-119 51q-69 24 -129.5 58 t-105 80.5t-70 105.5t-25.5 132zM174 1720h167l140 -133l139 133h166l-258 -232h-94z" />
<glyph unicode="&#x161;" horiz-adv-x="858" d="M109 54l32 112q35 -16 66.5 -29.5t65 -24t73.5 -16.5t91 -6q45 0 79 12.5t57 35t35 52t12 64.5q0 40 -13.5 70t-40 53.5t-66.5 42t-94 36.5q-61 19 -112.5 48t-89 65.5t-59 80t-21.5 90.5q0 134 84 207t236 73q96 0 167 -20.5t113 -41.5l-29 -108q-29 11 -55 22t-55 19.5 t-64 13.5t-80 5q-94 0 -139 -41.5t-45 -112.5q0 -27 8.5 -54.5t29.5 -53t56.5 -47.5t89.5 -39q163 -50 237.5 -126.5t74.5 -169.5q0 -59 -22.5 -111t-64 -91t-101 -61.5t-134.5 -22.5q-47 0 -92.5 5.5t-87.5 15.5t-78.5 23.5t-63.5 29.5zM120 1384h167l140 -133l139 133h166 l-258 -232h-94z" />
<glyph unicode="&#x162;" horiz-adv-x="1066" d="M81 1250v110h908v-110h-384v-1250h-133v1250h-391zM387 -480l78 378h145l-125 -398z" />
<glyph unicode="&#x163;" horiz-adv-x="714" d="M59 890l23 110h135v260l133 20v-280h263v-110h-263v-604q0 -56 7.5 -93.5t23.5 -60t40.5 -32.5t59.5 -10q43 0 87.5 7t72.5 13l7 -104q-32 -11 -79.5 -18.5t-92.5 -7.5q-62 0 -110.5 12.5t-81.5 46t-50 93t-17 154.5v604h-158zM320 -480l78 378h145l-125 -398z" />
<glyph unicode="&#x164;" horiz-adv-x="1066" d="M81 1250v110h908v-110h-384v-1250h-133v1250h-391zM227 1704h167l140 -133l139 133h166l-258 -232h-94z" />
<glyph unicode="&#x165;" horiz-adv-x="714" d="M59 890l23 110h135v260l133 20v-280h263v-110h-263v-604q0 -56 7.5 -93.5t23.5 -60t40.5 -32.5t59.5 -10q43 0 87.5 7t72.5 13l7 -104q-32 -11 -79.5 -18.5t-92.5 -7.5q-62 0 -110.5 12.5t-81.5 46t-50 93t-17 154.5v604h-158zM567 821l80 436h178l-153 -456z" />
<glyph unicode="&#x166;" horiz-adv-x="1039" d="M68 894v108h404v248h-391v110h908v-110h-384v-248h389v-108h-389v-894h-133v894h-404z" />
<glyph unicode="&#x167;" horiz-adv-x="741" d="M59 890l23 110h135v260l133 20v-280h263v-110h-263v-184h276v-108h-276v-312q0 -56 7.5 -93.5t23.5 -60t40.5 -32.5t59.5 -10q43 0 87.5 7t72.5 13l7 -104q-32 -11 -79.5 -18.5t-92.5 -7.5q-62 0 -110.5 12.5t-81.5 46t-50 93t-17 154.5v312h-153v108h153v184h-158z" />
<glyph unicode="&#x168;" horiz-adv-x="1254" d="M184 398v962h134v-962q0 -74 22.5 -131t63.5 -96.5t98 -60t126 -20.5q70 0 128.5 20.5t101 60t66.5 96.5t24 131v962h134v-960q0 -101 -33 -179t-93 -131.5t-143.5 -81.5t-184.5 -28t-182.5 27.5t-140 81t-90 131t-31.5 178.5zM293 1546q11 35 30.5 63t42.5 48t47.5 33 t47.5 18q15 3 29 3q47 0 85.5 -23.5t73.5 -51.5q25 -24 48.5 -32t40.5 -10q28 0 58.5 24.5t45.5 71.5l85 -66q-12 -36 -31.5 -64t-42 -48t-47 -32t-46.5 -16q-9 -2 -18.5 -3t-17.5 -1q-46 0 -83 23t-71 51q-27 23 -50 33.5t-40 10.5q-14 -1 -26 -4.5t-24 -13.5t-24.5 -28 t-27.5 -46z" />
<glyph unicode="&#x169;" d="M180 338v662h133v-662q0 -69 9.5 -116.5t30 -76.5t52.5 -42t76 -13q76 0 146.5 33.5t131.5 87.5v789h133v-1000h-127l-4 114q-66 -64 -143.5 -99t-163.5 -35q-65 0 -116 16.5t-86 57t-53.5 109.5t-18.5 175zM204 1206q11 35 30.5 63t42.5 48t47.5 33t47.5 18q15 3 29 3 q47 0 85.5 -23.5t73.5 -51.5q25 -24 48.5 -32t40.5 -10q28 0 58.5 24.5t45.5 71.5l85 -66q-12 -36 -31.5 -64t-42 -48t-47 -32t-46.5 -16q-9 -2 -18.5 -3t-17.5 -1q-46 0 -83 23t-71 51q-27 23 -50 33.5t-40 10.5q-14 -1 -26 -4.5t-24 -13.5t-24.5 -28t-27.5 -46z" />
<glyph unicode="&#x16a;" horiz-adv-x="1254" d="M184 398v962h134v-962q0 -74 22.5 -131t63.5 -96.5t98 -60t126 -20.5q70 0 128.5 20.5t101 60t66.5 96.5t24 131v962h134v-960q0 -101 -33 -179t-93 -131.5t-143.5 -81.5t-184.5 -28t-182.5 27.5t-140 81t-90 131t-31.5 178.5zM286 1508v108h661v-108h-661z" />
<glyph unicode="&#x16b;" d="M180 338v662h133v-662q0 -69 9.5 -116.5t30 -76.5t52.5 -42t76 -13q76 0 146.5 33.5t131.5 87.5v789h133v-1000h-127l-4 114q-66 -64 -143.5 -99t-163.5 -35q-65 0 -116 16.5t-86 57t-53.5 109.5t-18.5 175zM197 1169v108h661v-108h-661z" />
<glyph unicode="&#x16c;" horiz-adv-x="1254" d="M184 398v962h134v-962q0 -74 22.5 -131t63.5 -96.5t98 -60t126 -20.5q70 0 128.5 20.5t101 60t66.5 96.5t24 131v962h134v-960q0 -101 -33 -179t-93 -131.5t-143.5 -81.5t-184.5 -28t-182.5 27.5t-140 81t-90 131t-31.5 178.5zM316 1708h122q0 -62 44 -99t132 -37 t132.5 37t44.5 99h119q0 -58 -22 -101.5t-61 -73t-93.5 -44t-119.5 -13.5q-66 -1 -120.5 13.5t-94 44t-61.5 73t-22 101.5z" />
<glyph unicode="&#x16d;" d="M180 338v662h133v-662q0 -69 9.5 -116.5t30 -76.5t52.5 -42t76 -13q76 0 146.5 33.5t131.5 87.5v789h133v-1000h-127l-4 114q-66 -64 -143.5 -99t-163.5 -35q-65 0 -116 16.5t-86 57t-53.5 109.5t-18.5 175zM227 1369h122q0 -62 44 -99t132 -37t132.5 37t44.5 99h119 q0 -58 -22 -101.5t-61 -73t-93.5 -44t-119.5 -13.5q-66 -1 -120.5 13.5t-94 44t-61.5 73t-22 101.5z" />
<glyph unicode="&#x16e;" horiz-adv-x="1254" d="M184 398v962h134v-962q0 -74 22.5 -131t63.5 -96.5t98 -60t126 -20.5q70 0 128.5 20.5t101 60t66.5 96.5t24 131v962h134v-960q0 -101 -33 -179t-93 -131.5t-143.5 -81.5t-184.5 -28t-182.5 27.5t-140 81t-90 131t-31.5 178.5zM423 1664q0 40 15 75t40.5 61.5t59.5 42 t72 15.5t71.5 -15.5t59 -42t40.5 -61.5t15 -75q0 -41 -15 -75t-40.5 -59.5t-59 -39.5t-71.5 -14t-72 14t-59.5 39.5t-40.5 59.5t-15 75zM535 1664q0 -32 23 -55t52 -23q32 0 52 23t20 55q0 33 -20 58.5t-52 25.5q-14 0 -27.5 -7t-24 -18.5t-17 -27t-6.5 -31.5z" />
<glyph unicode="&#x16f;" d="M180 338v662h133v-662q0 -69 9.5 -116.5t30 -76.5t52.5 -42t76 -13q76 0 146.5 33.5t131.5 87.5v789h133v-1000h-127l-4 114q-66 -64 -143.5 -99t-163.5 -35q-65 0 -116 16.5t-86 57t-53.5 109.5t-18.5 175zM334 1325q0 40 15 75t40.5 61.5t59.5 42t72 15.5t71.5 -15.5 t59 -42t40.5 -61.5t15 -75q0 -41 -15 -75t-40.5 -59.5t-59 -39.5t-71.5 -14t-72 14t-59.5 39.5t-40.5 59.5t-15 75zM446 1325q0 -32 23 -55t52 -23q32 0 52 23t20 55q0 33 -20 58.5t-52 25.5q-14 0 -27.5 -7t-24 -18.5t-17 -27t-6.5 -31.5z" />
<glyph unicode="&#x170;" horiz-adv-x="1254" d="M184 398v962h134v-962q0 -74 22.5 -131t63.5 -96.5t98 -60t126 -20.5q70 0 128.5 20.5t101 60t66.5 96.5t24 131v962h134v-960q0 -101 -33 -179t-93 -131.5t-143.5 -81.5t-184.5 -28t-182.5 27.5t-140 81t-90 131t-31.5 178.5zM378 1512l208 288l171 -60l-269 -268z M688 1512l263 288l187 -60l-327 -268z" />
<glyph unicode="&#x171;" d="M180 338v662h133v-662q0 -69 9.5 -116.5t30 -76.5t52.5 -42t76 -13q76 0 146.5 33.5t131.5 87.5v789h133v-1000h-127l-4 114q-66 -64 -143.5 -99t-163.5 -35q-65 0 -116 16.5t-86 57t-53.5 109.5t-18.5 175zM289 1172l208 288l171 -60l-269 -268zM599 1172l263 288 l187 -60l-327 -268z" />
<glyph unicode="&#x172;" horiz-adv-x="1254" d="M184 398v962h134v-962q0 -74 22.5 -131t63.5 -96.5t98 -60t126 -20.5q70 0 128.5 20.5t101 60t66.5 96.5t24 131v962h134v-960q0 -101 -33 -179t-93 -131.5t-143.5 -81.5t-184.5 -28t-182.5 27.5t-140 81t-90 131t-31.5 178.5zM465 -200q0 49 18 89t47 70.5t65.5 52 t72.5 32.5l95 -40v-4q-36 -17 -67.5 -34.5t-55 -40t-37 -52t-13.5 -69.5q0 -33 19 -53.5t42 -20.5q14 0 22.5 1t15 2.5t13.5 4t17 6.5l19 -90q-11 -8 -43 -15t-65 -7q-38 0 -68.5 12t-52 34.5t-33 53t-11.5 68.5z" />
<glyph unicode="&#x173;" d="M180 338v662h133v-662q0 -69 9.5 -116.5t30 -76.5t52.5 -42t76 -13q76 0 146.5 33.5t131.5 87.5v789h133v-1000h-127l-4 114q-66 -64 -143.5 -99t-163.5 -35q-65 0 -116 16.5t-86 57t-53.5 109.5t-18.5 175zM560 -200q0 49 18 89t47 70.5t65.5 52t72.5 32.5l95 -40v-4 q-36 -17 -67.5 -34.5t-55 -40t-37 -52t-13.5 -69.5q0 -33 19 -53.5t42 -20.5q14 0 22.5 1t15 2.5t13.5 4t17 6.5l19 -90q-11 -8 -43 -15t-65 -7q-38 0 -68.5 12t-52 34.5t-33 53t-11.5 68.5z" />
<glyph unicode="&#x178;" horiz-adv-x="1024" d="M77 1360h144l292 -712l294 712h143l-369 -870v-490h-133v486zM235 1470v170h174v-170h-174zM649 1470v170h176v-170h-176z" />
<glyph unicode="&#x179;" horiz-adv-x="1118" d="M136 0v102l650 1148h-644v110h818v-80l-676 -1170h741l-39 -110h-850zM463 1512l187 274l151 -66l-235 -248z" />
<glyph unicode="&#x17a;" horiz-adv-x="989" d="M163 116l529 774h-522v110h684v-102l-550 -788h587l-27 -110h-700zM453 1172l187 274l151 -66l-235 -248z" />
<glyph unicode="&#x17b;" horiz-adv-x="1118" d="M136 0v102l650 1148h-644v110h818v-80l-676 -1170h741l-39 -110h-850zM439 1470v164h164v-164h-164z" />
<glyph unicode="&#x17c;" horiz-adv-x="989" d="M163 116l529 774h-522v110h684v-102l-550 -788h587l-27 -110h-700zM429 1131v164h164v-164h-164z" />
<glyph unicode="&#x17d;" horiz-adv-x="1118" d="M136 0v102l650 1148h-644v110h818v-80l-676 -1170h741l-39 -110h-850zM235 1704h167l140 -133l139 133h166l-258 -232h-94z" />
<glyph unicode="&#x17e;" horiz-adv-x="989" d="M163 116l529 774h-522v110h684v-102l-550 -788h587l-27 -110h-700zM225 1365h167l140 -133l139 133h166l-258 -232h-94z" />
<glyph unicode="&#x192;" horiz-adv-x="673" d="M-60 -388l15 102q27 -8 62.5 -15t73.5 -7q33 0 56.5 8.5t38.5 27t22 48t7 72.5v1042h-137l22 110h115v74q0 106 19 173t55.5 105.5t89 53t118.5 14.5q44 0 91 -9t79 -21l-4 -102q-13 4 -31 8t-38.5 7t-41.5 5t-41 2q-43 0 -74 -12.5t-50.5 -40.5t-29 -73t-9.5 -110v-74 h267v-110h-267v-1042q0 -75 -18 -126t-51 -82t-80 -44.5t-105 -13.5q-42 0 -81.5 8t-72.5 22z" />
<glyph unicode="&#x237;" horiz-adv-x="466" d="M-133 -397l13 105q27 -8 67.5 -13t74.5 -5q36 0 63.5 13t46 43t28 79.5t9.5 122.5v1052h132v-1052q0 -110 -19 -181.5t-55 -113t-88 -57.5t-118 -16q-40 0 -81.5 6t-72.5 17z" />
<glyph unicode="&#x2c6;" horiz-adv-x="720" d="M80 1148l260 232h94l258 -232h-166l-139 117l-140 -117h-167z" />
<glyph unicode="&#x2c7;" horiz-adv-x="720" d="M80 1380h167l140 -133l139 133h166l-258 -232h-94z" />
<glyph unicode="&#x2d8;" horiz-adv-x="708" d="M68 1380h122q0 -62 44 -99t132 -37t132.5 37t44.5 99h119q0 -58 -22 -101.5t-61 -73t-93.5 -44t-119.5 -13.5q-66 -1 -120.5 13.5t-94 44t-61.5 73t-22 101.5z" />
<glyph unicode="&#x2d9;" horiz-adv-x="366" d="M104 1226v164h164v-164h-164z" />
<glyph unicode="&#x2da;" horiz-adv-x="572" d="M101 1422q0 40 15 75t40.5 61.5t59.5 42t72 15.5t71.5 -15.5t59 -42t40.5 -61.5t15 -75q0 -41 -15 -75t-40.5 -59.5t-59 -39.5t-71.5 -14t-72 14t-59.5 39.5t-40.5 59.5t-15 75zM213 1422q0 -32 23 -55t52 -23q32 0 52 23t20 55q0 33 -20 58.5t-52 25.5q-14 0 -27.5 -7 t-24 -18.5t-17 -27t-6.5 -31.5z" />
<glyph unicode="&#x2db;" horiz-adv-x="448" d="M70 -200q0 49 18 89t47 70.5t65.5 52t72.5 32.5l95 -40v-4q-36 -17 -67.5 -34.5t-55 -40t-37 -52t-13.5 -69.5q0 -33 19 -53.5t42 -20.5q14 0 22.5 1t15 2.5t13.5 4t17 6.5l19 -90q-11 -8 -43 -15t-65 -7q-38 0 -68.5 12t-52 34.5t-33 53t-11.5 68.5z" />
<glyph unicode="&#x2dc;" horiz-adv-x="838" d="M104 1202q11 35 30.5 63t42.5 48t47.5 33t47.5 18q15 3 29 3q47 0 85.5 -23.5t73.5 -51.5q25 -24 48.5 -32t40.5 -10q28 0 58.5 24.5t45.5 71.5l85 -66q-12 -36 -31.5 -64t-42 -48t-47 -32t-46.5 -16q-9 -2 -18.5 -3t-17.5 -1q-46 0 -83 23t-71 51q-27 23 -50 33.5 t-40 10.5q-14 -1 -26 -4.5t-24 -13.5t-24.5 -28t-27.5 -46z" />
<glyph unicode="&#x2dd;" horiz-adv-x="992" d="M136 1152l208 288l171 -60l-269 -268zM446 1152l263 288l187 -60l-327 -268z" />
<glyph unicode="&#x3c0;" horiz-adv-x="1137" d="M72 890v110h1001v-110h-205v-592q0 -96 43 -155t129 -59l-9 -110q-69 0 -124 19t-93 59t-58.5 101t-20.5 145v592h-311v-890h-133v890h-219z" />
<glyph unicode="&#x2000;" horiz-adv-x="930" />
<glyph unicode="&#x2001;" horiz-adv-x="1860" />
<glyph unicode="&#x2002;" horiz-adv-x="930" />
<glyph unicode="&#x2003;" horiz-adv-x="1860" />
<glyph unicode="&#x2004;" horiz-adv-x="620" />
<glyph unicode="&#x2005;" horiz-adv-x="465" />
<glyph unicode="&#x2006;" horiz-adv-x="310" />
<glyph unicode="&#x2007;" horiz-adv-x="310" />
<glyph unicode="&#x2008;" horiz-adv-x="232" />
<glyph unicode="&#x2009;" horiz-adv-x="372" />
<glyph unicode="&#x200a;" horiz-adv-x="103" />
<glyph unicode="&#x2010;" horiz-adv-x="688" d="M104 586v120h484v-120h-484z" />
<glyph unicode="&#x2011;" horiz-adv-x="688" d="M104 586v120h484v-120h-484z" />
<glyph unicode="&#x2012;" horiz-adv-x="688" d="M104 586v120h484v-120h-484z" />
<glyph unicode="&#x2013;" horiz-adv-x="1019" d="M80 610v110h859v-110h-859z" />
<glyph unicode="&#x2014;" horiz-adv-x="1596" d="M95 610v110h1394v-110h-1394z" />
<glyph unicode="&#x2018;" horiz-adv-x="411" d="M80 946l156 456l103 -20l-81 -436h-178z" />
<glyph unicode="&#x2019;" horiz-adv-x="411" d="M78 966l80 436h178l-153 -456z" />
<glyph unicode="&#x201a;" horiz-adv-x="512" d="M118 -232l61 390h147l-114 -404z" />
<glyph unicode="&#x201c;" horiz-adv-x="660" d="M318.005 1382.06l-79.9951 -435.973h-177.989l152.99 455.972zM577.005 1382.06l-79.9951 -435.973h-177.989l152.99 455.972z" />
<glyph unicode="&#x201d;" horiz-adv-x="660" d="M89 966l80 436h178l-153 -456zM344 966l80 436h178l-153 -456z" />
<glyph unicode="&#x201e;" horiz-adv-x="678" d="M118 -232l61 390h147l-114 -404zM362 -232l61 390h147l-114 -404z" />
<glyph unicode="&#x2020;" horiz-adv-x="984" d="M104 890v110h319v360h133v-360h330v-110h-330v-890h-133v890h-319z" />
<glyph unicode="&#x2021;" horiz-adv-x="984" d="M104 4v110h319v776h-319v110h319v360h133v-360h330v-110h-330v-776h330v-110h-330v-404h-133v404h-319z" />
<glyph unicode="&#x2022;" horiz-adv-x="602" d="M114 688q0 41 14 78t39.5 64.5t59.5 43.5t75 16q39 0 73.5 -16t60 -43.5t40.5 -64.5t15 -78t-15 -77.5t-40.5 -63.5t-60 -43t-73.5 -16q-41 0 -75 16t-59.5 43t-39.5 63.5t-14 77.5z" />
<glyph unicode="&#x2026;" horiz-adv-x="1363" d="M153 0v132h151v-132h-151zM618 0v132h151v-132h-151zM1098 0v132h151v-132h-151z" />
<glyph unicode="&#x202f;" horiz-adv-x="372" />
<glyph unicode="&#x2030;" horiz-adv-x="1687" d="M109 1076q0 71 18.5 127.5t52.5 95.5t82.5 60t107.5 21t108 -21t84.5 -60t55 -95.5t19.5 -127.5q0 -72 -19.5 -129t-55 -96t-84.5 -60t-108 -21t-107.5 21t-82.5 60t-52.5 96t-18.5 129zM184 0l801 1360h105l-797 -1360h-109zM233 1076q0 -94 37 -145t100 -51 q62 0 102.5 51t40.5 145t-40.5 144t-102.5 50q-63 0 -100 -50t-37 -144zM668 290q0 71 18.5 127.5t53 95.5t82 60t106.5 21q64 0 116.5 -24.5t87.5 -70.5q35 46 85.5 70.5t114.5 24.5q59 0 108 -21t84 -60t54.5 -95.5t19.5 -127.5q0 -72 -19.5 -129t-54.5 -96t-84 -60 t-108 -21q-130 0 -200 95q-35 -47 -87.5 -71t-116.5 -24q-59 0 -106.5 21t-82 60t-53 96t-18.5 129zM791 290q0 -94 38 -145t99 -51q31 0 57 13t45.5 38.5t30.5 61.5t11 83v9q-2 89 -43 137t-101 48q-61 0 -99 -50t-38 -144zM1194 262q6 -81 43 -124.5t95 -43.5 q30 0 56.5 13t45.5 38.5t30 61.5t11 83q0 46 -11 82.5t-30 61t-45.5 37.5t-56.5 13q-58 0 -95 -43t-43 -124q0 -7 0.5 -13.5t0.5 -13.5q0 -8 -0.5 -14.5t-0.5 -13.5z" />
<glyph unicode="&#x2039;" horiz-adv-x="564" d="M98 434v84l298 400l75 -70l-245 -372l245 -364l-75 -70z" />
<glyph unicode="&#x203a;" horiz-adv-x="564" d="M92 112l245 371l-245 365l77 70l296 -392v-84l-296 -400z" />
<glyph unicode="&#x2044;" horiz-adv-x="969" d="M11 0l801 1360h105l-797 -1360h-109z" />
<glyph unicode="&#x205f;" horiz-adv-x="465" />
<glyph unicode="&#x2074;" horiz-adv-x="658" d="M40 824v66l354 490h107v-468h90v-88h-90v-156h-102v156h-359zM160 912h239v333z" />
<glyph unicode="&#x20ac;" horiz-adv-x="1039" d="M84 496v110h160q-2 19 -2 38v38q0 21 0.5 42t1.5 42h-160v110h171q16 116 53 209.5t91.5 159t125.5 100.5t156 35q89 0 152.5 -22.5t109.5 -49.5l-45 -94q-45 26 -102 41t-120 15q-55 0 -102 -23t-84.5 -71t-63.5 -122.5t-39 -177.5h470v-110h-479q-1 -20 -1.5 -41 t-0.5 -43q0 -20 0.5 -39t1.5 -37h479v-110h-470q13 -105 42 -182t70 -126.5t92.5 -73.5t111.5 -24q39 0 73 6.5t63 16t52.5 20.5t42.5 21l34 -92q-45 -35 -114.5 -58.5t-164.5 -23.5q-87 0 -160 36t-128.5 103t-93 162.5t-53.5 214.5h-170z" />
<glyph unicode="&#x2122;" horiz-adv-x="1258" d="M88 1284v76h449v-76h-179v-418h-90v418h-180zM646 866v494h117l139 -264l141 264h115v-494h-95v368l-119 -220l4 -6h-91l2 5l-120 225v-372h-93z" />
<glyph unicode="&#x2212;" horiz-adv-x="947" d="M104 610v110h743v-110h-743z" />
<glyph unicode="&#x2264;" horiz-adv-x="921" d="M109 504.011v106.203l731 313.208v-120.604l-613 -246.606l613 -246.606v-118.803zM104 1v110h743v-110h-743z" />
<glyph unicode="&#x2265;" horiz-adv-x="922" d="M108 190.803v120.603l613 246.606l-613 246.607v118.803l731 -313.208v-106.203zM104 1v110h743v-110h-743z" />
<glyph unicode="&#xe000;" horiz-adv-x="1000" d="M0 1000h1000v-1000h-1000v1000z" />
<glyph horiz-adv-x="388" d="M73 -480l78 378h145l-125 -398z" />
<glyph horiz-adv-x="1003" d="M150 378v622h133v-622q0 -80 9.5 -135t30 -89t52.5 -49t77 -15q76 0 138.5 30.5t117.5 81.5v798h133v-1032q0 -122 -23 -201t-66 -125t-105 -64t-141 -18q-45 0 -90.5 5t-87.5 12.5t-77 17t-59 19.5l25 100q23 -7 55.5 -14.5t69.5 -14t75 -11t72 -4.5q56 0 97 14.5t68 49 t40.5 91.5t13.5 143v148q-63 -64 -131.5 -100t-149.5 -36q-65 0 -116 18t-87 63t-55 122t-19 195z" />
<glyph horiz-adv-x="1066" d="M146 502q0 118 24.5 213.5t70.5 163t112.5 104.5t149.5 37q46 0 81.5 -8t65.5 -22.5t55 -35.5t50 -48l5 94h127v-1086q0 -107 -24 -175.5t-67.5 -109t-105 -56t-136.5 -15.5q-45 0 -91 5t-88 12.5t-77.5 17t-59.5 19.5l27 100q22 -7 54.5 -14.5t69 -14t74.5 -11t72 -4.5 q56 0 97.5 12.5t68.5 41t40 75.5t13 117v181q-24 -26 -48.5 -47t-54 -35t-65.5 -21.5t-83 -7.5q-83 0 -149.5 37t-112.5 104.5t-70.5 163t-24.5 213.5zM280 502q0 -200 63 -304t206 -104q60 0 111.5 22t93.5 56v660q-42 34 -93.5 56t-111.5 22q-72 0 -123 -26.5t-83.5 -78 t-47.5 -127.5t-15 -176z" />
<glyph horiz-adv-x="1009" d="M127 410q0 132 30 244t82 193t122.5 127t150.5 46q39 0 69.5 -4.5t56 -13.5t47.5 -22.5t43 -31.5l29 52h91v-1000h-122l-11 134q-26 -36 -55.5 -65t-64.5 -48.5t-77 -30t-93 -10.5q-145 0 -221.5 109.5t-76.5 320.5zM260 410q0 -164 54.5 -242t153.5 -78q35 0 68.5 12 t65 32.5t59.5 49t53 61.5v624q-36 16 -80 28.5t-90 12.5q-61 0 -113 -35t-90 -100t-59.5 -157.5t-21.5 -207.5z" />
<glyph horiz-adv-x="722" d="M180 0v1000h120l9 -131q53 83 113.5 117t126.5 34q18 0 37 -1t38 -3l-15 -134q-23 5 -46 6.5t-52 1.5q-56 0 -106.5 -38t-91.5 -99v-643h136v-110h-269z" />
<glyph horiz-adv-x="1164" d="M163 500q0 121 28 217t82 163.5t132 103.5t177 36q104 0 185 -36t136.5 -103.5t84.5 -163.5t29 -217q0 -122 -29 -218t-84.5 -163.5t-136.5 -103t-185 -35.5q-99 0 -177 35.5t-132 103t-82 163.5t-28 218zM296 500q0 -94 19 -169.5t55.5 -129t90 -82.5t121.5 -29 q73 0 129.5 29t94.5 82.5t57.5 129t19.5 169.5q0 92 -19.5 167.5t-57.5 129.5t-94.5 83.5t-129.5 29.5q-68 0 -121.5 -29.5t-90 -83.5t-55.5 -129.5t-19 -167.5z" />
<glyph horiz-adv-x="781" d="M109 772v116l279 112h78v-890h207v-110h-556v110h216v748z" />
<glyph horiz-adv-x="983" d="M108 918q27 18 60.5 36t75.5 33t91.5 24t108.5 9q78 0 143.5 -19t112.5 -55.5t73.5 -89.5t26.5 -120q0 -64 -24 -110t-63 -83t-89 -67.5t-102 -62.5q-57 -36 -103 -67t-79.5 -65.5t-55 -75t-29.5 -95.5h567v-110h-702v73q0 124 86 237t273 220q51 26 86.5 51t58 50.5 t33 54t10.5 62.5q0 35 -15 65t-43.5 51.5t-70 33.5t-93.5 12q-47 0 -85.5 -6.5t-72.5 -18.5t-66 -27.5t-67 -33.5z" />
<glyph horiz-adv-x="1043" d="M144 922q28 22 66 40t81.5 31t90 20t90.5 7q94 0 168 -24t126 -67.5t79.5 -105t27.5 -137.5q0 -102 -49.5 -174.5t-143.5 -108.5q111 -42 170.5 -129.5t59.5 -205.5q0 -101 -36.5 -181.5t-104.5 -136.5t-165 -86t-219 -30q-33 0 -66.5 3t-65 8t-59 12.5t-49.5 16.5l30 92 q43 -9 87.5 -15.5t107.5 -6.5q90 0 165 18t128.5 55.5t83.5 96.5t30 142q0 74 -22.5 129t-62 91t-95 54t-121.5 18h-155v22l-20 88h175q58 0 106.5 13.5t83.5 42t54.5 72.5t19.5 106q0 56 -21 97t-58.5 68t-90 40t-114.5 13q-80 0 -141 -21.5t-118 -54.5z" />
<glyph horiz-adv-x="1081" d="M66 0v70l608 930h161v-890h179v-110h-179v-400h-133v400h-636zM238 110h464v709z" />
<glyph horiz-adv-x="964" d="M116 342l88 658h571v-110h-458l-69 -457q40 17 91 26t120 9q88 0 158 -27.5t118.5 -77.5t74.5 -121t26 -158q0 -104 -32.5 -188.5t-96.5 -144t-158 -91.5t-218 -32q-60 0 -112.5 8t-94.5 22l34 98q35 -9 81 -13.5t88 -4.5q188 0 281.5 83t93.5 263q0 68 -20.5 119.5 t-56.5 86t-85.5 51.5t-107.5 17q-55 0 -109.5 -15t-94.5 -41z" />
<glyph horiz-adv-x="1077" d="M114 630q0 170 33.5 308.5t97 236.5t156 151.5t210.5 53.5q49 0 88.5 -5t72 -14t59 -21t50.5 -26l-36 -96q-48 26 -101.5 39t-118.5 13q-83 0 -151.5 -35.5t-118 -109.5t-77.5 -189t-31 -275q61 94 150 142.5t187 48.5q96 0 166 -30t115 -85.5t67 -133t22 -171.5 q0 -83 -26 -163.5t-77 -145t-126 -104t-172 -39.5q-109 0 -191.5 46.5t-137.5 132t-82.5 205.5t-27.5 266zM249 546q12 -236 94 -346t230 -110q61 0 107 28.5t77.5 76t47.5 108t16 125.5q0 66 -13.5 123.5t-42 100t-73.5 66.5t-109 24q-42 0 -86.5 -9t-88 -31.5t-84 -60.5 t-75.5 -95z" />
<glyph horiz-adv-x="866" d="M107 881v120h826v-112l-482 -1248h-138l481 1240h-687z" />
<glyph horiz-adv-x="1120" d="M99 366q0 116 63 203t175 128q-94 38 -146 116t-52 193q0 88 26.5 157.5t76 117.5t120 73.5t158.5 25.5t160 -25.5t124 -73.5t80.5 -117.5t28.5 -157.5q0 -115 -55.5 -193t-152.5 -116q57 -20 102 -52.5t77 -75.5t49 -94t17 -109q0 -93 -31 -165t-88 -121t-136 -74.5 t-175 -25.5t-173.5 25.5t-132.5 74.5t-85 121t-30 165zM232 366q0 -67 21 -118.5t59.5 -86.5t91.5 -53t116 -18q64 0 118 18t94 53t62.5 86.5t22.5 118.5q0 59 -22.5 109.5t-62.5 87.5t-94 58t-118 21q-63 0 -116 -20.5t-91.5 -57.5t-59.5 -87.5t-21 -110.5zM272 1006 q0 -61 18 -108t51 -79.5t78.5 -49.5t100.5 -17t102.5 17t82.5 49.5t55 79.5t20 108q0 63 -20 112t-55 83t-82.5 51.5t-102.5 17.5t-100.5 -17.5t-78.5 -51.5t-51 -83t-18 -112z" />
<glyph horiz-adv-x="1076" d="M106 579q0 82 27 161t78 141.5t126 101t171 38.5q102 0 180 -39.5t130.5 -123.5t79.5 -215t27 -314q0 -160 -31.5 -290.5t-90 -223.5t-142.5 -143.5t-188 -50.5q-54 0 -95.5 5t-75.5 14t-61.5 21t-52.5 26l29 102q52 -27 111.5 -42.5t131.5 -15.5t132 34t103.5 104.5 t68 179.5t26.5 260q-59 -73 -143 -111.5t-181 -38.5q-81 0 -147.5 32t-113.5 88.5t-73 133.5t-26 166zM239 577q0 -65 12.5 -121t39.5 -97.5t69.5 -65.5t103.5 -24q43 0 86.5 8t85 28t80.5 54t72 86q-7 142 -31 232.5t-63 142.5t-92.5 71.5t-119.5 19.5q-59 0 -104.5 -27.5 t-76.5 -74t-46.5 -107t-15.5 -125.5z" />
<glyph horiz-adv-x="1171" d="M77 0l440 1160h137l445 -1160h-137l-110 296h-529l-110 -296h-136zM364 406h447l-224 603z" />
<glyph horiz-adv-x="1102" d="M184 0v1162h321q91 0 160.5 -22t116.5 -62.5t71.5 -98.5t24.5 -131q0 -46 -11 -83t-28 -65.5t-39 -50t-43 -36.5q100 -26 152.5 -97.5t52.5 -181.5q0 -77 -27 -139t-78 -105.5t-125 -66.5t-169 -23h-379zM318 110h226q64 0 117 11.5t90 37t57.5 66t20.5 99.5 q0 58 -19 100.5t-52.5 70t-80.5 40.5t-103 13h-256v-438zM318 658h333q15 12 31.5 27t30 38t22.5 56.5t9 82.5q0 52 -17.5 88.5t-51 59t-82 32.5t-109.5 10h-166v-394z" />
<glyph horiz-adv-x="1031" d="M129 602q0 131 35.5 238t103 182.5t164.5 116.5t220 41q45 0 81 -6t66 -16.5t55 -23.5t48 -26l-46 -94q-45 26 -94.5 41t-112.5 15q-87 0 -158.5 -27t-122 -84t-78.5 -145.5t-28 -211.5q0 -134 29.5 -230.5t83.5 -159t129.5 -92.5t167.5 -30q39 0 72 6t60 15.5t49 21 t40 21.5l34 -92q-45 -35 -109.5 -58.5t-159.5 -23.5q-124 0 -222 44.5t-166.5 126t-104.5 196.5t-36 255z" />
<glyph horiz-adv-x="1228" d="M184 0v1160h348q129 0 232.5 -39.5t177 -112.5t113 -176t39.5 -230q0 -136 -39.5 -247t-113 -190t-177 -122t-232.5 -43h-348zM318 110h196q98 0 180 29t141.5 89t92.5 153t33 221q0 118 -33 202.5t-92.5 139t-141.5 80.5t-180 26h-196v-940z" />
<glyph horiz-adv-x="949" d="M184 0v1160h670v-110h-536v-390h479v-110h-479v-440h536v-110h-670z" />
<glyph horiz-adv-x="870" d="M184 0v1160h634v-110h-500v-372h441v-110h-441v-568h-134z" />
<glyph horiz-adv-x="1224" d="M151 580q0 143 37.5 254.5t109.5 188.5t176 117t236 40q54 0 98 -6t79 -15.5t62.5 -20t49.5 -19.5l-31 -103q-48 18 -114.5 36t-150.5 18q-99 0 -177 -29.5t-132 -89.5t-82 -152.5t-28 -218.5q0 -95 27.5 -183.5t81 -156.5t131 -109t176.5 -41q63 0 125 8.5t113 31.5v344 h-293v110h426v-516q-84 -41 -174.5 -64.5t-196.5 -23.5q-132 0 -234 48.5t-172 130.5t-106.5 191t-36.5 230z" />
<glyph horiz-adv-x="1236" d="M184 0v1160h134v-506h614v506h133v-1160h-133v544h-614v-544h-134z" />
<glyph horiz-adv-x="742" d="M136 0v110h173v940h-173v110h474v-110h-168v-940h168v-110h-474z" />
<glyph horiz-adv-x="850" d="M76 58l50 98q19 -12 45 -24t54.5 -21t56.5 -15t50 -6q54 0 94 16t66 51t39 90.5t13 134.5v778h134v-772q0 -118 -24.5 -196.5t-68.5 -125.5t-107 -66.5t-139 -19.5q-84 0 -151 24t-112 54z" />
<glyph horiz-adv-x="1120" d="M184 0v1160h134v-502h171l366 502h160l-411 -554h-1l476 -606h-166l-420 540h-175v-540h-134z" />
<glyph horiz-adv-x="925" d="M184 0v1160h134v-1050h560v-110h-694z" />
<glyph horiz-adv-x="1470" d="M184 0v1160h179l370 -672l372 672h185v-1160h-133v578l4 427l-366 -661h-119l-367 657l9 -411v-590h-134z" />
<glyph horiz-adv-x="1278" d="M184 0v1160h134l656 -951v951h134v-1160h-134l-656 940v-940h-134z" />
<glyph horiz-adv-x="1157" d="M129 600q0 134 29.5 241.5t86.5 182.5t141 115.5t193 40.5q111 0 197.5 -40.5t146 -115.5t91 -182.5t31.5 -241.5q0 -144 -31.5 -259t-91 -195t-146 -123t-197.5 -43q-109 0 -193 43t-141 123t-86.5 195t-29.5 259zM263 600q0 -258 80.5 -384t235.5 -126q163 0 248 126 t85 384q0 238 -84 354t-249 116q-155 0 -235.5 -116t-80.5 -354z" />
<glyph horiz-adv-x="1061" d="M184 0v1160h353q106 0 186.5 -26.5t134.5 -75t81.5 -117t27.5 -153.5t-27.5 -154t-81.5 -118.5t-134.5 -76.5t-186.5 -27h-219v-412h-134zM318 522h199q154 0 235.5 64.5t81.5 201.5q0 138 -82 200t-235 62h-199v-528z" />
<glyph horiz-adv-x="1169" d="M129 600q0 134 29.5 241.5t86.5 182.5t141 115.5t193 40.5q111 0 197.5 -40.5t146 -115.5t91 -182.5t31.5 -241.5q0 -158 -37 -279.5t-108 -202.5l206 -288h-156l-148 207q-48 -28 -103.5 -42.5t-119.5 -14.5q-109 0 -193 43t-141 123t-86.5 195t-29.5 259zM263 600 q0 -258 80.5 -384t235.5 -126q90 0 158 39l-2 3h7q85 52 127.5 167.5t42.5 300.5q0 238 -84 354t-249 116q-155 0 -235.5 -116t-80.5 -354z" />
<glyph horiz-adv-x="1092" d="M184 0v1160h380q95 0 167 -24t120 -68t72.5 -107t24.5 -141q0 -51 -15.5 -99.5t-41.5 -91t-61.5 -77t-75.5 -58.5l246 -494h-143l-227 466h-312v-466h-134zM318 576h377q21 18 42 38.5t38.5 49t28.5 66t11 90.5q0 122 -70 176t-205 54h-222v-474z" />
<glyph horiz-adv-x="978" d="M120 860q0 75 26 134.5t75.5 100.5t120.5 63t161 22q54 0 102.5 -8t89.5 -19.5t74 -25t56 -23.5l-29 -110q-34 17 -64.5 31t-64 24t-73.5 15.5t-92 5.5q-126 0 -188 -51.5t-62 -148.5q0 -40 14 -74t45 -63t80 -54t119 -47q90 -29 158 -60.5t113.5 -70.5t69 -89t23.5 -114 q0 -74 -28 -133t-80 -100t-125 -63t-163 -22q-52 0 -104 4.5t-99.5 13.5t-87 21.5t-66.5 28.5l31 108q36 -14 72 -26t75 -21t83.5 -14t97.5 -5q58 0 106 12.5t82.5 37.5t53.5 63t19 89q0 48 -21.5 85t-60.5 66t-93.5 52t-120.5 43q-69 21 -128.5 49t-103 67t-68.5 89.5 t-25 116.5z" />
<glyph horiz-adv-x="1066" d="M81 1050v110h908v-110h-384v-1050h-133v1050h-391z" />
<glyph horiz-adv-x="1254" d="M184 398v762h134v-762q0 -74 22.5 -131t63.5 -96.5t98 -60t126 -20.5q70 0 128.5 20.5t101 60t66.5 96.5t24 131v762h133v-760q0 -101 -33 -179t-92.5 -131.5t-143 -81.5t-184.5 -28t-182.5 27.5t-140 81t-90 131t-31.5 178.5z" />
<glyph horiz-adv-x="1158" d="M77 1160h141l247 -684l116 -307l113 299l247 692h142l-437 -1160h-131z" />
<glyph horiz-adv-x="1617" d="M101 1160h142l209 -974l290 974h139l286 -971l212 971h141l-272 -1160h-148l-287 969l-295 -969h-144z" />
<glyph horiz-adv-x="1027" d="M70 0l348 591l-348 569h159l287 -478l286 478h158l-349 -569l349 -591h-160l-285 494l-284 -494h-161z" />
<glyph horiz-adv-x="1024" d="M77 1160h144l293 -611l293 611h143l-368 -755v-405h-134v401z" />
<glyph horiz-adv-x="1118" d="M136 0v102l639 948h-633v110h818v-80l-664 -970h729l-39 -110h-850z" />
<glyph horiz-adv-x="1040" d="M107 670q0 161 26.5 292t79 224t129.5 143.5t179 50.5q103 0 182 -50.5t132.5 -143.5t81 -224t27.5 -292q0 -162 -27.5 -290t-81 -217t-132.5 -136t-182 -47q-102 0 -179 47t-129.5 136t-79 217t-26.5 290zM240 670q0 -132 17.5 -239t52.5 -183t87.5 -117t123.5 -41 q70 0 123.5 41t90.5 117t56 183t19 239t-19 242t-56 189.5t-90.5 124t-123.5 44.5q-71 0 -123.5 -44.5t-87.5 -124t-52.5 -189.5t-17.5 -242z" />
<glyph horiz-adv-x="1045" d="M229 1138v110l348 112h81v-1250h277v-110h-700v110h289v1109z" />
<glyph horiz-adv-x="1042" d="M149 1248q27 21 66.5 44t87.5 42.5t103 32.5t114 13q86 0 155.5 -25.5t119 -73t76.5 -115t27 -152.5q0 -77 -24.5 -137.5t-65 -108.5t-93.5 -87.5t-110 -74.5q-69 -45 -125.5 -91.5t-97.5 -104t-64.5 -130.5t-25.5 -170h629v-110h-762v36q0 140 23.5 239.5t72.5 175.5 t124 136.5t179 122.5q111 67 159 146t48 166q0 55 -18 101t-50.5 78.5t-78.5 50.5t-102 18q-48 0 -91.5 -9.5t-83 -25.5t-76.5 -37t-72 -44z" />
<glyph horiz-adv-x="1042" d="M125 72l48 88q31 -15 62.5 -28t65 -22t70.5 -14.5t79 -5.5q70 0 129.5 16.5t103 50t67.5 84.5t24 119q0 72 -23 124.5t-64 87t-97 51.5t-122 17h-156v110h156q58 0 106.5 15.5t84 47.5t55.5 81t20 116q0 70 -22 119.5t-60.5 81t-91 45.5t-114.5 14q-40 0 -74 -5.5 t-65 -16t-60 -24.5t-58 -30l-53 88q28 23 66 41.5t82 31t90.5 19t90.5 6.5q94 0 168 -26t125.5 -74.5t78.5 -118t27 -157.5q0 -109 -50.5 -188t-144.5 -119q112 -40 173.5 -126t61.5 -205q0 -86 -30.5 -157t-87.5 -122t-139.5 -79t-186.5 -28q-47 0 -94.5 6t-92 18t-82.5 29 t-66 39z" />
<glyph horiz-adv-x="1037" d="M63 314v76l574 970h164v-936h181v-110h-181v-314h-133v314h-605zM222 424h446v763z" />
<glyph horiz-adv-x="1042" d="M139 66l39 100q28 -17 58.5 -30.5t65.5 -24t76 -16t92 -5.5q157 0 239 80.5t82 249.5q0 77 -24 133.5t-65.5 93.5t-98 55t-121.5 18q-63 0 -125.5 -12t-109.5 -38l-105 40l90 650h627v-110h-526l-67 -454q50 16 113.5 25t146.5 9q91 0 165 -29.5t125.5 -83.5t79.5 -129.5 t28 -167.5q0 -98 -27.5 -179t-82.5 -139t-137 -90t-191 -32q-53 0 -103.5 7t-95.5 19t-83 27.5t-65 32.5z" />
<glyph horiz-adv-x="1040" d="M114 630q0 170 33.5 308.5t97 236.5t156 151.5t210.5 53.5q49 0 88.5 -5t72 -14t59 -21t50.5 -26l-36 -96q-48 26 -101.5 39t-118.5 13q-83 0 -151.5 -35.5t-118 -109.5t-77.5 -189t-31 -275q61 94 150 142.5t187 48.5q96 0 166 -30t115 -85.5t67 -133t22 -171.5 q0 -83 -26 -163.5t-77 -145t-126 -104t-172 -39.5q-109 0 -191.5 46.5t-137.5 132t-82.5 205.5t-27.5 266zM249 546q12 -236 94 -346t230 -110q61 0 107 28.5t77.5 76t47.5 108t16 125.5q0 66 -13.5 123.5t-42 100t-73.5 66.5t-109 24q-42 0 -86.5 -9t-88 -31.5t-84 -60.5 t-75.5 -95z" />
<glyph horiz-adv-x="1040" d="M107 1240v120h826v-112l-482 -1248h-138l481 1240h-687z" />
<glyph horiz-adv-x="1040" d="M97 366q0 116 63 203t175 128q-94 38 -146 116t-52 193q0 88 26.5 157.5t76 117.5t120 73.5t158.5 25.5t160 -25.5t124 -73.5t80.5 -117.5t28.5 -157.5q0 -115 -55.5 -193t-152.5 -116q57 -20 102 -52.5t77 -75.5t49 -94t17 -109q0 -93 -31 -165t-88 -121t-136 -74.5 t-175 -25.5t-173.5 25.5t-132.5 74.5t-85 121t-30 165zM230 366q0 -67 21 -118.5t59.5 -86.5t91.5 -53t116 -18q64 0 118 18t94 53t62.5 86.5t22.5 118.5q0 59 -22.5 109.5t-62.5 87.5t-94 58t-118 21q-63 0 -116 -20.5t-91.5 -57.5t-59.5 -87.5t-21 -110.5zM270 1006 q0 -61 18 -108t51 -79.5t78.5 -49.5t100.5 -17t102.5 17t82.5 49.5t55 79.5t20 108q0 63 -20 112t-55 83t-82.5 51.5t-102.5 17.5t-100.5 -17.5t-78.5 -51.5t-51 -83t-18 -112z" />
<glyph horiz-adv-x="1041" d="M106 938q0 82 27 161t78 141.5t126 101t171 38.5q102 0 180 -39.5t130.5 -123.5t79.5 -215t27 -314q0 -160 -31.5 -290.5t-90 -223.5t-142.5 -143.5t-188 -50.5q-54 0 -95.5 5t-75.5 14t-61.5 21t-52.5 26l29 102q52 -27 111.5 -42.5t131.5 -15.5t132 34t103.5 104.5 t68 179.5t26.5 260q-59 -73 -143 -111.5t-181 -38.5q-81 0 -147.5 32t-113.5 88.5t-73 133.5t-26 166zM239 936q0 -65 12.5 -121t39.5 -97.5t69.5 -65.5t103.5 -24q43 0 86.5 8t85 28t80.5 54t72 86q-7 142 -31 232.5t-63 142.5t-92.5 71.5t-119.5 19.5q-59 0 -104.5 -27.5 t-76.5 -74t-46.5 -107t-15.5 -125.5z" />
<glyph horiz-adv-x="1164" d="M164 680q0 161 27 290.5t79.5 220.5t131 140t180.5 49q104 0 185 -49t137 -140t85 -220.5t29 -290.5q0 -162 -29 -291.5t-85 -220.5t-137 -139.5t-185 -48.5q-102 0 -180.5 48.5t-131 139.5t-79.5 220.5t-27 291.5zM298 680q0 -132 18 -240.5t53.5 -186.5t88.5 -120.5 t124 -42.5q73 0 130 42.5t95 120.5t58 186.5t20 240.5q0 130 -20 238.5t-58 186.5t-95 121.5t-130 43.5q-71 0 -124 -43.5t-88.5 -121.5t-53.5 -186.5t-18 -238.5z" />
<glyph horiz-adv-x="767" d="M107 1138v110l275 112h78v-1250h203v-110h-547v110h211v1105z" />
<glyph horiz-adv-x="981" d="M117 1248q27 21 65.5 44t86 42.5t102 32.5t112.5 13q86 0 156 -25.5t120 -73t77 -115t27 -152.5q0 -77 -24.5 -137.5t-65 -108.5t-93 -87.5t-108.5 -74.5q-69 -45 -126 -91.5t-98 -104t-65 -130.5t-27 -170h632v-110h-763l-2 36q0 140 24 239.5t73.5 175.5t125 136.5 t177.5 122.5q112 68 159 146t47 166q0 55 -17.5 101t-49.5 78.5t-77.5 50.5t-102.5 18q-47 0 -89.5 -9.5t-81.5 -25.5t-75.5 -37t-71.5 -44z" />
<glyph horiz-adv-x="1047" d="M126 72l52 88q61 -30 125.5 -50t148.5 -20q71 0 130 16.5t102 50t66.5 84.5t23.5 119q0 72 -22.5 124.5t-62.5 87t-96 51.5t-122 17h-154v110h154q58 0 107 15.5t84 47.5t55 81t20 116q0 70 -21.5 119.5t-60 81t-91 45.5t-115.5 14q-79 0 -139 -21.5t-117 -54.5l-53 88 q27 23 65.5 41.5t82 31t90 19t90.5 6.5q94 0 169 -26t127 -74.5t79.5 -118t27.5 -157.5q0 -109 -51.5 -188t-147.5 -119q112 -40 173 -126t61 -205q0 -86 -30.5 -157t-87.5 -122t-139 -79t-185 -28q-46 0 -94 6t-92.5 18t-83.5 29t-68 39z" />
<glyph horiz-adv-x="1085" d="M70 314v76l609 970h160v-936h179v-110h-179v-314h-133v314h-636zM224 424h482v766z" />
<glyph horiz-adv-x="956" d="M126 710l89 650h556v-110h-450l-69 -452q42 15 94.5 23.5t121.5 8.5q85 0 153 -29.5t115.5 -83.5t72.5 -129.5t25 -167.5q0 -98 -28 -179t-79.5 -139t-125.5 -90t-165 -32q-42 0 -85.5 5.5t-84.5 16t-77 25t-62 31.5l36 108q58 -33 117.5 -54.5t137.5 -21.5q61 0 113 20 t89.5 61t58.5 103t21 146q0 77 -20 133.5t-56 93.5t-85 55t-107 18q-55 0 -106.5 -12t-92.5 -38z" />
<glyph horiz-adv-x="1080" d="M147 630q0 170 31 308.5t91 236.5t147 151.5t198 53.5q48 0 87 -5t71.5 -14t59.5 -21t51 -26l-37 -96q-48 26 -102 39t-120 13q-76 0 -137.5 -34t-105.5 -105t-70 -182t-30 -264q55 82 137 124.5t177 42.5q94 0 162.5 -31.5t113 -89.5t66 -139t21.5 -180 q0 -79 -26.5 -156t-78 -138.5t-126 -99.5t-170.5 -38q-103 0 -180 46.5t-128 132t-76.5 205.5t-25.5 266zM282 568q8 -248 81.5 -363t210.5 -115q62 0 109 27t79 71.5t48 101.5t16 118q0 70 -13 131t-40.5 106t-70.5 71t-103 26q-44 0 -86.5 -8t-83 -28t-78 -53.5 t-69.5 -84.5z" />
<glyph horiz-adv-x="885" d="M49 1240v120h772v-112l-404 -1248h-138l410 1240h-640z" />
<glyph horiz-adv-x="1115" d="M133 366q0 58 16.5 109t47.5 94t76 75.5t101 52.5q-96 38 -148.5 116t-52.5 193q0 88 27 157.5t77.5 117.5t121.5 73.5t160 25.5q88 0 161 -25.5t125 -73.5t80.5 -117.5t28.5 -157.5q0 -115 -55.5 -193t-152.5 -116q57 -20 102.5 -52.5t78 -75.5t49.5 -94t17 -109 q0 -93 -31.5 -165t-88.5 -121t-137 -74.5t-177 -25.5q-96 0 -175 25.5t-134.5 74.5t-86 121t-30.5 165zM266 366q0 -67 21.5 -118.5t60 -86.5t92.5 -53t119 -18t120 18t95 53t62.5 86.5t22.5 118.5q0 59 -22.5 109.5t-62.5 87.5t-95 58t-120 21t-119 -20.5t-92.5 -57.5 t-60 -87.5t-21.5 -110.5zM305 1006q0 -61 18.5 -108t52 -79.5t80.5 -49.5t103 -17t104 17t83 49.5t55 79.5t20 108q0 63 -20 112t-55 83t-83 51.5t-104 17.5t-103 -17.5t-80.5 -51.5t-52 -83t-18.5 -112z" />
<glyph horiz-adv-x="1080" d="M127 938q1 82 28 161t78 141.5t125 101t170 38.5q103 0 181 -39.5t131 -123.5t80 -215t27 -314q0 -160 -31.5 -290.5t-90 -223.5t-142 -143.5t-188.5 -50.5q-53 0 -95.5 5t-77 14t-62.5 21t-53 26l33 102q53 -27 112 -42.5t132 -15.5t133 34.5t103.5 106t68 182.5 t25.5 264q-58 -78 -142.5 -118.5t-183.5 -40.5q-81 0 -148.5 32t-116 88.5t-74 133.5t-22.5 166zM260 936q0 -65 12.5 -121t39.5 -97.5t70 -65.5t103 -24q45 0 89 8.5t85.5 29.5t80 57t71.5 90q-7 139 -31 228t-62.5 140t-91.5 70t-119 19q-61 0 -107 -27.5t-77 -74 t-47 -107t-16 -125.5z" />
<glyph horiz-adv-x="1040" d="M118 1222v81l145 56h47v-563h93v-78h-280v78h96v459zM181 340l733 840l53 -71l-733 -834zM571 1v31q0 60 11 105t34 80t60 63t90 54q33 15 54 29.5t33.5 31t17 33.5t4.5 36q0 45 -28 70t-82 25q-47 0 -84 -17.5t-75 -41.5l-30 72q15 11 35 23t44 22.5t52 17.5t60 7 q95 0 147.5 -47.5t52.5 -134.5q0 -37 -14 -66.5t-36.5 -54t-53 -44t-62.5 -35.5q-29 -18 -53 -35.5t-41 -38t-27.5 -46t-14.5 -56.5h316v-83h-410z" />
<glyph horiz-adv-x="1039" d="M106 1222v81l145 56h47v-563h93v-78h-280v78h96v459zM180 340l734 840l52 -71l-733 -834zM431 141v59l319 441h96v-421h81v-79h-81v-141h-92v141h-323zM539 220h215v299z" />
<glyph horiz-adv-x="1039" d="M91 768l24 66q41 -16 78.5 -26.5t83.5 -10.5q70 0 110.5 26t40.5 82q0 58 -38 84.5t-105 26.5h-116v78h116q60 0 93 24.5t33 77.5q0 56 -36.5 79.5t-98.5 23.5q-44 0 -80 -11t-74 -29l-25 67q18 13 43 23t51 16.5t50.5 9.5t42.5 3q109 0 164.5 -49t55.5 -135 q0 -101 -91 -139q107 -39 107 -149q0 -83 -59.5 -135t-177.5 -52q-51 0 -101 11.5t-91 37.5zM180 340l734 840l52 -71l-733 -834zM431 141v59l319 441h96v-421h81v-79h-81v-141h-92v141h-323zM539 220h215v299z" />
<glyph horiz-adv-x="408" d="M115 436q0 27 11 38.5t30 11.5h10v-31h-13q-6 0 -11.5 -4.5t-5.5 -14.5t5 -14.5t12 -4.5h98q8 0 13.5 5t5.5 15t-5.5 14.5t-13.5 4.5h-14v31h11q20 0 31 -11.5t11 -38.5q0 -52 -42 -52h-92q-20 0 -30.5 12t-10.5 39zM115 699q0 27 11 38.5t30 11.5h10v-31h-13 q-6 0 -11.5 -4.5t-5.5 -14.5t5 -14.5t12 -4.5h98q8 0 13.5 4.5t5.5 14.5t-5.5 14.5t-13.5 4.5h-14v31h11q20 0 31 -11.5t11 -37.5q0 -53 -42 -53h-92q-41 0 -41 52zM117 124v31h138h5q4 0 6 -1l1 1q-2 2 -2 6v6v14v7q0 4 2 6l-1 2q-2 -2 -6 -2h-5h-138v31h133q40 0 40 -51 q0 -50 -40 -50h-133zM117 774v32h138q2 0 5.5 -0.5t5.5 -1.5l1 1q-2 2 -2 6v7v14v7q0 4 2 6l-1 1q-2 -2 -6 -2h-5h-138v31h133q40 0 40 -50q0 -51 -40 -51h-133zM118 -1v54q0 23 10.5 35t27.5 12h31q17 0 27.5 -12.5t10.5 -35.5v-21h62v-32h-169zM118 254v33l92 34l18 7v2 q-5 -1 -12 -2t-12 -1h-86v30h169v-33l-92 -34l-18 -7v-2q4 1 11 2t12 1h87v-30h-169zM118 515v32h59q2 0 5 -0.5t5 -0.5h1q-1 2 -1 6v8v13v6q0 4 1 6l-1 1q-2 -1 -5 -1.5t-5 -0.5h-59v33h169v-33h-66q-7 0 -11 2l-1 -1q1 -2 1 -6v-6v-13v-8q0 -4 -1 -6h1q2 0 5 0.5t6 0.5h66 v-32h-169zM118 897v103h22v-24v-6q0 -4 -1 -6l1 -1q2 1 5.5 1.5t5.5 0.5h137v-32h-137h-5q-4 0 -6 1l-1 -1q1 -1 1 -5v-7v-24h-22zM139 31l1 -1q2 1 6 1h5h43h6q3 0 4 -1l1 1q-1 2 -1 5v8v6q0 8 -5 13t-13 5h-26q-8 0 -14 -5t-6 -13v-6v-8q0 -3 -1 -5zM396 -556h3v-4h-3v4z " />
<glyph horiz-adv-x="1040" d="M92 1080q0 70 16.5 125.5t47.5 94t75 59.5t97 21q55 0 100 -21t77.5 -59.5t50.5 -94t18 -125.5q0 -69 -18 -124.5t-50.5 -94.5t-77.5 -59.5t-100 -20.5q-53 0 -97 20.5t-75 59.5t-47.5 94.5t-16.5 124.5zM169 340l733 840l53 -71l-734 -834zM196 1080q0 -54 10 -93.5 t27.5 -65t41.5 -37.5t53 -12q31 0 57.5 12t45 37.5t29.5 65t11 93.5q0 56 -11 95t-29.5 64.5t-45 37.5t-57.5 12q-29 0 -53 -12t-41.5 -37.5t-27.5 -64.5t-10 -95zM478 279q0 70 16.5 125.5t47.5 94t75 59.5t97 21q55 0 100 -21t77.5 -59.5t50.5 -94t18 -125.5 q0 -69 -18 -124.5t-50.5 -94.5t-77.5 -59.5t-100 -20.5q-53 0 -97 20.5t-75 59.5t-47.5 94.5t-16.5 124.5zM582 279q0 -54 10 -93.5t27.5 -65t41.5 -37.5t53 -12q31 0 57.5 12t45 37.5t29.5 65t11 93.5q0 56 -11 95t-29.5 64.5t-45 37.5t-57.5 12q-29 0 -53 -12t-41.5 -37.5 t-27.5 -64.5t-10 -95z" />
<glyph horiz-adv-x="660" d="M62 890l22 110h134v43q0 104 26.5 177.5t76.5 120t122 67.5t163 21q32 0 67 -2.5t69 -6.5t65 -9.5t55 -11.5v-106q-21 4 -51 8.5t-63 8.5t-67.5 6.5t-65.5 2.5q-68 0 -118 -14.5t-82.5 -47t-48 -85.5t-15.5 -129v-43h246v-110h-246v-890h-133v890h-156z" />
<glyph horiz-adv-x="1113" d="M62 890l22 110h134v43q0 104 26.5 177.5t76.5 120t122 67.5t163 21q32 0 67 -2.5t69 -6.5t65 -9.5t55 -11.5v-106q-21 4 -51 8.5t-63 8.5t-67.5 6.5t-65.5 2.5q-68 0 -118 -14.5t-82.5 -47t-48 -85.5t-15.5 -129v-43h246v-110h-246v-890h-133v890h-156zM497 -397l13 105 q27 -8 67.5 -13t74.5 -5q36 0 63.5 13t46 43t28 79.5t9.5 122.5v1052h132v-1052q0 -110 -19 -181.5t-55 -113t-88 -57.5t-118 -16q-40 0 -81.5 6t-72.5 17z" />
<glyph horiz-adv-x="390" />
</font>
</defs>
</svg>
