<?xml version="1.0" standalone="no"?>
<!DOCTYPE svg PUBLIC "-//W3C//DTD SVG 1.1//EN" "http://www.w3.org/Graphics/SVG/1.1/DTD/svg11.dtd" >
<svg xmlns="http://www.w3.org/2000/svg">
<metadata>
This is a custom SVG webfont generated by Font Squirrel.
Copyright   : Font data copyright Punchcut 2009
Designer    : Punchcut
Foundry URL : Punchcutcom
</metadata>
<defs>
<font id="AmbleBoldItalic" horiz-adv-x="1151" >
<font-face units-per-em="2048" ascent="1548" descent="-500" />
<missing-glyph horiz-adv-x="472" />
<glyph unicode="&#xfb01;" horiz-adv-x="1305" d="M68 818l34 182h135l5 33q16 108 61 183.5t115 123t162.5 69t202.5 21.5q34 0 69 -2.5t69 -6.5t64.5 -9.5t54.5 -11.5l-29 -204q-48 5 -117.5 9.5t-141.5 4.5q-101 0 -154.5 -40t-67.5 -137l-5 -33h259l-27 -182h-258l-119 -818h-288l119 818h-143zM722 0l145 1000h287 l-145 -1000h-287z" />
<glyph unicode="&#xfb02;" horiz-adv-x="1336" d="M68 818l34 182h135l5 33q16 108 61 183.5t115 123t162.5 69t202.5 21.5q34 0 69 -2.5t69 -6.5t64.5 -9.5t54.5 -11.5h254l-203 -1400h-286l174 1199q-48 4 -107.5 7.5t-119.5 3.5q-101 0 -154.5 -40t-67.5 -137l-5 -33h259l-27 -182h-258l-119 -818h-288l119 818h-143z " />
<glyph unicode=" "  horiz-adv-x="472" />
<glyph unicode="&#x09;" horiz-adv-x="472" />
<glyph unicode="&#xa0;" horiz-adv-x="472" />
<glyph unicode="!" horiz-adv-x="596" d="M78 0l31 216h264l-31 -216h-264zM155 438l112 938h286l-160 -938h-238z" />
<glyph unicode="&#x22;" horiz-adv-x="734" d="M114 896l51 464h259l-123 -474zM448 896l52 464h256l-121 -474z" />
<glyph unicode="#" horiz-adv-x="1396" d="M58 344l30 210h233l62 234h-210l31 210h236l96 362h250l-97 -362h191l97 362h251l-96 -362h200l-30 -210h-227l-62 -234h207l-30 -210h-234l-92 -344h-250l92 344h-191l-92 -344h-250l92 344h-207zM570 554h191l63 234h-191z" />
<glyph unicode="$" d="M85 78l94 216q92 -32 177 -53t179 -21q89 0 144.5 39.5t63.5 111.5q4 37 -9.5 66t-41.5 52.5t-69.5 43t-93.5 37.5q-80 28 -144 63.5t-109 79.5t-69.5 99t-24.5 124v22q0 11 2 22q8 76 37.5 139.5t77.5 112.5t113 82.5t144 50.5l25 231h262l-25 -225q44 -7 85 -17.5 t77.5 -23t67 -26t53.5 -26.5l-79 -217q-46 17 -87 31.5t-81 25t-80 16.5t-84 6q-94 0 -146.5 -42t-59.5 -108q-8 -67 35 -112.5t154 -82.5q97 -33 167 -70t115 -81t66.5 -97t21.5 -118q0 -25 -3 -52q-8 -76 -38 -139.5t-78.5 -112t-113.5 -82t-144 -49.5l-28 -254h-261 l27 248q-89 10 -173 33t-146 57z" />
<glyph unicode="%" horiz-adv-x="1542" d="M136 0l1076 1360h184l-1076 -1360h-184zM151 1023q0 13 1 26t3 27q11 73 43 130t79.5 95.5t107.5 58.5t127 20q60 0 110.5 -17t86.5 -49.5t56.5 -79t20.5 -105.5q0 -13 -1 -26t-3 -27q-11 -74 -42.5 -131t-79 -95.5t-107.5 -58t-129 -19.5q-59 0 -109 17t-86.5 49 t-57 78.5t-20.5 106.5zM348 1039q0 -57 26.5 -87t71.5 -30q51 0 90.5 40.5t50.5 113.5q3 21 3 38q0 57 -27.5 85.5t-72.5 28.5q-50 0 -89 -39.5t-50 -112.5q-3 -20 -3 -37zM781 232q0 13 1 26.5t3 27.5q10 73 41.5 130t79 95.5t107.5 58.5t128 20q60 0 110.5 -17t86.5 -49.5 t56.5 -79t20.5 -106.5q0 -13 -1 -25.5t-3 -26.5q-11 -74 -42.5 -131t-79 -95.5t-107.5 -58t-129 -19.5q-59 0 -109 16.5t-86 48.5t-56.5 78.5t-20.5 106.5zM977 247q0 -56 26.5 -85t71.5 -29q52 0 90.5 40.5t49.5 112.5q3 21 3 38q0 57 -26.5 85.5t-72.5 28.5 q-51 0 -89.5 -39.5t-49.5 -112.5q-3 -21 -3 -39z" />
<glyph unicode="&#x26;" horiz-adv-x="1317" d="M52 299q0 10 0.5 19.5t1.5 19.5q7 66 34 120.5t70 103t100.5 92.5t126.5 89l-48 63q-40 53 -59 109t-19 108q0 8 0.5 14.5t1.5 14.5q8 72 41.5 131.5t90.5 103t136.5 67.5t178.5 24q77 0 141 -18.5t110 -52.5t71.5 -83t25.5 -110q0 -8 -0.5 -16t-1.5 -16q-6 -54 -27 -97 t-54.5 -80.5t-78.5 -72.5t-100 -73l-61 -41l223 -284q35 36 70 76t70 82l151 -150q-70 -99 -155 -181l147 -187l-233 -132l-122 157q-93 -57 -192.5 -88t-195.5 -31q-101 0 -182.5 22t-140 63t-90 100t-31.5 134zM351 368q-9 -81 42.5 -122.5t141.5 -41.5q58 0 112 16.5 t107 46.5l-242 311q-33 -23 -61 -46.5t-49 -49t-34 -53.5t-17 -61zM533 1054q-5 -47 12.5 -83t40.5 -65l20 -27l12 8q42 27 73.5 48t53.5 42.5t35 45t16 55.5q5 46 -28 75t-86 29q-26 0 -51 -8.5t-45.5 -25t-35 -40t-17.5 -54.5z" />
<glyph unicode="'" horiz-adv-x="359" d="M107 916l49 444h258l-119 -454z" />
<glyph unicode="(" horiz-adv-x="734" d="M116 420q0 35 2 69.5t6 70.5q16 146 59 283.5t106 260.5t142 227t167 183l171 -60q-56 -66 -112 -154t-105 -199t-86 -246t-55 -295q-12 -111 -12 -210q0 -114 14 -210t37 -176.5t52.5 -146.5t61.5 -119l-181 -60q-59 81 -108 170.5t-84 187.5t-55 204t-20 220z" />
<glyph unicode=")" horiz-adv-x="734" d="M-24 -302q54 66 110 153.5t105 198.5t86.5 246t55.5 296q12 111 12 209q0 114 -14 210t-37.5 177t-53.5 147t-62 119l182 60q61 -80 110.5 -169t84.5 -185.5t54 -201.5t19 -218q0 -36 -1.5 -73t-6.5 -75q-16 -146 -59 -283.5t-106 -260.5t-142.5 -227t-167.5 -183z" />
<glyph unicode="*" horiz-adv-x="1010" d="M141 1011l111 179l248 -136l24 306h199l-63 -298l285 146l63 -177l-321 -126l186 -242l-171 -118l-147 262l-224 -277l-146 117l250 251z" />
<glyph unicode="+" horiz-adv-x="1079" d="M88 550l31 218h319l46 316h251l-45 -316h316l-31 -218h-317l-46 -318h-252l46 318h-318z" />
<glyph unicode="," horiz-adv-x="563" d="M-18 -272l147 484h271l-236 -516z" />
<glyph unicode="-" horiz-adv-x="733" d="M91 570l32 226h541l-33 -226h-540z" />
<glyph unicode="." horiz-adv-x="550" d="M50 0l36 244h272l-35 -244h-273z" />
<glyph unicode="/" horiz-adv-x="855" d="M-58 -140l756 1500h213l-756 -1500h-213z" />
<glyph unicode="0" d="M88 488q0 45 3 91.5t11 97.5q24 166 74.5 296.5t124.5 221t170.5 138t212.5 47.5q96 0 170.5 -35.5t125.5 -102.5t77.5 -163t26.5 -216q0 -44 -3.5 -90t-10.5 -96q-24 -167 -75 -296.5t-126 -218.5t-172.5 -135.5t-215.5 -46.5q-95 0 -168 34.5t-123 100t-76 159.5 t-26 214zM369 454q0 -256 144 -256q97 0 165 120.5t103 358.5q10 67 15 125t5 107q0 265 -147 265q-95 0 -163 -126t-103 -371q-10 -65 -14.5 -120t-4.5 -103z" />
<glyph unicode="1" d="M122 0l29 196h264l135 933l-300 -78l28 197l371 112h220l-168 -1164h261l-29 -196h-811z" />
<glyph unicode="2" d="M36 0l17 127q15 101 52.5 183t99 152t146.5 131t195 121q64 35 109.5 66.5t75 63.5t45.5 66t22 75q5 36 -6 66t-35 51t-60.5 32.5t-81.5 11.5q-51 0 -98.5 -9t-93 -23.5t-88.5 -33t-84 -36.5l-41 193q36 23 88 48t113.5 46t130.5 35t140 14q90 0 166 -22.5t131.5 -64.5 t86.5 -103t31 -137q0 -14 -1 -28.5t-3 -28.5q-12 -84 -48.5 -148.5t-91.5 -117.5t-126 -98.5t-151 -93.5q-60 -36 -112 -69.5t-94 -70.5t-72 -81t-44 -99h636l-32 -218h-922z" />
<glyph unicode="3" d="M23 76l86 192q63 -30 140.5 -50t171.5 -20q60 0 112.5 12.5t92.5 36.5t65.5 59.5t32.5 82.5q3 18 3 35q0 45 -18 76t-50 50t-76.5 27.5t-96.5 8.5h-179l32 218h179q46 0 88.5 11.5t76 34.5t56.5 58.5t30 83.5q6 43 -6.5 75t-41 53t-71 31t-96.5 10q-81 0 -153.5 -16.5 t-135.5 -41.5l-49 178q34 20 82 38t101.5 31.5t109 21.5t106.5 8q99 0 179.5 -23.5t137.5 -66t88.5 -102.5t31.5 -133q0 -13 -1 -25t-3 -26q-16 -112 -87 -189.5t-185 -117.5q108 -35 166.5 -108t58.5 -173q0 -12 -1 -24.5t-3 -25.5q-13 -89 -60 -160.5t-122 -121.5 t-174 -77t-216 -27q-54 0 -112 7t-112 19.5t-100.5 30t-77.5 39.5z" />
<glyph unicode="4" d="M5 244l26 182l677 934h329l-129 -896h164l-32 -220h-164l-36 -244h-286l36 244h-585zM302 464h319l81 553z" />
<glyph unicode="5" d="M42 56l72 200q60 -26 129.5 -42t161.5 -16q68 0 124 14t97.5 43.5t68 74.5t35.5 108q2 14 3 26.5t1 23.5q0 45 -13.5 77t-38 52.5t-58 30t-73.5 9.5q-51 0 -104.5 -8t-90.5 -24l-228 40l194 695h746l-32 -220h-520l-90 -289q48 11 104.5 17.5t121.5 6.5q89 0 159.5 -23.5 t119 -68t74 -109.5t25.5 -148q0 -21 -2 -43t-5 -45q-15 -102 -65.5 -186.5t-130 -145t-184 -93.5t-228.5 -33q-52 0 -106 5.5t-104 15.5t-92.5 24t-70.5 31z" />
<glyph unicode="6" d="M96 480q0 44 3 90t11 96q24 167 84 299.5t147.5 224.5t199.5 141t240 49q52 0 91.5 -3.5t71 -10t57.5 -15.5t50 -19l-69 -202q-35 14 -82.5 23t-102.5 9q-62 0 -120 -23.5t-107 -73t-87.5 -126t-62.5 -181.5q69 62 147 88t164 26q155 0 238.5 -83t83.5 -242 q0 -23 -2 -48.5t-6 -51.5q-15 -102 -60 -188t-115.5 -148t-165 -96.5t-207.5 -34.5q-98 0 -172.5 33.5t-125.5 98t-77 157t-26 211.5zM386 460q0 -136 41 -199t122 -63q43 0 79 19t63 50.5t44.5 73t23.5 85.5q6 37 6 71q0 38 -8 70t-26.5 55t-47.5 35.5t-71 12.5 q-54 0 -111.5 -21t-108.5 -78q-6 -62 -6 -111z" />
<glyph unicode="7" d="M168 1152l30 208h966l-21 -146l-669 -1214h-283l637 1152h-660z" />
<glyph unicode="8" d="M41 322q0 15 1.5 30.5t3.5 32.5q17 111 87.5 190.5t181.5 125.5q-66 38 -100.5 98t-34.5 139q0 14 1 27.5t3 27.5q13 94 55 166.5t107 121.5t150 74t186 25q90 0 163 -21.5t125.5 -63t81 -101.5t28.5 -137q0 -16 -1.5 -31.5t-3.5 -32.5q-14 -102 -71.5 -174.5 t-148.5 -117.5q88 -41 136 -108.5t48 -157.5q0 -12 -1 -24.5t-3 -25.5q-14 -100 -61 -176t-120 -127t-168.5 -76.5t-206.5 -25.5q-97 0 -177.5 22.5t-138.5 66t-90 107.5t-32 146zM333 355q0 -78 49 -117.5t129 -39.5q44 0 84 13t71.5 37.5t52.5 60.5t28 82q3 19 3 38 q0 80 -50 123t-132 43q-43 0 -82 -14.5t-70 -41t-52 -64t-28 -84.5q-3 -20 -3 -36zM467 943q0 -70 35.5 -106.5t95.5 -36.5q35 0 66.5 12.5t56.5 36.5t42 58.5t24 79.5q3 19 3 37q0 68 -37.5 103t-101.5 35q-34 0 -64 -11.5t-54 -34t-40.5 -55t-22.5 -74.5q-3 -24 -3 -44z " />
<glyph unicode="9" d="M119 833q0 23 1.5 46t5.5 48q14 99 59.5 182t117 143t166 94t207.5 34q202 0 300 -127t98 -362q0 -101 -18 -221q-23 -160 -79 -288t-139 -217t-189.5 -137t-229.5 -48q-53 0 -93.5 3.5t-72.5 10t-58.5 15.5t-51.5 19l68 204q37 -15 86 -24.5t106 -9.5q58 0 111.5 23 t98 70.5t79 121t56.5 174.5q-69 -60 -145.5 -86.5t-152.5 -26.5q-80 0 -142 26t-104 73t-63.5 113.5t-21.5 146.5zM404 858q0 -38 8.5 -70t27 -55t48.5 -36t73 -13q25 0 52.5 4.5t55 16t55 31t52.5 48.5q6 69 6 122q0 74 -11 123.5t-32 79t-50 41.5t-65 12q-47 0 -83.5 -19 t-63.5 -51t-44 -75.5t-24 -91.5q-2 -17 -3.5 -34t-1.5 -33z" />
<glyph unicode=":" horiz-adv-x="589" d="M156 670l36 244h272l-35 -244h-273zM59 0l36 244h272l-35 -244h-273z" />
<glyph unicode=";" horiz-adv-x="551" d="M-38 -272l147 484h271l-236 -516zM157 673l36 244h272l-35 -244h-273z" />
<glyph unicode="&#x3c;" horiz-adv-x="1042" d="M58 386l36 244l900 348l-38 -256l-592 -214l530 -214l-37 -256z" />
<glyph unicode="=" horiz-adv-x="1104" d="M56 266l30 206h894l-30 -206h-894zM114 662l29 206h894l-30 -206h-893z" />
<glyph unicode="&#x3e;" horiz-adv-x="1050" d="M19 38l37 256l592 214l-530 214l37 256l801 -348l-36 -244z" />
<glyph unicode="?" horiz-adv-x="1002" d="M157 1264q34 19 81 40t104 37.5t123 27.5t140 11q81 0 148 -20t115 -58.5t74.5 -93.5t26.5 -124q0 -14 -1 -28t-3 -28q-11 -76 -42 -134.5t-74.5 -105.5t-94.5 -86.5t-102 -77.5q-27 -23 -48.5 -45.5t-37.5 -51t-27.5 -65.5t-18.5 -88h-259q12 79 28 138.5t41.5 106 t61 83.5t86.5 72q47 32 82.5 59.5t60 54.5t39 55t19.5 63q10 69 -36 110.5t-132 41.5q-91 0 -171.5 -25.5t-155.5 -60.5zM209 0l30 212h262l-30 -212h-262z" />
<glyph unicode="@" horiz-adv-x="1776" d="M47 231q0 110 22 229q38 207 125 374.5t213 285t287 181t349 63.5q153 0 272.5 -45t201 -129t124 -204.5t42.5 -272.5q0 -54 -5.5 -111.5t-16.5 -119.5q-11 -59 -32 -119t-52.5 -116t-73.5 -104.5t-96 -84.5t-120 -57t-145 -21q-75 0 -124 43t-62 121 q-114 -160 -298 -160q-54 0 -96.5 18.5t-72 53.5t-45.5 85t-16 113q0 33 4.5 69.5t14.5 76.5q30 121 81.5 219.5t118 168t144.5 107t162 37.5q64 0 113 -8t88 -22t71 -32.5t64 -39.5l-4 -4h5l-130 -544q-5 -25 -8 -44.5t-3 -35.5q0 -47 18 -62.5t40 -15.5q51 0 96 28 t82 76.5t63 114t40 139.5q11 62 17 119t6 110q0 118 -29.5 211.5t-90.5 159t-153.5 100t-219.5 34.5q-142 0 -266 -53t-222.5 -151.5t-168 -238t-101.5 -313.5q-11 -57 -16.5 -110.5t-5.5 -103.5q0 -122 32.5 -219.5t95.5 -165t155.5 -103.5t213.5 -36q44 0 92 5.5t94.5 15 t89.5 22t78 27.5l12 -142q-39 -22 -87.5 -38t-100.5 -26.5t-105.5 -16t-101.5 -5.5q-156 0 -278 45.5t-207 132t-129.5 210t-44.5 279.5zM652 281q0 -127 97 -127q25 0 52 5.5t54 19.5t53.5 39.5t52.5 66.5l113 464q-23 8 -49.5 12.5t-56.5 4.5q-111 0 -183.5 -93 t-116.5 -273q-16 -67 -16 -119z" />
<glyph unicode="A" horiz-adv-x="1306" d="M-42 0l647 1360h312l254 -1360h-282l-48 284h-471l-130 -284h-282zM470 504h335l-90 536z" />
<glyph unicode="B" horiz-adv-x="1255" d="M55 0l197 1360h448q100 0 179 -22t134 -63t84.5 -98.5t29.5 -128.5q0 -13 -1 -25.5t-3 -26.5q-9 -60 -30.5 -107t-49.5 -83t-59 -62.5t-58 -44.5q97 -30 150 -94.5t53 -163.5q0 -14 -1 -28t-3 -29q-13 -89 -57.5 -160t-116.5 -121t-168.5 -76.5t-211.5 -26.5h-516z M375 230h209q52 0 97.5 10.5t80.5 31.5t57.5 54t28.5 78q3 21 3 38q0 74 -47.5 110.5t-140.5 36.5h-236zM457 795h298q23 28 46 72t31 101q2 8 2 16v15q0 66 -46.5 98.5t-135.5 32.5h-146z" />
<glyph unicode="C" horiz-adv-x="1086" d="M87 544q0 33 2.5 67.5t7.5 70.5q24 163 87.5 292.5t160.5 219.5t223.5 138t275.5 48q95 0 161.5 -16t112.5 -37l-78 -202q-42 17 -97.5 27t-118.5 10q-81 0 -151.5 -28t-127 -86.5t-96 -149t-57.5 -216.5q-5 -38 -8 -73.5t-3 -67.5q0 -91 21.5 -156t61 -106.5t96 -61 t127.5 -19.5q75 0 143 16.5t120 36.5l15 -203q-60 -29 -143 -48.5t-200 -19.5q-123 0 -222 39.5t-168.5 113t-107 178t-37.5 233.5z" />
<glyph unicode="D" horiz-adv-x="1324" d="M55 0l197 1360h439q128 0 231.5 -39t176 -111t112 -174t39.5 -229q0 -61 -9 -125q-23 -158 -87.5 -284.5t-161.5 -215t-223.5 -135.5t-274.5 -47h-439zM374 218h130q82 0 155 27t131 84t98.5 144.5t58.5 208.5q5 35 7.5 66.5t2.5 60.5q0 89 -22.5 152.5t-64 103.5 t-100.5 58.5t-132 18.5h-130z" />
<glyph unicode="E" horiz-adv-x="1048" d="M55 0l197 1360h841l-32 -220h-554l-50 -346h492l-32 -220h-492l-51 -354h554l-32 -220h-841z" />
<glyph unicode="F" horiz-adv-x="970" d="M55 0l197 1360h800l-32 -220h-513l-50 -346h449l-31 -220h-450l-83 -574h-287z" />
<glyph unicode="G" horiz-adv-x="1314" d="M101 564q0 29 1.5 58t6.5 58q22 154 89.5 282.5t171.5 221.5t241 144.5t300 51.5q103 0 185 -19t138 -47l-70 -201q-52 19 -121.5 34t-154.5 15q-98 0 -181 -32.5t-146.5 -94t-106 -151.5t-59.5 -204q-4 -28 -6 -54.5t-2 -52.5q0 -84 21 -153t62.5 -118.5t103.5 -76.5 t143 -27q42 0 83.5 5t80.5 17l44 306h-241l32 218h504l-96 -664q-109 -48 -221.5 -74t-241.5 -26q-133 0 -237 45.5t-176 124.5t-109.5 185.5t-37.5 228.5z" />
<glyph unicode="H" horiz-adv-x="1389" d="M55 0l197 1360h286l-83 -572h530l83 572h287l-197 -1360h-287l82 568h-530l-82 -568h-286z" />
<glyph unicode="I" horiz-adv-x="818" d="M14 0l24 170h164l148 1020h-164l25 170h615l-24 -170h-166l-147 -1020h165l-25 -170h-615z" />
<glyph unicode="J" horiz-adv-x="905" d="M-28 32l66 202q18 -6 42 -12t51 -11t55 -8t54 -3q45 0 79.5 10t59.5 33t40.5 60t23.5 90l140 967h286l-142 -979q-17 -121 -57 -199t-99.5 -123t-136.5 -62t-168 -17q-43 0 -85 4t-80.5 11t-71.5 16.5t-57 20.5z" />
<glyph unicode="K" horiz-adv-x="1247" d="M53 0l197 1360h287l-83 -571h150l364 571h298l-435 -674l308 -686h-316l-252 566h-149l-82 -566h-287z" />
<glyph unicode="L" horiz-adv-x="970" d="M55 0l197 1360h286l-165 -1140h512l-32 -220h-798z" />
<glyph unicode="M" horiz-adv-x="1622" d="M55 0l197 1360h325l252 -641l439 641h321l-197 -1360h-287l74 509l93 471l-407 -602h-172l-234 611l-43 -470l-75 -519h-286z" />
<glyph unicode="N" horiz-adv-x="1418" d="M55 0l197 1360h286v-1l1 1l425 -917l133 917h287l-197 -1360h-287l-426 919l-133 -919h-286z" />
<glyph unicode="O" horiz-adv-x="1369" d="M76 534q0 35 3 71.5t8 74.5q24 166 86 296t154 220t210.5 137t257.5 47q119 0 214.5 -38t162.5 -110t103 -175t36 -232q0 -35 -3 -71t-8 -74q-24 -167 -86 -297t-154 -219.5t-210.5 -136.5t-257.5 -47q-119 0 -214.5 38t-162.5 109.5t-103 174t-36 232.5zM364 535 q0 -168 67 -252.5t192 -84.5q73 0 136.5 32t114 93.5t86 151t52.5 205.5q6 40 8.5 76.5t2.5 70.5q0 168 -67 251.5t-193 83.5q-72 0 -135 -32t-113.5 -93.5t-86.5 -151t-53 -205.5q-6 -39 -8.5 -75.5t-2.5 -69.5z" />
<glyph unicode="P" horiz-adv-x="1199" d="M55 0l197 1360h483q110 0 195.5 -26t144 -73.5t88.5 -114.5t30 -150q0 -17 -1 -35t-4 -36q-15 -101 -60.5 -182t-119 -138t-174.5 -87.5t-226 -30.5h-196l-71 -487h-286zM443 705h176q119 0 189.5 54t87.5 166q2 14 3 26.5t1 23.5q0 88 -54.5 127.5t-163.5 39.5h-175z " />
<glyph unicode="Q" horiz-adv-x="1374" d="M78 534q0 35 3 71.5t8 74.5q24 166 85.5 296t153.5 220t211 137t257 47q119 0 215 -38t163 -110t103 -175t36 -232q0 -35 -3 -71t-8 -74q-28 -189 -102 -327.5t-187 -229.5l207 -316h-317l-129 196q-87 -23 -181 -23q-119 0 -214 38t-162 109.5t-103 174t-36 232.5z M366 535q0 -168 67 -252.5t192 -84.5q73 0 136.5 32t114 93.5t86 151t52.5 205.5q6 40 8.5 76.5t2.5 70.5q0 168 -67 251.5t-193 83.5q-72 0 -135 -32t-113.5 -93.5t-86.5 -151t-53 -205.5q-6 -39 -8.5 -75.5t-2.5 -69.5z" />
<glyph unicode="R" horiz-adv-x="1254" d="M55 0l197 1360h471q108 0 192 -24.5t141.5 -70t87.5 -110.5t30 -146q0 -17 -1 -34.5t-4 -35.5q-9 -60 -32.5 -112.5t-57.5 -97t-75.5 -82t-86.5 -67.5l189 -580h-301l-166 514h-222l-75 -514h-287zM448 732h322q17 16 33.5 35.5t30.5 44.5t25 56t17 71q2 14 3 26.5 t1 23.5q0 83 -49 118t-148 35h-175z" />
<glyph unicode="S" horiz-adv-x="1055" d="M23 78l93 216q91 -32 175 -53t178 -21q87 0 142 39.5t63 111.5q1 8 1 16q-1 27 -11 50q-14 29 -41 52.5t-68 43t-92 37.5q-78 28 -141.5 63t-108.5 79.5t-69 99.5t-24 123q0 22 3 45q10 93 51 167t108 125.5t156 79.5t195 28q58 0 116 -9.5t110.5 -24t96 -32.5t73.5 -36 l-78 -217q-45 17 -86 31.5t-80.5 25t-79 16.5t-82.5 6q-93 0 -145 -42t-60 -108q-1 -9 -1 -19q1 -55 37 -93q42 -46 151 -83q96 -33 165.5 -69.5t114 -80.5t65.5 -97t21 -118q0 -26 -3 -53q-10 -92 -51 -165.5t-108 -125t-156.5 -79t-195.5 -27.5q-55 0 -114 7t-116.5 19.5 t-110 30.5t-93.5 41z" />
<glyph unicode="T" horiz-adv-x="1102" d="M114 1140l32 220h1027l-32 -220h-370l-165 -1140h-287l165 1140h-370z" />
<glyph unicode="U" horiz-adv-x="1374" d="M114 367q0 17 1 35.5t4 37.5l133 920h287l-133 -920q-4 -23 -4 -48q0 -49 16 -85.5t45.5 -60.5t71 -36t91.5 -12q56 0 105.5 15.5t88.5 46t65 76t35 104.5l134 920h286l-134 -924q-16 -112 -68 -197.5t-132 -143t-185 -86.5t-227 -29q-107 0 -195.5 26t-151.5 75.5 t-98 121.5t-35 164z" />
<glyph unicode="V" horiz-adv-x="1259" d="M146 1360h299l102 -696l39 -359l144 360l304 695h296l-632 -1360h-315z" />
<glyph unicode="W" horiz-adv-x="1776" d="M154 1360h300l15 -985l407 985h244l119 -987l304 987h296l-477 -1360h-311l-115 924l-388 -924h-309z" />
<glyph unicode="X" horiz-adv-x="1184" d="M-54 0l488 689l-291 671h309l183 -451l316 451h307l-486 -671l289 -689h-309l-181 460l-313 -460h-312z" />
<glyph unicode="Y" horiz-adv-x="1196" d="M146 1360h293l180 -600l357 600h290l-548 -902l-67 -458h-286l67 464z" />
<glyph unicode="Z" horiz-adv-x="1150" d="M14 0l25 174l720 967h-574l32 219h917l-24 -170l-731 -971h635l-73 -219h-927z" />
<glyph unicode="[" horiz-adv-x="822" d="M151 -300l200 1824h444l-23 -206h-157l-155 -1412h157l-23 -206h-443z" />
<glyph unicode="\" horiz-adv-x="912" d="M144 1360h286l320 -1500h-287z" />
<glyph unicode="]" horiz-adv-x="798" d="M47 -300l23 206h155l156 1412h-156l23 206h417l-200 -1824h-418z" />
<glyph unicode="^" horiz-adv-x="953" d="M100 708l378 652h215l189 -652h-230l-106 390l-218 -390h-228z" />
<glyph unicode="_" horiz-adv-x="934" d="M-134 -294l30 206h937l-30 -206h-937z" />
<glyph unicode="`" horiz-adv-x="679" d="M143 1360l282 48l216 -244l-203 -52z" />
<glyph unicode="a" horiz-adv-x="1127" d="M47 301q0 28 2.5 58.5t7.5 62.5q19 133 67 243t118 189t157.5 122.5t186.5 43.5q36 0 64 -5t51 -15t41.5 -23.5t36.5 -29.5l34 53h241l-145 -1000h-230l-18 114q-57 -61 -135.5 -97.5t-190.5 -36.5q-142 0 -215 81.5t-73 239.5zM341 367q0 -45 11 -76.5t30 -52t45 -29.5 t55 -9q51 0 98 23t83 63l70 485q-26 12 -54.5 21t-64.5 9q-49 0 -92.5 -26.5t-78.5 -75t-60.5 -118t-37.5 -155.5q-2 -16 -3 -30.5t-1 -28.5z" />
<glyph unicode="b" horiz-adv-x="1188" d="M44 0l204 1402h289l-69 -475q28 22 58.5 39.5t65 29.5t74.5 18t89 6q76 0 138 -28t105.5 -80t67 -126t23.5 -167q0 -56 -9 -117q-18 -121 -60 -218t-104.5 -164.5t-141.5 -103.5t-170 -36q-53 0 -94 7.5t-74 22.5t-60 36t-51 48l-37 -94h-244zM371 261q33 -28 74 -45.5 t92 -17.5q108 0 168.5 78.5t81.5 225.5q5 29 6.5 55t1.5 49q0 99 -40 147.5t-131 48.5q-49 0 -95.5 -17.5t-87.5 -44.5z" />
<glyph unicode="c" horiz-adv-x="918" d="M62 407q0 23 1.5 46.5t5.5 48.5q18 121 67 217t123.5 163t172.5 102.5t213 35.5q90 0 156 -15t110 -39l-81 -196q-33 13 -72 22.5t-98 9.5q-56 0 -105 -17.5t-87.5 -54t-65.5 -93t-38 -135.5q-6 -44 -6 -81q0 -118 57.5 -170.5t156.5 -52.5q68 0 115 10t90 26l12 -189 q-51 -28 -120.5 -46.5t-166.5 -18.5q-102 0 -183.5 30t-138.5 85.5t-87.5 134.5t-30.5 177z" />
<glyph unicode="d" horiz-adv-x="1178" d="M63 386q0 56 9 116q18 121 60.5 217t104.5 163t141 102.5t169 35.5q91 0 151 -23.5t106 -67.5l68 471h286l-203 -1400h-250l-7 84q-31 -25 -62 -44t-67 -32.5t-78 -20.5t-95 -7q-77 0 -138.5 28.5t-104.5 81.5t-66.5 128t-23.5 168zM358 394q0 -98 39 -147t129 -49 q49 0 95 16.5t86 43.5l70 484q-32 26 -72.5 43t-90.5 17q-108 0 -167 -76.5t-80 -223.5q-9 -60 -9 -108z" />
<glyph unicode="e" horiz-adv-x="1061" d="M54 395q0 23 1.5 47t5.5 50q19 129 68 227.5t123 165.5t169.5 101t207.5 34q76 0 142 -24t115 -68.5t76.5 -107t27.5 -140.5q0 -15 -1.5 -30.5t-3.5 -32.5l-26 -182h-615v-15q0 -104 52 -161q56 -61 169 -61q78 0 147 12.5t117 26.5l31 -178q-66 -38 -153.5 -58.5 t-185.5 -20.5q-109 0 -195.5 27.5t-147 81t-92.5 130.5t-32 176zM375 617h346q2 13 3 25t1 23q0 40 -10.5 68.5t-29.5 46.5t-44 26t-54 8q-35 0 -66 -9.5t-58 -32.5t-49.5 -61t-38.5 -94z" />
<glyph unicode="f" horiz-adv-x="748" d="M70 813l34 187h132l6 38q16 109 55 182t97.5 117.5t135.5 63.5t168 19q52 0 106 -9t91 -21l-46 -204q-29 4 -69.5 9t-83.5 5q-73 0 -113.5 -36t-53.5 -126l-6 -38h259l-27 -187h-259l-118 -813h-287l118 813h-139z" />
<glyph unicode="g" horiz-adv-x="1129" d="M55 386q0 56 9 116q18 121 60 217t104 163t141 102.5t170 35.5q48 0 87.5 -6t71.5 -18t59.5 -29.5t51.5 -39.5l26 73h255l-152 -1049q-18 -126 -65.5 -206.5t-119.5 -126.5t-166.5 -63.5t-207.5 -17.5q-43 0 -87.5 4t-85.5 11t-75.5 14.5t-57.5 15.5l62 208 q21 -5 51.5 -10.5t65 -10t71 -8t69.5 -3.5q59 0 104 10t76.5 32.5t51 59.5t27.5 91l16 112q-28 -19 -57 -33.5t-62.5 -24.5t-72.5 -15.5t-86 -5.5q-77 0 -138.5 28t-105 80t-67 126.5t-23.5 167.5zM349 398q0 -99 40 -147.5t131 -48.5q47 0 91.5 15.5t83.5 41.5l71 486 q-32 26 -71.5 41.5t-87.5 15.5q-108 0 -168.5 -76.5t-81.5 -223.5q-5 -29 -6.5 -55t-1.5 -49z" />
<glyph unicode="h" horiz-adv-x="1188" d="M44 0l203 1400h289l-70 -487q71 51 147 79t159 28q65 0 119 -13.5t93 -45.5t60.5 -85t21.5 -133q0 -49 -9 -109l-92 -634h-286l92 634q2 17 3.5 31t1.5 27q0 62 -28 86t-86 24q-60 0 -116.5 -21.5t-107.5 -56.5l-105 -724h-289z" />
<glyph unicode="i" horiz-adv-x="596" d="M67 0l145 1000h287l-145 -1000h-287zM236 1190l31 212h293l-31 -212h-293z" />
<glyph unicode="j" horiz-adv-x="597" d="M-292 -416l61 197q11 -3 27.5 -6t36.5 -6t41.5 -5t42.5 -2q35 0 62 8.5t47 28t32.5 52t19.5 79.5l156 1070h286l-156 -1070q-17 -119 -55.5 -194.5t-93.5 -118.5t-122 -59t-141 -16q-29 0 -63.5 3t-68 9t-63 13.5t-49.5 16.5zM256 1190l31 212h294l-31 -212h-294z" />
<glyph unicode="k" horiz-adv-x="1073" d="M44 0l203 1400h289l-111 -771h103l236 371h305l-325 -474l224 -526h-313l-156 406h-107l-59 -406h-289z" />
<glyph unicode="l" horiz-adv-x="596" d="M67 0l203 1400h287l-203 -1400h-287z" />
<glyph unicode="m" horiz-adv-x="1790" d="M44 0l145 1000h242l10 -95q75 54 155 84.5t168 30.5q97 0 170 -25.5t106 -90.5q76 55 158.5 85.5t175.5 30.5q65 0 119 -13t93 -44.5t60.5 -84t21.5 -131.5q0 -23 -1.5 -49.5t-6.5 -55.5l-93 -642h-287l93 642q2 14 3 27.5t1 24.5q0 60 -28 84t-86 24q-53 0 -103.5 -17 t-95.5 -46q-1 -10 -1.5 -20t-2.5 -21l-102 -698h-287l98 674q3 21 3 37q0 52 -29 71.5t-89 19.5q-58 0 -112 -20t-103 -53l-106 -729h-289z" />
<glyph unicode="n" horiz-adv-x="1188" d="M44 0l145 1000h242l12 -104q77 59 158 91.5t171 32.5q66 0 120 -13t92.5 -44.5t60 -84.5t21.5 -133q0 -24 -1.5 -51t-6.5 -56l-93 -638h-286l92 638q2 17 3.5 31t1.5 27q0 60 -28 83t-86 23q-60 0 -116.5 -22t-107.5 -57l-105 -723h-289z" />
<glyph unicode="o" horiz-adv-x="1161" d="M55 403q0 23 1.5 47t5.5 50q18 124 68.5 221t126.5 163.5t173.5 101t209.5 34.5q97 0 177 -29t137 -83.5t88 -133t31 -177.5q0 -23 -1.5 -47t-5.5 -50q-18 -125 -68.5 -222t-126.5 -163t-173 -100.5t-209 -34.5q-97 0 -177 28.5t-137 83t-88.5 133t-31.5 178.5zM342 405 q0 -57 13 -96.5t36.5 -64t56 -35.5t72.5 -11q46 0 88 16t76 52t58.5 93.5t36.5 140.5q4 27 6 51t2 45q0 57 -13 96.5t-36.5 64t-56.5 35t-73 10.5q-46 0 -87.5 -16.5t-75.5 -52.5t-58.5 -93.5t-36.5 -139.5q-4 -26 -6 -50t-2 -45z" />
<glyph unicode="p" horiz-adv-x="1181" d="M-14 -400l203 1400h253l6 -88q31 25 63 45.5t68 34t79 21t97 7.5q77 0 138.5 -28.5t105 -81t67 -127t23.5 -167.5q0 -56 -9 -116q-18 -121 -60 -217.5t-104.5 -163.5t-141.5 -103t-170 -36q-93 0 -153.5 24.5t-106.5 68.5l-69 -473h-289zM371 260q33 -28 74 -45t92 -17 q108 0 168.5 77t81.5 225q5 29 6.5 55t1.5 49q0 100 -40 149t-131 49q-49 0 -95.5 -17.5t-87.5 -44.5z" />
<glyph unicode="q" horiz-adv-x="1178" d="M63 383q0 55 9 117q18 121 60.5 217.5t104.5 163.5t141 103t169 36q51 0 91.5 -7.5t73.5 -21t59.5 -34t50.5 -45.5l36 88h242l-203 -1400h-286l69 470q-29 -21 -59 -38t-64 -28.5t-73.5 -17.5t-87.5 -6q-77 0 -138.5 28t-104.5 80.5t-66.5 127t-23.5 167.5zM357 393 q0 -98 39.5 -146.5t129.5 -48.5q49 0 95 16.5t86 43.5l70 484q-32 26 -72.5 43t-90.5 17q-108 0 -167 -77.5t-81 -224.5q-9 -60 -9 -107z" />
<glyph unicode="r" horiz-adv-x="753" d="M44 0l145 1000h242l8 -137q70 86 140 121.5t144 35.5q18 0 40 -1t40 -3l-51 -242q-24 5 -49 6.5t-57 1.5q-57 0 -112 -34.5t-106 -91.5l-95 -656h-289z" />
<glyph unicode="s" horiz-adv-x="935" d="M24 60l61 198q38 -13 73.5 -25t71.5 -21t73 -14t77 -5q73 0 111.5 27t43.5 78q3 23 -8.5 40.5t-34 32t-54 25.5t-68.5 22q-57 16 -105 38.5t-83 54t-55 73.5t-20 97q0 8 0.5 17t1.5 18q8 71 44 127.5t94.5 95.5t137.5 60t173 21q102 0 184.5 -21t133.5 -45l-66 -202 q-35 12 -66 22t-60.5 17.5t-59.5 11.5t-63 4q-75 0 -113 -24t-43 -71q-2 -22 4.5 -38.5t23 -30t44 -25t67.5 -22.5q146 -42 217.5 -107t71.5 -164q0 -8 -0.5 -16.5t-1.5 -16.5q-8 -71 -43.5 -128.5t-94 -98t-137.5 -63t-173 -22.5q-50 0 -100 5.5t-96.5 16t-88 25.5 t-74.5 33z" />
<glyph unicode="t" horiz-adv-x="795" d="M61 813l36 187h139l38 260l290 20l-41 -280h271l-27 -187h-271l-65 -452q-2 -14 -3 -26t-1 -23q0 -54 26.5 -74.5t83.5 -20.5q40 0 79 6t66 12l-7 -208q-22 -8 -50 -14.5t-58.5 -11t-61.5 -7.5t-60 -3q-70 0 -127 12t-97.5 42t-62.5 81.5t-22 130.5q0 23 1.5 49t6.5 55 l65 452h-148z" />
<glyph unicode="u" horiz-adv-x="1188" d="M90 263q0 52 9 115l90 622h289l-90 -622q-6 -38 -6 -67q0 -64 28 -88.5t85 -24.5q59 0 116 22t108 58l105 722h286l-145 -1000h-240l-10 108q-76 -60 -158.5 -94t-172.5 -34q-65 0 -119 13.5t-93 45.5t-60.5 86.5t-21.5 137.5z" />
<glyph unicode="v" horiz-adv-x="996" d="M66 1000h291l67 -450l23 -294l113 296l193 448h292l-489 -1000h-292z" />
<glyph unicode="w" horiz-adv-x="1466" d="M102 1000h274l12 -691l299 691h210l96 -685l213 685h274l-387 -1000h-256l2 2l-97 655l-291 -655l1 -2h-252z" />
<glyph unicode="x" horiz-adv-x="1050" d="M-49 0l410 508l-256 492h309l126 -298l210 298h308l-398 -492l263 -508h-314l-127 307l-218 -307h-313z" />
<glyph unicode="y" horiz-adv-x="1040" d="M6 -394l50 208q16 0 23 -0.5t13 -1t15.5 -1t30.5 -0.5q22 0 41 6t36.5 21.5t35 42.5t36.5 68l-201 1051h292l92 -704l306 704h292l-514 -1050q-44 -106 -91.5 -175.5t-97 -111t-101.5 -58.5t-105 -17q-42 0 -81.5 5t-71.5 13z" />
<glyph unicode="z" horiz-adv-x="928" d="M-16 0l24 172l491 609h-396l32 219h746l-23 -156l-503 -625h465l-72 -219h-764z" />
<glyph unicode="{" horiz-adv-x="772" d="M76 506l19 167q38 0 71.5 9t60 33t44.5 65t25 105l24 220q12 112 43 193.5t84 134.5t130.5 78.5t183.5 25.5l17 -148q-81 0 -124.5 -69.5t-59.5 -214.5l-24 -220q-7 -62 -26.5 -109.5t-49.5 -83t-68 -60.5t-81 -43q35 -15 65 -37.5t51.5 -53t34 -69.5t12.5 -88 q0 -23 -3 -47l-26 -236q-3 -29 -5 -54.5t-2 -48.5q0 -94 30.5 -137.5t98.5 -43.5l-50 -148q-182 0 -267 83.5t-85 253.5q0 44 6 95l26 236q3 30 3 54q0 48 -11.5 79t-32.5 48.5t-50 24t-64 6.5z" />
<glyph unicode="|" horiz-adv-x="455" d="M-36 -300l265 1824h261l-264 -1824h-262z" />
<glyph unicode="}" horiz-adv-x="772" d="M7 -226q81 0 124.5 69.5t59.5 214.5l24 220q7 62 27 109.5t49.5 83t67 60.5t81.5 42q-36 16 -65.5 38.5t-51 53t-33.5 70t-12 89.5v22q0 11 2 23l26 236q6 57 6 102q0 95 -30 138.5t-97 43.5l50 148q181 0 266 -84.5t85 -253.5q0 -45 -6 -94l-26 -236q-3 -30 -3 -54 q0 -49 11.5 -79.5t32.5 -48t50.5 -24t64.5 -6.5l-18 -167q-39 0 -73 -9t-60.5 -33t-44.5 -65t-25 -105l-24 -220q-12 -112 -43 -193.5t-84.5 -134.5t-130.5 -78.5t-182 -25.5z" />
<glyph unicode="~" horiz-adv-x="1356" d="M88 477q30 79 73.5 134.5t92 89.5t97.5 49.5t90 15.5q48 0 87.5 -7.5t73.5 -22t65 -35.5t63 -47q49 -41 93.5 -60.5t94.5 -22.5q22 -2 46.5 4.5t49 25t50 50.5t50.5 82l151 -116q-30 -79 -74 -134t-92.5 -89.5t-97.5 -50t-89 -15.5q-49 0 -88.5 8t-73.5 22.5t-65.5 35.5 t-63.5 47q-48 42 -88.5 61.5t-89.5 22.5q-22 1 -47.5 -6t-52 -25.5t-53.5 -50.5t-53 -82z" />
<glyph unicode="&#xa1;" horiz-adv-x="546" d="M638.005 1000l-30.998 -215.986h-263.984l30.998 215.986h263.984zM561.01 562.026l-111.993 -937.942h-285.982l159.99 937.942h237.985z" />
<glyph unicode="&#xa2;" d="M147 402q0 24 2 49t6 51q15 103 53 188t95.5 149t132.5 106.5t165 61.5l25 167h205l-23 -157q63 -5 108.5 -18.5t80.5 -32.5l-82 -196q-32 13 -71.5 22.5t-98.5 9.5q-56 0 -104.5 -17.5t-87.5 -54t-65.5 -93t-38.5 -135.5q-6 -44 -6 -81q0 -59 15 -101t42.5 -69t67.5 -40 t90 -13q68 0 115 10t90 26l12 -189q-42 -23 -94.5 -39.5t-122.5 -22.5l-25 -177h-206l27 188q-73 17 -130 53t-96.5 88t-60 119.5t-20.5 147.5z" />
<glyph unicode="&#xa3;" horiz-adv-x="1127" d="M6 0l32 220h8l-6 2q48 0 87 20.5t68.5 55.5t48.5 81.5t27 97.5l15 101h-189l58 209h161l30 207q16 108 56 182t105 119t155 65t206 20q29 0 60 -2.5t61 -6.5t57.5 -9.5t49.5 -11.5l-34 -224q-19 4 -44.5 8t-54 7t-58.5 5t-58 2q-53 0 -91 -10.5t-64 -34t-41.5 -61 t-23.5 -90.5l-24 -165h302l-30 -209h-302l-17 -117q-13 -87 -52.5 -142.5t-108.5 -98.5h620l-32 -220h-977z" />
<glyph unicode="&#xa4;" horiz-adv-x="1367" d="M-5 80l158 130q-26 50 -40 106.5t-14 119.5q0 40 6 84q14 89 47.5 164t85.5 140l-117 127l196 163l116 -129q68 36 143.5 55.5t158.5 19.5q80 0 151.5 -19.5t129.5 -55.5l154 129l149 -163l-155 -129q24 -48 37 -102t13 -114q0 -21 -2 -42.5t-5 -43.5 q-13 -91 -47.5 -167.5t-88.5 -141.5l120 -131l-196 -162l-121 133q-67 -35 -141 -53t-155 -18q-78 0 -148 18t-127 53l-159 -133zM351 455q0 -61 18.5 -108.5t52.5 -80t81.5 -49.5t106.5 -17q64 0 122.5 22t104.5 63.5t77.5 101t42.5 133.5q2 17 3.5 33t1.5 31 q0 61 -18.5 109t-52 81t-81.5 50t-107 17q-64 0 -122 -22.5t-104.5 -64t-78 -101t-42.5 -133.5q-2 -17 -3.5 -33t-1.5 -32z" />
<glyph unicode="&#xa5;" d="M86 221l21 146h283l15 98l-12 35h-267l22 146h198l-228 714h294l179 -600l357 600h290l-435 -714h220l-21 -146h-287l-25 -42l-14 -91h307l-21 -146h-307l-32 -221h-286l32 221h-283z" />
<glyph unicode="&#xa6;" horiz-adv-x="455" d="M-36 -300l118 814h263l-119 -814h-262zM118 762l111 762h262l-111 -762h-262z" />
<glyph unicode="&#xa7;" horiz-adv-x="1152" d="M-18 -374l86 214q92 -32 175 -53.5t176 -21.5q82 0 136.5 40t65.5 112q5 33 -11.5 57.5t-50 44.5t-82 37t-108.5 34q-72 22 -130 53t-99 72t-63.5 91.5t-22.5 111.5q0 12 1 24.5t3 25.5q14 101 67.5 173.5t136.5 119.5q-35 37 -54 81t-19 96q0 21 3 42q13 93 56.5 167.5 t112 126.5t158.5 80t198 28q57 0 114 -9.5t108.5 -24.5t94 -33t70.5 -36l-81 -214q-45 16 -85 30.5t-79 24.5t-78.5 16t-82.5 6q-92 0 -146 -42.5t-64 -109.5q-4 -29 8 -52t41.5 -44t77 -41t115.5 -41q165 -51 242 -131.5t77 -198.5q0 -14 -1 -28.5t-3 -30.5 q-14 -98 -63 -170t-124 -123q61 -70 61 -163q0 -22 -3 -44q-13 -92 -56.5 -165.5t-111 -125.5t-156 -79.5t-191.5 -27.5q-56 0 -113.5 8t-112 21.5t-104 32t-89.5 39.5zM329 503q-9 -63 34.5 -108.5t150.5 -82.5q51 -16 95 -32t83 -34q33 25 54.5 60.5t28.5 83.5 q5 37 -5 66.5t-36.5 54t-69 45.5t-102.5 42q-38 11 -74.5 25t-69.5 30q-75 -55 -89 -150z" />
<glyph unicode="&#xa8;" horiz-adv-x="1008" d="M193 1226l21 188h258l-21 -188h-258zM697 1226l21 188h258l-21 -188h-258z" />
<glyph unicode="&#xa9;" horiz-adv-x="1683" d="M136 563q0 55 9 117q24 166 96.5 296t180.5 220t244 137t287 47q133 0 245.5 -40t194.5 -115.5t128 -183.5t46 -243q0 -57 -9 -118q-24 -166 -96.5 -296t-180.5 -220t-244 -137t-287 -47q-132 0 -244.5 40.5t-194.5 116t-128.5 183.5t-46.5 243zM276 560 q0 -119 37.5 -205.5t103.5 -142t156 -82t195 -26.5q114 0 222 35t196 106.5t150 179.5t83 255q9 63 9 120q0 119 -37.5 205.5t-103.5 142.5t-156.5 82.5t-195.5 26.5q-114 0 -222 -35t-196 -106.5t-149.5 -180t-82.5 -255.5q-9 -65 -9 -120zM482 594q0 37 6 76q13 93 48 166 t89 123.5t125.5 76.5t158.5 26q85 0 143 -17.5t96 -44.5l-62 -137q-16 8 -34 15.5t-40.5 13t-51.5 9t-66 3.5q-42 0 -78.5 -13.5t-65.5 -42t-49.5 -73t-29.5 -105.5q-2 -17 -3.5 -32t-1.5 -29q0 -94 46.5 -135.5t121.5 -41.5q40 0 72 4t58 11t48.5 16t44.5 20l24 -135 q-24 -15 -51 -28.5t-58.5 -23.5t-68 -16t-81.5 -6q-81 0 -144 22t-106.5 63.5t-66.5 101t-23 133.5z" />
<glyph unicode="&#xaa;" horiz-adv-x="835" d="M94 826v16q0 8 2 16q7 49 37.5 90.5t78 70.5t108.5 45.5t129 16.5h112l3 20q2 8 2 15v15q0 48 -28 65.5t-79 17.5q-27 0 -58 -4t-61 -10.5t-57.5 -14.5t-47.5 -17l-17 149q29 13 64 24.5t73 20t76.5 13.5t74.5 5q59 0 109.5 -10t87 -35t57.5 -66t21 -104q0 -15 -1.5 -31 t-3.5 -33l-63 -433h-194l-1 72q-18 -13 -41.5 -28t-51.5 -27.5t-60 -20.5t-66 -8q-50 0 -88 13t-64 35.5t-39.5 53.5t-13.5 68zM311 870q-5 -34 20 -49.5t60 -15.5q18 0 37.5 4.5t37.5 11t34 14t27 13.5l15 104h-96q-36 -1 -61 -10t-41 -22t-24 -26.5t-9 -23.5z" />
<glyph unicode="&#xab;" horiz-adv-x="1113" d="M70 428l12 84l417 406l113 -110l-268 -336l173 -320l-145 -110zM507 428l12 84l417 406l113 -110l-268 -336l173 -320l-145 -110z" />
<glyph unicode="&#xac;" horiz-adv-x="1177" d="M95 563l32 220h938l-69 -474h-242l36 254h-695z" />
<glyph unicode="&#xad;" horiz-adv-x="1112" d="M70 538l28 194h938l-28 -194h-938z" />
<glyph unicode="&#xae;" horiz-adv-x="1683" d="M136 563q0 55 9 117q24 166 96.5 296t180.5 220t244 137t287 47q133 0 245.5 -40t194.5 -115.5t128 -183.5t46 -243q0 -57 -9 -118q-24 -166 -96.5 -296t-180.5 -220t-244 -137t-287 -47q-132 0 -244.5 40.5t-194.5 116t-128.5 183.5t-46.5 243zM276 560 q0 -119 37.5 -205.5t103.5 -142t156 -82t195 -26.5q114 0 222 35t196 106.5t150 179.5t83 255q9 63 9 120q0 119 -37.5 205.5t-103.5 142.5t-156.5 82.5t-195.5 26.5q-114 0 -222 -35t-196 -106.5t-149.5 -180t-82.5 -255.5q-9 -65 -9 -120zM537 332l105 722h290 q57 0 102.5 -11t78 -34t50 -58t17.5 -84q0 -21 -3 -43q-10 -67 -48 -112t-93 -74l99 -306h-177l-80 262h-133l-38 -262h-170zM763 720h139q13 2 29 8.5t30 17.5t24.5 27t13.5 37q7 52 -21 71.5t-79 19.5h-110z" />
<glyph unicode="&#xaf;" horiz-adv-x="930" d="M177 1261l17 161h738l-18 -161h-737z" />
<glyph unicode="&#xb0;" horiz-adv-x="661" d="M172 1120q0 8 0.5 15t1.5 15q7 48 31 89.5t60.5 71.5t81.5 47.5t94 17.5q43 0 80.5 -15t65.5 -41.5t44 -62.5t16 -77q0 -8 -0.5 -15t-1.5 -15q-7 -48 -31.5 -89t-61.5 -71t-82.5 -47t-94.5 -17q-43 0 -80 15t-64.5 41t-43 61.5t-15.5 76.5zM288 1150q-4 -25 2.5 -46.5 t20.5 -37.5t34.5 -25t45.5 -9t48.5 9.5t42 25.5t31 37.5t15.5 45.5q7 51 -22 84.5t-81 33.5q-24 0 -47 -9t-42 -25t-31.5 -37.5t-16.5 -46.5z" />
<glyph unicode="&#xb1;" horiz-adv-x="1068" d="M2 -2l28 192h870l-27 -192h-871zM97 617l32 218h319l46 316h251l-46 -316h317l-32 -218h-316l-46 -318h-252l46 318h-319z" />
<glyph unicode="&#xb2;" horiz-adv-x="743" d="M107 668l9 70q7 51 26 91.5t52.5 76t83 67.5t118.5 65q36 17 60.5 31.5t40 29t24 30.5t11.5 36q10 69 -97 69q-32 0 -60 -4.5t-54 -12t-51.5 -17.5t-52.5 -20l-20 124q22 12 51.5 25.5t65 24.5t75 18.5t83.5 7.5q112 0 176 -45.5t64 -126.5q0 -8 -0.5 -15t-1.5 -15 q-6 -44 -25.5 -76.5t-49.5 -59.5t-71 -51t-90 -49q-34 -17 -61 -32.5t-47.5 -31.5t-35 -34t-22.5 -39h354l-20 -137h-535z" />
<glyph unicode="&#xb3;" horiz-adv-x="673" d="M76 703l51 123q43 -16 84.5 -27t100.5 -11q63 0 106 20t49 63q7 46 -22 65.5t-92 19.5h-133l20 136h133q48 0 79 17.5t37 58.5q6 42 -22.5 58t-86.5 16q-52 0 -93.5 -8.5t-86.5 -22.5l-21 115q23 11 52 21t60 17.5t62.5 11.5t59.5 4q129 0 190.5 -46t61.5 -122 q0 -8 -0.5 -15t-1.5 -15q-8 -58 -44 -97.5t-96 -60.5q63 -21 93 -64.5t21 -104.5q-14 -95 -92.5 -149t-227.5 -54q-66 0 -131 13.5t-110 37.5z" />
<glyph unicode="&#xb4;" horiz-adv-x="679" d="M185 1152l257 256l274 -48l-349 -248z" />
<glyph unicode="&#xb5;" horiz-adv-x="1190" d="M-12 -400l204 1400h289l-99 -681q-8 -68 25 -94.5t107 -26.5q56 0 107.5 20.5t100.5 55.5l105 726h286l-145 -1000h-241l-8 94q-63 -54 -128.5 -84t-134.5 -30q-33 0 -64 3t-57 10l-57 -393h-290z" />
<glyph unicode="&#x3bc;" horiz-adv-x="1190" d="M-12 -400l204 1400h289l-99 -681q-8 -68 25 -94.5t107 -26.5q56 0 107.5 20.5t100.5 55.5l105 726h286l-145 -1000h-241l-8 94q-63 -54 -128.5 -84t-134.5 -30q-33 0 -64 3t-57 10l-57 -393h-290z" />
<glyph unicode="&#xb6;" horiz-adv-x="1024" d="M140 874q0 17 1.5 34t3.5 34q14 98 58.5 175.5t116 131.5t168 82.5t214.5 28.5h311l-197 -1360h-287l76 520h-24q-105 0 -187 25t-138.5 71.5t-86 111.5t-29.5 146z" />
<glyph unicode="&#xb7;" horiz-adv-x="405" d="M8 0l28 196h212l-28 -196h-212z" />
<glyph unicode="&#xb8;" horiz-adv-x="613" d="M-31 -283q42 3 81 16.5t69 36.5t48 55.5t18 74.5q0 52 -32 113l233 25q18 -60 18 -118q0 -65 -23.5 -123.5t-72 -104t-123 -75.5t-175.5 -39z" />
<glyph unicode="&#xb9;" horiz-adv-x="492" d="M77 668l16 114h106l63 437l-123 -36l18 124l168 58h132l-84 -583h104l-17 -114h-383z" />
<glyph unicode="&#xba;" horiz-adv-x="866" d="M137 948q0 17 1 34t4 35q13 87 48 154.5t87.5 114t120 70.5t145.5 24q69 0 126 -20t97 -58.5t62 -93.5t22 -124q0 -16 -1.5 -33t-3.5 -34q-13 -88 -48 -155.5t-88.5 -113.5t-122 -70t-148.5 -24q-68 0 -123.5 20t-95 57.5t-61 92.5t-21.5 124zM348 953q0 -38 8.5 -64 t23.5 -42.5t35.5 -24t45.5 -7.5q31 0 59 11t50.5 35t38.5 62.5t24 93.5q3 18 4 34.5t1 30.5q0 76 -32 107t-86 31q-29 0 -55.5 -11t-49 -35.5t-38.5 -63t-24 -93.5q-2 -18 -3.5 -34t-1.5 -30z" />
<glyph unicode="&#xbb;" horiz-adv-x="1115" d="M22 152l266 336l-171 320l145 110l301 -386l-12 -84l-416 -406zM461 152l266 336l-171 320l145 110l301 -386l-12 -84l-416 -406z" />
<glyph unicode="&#xbc;" horiz-adv-x="1390" d="M113 669l16 114h106l63 437l-123 -36l18 124l168 58h132l-84 -583h104l-17 -114h-383zM89 0l1076 1360h184l-1076 -1360h-184zM648 125l14 100l429 475h176l-66 -453h82l-18 -122h-82l-17 -123h-158l18 123h-378zM833 247h211l40 281z" />
<glyph unicode="&#xbd;" horiz-adv-x="1502" d="M788 -1l9 70q7 51 26 91.5t52.5 76t83 67.5t118.5 65q36 17 60.5 31.5t40 29t24 30.5t11.5 36q10 69 -97 69q-32 0 -60 -4.5t-54 -12t-51.5 -17.5t-52.5 -20l-20 124q22 12 51.5 25.5t65 24.5t75 18.5t83.5 7.5q112 0 176 -45.5t64 -126.5q0 -8 -0.5 -15t-1.5 -15 q-6 -44 -25.5 -76.5t-49.5 -59.5t-71 -51t-90 -49q-34 -17 -61 -32.5t-47.5 -31.5t-35 -34t-22.5 -39h354l-20 -137h-535zM113 668l16 114h106l63 437l-123 -36l18 124l168 58h132l-84 -583h104l-17 -114h-383zM105 0l1076 1360h184l-1076 -1360h-184z" />
<glyph unicode="&#xbe;" horiz-adv-x="1368" d="M76 703l51 123q43 -16 84.5 -27t100.5 -11q63 0 106 20t49 63q7 46 -22 65.5t-92 19.5h-133l20 136h133q48 0 79 17.5t37 58.5q6 42 -22.5 58t-86.5 16q-52 0 -93.5 -8.5t-86.5 -22.5l-21 115q23 11 52 21t60 17.5t62.5 11.5t59.5 4q129 0 190.5 -46t61.5 -122 q0 -8 -0.5 -15t-1.5 -15q-8 -58 -44 -97.5t-96 -60.5q63 -21 93 -64.5t21 -104.5q-14 -95 -92.5 -149t-227.5 -54q-66 0 -131 13.5t-110 37.5zM142 0l1076 1360h184l-1076 -1360h-184zM662 125l14 100l429 475h176l-66 -453h82l-18 -122h-82l-17 -123h-158l18 123h-378z M847 247h211l40 281z" />
<glyph unicode="&#xbf;" horiz-adv-x="1001" d="M1027.01 -266.923q-33.998 -18.999 -80.9951 -39.9971q-46.9971 -20.999 -103.994 -37.498q-56.9961 -16.499 -122.992 -27.498q-65.9961 -11 -139.991 -11q-80.9951 0 -147.991 19.999t-114.993 58.4961q-47.9971 38.498 -74.4951 93.4951 q-26.498 54.9961 -26.498 123.992q0 13.999 0.999023 27.998q1 13.999 3 27.998q11 75.9961 41.998 134.492t74.4951 105.493t94.4941 86.4951q50.9971 39.4971 101.994 77.4951q26.998 22.999 48.4971 45.4971q21.498 22.499 37.4971 50.9971t27.499 65.4961 q11.499 36.998 18.498 87.9941h258.984q-11.999 -78.9951 -27.998 -138.491t-41.4971 -105.993q-25.499 -46.4971 -60.9971 -83.4951q-35.4971 -36.998 -86.4941 -71.9961q-46.9971 -31.998 -82.4951 -59.4961t-59.9961 -54.4961q-24.499 -26.999 -38.998 -54.9971 t-19.499 -62.9961q-9.99902 -68.9961 35.998 -110.493q45.9971 -41.498 131.992 -41.498q90.9941 0 171.489 25.499q80.4951 25.498 155.491 60.4961zM975.013 997l-29.998 -211.987h-261.984l29.998 211.987h261.984z" />
<glyph unicode="&#xc0;" horiz-adv-x="1306" d="M-42 0l647 1360h312l254 -1360h-282l-48 284h-471l-130 -284h-282zM470 504h335l-90 536zM433 1720l282 48l216 -244l-203 -52z" />
<glyph unicode="&#xc1;" horiz-adv-x="1306" d="M-42 0l647 1360h312l254 -1360h-282l-48 284h-471l-130 -284h-282zM470 504h335l-90 536zM671 1514l257 256l274 -48l-349 -248z" />
<glyph unicode="&#xc2;" horiz-adv-x="1306" d="M-42 0l647 1360h312l254 -1360h-282l-48 284h-471l-130 -284h-282zM470 504h335l-90 536zM451 1472l317 232h168l249 -232h-248l-104 110l-135 -110h-247z" />
<glyph unicode="&#xc3;" horiz-adv-x="1306" d="M-42 0l647 1360h312l254 -1360h-282l-48 284h-471l-130 -284h-282zM470 504h335l-90 536zM405 1613q49 72 107.5 112t113.5 50q19 3 37 3q56 0 100 -23.5t80 -50.5q27 -24 55 -34.5t49 -8.5q9 1 24 6t33 16t38.5 29t40.5 46l104 -106q-51 -72 -108 -112.5t-112 -47.5 q-12 -2 -23 -3.5t-22 -1.5q-54 0 -96 23t-78 52q-29 22 -55.5 34t-47.5 10q-9 -1 -22.5 -5t-31 -14t-37.5 -28t-43 -46z" />
<glyph unicode="&#xc4;" horiz-adv-x="1306" d="M-42 0l647 1360h312l254 -1360h-282l-48 284h-471l-130 -284h-282zM470 504h335l-90 536zM432 1472l21 188h258l-21 -188h-258zM936 1472l21 188h258l-21 -188h-258z" />
<glyph unicode="&#xc5;" horiz-adv-x="1306" d="M-42 0l647 1360h312l254 -1360h-282l-48 284h-471l-130 -284h-282zM470 504h335l-90 536zM583 1666q6 41 27 76.5t52.5 61.5t70 41t80.5 15q40 0 74.5 -15.5t58.5 -42t35.5 -61.5t5.5 -75q-6 -42 -27 -77.5t-52.5 -61.5t-70.5 -40.5t-80 -14.5t-75.5 15t-58.5 41.5 t-35 61.5t-5 76zM703 1666q-2 -16 2.5 -30.5t14 -25t23.5 -16.5t30 -6q35 0 61.5 23t31.5 55q5 34 -15 56t-55 22q-32 0 -60 -22.5t-33 -55.5z" />
<glyph unicode="&#xc6;" horiz-adv-x="1949" d="M-28 1l1075 1359h913l-32 -220h-554l-50 -346h492l-32 -220h-492l-51 -354h554l-32 -220h-841l43 296h-457l-230 -296zM679 516h318l72 501z" />
<glyph unicode="&#xc7;" horiz-adv-x="1086" d="M87 544q0 33 2.5 67.5t7.5 70.5q24 163 87.5 292.5t160.5 219.5t223.5 138t275.5 48q95 0 161.5 -16t112.5 -37l-78 -202q-42 17 -97.5 27t-118.5 10q-81 0 -151.5 -28t-127 -86.5t-96 -149t-57.5 -216.5q-5 -38 -8 -73.5t-3 -67.5q0 -91 21.5 -156t61 -106.5t96 -61 t127.5 -19.5q75 0 143 16.5t120 36.5l15 -203q-60 -29 -143 -48.5t-200 -19.5q-123 0 -222 39.5t-168.5 113t-107 178t-37.5 233.5zM271 -283q42 3 81 16.5t69 36.5t48 55.5t18 74.5q0 52 -32 113l233 25q18 -60 18 -118q0 -65 -23.5 -123.5t-72 -104t-123 -75.5t-175.5 -39 z" />
<glyph unicode="&#xc8;" horiz-adv-x="1048" d="M55 0l197 1360h841l-32 -220h-554l-50 -346h492l-32 -220h-492l-51 -354h554l-32 -220h-841zM348 1718l282 48l216 -244l-203 -52z" />
<glyph unicode="&#xc9;" horiz-adv-x="1048" d="M55 0l197 1360h841l-32 -220h-554l-50 -346h492l-32 -220h-492l-51 -354h554l-32 -220h-841zM586 1512l257 256l274 -48l-349 -248z" />
<glyph unicode="&#xca;" horiz-adv-x="1048" d="M55 0l197 1360h841l-32 -220h-554l-50 -346h492l-32 -220h-492l-51 -354h554l-32 -220h-841zM366 1470l317 232h168l249 -232h-248l-104 110l-135 -110h-247z" />
<glyph unicode="&#xcb;" horiz-adv-x="1048" d="M55 0l197 1360h841l-32 -220h-554l-50 -346h492l-32 -220h-492l-51 -354h554l-32 -220h-841zM347 1470l21 188h258l-21 -188h-258zM851 1470l21 188h258l-21 -188h-258z" />
<glyph unicode="&#xcc;" horiz-adv-x="818" d="M14 0l24 170h164l148 1020h-164l25 170h615l-24 -170h-166l-147 -1020h165l-25 -170h-615zM194 1718l282 48l216 -244l-203 -52z" />
<glyph unicode="&#xcd;" horiz-adv-x="818" d="M14 0l24 170h164l148 1020h-164l25 170h615l-24 -170h-166l-147 -1020h165l-25 -170h-615zM433 1512l257 256l274 -48l-349 -248z" />
<glyph unicode="&#xce;" horiz-adv-x="818" d="M14 0l24 170h164l148 1020h-164l25 170h615l-24 -170h-166l-147 -1020h165l-25 -170h-615zM212 1470l317 232h168l249 -232h-248l-104 110l-135 -110h-247z" />
<glyph unicode="&#xcf;" horiz-adv-x="818" d="M14 0l24 170h164l148 1020h-164l25 170h615l-24 -170h-166l-147 -1020h165l-25 -170h-615zM193 1470l21 188h258l-21 -188h-258zM697 1470l21 188h258l-21 -188h-258z" />
<glyph unicode="&#xd0;" horiz-adv-x="1382" d="M89 558l31 218h102l85 584h439q128 0 231.5 -38.5t176 -110.5t112 -174t39.5 -228q0 -31 -2.5 -62.5t-7.5 -64.5q-23 -158 -87 -284.5t-161.5 -215t-224 -135.5t-274.5 -47h-438l81 558h-102zM428 218h131q82 0 155 27t131 84t98.5 144.5t58.5 208.5q5 35 7.5 66t2.5 60 q0 90 -22.5 153t-64 103.5t-100.5 59t-132 18.5h-131l-53 -366h244l-32 -218h-243z" />
<glyph unicode="&#xd1;" horiz-adv-x="1418" d="M55 0l197 1360h286v-1l1 1l425 -917l133 917h287l-197 -1360h-287l-426 919l-133 -919h-286zM450 1611q49 72 107.5 112t113.5 50q19 3 37 3q56 0 100 -23.5t80 -50.5q27 -24 55 -34.5t49 -8.5q9 1 24 6t33 16t38.5 29t40.5 46l104 -106q-51 -72 -108 -112.5t-112 -47.5 q-12 -2 -23 -3.5t-22 -1.5q-54 0 -96 23t-78 52q-29 22 -55.5 34t-47.5 10q-9 -1 -22.5 -5t-31 -14t-37.5 -28t-43 -46z" />
<glyph unicode="&#xd2;" horiz-adv-x="1369" d="M76 534q0 35 3 71.5t8 74.5q24 166 86 296t154 220t210.5 137t257.5 47q119 0 214.5 -38t162.5 -110t103 -175t36 -232q0 -35 -3 -71t-8 -74q-24 -167 -86 -297t-154 -219.5t-210.5 -136.5t-257.5 -47q-119 0 -214.5 38t-162.5 109.5t-103 174t-36 232.5zM364 535 q0 -168 67 -252.5t192 -84.5q73 0 136.5 32t114 93.5t86 151t52.5 205.5q6 40 8.5 76.5t2.5 70.5q0 168 -67 251.5t-193 83.5q-72 0 -135 -32t-113.5 -93.5t-86.5 -151t-53 -205.5q-6 -39 -8.5 -75.5t-2.5 -69.5zM464 1736l282 48l216 -244l-203 -52z" />
<glyph unicode="&#xd3;" horiz-adv-x="1369" d="M76 534q0 35 3 71.5t8 74.5q24 166 86 296t154 220t210.5 137t257.5 47q119 0 214.5 -38t162.5 -110t103 -175t36 -232q0 -35 -3 -71t-8 -74q-24 -167 -86 -297t-154 -219.5t-210.5 -136.5t-257.5 -47q-119 0 -214.5 38t-162.5 109.5t-103 174t-36 232.5zM364 535 q0 -168 67 -252.5t192 -84.5q73 0 136.5 32t114 93.5t86 151t52.5 205.5q6 40 8.5 76.5t2.5 70.5q0 168 -67 251.5t-193 83.5q-72 0 -135 -32t-113.5 -93.5t-86.5 -151t-53 -205.5q-6 -39 -8.5 -75.5t-2.5 -69.5zM702 1530l257 256l274 -48l-349 -248z" />
<glyph unicode="&#xd4;" horiz-adv-x="1369" d="M76 534q0 35 3 71.5t8 74.5q24 166 86 296t154 220t210.5 137t257.5 47q119 0 214.5 -38t162.5 -110t103 -175t36 -232q0 -35 -3 -71t-8 -74q-24 -167 -86 -297t-154 -219.5t-210.5 -136.5t-257.5 -47q-119 0 -214.5 38t-162.5 109.5t-103 174t-36 232.5zM364 535 q0 -168 67 -252.5t192 -84.5q73 0 136.5 32t114 93.5t86 151t52.5 205.5q6 40 8.5 76.5t2.5 70.5q0 168 -67 251.5t-193 83.5q-72 0 -135 -32t-113.5 -93.5t-86.5 -151t-53 -205.5q-6 -39 -8.5 -75.5t-2.5 -69.5zM482 1488l317 232h168l249 -232h-248l-104 110l-135 -110 h-247z" />
<glyph unicode="&#xd5;" horiz-adv-x="1369" d="M76 534q0 35 3 71.5t8 74.5q24 166 86 296t154 220t210.5 137t257.5 47q119 0 214.5 -38t162.5 -110t103 -175t36 -232q0 -35 -3 -71t-8 -74q-24 -167 -86 -297t-154 -219.5t-210.5 -136.5t-257.5 -47q-119 0 -214.5 38t-162.5 109.5t-103 174t-36 232.5zM364 535 q0 -168 67 -252.5t192 -84.5q73 0 136.5 32t114 93.5t86 151t52.5 205.5q6 40 8.5 76.5t2.5 70.5q0 168 -67 251.5t-193 83.5q-72 0 -135 -32t-113.5 -93.5t-86.5 -151t-53 -205.5q-6 -39 -8.5 -75.5t-2.5 -69.5zM436 1629q49 72 107.5 112t113.5 50q19 3 37 3 q56 0 100 -23.5t80 -50.5q27 -24 55 -34.5t49 -8.5q9 1 24 6t33 16t38.5 29t40.5 46l104 -106q-51 -72 -108 -112.5t-112 -47.5q-12 -2 -23 -3.5t-22 -1.5q-54 0 -96 23t-78 52q-29 22 -55.5 34t-47.5 10q-9 -1 -22.5 -5t-31 -14t-37.5 -28t-43 -46z" />
<glyph unicode="&#xd6;" horiz-adv-x="1369" d="M76 534q0 35 3 71.5t8 74.5q24 166 86 296t154 220t210.5 137t257.5 47q119 0 214.5 -38t162.5 -110t103 -175t36 -232q0 -35 -3 -71t-8 -74q-24 -167 -86 -297t-154 -219.5t-210.5 -136.5t-257.5 -47q-119 0 -214.5 38t-162.5 109.5t-103 174t-36 232.5zM364 535 q0 -168 67 -252.5t192 -84.5q73 0 136.5 32t114 93.5t86 151t52.5 205.5q6 40 8.5 76.5t2.5 70.5q0 168 -67 251.5t-193 83.5q-72 0 -135 -32t-113.5 -93.5t-86.5 -151t-53 -205.5q-6 -39 -8.5 -75.5t-2.5 -69.5zM463 1488l21 188h258l-21 -188h-258zM967 1488l21 188h258 l-21 -188h-258z" />
<glyph unicode="&#xd7;" horiz-adv-x="1038" d="M63 374l307 259l-233 260l173 145l233 -260l309 260l131 -146l-308 -260l231 -258l-173 -146l-231 258l-307 -258z" />
<glyph unicode="&#xd8;" horiz-adv-x="1421" d="M46 0l166 187q-88 135 -88 342q0 36 3 73.5t8 77.5q24 166 86 296t154 220t210.5 137t257.5 47q100 0 184.5 -26.5t148.5 -77.5l75 84h188l-168 -189q88 -135 88 -341q0 -36 -3 -73.5t-8 -76.5q-24 -167 -86 -297t-154 -219.5t-210.5 -136.5t-257.5 -47q-100 0 -185 26 t-148 77l-73 -83h-188zM412 542q0 -32 3 -61t8 -56l577 653q-66 84 -189 84q-72 0 -135 -32t-113.5 -93.5t-86.5 -151t-53 -205.5q-5 -38 -8 -72t-3 -66zM483 282q67 -84 188 -84q73 0 136.5 32t114 93.5t86 151t52.5 205.5q5 38 8 72.5t3 66.5t-2.5 60.5t-7.5 54.5z" />
<glyph unicode="&#xd9;" horiz-adv-x="1374" d="M114 367q0 17 1 35.5t4 37.5l133 920h287l-133 -920q-4 -23 -4 -48q0 -49 16 -85.5t45.5 -60.5t71 -36t91.5 -12q56 0 105.5 15.5t88.5 46t65 76t35 104.5l134 920h286l-134 -924q-16 -112 -68 -197.5t-132 -143t-185 -86.5t-227 -29q-107 0 -195.5 26t-151.5 75.5 t-98 121.5t-35 164zM472 1718l282 48l216 -244l-203 -52z" />
<glyph unicode="&#xda;" horiz-adv-x="1374" d="M114 367q0 17 1 35.5t4 37.5l133 920h287l-133 -920q-4 -23 -4 -48q0 -49 16 -85.5t45.5 -60.5t71 -36t91.5 -12q56 0 105.5 15.5t88.5 46t65 76t35 104.5l134 920h286l-134 -924q-16 -112 -68 -197.5t-132 -143t-185 -86.5t-227 -29q-107 0 -195.5 26t-151.5 75.5 t-98 121.5t-35 164zM710 1512l257 256l274 -48l-349 -248z" />
<glyph unicode="&#xdb;" horiz-adv-x="1374" d="M114 367q0 17 1 35.5t4 37.5l133 920h287l-133 -920q-4 -23 -4 -48q0 -49 16 -85.5t45.5 -60.5t71 -36t91.5 -12q56 0 105.5 15.5t88.5 46t65 76t35 104.5l134 920h286l-134 -924q-16 -112 -68 -197.5t-132 -143t-185 -86.5t-227 -29q-107 0 -195.5 26t-151.5 75.5 t-98 121.5t-35 164zM490 1470l317 232h168l249 -232h-248l-104 110l-135 -110h-247z" />
<glyph unicode="&#xdc;" horiz-adv-x="1374" d="M114 367q0 17 1 35.5t4 37.5l133 920h287l-133 -920q-4 -23 -4 -48q0 -49 16 -85.5t45.5 -60.5t71 -36t91.5 -12q56 0 105.5 15.5t88.5 46t65 76t35 104.5l134 920h286l-134 -924q-16 -112 -68 -197.5t-132 -143t-185 -86.5t-227 -29q-107 0 -195.5 26t-151.5 75.5 t-98 121.5t-35 164zM471 1470l21 188h258l-21 -188h-258zM975 1470l21 188h258l-21 -188h-258z" />
<glyph unicode="&#xdd;" horiz-adv-x="1196" d="M146 1360h293l180 -600l357 600h290l-548 -902l-67 -458h-286l67 464zM596 1512l257 256l274 -48l-349 -248z" />
<glyph unicode="&#xde;" horiz-adv-x="1195" d="M52 0l197 1360h287l-36 -252h194q109 0 195 -24.5t145.5 -70t91 -110t31.5 -145.5q0 -16 -1.5 -31.5t-3.5 -32.5q-14 -98 -60 -175.5t-120.5 -131.5t-175 -82.5t-223.5 -28.5h-194l-40 -276h-287zM411 494h173q113 0 185.5 48.5t86.5 151.5q3 22 3 42q0 83 -56 118.5 t-162 35.5h-173z" />
<glyph unicode="&#xdf;" horiz-adv-x="1295" d="M3 -192l170 1170q12 89 57 166.5t116 134.5t165 90t204 33q202 0 304 -65.5t102 -178.5q0 -19 -3 -40q-5 -35 -15 -62t-23.5 -48.5t-28.5 -39.5t-31 -34q-18 -21 -32.5 -39.5t-25.5 -38t-18.5 -40.5t-11.5 -46q-4 -27 2.5 -49t20 -41.5t33 -37t41.5 -36.5q24 -22 46 -45 t39.5 -51t28 -61t10.5 -75q0 -11 -1 -23t-3 -25q-14 -95 -64.5 -162t-125 -109t-165 -61t-184.5 -18q-63 0 -113.5 7.5t-78.5 16.5l58 216q24 -8 66 -15t102 -7q39 0 75.5 9.5t65.5 29t48.5 49t25.5 70.5q4 26 -2.5 48t-19 40.5t-29.5 34.5t-34 31q-27 23 -51 46.5t-43 49.5 t-30 57t-11 70q0 20 3 41q9 62 40 113t80 103q9 8 18.5 19.5t18 24t14.5 26t8 26.5q7 45 -23 73.5t-108 28.5q-43 0 -81.5 -16.5t-68.5 -44.5t-50 -65.5t-25 -79.5l-170 -1170h-292z" />
<glyph unicode="&#xe0;" horiz-adv-x="1092" d="M47 301q0 28 2.5 58.5t7.5 62.5q19 133 67 243t118 189t157.5 122.5t186.5 43.5q36 0 64 -5t51 -15t41.5 -23.5t36.5 -29.5l34 53h241l-145 -1000h-230l-18 114q-57 -61 -135.5 -97.5t-190.5 -36.5q-142 0 -215 81.5t-73 239.5zM341 367q0 -45 11 -76.5t30 -52t45 -29.5 t55 -9q51 0 98 23t83 63l70 485q-26 12 -54.5 21t-64.5 9q-49 0 -92.5 -26.5t-78.5 -75t-60.5 -118t-37.5 -155.5q-2 -16 -3 -30.5t-1 -28.5zM285 1398l282 48l216 -244l-203 -52z" />
<glyph unicode="&#xe1;" horiz-adv-x="1092" d="M47 301q0 28 2.5 58.5t7.5 62.5q19 133 67 243t118 189t157.5 122.5t186.5 43.5q36 0 64 -5t51 -15t41.5 -23.5t36.5 -29.5l34 53h241l-145 -1000h-230l-18 114q-57 -61 -135.5 -97.5t-190.5 -36.5q-142 0 -215 81.5t-73 239.5zM341 367q0 -45 11 -76.5t30 -52t45 -29.5 t55 -9q51 0 98 23t83 63l70 485q-26 12 -54.5 21t-64.5 9q-49 0 -92.5 -26.5t-78.5 -75t-60.5 -118t-37.5 -155.5q-2 -16 -3 -30.5t-1 -28.5zM523 1192l257 256l274 -48l-349 -248z" />
<glyph unicode="&#xe2;" horiz-adv-x="1092" d="M47 301q0 28 2.5 58.5t7.5 62.5q19 133 67 243t118 189t157.5 122.5t186.5 43.5q36 0 64 -5t51 -15t41.5 -23.5t36.5 -29.5l34 53h241l-145 -1000h-230l-18 114q-57 -61 -135.5 -97.5t-190.5 -36.5q-142 0 -215 81.5t-73 239.5zM341 367q0 -45 11 -76.5t30 -52t45 -29.5 t55 -9q51 0 98 23t83 63l70 485q-26 12 -54.5 21t-64.5 9q-49 0 -92.5 -26.5t-78.5 -75t-60.5 -118t-37.5 -155.5q-2 -16 -3 -30.5t-1 -28.5zM303 1150l317 232h168l249 -232h-248l-104 110l-135 -110h-247z" />
<glyph unicode="&#xe3;" horiz-adv-x="1092" d="M47 301q0 28 2.5 58.5t7.5 62.5q19 133 67 243t118 189t157.5 122.5t186.5 43.5q36 0 64 -5t51 -15t41.5 -23.5t36.5 -29.5l34 53h241l-145 -1000h-230l-18 114q-57 -61 -135.5 -97.5t-190.5 -36.5q-142 0 -215 81.5t-73 239.5zM341 367q0 -45 11 -76.5t30 -52t45 -29.5 t55 -9q51 0 98 23t83 63l70 485q-26 12 -54.5 21t-64.5 9q-49 0 -92.5 -26.5t-78.5 -75t-60.5 -118t-37.5 -155.5q-2 -16 -3 -30.5t-1 -28.5zM258 1291q49 72 107.5 112t113.5 50q19 3 37 3q56 0 100 -23.5t80 -50.5q27 -24 55 -34.5t49 -8.5q9 1 24 6t33 16t38.5 29 t40.5 46l104 -106q-51 -72 -108 -112.5t-112 -47.5q-12 -2 -23 -3.5t-22 -1.5q-54 0 -96 23t-78 52q-29 22 -55.5 34t-47.5 10q-9 -1 -22.5 -5t-31 -14t-37.5 -28t-43 -46z" />
<glyph unicode="&#xe4;" horiz-adv-x="1092" d="M47 301q0 28 2.5 58.5t7.5 62.5q19 133 67 243t118 189t157.5 122.5t186.5 43.5q36 0 64 -5t51 -15t41.5 -23.5t36.5 -29.5l34 53h241l-145 -1000h-230l-18 114q-57 -61 -135.5 -97.5t-190.5 -36.5q-142 0 -215 81.5t-73 239.5zM341 367q0 -45 11 -76.5t30 -52t45 -29.5 t55 -9q51 0 98 23t83 63l70 485q-26 12 -54.5 21t-64.5 9q-49 0 -92.5 -26.5t-78.5 -75t-60.5 -118t-37.5 -155.5q-2 -16 -3 -30.5t-1 -28.5zM284 1151l21 188h258l-21 -188h-258zM788 1151l21 188h258l-21 -188h-258z" />
<glyph unicode="&#xe5;" horiz-adv-x="1092" d="M47 301q0 28 2.5 58.5t7.5 62.5q19 133 67 243t118 189t157.5 122.5t186.5 43.5q36 0 64 -5t51 -15t41.5 -23.5t36.5 -29.5l34 53h241l-145 -1000h-230l-18 114q-57 -61 -135.5 -97.5t-190.5 -36.5q-142 0 -215 81.5t-73 239.5zM341 367q0 -45 11 -76.5t30 -52t45 -29.5 t55 -9q51 0 98 23t83 63l70 485q-26 12 -54.5 21t-64.5 9q-49 0 -92.5 -26.5t-78.5 -75t-60.5 -118t-37.5 -155.5q-2 -16 -3 -30.5t-1 -28.5zM435 1345q6 41 27 76.5t52.5 61.5t70 41t80.5 15q40 0 74.5 -15.5t58.5 -42t35.5 -61.5t5.5 -75q-6 -42 -27 -77.5t-52.5 -61.5 t-70.5 -40.5t-80 -14.5t-75.5 15t-58.5 41.5t-35 61.5t-5 76zM555 1345q-2 -16 2.5 -30.5t14 -25t23.5 -16.5t30 -6q35 0 61.5 23t31.5 55q5 34 -15 56t-55 22q-32 0 -60 -22.5t-33 -55.5z" />
<glyph unicode="&#xe6;" horiz-adv-x="1701" d="M47 232q0 22 3 46q10 68 49 124t99.5 95.5t137.5 61.5t164 22h187l6 41q2 15 3.5 28.5t1.5 25.5q0 33 -9.5 55t-28 35t-47.5 18.5t-68 5.5q-36 0 -77.5 -5.5t-81.5 -14.5t-76.5 -20.5t-61.5 -23.5l-21 203q38 18 84.5 34.5t96.5 29t102 20t100 7.5q101 0 183 -21.5 t130 -74.5q137 96 323 96q76 0 142.5 -24t115 -68.5t76.5 -107t28 -140.5q0 -15 -1.5 -30.5t-3.5 -32.5l-27 -182h-615q-4 -115 51.5 -176t169.5 -61q79 0 147.5 12.5t116.5 26.5l32 -178q-66 -38 -154 -58.5t-186 -20.5q-115 0 -206.5 30t-151.5 89q-33 -18 -77.5 -38 t-100.5 -36.5t-122.5 -27.5t-141.5 -11q-70 0 -124.5 18t-91.5 51t-56 78t-19 99zM340 284q-4 -27 2.5 -45t21 -29t35 -15.5t44.5 -4.5q60 0 109.5 8t81.5 17l28 192h-142q-45 0 -77.5 -9t-54 -25.5t-33 -39t-15.5 -49.5zM992 617h347q2 13 3 25t1 23q0 41 -11 69.5 t-29.5 46t-44 25.5t-54.5 8q-35 0 -66 -9.5t-58 -32.5t-49.5 -61t-38.5 -94z" />
<glyph unicode="&#xe7;" horiz-adv-x="918" d="M62 407q0 23 1.5 46.5t5.5 48.5q18 121 67 217t123.5 163t172.5 102.5t213 35.5q90 0 156 -15t110 -39l-81 -196q-33 13 -72 22.5t-98 9.5q-56 0 -105 -17.5t-87.5 -54t-65.5 -93t-38 -135.5q-6 -44 -6 -81q0 -118 57.5 -170.5t156.5 -52.5q68 0 115 10t90 26l12 -189 q-51 -28 -120.5 -46.5t-166.5 -18.5q-102 0 -183.5 30t-138.5 85.5t-87.5 134.5t-30.5 177zM157 -283q42 3 81 16.5t69 36.5t48 55.5t18 74.5q0 52 -32 113l233 25q18 -60 18 -118q0 -65 -23.5 -123.5t-72 -104t-123 -75.5t-175.5 -39z" />
<glyph unicode="&#xe8;" horiz-adv-x="1061" d="M54 395q0 23 1.5 47t5.5 50q19 129 68 227.5t123 165.5t169.5 101t207.5 34q76 0 142 -24t115 -68.5t76.5 -107t27.5 -140.5q0 -15 -1.5 -30.5t-3.5 -32.5l-26 -182h-615v-15q0 -104 52 -161q56 -61 169 -61q78 0 147 12.5t117 26.5l31 -178q-66 -38 -153.5 -58.5 t-185.5 -20.5q-109 0 -195.5 27.5t-147 81t-92.5 130.5t-32 176zM375 617h346q2 13 3 25t1 23q0 40 -10.5 68.5t-29.5 46.5t-44 26t-54 8q-35 0 -66 -9.5t-58 -32.5t-49.5 -61t-38.5 -94zM277 1398l282 48l216 -244l-203 -52z" />
<glyph unicode="&#xe9;" horiz-adv-x="1061" d="M54 395q0 23 1.5 47t5.5 50q19 129 68 227.5t123 165.5t169.5 101t207.5 34q76 0 142 -24t115 -68.5t76.5 -107t27.5 -140.5q0 -15 -1.5 -30.5t-3.5 -32.5l-26 -182h-615v-15q0 -104 52 -161q56 -61 169 -61q78 0 147 12.5t117 26.5l31 -178q-66 -38 -153.5 -58.5 t-185.5 -20.5q-109 0 -195.5 27.5t-147 81t-92.5 130.5t-32 176zM375 617h346q2 13 3 25t1 23q0 40 -10.5 68.5t-29.5 46.5t-44 26t-54 8q-35 0 -66 -9.5t-58 -32.5t-49.5 -61t-38.5 -94zM515 1192l257 256l274 -48l-349 -248z" />
<glyph unicode="&#xea;" horiz-adv-x="1061" d="M54 395q0 23 1.5 47t5.5 50q19 129 68 227.5t123 165.5t169.5 101t207.5 34q76 0 142 -24t115 -68.5t76.5 -107t27.5 -140.5q0 -15 -1.5 -30.5t-3.5 -32.5l-26 -182h-615v-15q0 -104 52 -161q56 -61 169 -61q78 0 147 12.5t117 26.5l31 -178q-66 -38 -153.5 -58.5 t-185.5 -20.5q-109 0 -195.5 27.5t-147 81t-92.5 130.5t-32 176zM375 617h346q2 13 3 25t1 23q0 40 -10.5 68.5t-29.5 46.5t-44 26t-54 8q-35 0 -66 -9.5t-58 -32.5t-49.5 -61t-38.5 -94zM294 1150l317 232h168l249 -232h-248l-104 110l-135 -110h-247z" />
<glyph unicode="&#xeb;" horiz-adv-x="1061" d="M54 395q0 23 1.5 47t5.5 50q19 129 68 227.5t123 165.5t169.5 101t207.5 34q76 0 142 -24t115 -68.5t76.5 -107t27.5 -140.5q0 -15 -1.5 -30.5t-3.5 -32.5l-26 -182h-615v-15q0 -104 52 -161q56 -61 169 -61q78 0 147 12.5t117 26.5l31 -178q-66 -38 -153.5 -58.5 t-185.5 -20.5q-109 0 -195.5 27.5t-147 81t-92.5 130.5t-32 176zM375 617h346q2 13 3 25t1 23q0 40 -10.5 68.5t-29.5 46.5t-44 26t-54 8q-35 0 -66 -9.5t-58 -32.5t-49.5 -61t-38.5 -94zM276 1151l21 188h258l-21 -188h-258zM780 1151l21 188h258l-21 -188h-258z" />
<glyph unicode="&#xec;" horiz-adv-x="479" d="M8 0l145 1000h287l-145 -1000h-287zM-54 1393l282 48l216 -244l-203 -52z" />
<glyph unicode="&#xed;" horiz-adv-x="479" d="M8 0l145 1000h287l-145 -1000h-287zM184 1187l257 256l274 -48l-349 -248z" />
<glyph unicode="&#xee;" horiz-adv-x="479" d="M8 0l145 1000h287l-145 -1000h-287zM-36 1146l317 232h168l249 -232h-248l-104 110l-135 -110h-247z" />
<glyph unicode="&#xef;" horiz-adv-x="479" d="M8 0l145 1000h287l-145 -1000h-287zM-55 1146l21 188h258l-21 -188h-258zM449 1146l21 188h258l-21 -188h-258z" />
<glyph unicode="&#xf0;" horiz-adv-x="1195" d="M74 402q6 98 42 180t96 140.5t142 91t180 32.5q40 0 80.5 -7t77.5 -21.5t70 -37.5t59 -56q1 11 1 20v20q0 86 -17.5 151.5t-49.5 113.5l-216 -102l-51 95l182 87q-43 27 -96.5 40t-116.5 13l76 218q125 0 228.5 -36t177.5 -105l181 87l52 -99l-158 -75q51 -75 77.5 -170 t26.5 -210q0 -75 -12 -157q-21 -147 -72 -264t-128.5 -198.5t-179 -125t-223.5 -43.5q-110 0 -192.5 35t-137 93.5t-79.5 134t-20 155.5zM360 369q0 -35 9 -65.5t28 -53t48 -35.5t68 -13q103 0 175 78.5t108 248.5q-18 34 -42.5 56.5t-52.5 36t-58 19t-60 5.5 q-50 0 -88.5 -18.5t-65.5 -50t-43 -73.5t-23 -90q-3 -23 -3 -45z" />
<glyph unicode="&#xf1;" horiz-adv-x="1188" d="M44 0l145 1000h242l12 -104q77 59 158 91.5t171 32.5q66 0 120 -13t92.5 -44.5t60 -84.5t21.5 -133q0 -24 -1.5 -51t-6.5 -56l-93 -638h-286l92 638q2 17 3.5 31t1.5 27q0 60 -28 83t-86 23q-60 0 -116.5 -22t-107.5 -57l-105 -723h-289zM294 1291q49 72 107.5 112 t113.5 50q19 3 37 3q56 0 100 -23.5t80 -50.5q27 -24 55 -34.5t49 -8.5q9 1 24 6t33 16t38.5 29t40.5 46l104 -106q-51 -72 -108 -112.5t-112 -47.5q-12 -2 -23 -3.5t-22 -1.5q-54 0 -96 23t-78 52q-29 22 -55.5 34t-47.5 10q-9 -1 -22.5 -5t-31 -14t-37.5 -28t-43 -46z" />
<glyph unicode="&#xf2;" horiz-adv-x="1161" d="M55 403q0 23 1.5 47t5.5 50q18 124 68.5 221t126.5 163.5t173.5 101t209.5 34.5q97 0 177 -29t137 -83.5t88 -133t31 -177.5q0 -23 -1.5 -47t-5.5 -50q-18 -125 -68.5 -222t-126.5 -163t-173 -100.5t-209 -34.5q-97 0 -177 28.5t-137 83t-88.5 133t-31.5 178.5zM342 405 q0 -57 13 -96.5t36.5 -64t56 -35.5t72.5 -11q46 0 88 16t76 52t58.5 93.5t36.5 140.5q4 27 6 51t2 45q0 57 -13 96.5t-36.5 64t-56.5 35t-73 10.5q-46 0 -87.5 -16.5t-75.5 -52.5t-58.5 -93.5t-36.5 -139.5q-4 -26 -6 -50t-2 -45zM313 1396l282 48l216 -244l-203 -52z" />
<glyph unicode="&#xf3;" horiz-adv-x="1161" d="M55 403q0 23 1.5 47t5.5 50q18 124 68.5 221t126.5 163.5t173.5 101t209.5 34.5q97 0 177 -29t137 -83.5t88 -133t31 -177.5q0 -23 -1.5 -47t-5.5 -50q-18 -125 -68.5 -222t-126.5 -163t-173 -100.5t-209 -34.5q-97 0 -177 28.5t-137 83t-88.5 133t-31.5 178.5zM342 405 q0 -57 13 -96.5t36.5 -64t56 -35.5t72.5 -11q46 0 88 16t76 52t58.5 93.5t36.5 140.5q4 27 6 51t2 45q0 57 -13 96.5t-36.5 64t-56.5 35t-73 10.5q-46 0 -87.5 -16.5t-75.5 -52.5t-58.5 -93.5t-36.5 -139.5q-4 -26 -6 -50t-2 -45zM551 1190l257 256l274 -48l-349 -248z" />
<glyph unicode="&#xf4;" horiz-adv-x="1161" d="M55 403q0 23 1.5 47t5.5 50q18 124 68.5 221t126.5 163.5t173.5 101t209.5 34.5q97 0 177 -29t137 -83.5t88 -133t31 -177.5q0 -23 -1.5 -47t-5.5 -50q-18 -125 -68.5 -222t-126.5 -163t-173 -100.5t-209 -34.5q-97 0 -177 28.5t-137 83t-88.5 133t-31.5 178.5zM342 405 q0 -57 13 -96.5t36.5 -64t56 -35.5t72.5 -11q46 0 88 16t76 52t58.5 93.5t36.5 140.5q4 27 6 51t2 45q0 57 -13 96.5t-36.5 64t-56.5 35t-73 10.5q-46 0 -87.5 -16.5t-75.5 -52.5t-58.5 -93.5t-36.5 -139.5q-4 -26 -6 -50t-2 -45zM331 1148l317 232h168l249 -232h-248 l-104 110l-135 -110h-247z" />
<glyph unicode="&#xf5;" horiz-adv-x="1161" d="M55 403q0 23 1.5 47t5.5 50q18 124 68.5 221t126.5 163.5t173.5 101t209.5 34.5q97 0 177 -29t137 -83.5t88 -133t31 -177.5q0 -23 -1.5 -47t-5.5 -50q-18 -125 -68.5 -222t-126.5 -163t-173 -100.5t-209 -34.5q-97 0 -177 28.5t-137 83t-88.5 133t-31.5 178.5zM342 405 q0 -57 13 -96.5t36.5 -64t56 -35.5t72.5 -11q46 0 88 16t76 52t58.5 93.5t36.5 140.5q4 27 6 51t2 45q0 57 -13 96.5t-36.5 64t-56.5 35t-73 10.5q-46 0 -87.5 -16.5t-75.5 -52.5t-58.5 -93.5t-36.5 -139.5q-4 -26 -6 -50t-2 -45zM285 1289q49 72 107.5 112t113.5 50 q19 3 37 3q56 0 100 -23.5t80 -50.5q27 -24 55 -34.5t49 -8.5q9 1 24 6t33 16t38.5 29t40.5 46l104 -106q-51 -72 -108 -112.5t-112 -47.5q-12 -2 -23 -3.5t-22 -1.5q-54 0 -96 23t-78 52q-29 22 -55.5 34t-47.5 10q-9 -1 -22.5 -5t-31 -14t-37.5 -28t-43 -46z" />
<glyph unicode="&#xf6;" horiz-adv-x="1161" d="M55 403q0 23 1.5 47t5.5 50q18 124 68.5 221t126.5 163.5t173.5 101t209.5 34.5q97 0 177 -29t137 -83.5t88 -133t31 -177.5q0 -23 -1.5 -47t-5.5 -50q-18 -125 -68.5 -222t-126.5 -163t-173 -100.5t-209 -34.5q-97 0 -177 28.5t-137 83t-88.5 133t-31.5 178.5zM342 405 q0 -57 13 -96.5t36.5 -64t56 -35.5t72.5 -11q46 0 88 16t76 52t58.5 93.5t36.5 140.5q4 27 6 51t2 45q0 57 -13 96.5t-36.5 64t-56.5 35t-73 10.5q-46 0 -87.5 -16.5t-75.5 -52.5t-58.5 -93.5t-36.5 -139.5q-4 -26 -6 -50t-2 -45zM312 1149l21 188h258l-21 -188h-258z M816 1149l21 188h258l-21 -188h-258z" />
<glyph unicode="&#xf7;" horiz-adv-x="1079" d="M84 486l30 206h876l-30 -206h-876zM349 176l30 202h248l-29 -202h-249zM440 800l29 202h249l-30 -202h-248z" />
<glyph unicode="&#xf8;" horiz-adv-x="1263" d="M29 0l158 154q-65 98 -65 245q0 24 1.5 49.5t5.5 51.5q18 124 69 221t126.5 163.5t173 101t209.5 34.5q82 0 154 -20.5t126 -60.5l63 61h178l-155 -152q33 -50 50.5 -112.5t17.5 -137.5q0 -23 -1.5 -47.5t-5.5 -50.5q-18 -125 -69 -222t-126.5 -163t-173 -100.5 t-209.5 -34.5q-84 0 -157.5 21t-127.5 63l-65 -64h-177zM410 413q0 -11 0.5 -20.5t1.5 -18.5l389 383q-23 23 -55 34t-71 11q-46 0 -87.5 -16.5t-75.5 -52.5t-58.5 -93.5t-36.5 -139.5q-4 -25 -5.5 -46t-1.5 -41zM457 247q24 -26 57 -37.5t74 -11.5q46 0 88 16t75.5 52 t58 93.5t36.5 140.5q4 25 5.5 46.5t1.5 41.5q0 11 -0.5 22t-1.5 22z" />
<glyph unicode="&#xf9;" horiz-adv-x="1188" d="M90 263q0 52 9 115l90 622h289l-90 -622q-6 -38 -6 -67q0 -64 28 -88.5t85 -24.5q59 0 116 22t108 58l105 722h286l-145 -1000h-240l-10 108q-76 -60 -158.5 -94t-172.5 -34q-65 0 -119 13.5t-93 45.5t-60.5 86.5t-21.5 137.5zM319 1378l282 48l216 -244l-203 -52z" />
<glyph unicode="&#xfa;" horiz-adv-x="1188" d="M90 263q0 52 9 115l90 622h289l-90 -622q-6 -38 -6 -67q0 -64 28 -88.5t85 -24.5q59 0 116 22t108 58l105 722h286l-145 -1000h-240l-10 108q-76 -60 -158.5 -94t-172.5 -34q-65 0 -119 13.5t-93 45.5t-60.5 86.5t-21.5 137.5zM557 1172l257 256l274 -48l-349 -248z" />
<glyph unicode="&#xfb;" horiz-adv-x="1188" d="M90 263q0 52 9 115l90 622h289l-90 -622q-6 -38 -6 -67q0 -64 28 -88.5t85 -24.5q59 0 116 22t108 58l105 722h286l-145 -1000h-240l-10 108q-76 -60 -158.5 -94t-172.5 -34q-65 0 -119 13.5t-93 45.5t-60.5 86.5t-21.5 137.5zM337 1131l317 232h168l249 -232h-248 l-104 110l-135 -110h-247z" />
<glyph unicode="&#xfc;" horiz-adv-x="1188" d="M90 263q0 52 9 115l90 622h289l-90 -622q-6 -38 -6 -67q0 -64 28 -88.5t85 -24.5q59 0 116 22t108 58l105 722h286l-145 -1000h-240l-10 108q-76 -60 -158.5 -94t-172.5 -34q-65 0 -119 13.5t-93 45.5t-60.5 86.5t-21.5 137.5zM318 1131l21 188h258l-21 -188h-258z M822 1131l21 188h258l-21 -188h-258z" />
<glyph unicode="&#xfd;" horiz-adv-x="1040" d="M6 -394l50 208q16 0 23 -0.5t13 -1t15.5 -1t30.5 -0.5q22 0 41 6t36.5 21.5t35 42.5t36.5 68l-201 1051h292l92 -704l306 704h292l-514 -1050q-44 -106 -91.5 -175.5t-97 -111t-101.5 -58.5t-105 -17q-42 0 -81.5 5t-71.5 13zM484 1172l257 256l274 -48l-349 -248z" />
<glyph unicode="&#xfe;" horiz-adv-x="1148" d="M-40 -400l261 1800h289l-67 -468q28 21 58 37t64.5 27.5t75 17.5t90.5 6q76 0 138 -28.5t105 -81t66.5 -127t23.5 -167.5q0 -56 -9 -116q-18 -121 -60 -217.5t-104 -163.5t-141 -103t-170 -36q-47 0 -85.5 6t-70 17t-58 27t-49.5 37l-68 -467h-289zM345 261 q32 -28 73.5 -45.5t92.5 -17.5q108 0 167.5 77.5t80.5 224.5q9 60 9 107q0 97 -39.5 145t-130.5 48q-49 0 -96 -17.5t-88 -45.5z" />
<glyph unicode="&#xff;" horiz-adv-x="1040" d="M6 -394l50 208q16 0 23 -0.5t13 -1t15.5 -1t30.5 -0.5q22 0 41 6t36.5 21.5t35 42.5t36.5 68l-201 1051h292l92 -704l306 704h292l-514 -1050q-44 -106 -91.5 -175.5t-97 -111t-101.5 -58.5t-105 -17q-42 0 -81.5 5t-71.5 13zM245 1131l21 188h258l-21 -188h-258z M749 1131l21 188h258l-21 -188h-258z" />
<glyph unicode="&#x100;" horiz-adv-x="1306" d="M-42 0l647 1360h312l254 -1360h-282l-48 284h-471l-130 -284h-282zM470 504h335l-90 536zM373 1477l17 161h738l-18 -161h-737z" />
<glyph unicode="&#x101;" horiz-adv-x="1092" d="M47 301q0 28 2.5 58.5t7.5 62.5q19 133 67 243t118 189t157.5 122.5t186.5 43.5q36 0 64 -5t51 -15t41.5 -23.5t36.5 -29.5l34 53h241l-145 -1000h-230l-18 114q-57 -61 -135.5 -97.5t-190.5 -36.5q-142 0 -215 81.5t-73 239.5zM341 367q0 -45 11 -76.5t30 -52t45 -29.5 t55 -9q51 0 98 23t83 63l70 485q-26 12 -54.5 21t-64.5 9q-49 0 -92.5 -26.5t-78.5 -75t-60.5 -118t-37.5 -155.5q-2 -16 -3 -30.5t-1 -28.5zM225 1156l17 161h738l-18 -161h-737z" />
<glyph unicode="&#x102;" horiz-adv-x="1306" d="M-42 0l647 1360h312l254 -1360h-282l-48 284h-471l-130 -284h-282zM470 504h335l-90 536zM439 1674q0 8 0.5 17.5t1.5 18.5h183q-7 -62 29 -98.5t113 -36.5q79 0 121.5 36t49.5 99h183q-7 -65 -37 -114.5t-78 -83.5t-112.5 -51t-141.5 -16q-71 -1 -129 13.5t-98.5 43 t-62.5 72t-22 100.5z" />
<glyph unicode="&#x103;" horiz-adv-x="1092" d="M47 301q0 28 2.5 58.5t7.5 62.5q19 133 67 243t118 189t157.5 122.5t186.5 43.5q36 0 64 -5t51 -15t41.5 -23.5t36.5 -29.5l34 53h241l-145 -1000h-230l-18 114q-57 -61 -135.5 -97.5t-190.5 -36.5q-142 0 -215 81.5t-73 239.5zM341 367q0 -45 11 -76.5t30 -52t45 -29.5 t55 -9q51 0 98 23t83 63l70 485q-26 12 -54.5 21t-64.5 9q-49 0 -92.5 -26.5t-78.5 -75t-60.5 -118t-37.5 -155.5q-2 -16 -3 -30.5t-1 -28.5zM292 1352q0 8 0.5 17.5t1.5 18.5h183q-7 -62 29 -98.5t113 -36.5q79 0 121.5 36t49.5 99h183q-7 -65 -37 -114.5t-78 -83.5 t-112.5 -51t-141.5 -16q-71 -1 -129 13.5t-98.5 43t-62.5 72t-22 100.5z" />
<glyph unicode="&#x104;" horiz-adv-x="1306" d="M-42 0l647 1360h312l254 -1360h-282l-48 284h-471l-130 -284h-282zM470 504h335l-90 536zM698 -231q0 8 2 16q9 63 38 110.5t69.5 82t88 56.5t93.5 34l139 -64v-4q-42 -15 -78.5 -32t-65 -38.5t-47 -48t-22.5 -58.5q-5 -35 16 -53.5t46 -18.5q22 0 38 2t34 8l-2 -158 q-7 -4 -20.5 -8t-30.5 -7t-36 -5t-38 -2q-105 0 -164.5 45.5t-59.5 126.5v16z" />
<glyph unicode="&#x105;" horiz-adv-x="1092" d="M47 301q0 28 2.5 58.5t7.5 62.5q19 133 67 243t118 189t157.5 122.5t186.5 43.5q36 0 64 -5t51 -15t41.5 -23.5t36.5 -29.5l34 53h241l-145 -1000h-230l-18 114q-57 -61 -135.5 -97.5t-190.5 -36.5q-142 0 -215 81.5t-73 239.5zM341 367q0 -45 11 -76.5t30 -52t45 -29.5 t55 -9q51 0 98 23t83 63l70 485q-26 12 -54.5 21t-64.5 9q-49 0 -92.5 -26.5t-78.5 -75t-60.5 -118t-37.5 -155.5q-2 -16 -3 -30.5t-1 -28.5zM388 -231q0 8 2 16q9 63 38 110.5t69.5 82t88 56.5t93.5 34l139 -64v-4q-42 -15 -78.5 -32t-65 -38.5t-47 -48t-22.5 -58.5 q-5 -35 16 -53.5t46 -18.5q22 0 38 2t34 8l-2 -158q-7 -4 -20.5 -8t-30.5 -7t-36 -5t-38 -2q-105 0 -164.5 45.5t-59.5 126.5v16z" />
<glyph unicode="&#x106;" horiz-adv-x="1086" d="M87 544q0 33 2.5 67.5t7.5 70.5q24 163 87.5 292.5t160.5 219.5t223.5 138t275.5 48q95 0 161.5 -16t112.5 -37l-78 -202q-42 17 -97.5 27t-118.5 10q-81 0 -151.5 -28t-127 -86.5t-96 -149t-57.5 -216.5q-5 -38 -8 -73.5t-3 -67.5q0 -91 21.5 -156t61 -106.5t96 -61 t127.5 -19.5q75 0 143 16.5t120 36.5l15 -203q-60 -29 -143 -48.5t-200 -19.5q-123 0 -222 39.5t-168.5 113t-107 178t-37.5 233.5zM736 1532l257 256l274 -48l-349 -248z" />
<glyph unicode="&#x107;" horiz-adv-x="918" d="M62 407q0 23 1.5 46.5t5.5 48.5q18 121 67 217t123.5 163t172.5 102.5t213 35.5q90 0 156 -15t110 -39l-81 -196q-33 13 -72 22.5t-98 9.5q-56 0 -105 -17.5t-87.5 -54t-65.5 -93t-38 -135.5q-6 -44 -6 -81q0 -118 57.5 -170.5t156.5 -52.5q68 0 115 10t90 26l12 -189 q-51 -28 -120.5 -46.5t-166.5 -18.5q-102 0 -183.5 30t-138.5 85.5t-87.5 134.5t-30.5 177zM542 1192l257 256l274 -48l-349 -248z" />
<glyph unicode="&#x108;" horiz-adv-x="1086" d="M87 544q0 33 2.5 67.5t7.5 70.5q24 163 87.5 292.5t160.5 219.5t223.5 138t275.5 48q95 0 161.5 -16t112.5 -37l-78 -202q-42 17 -97.5 27t-118.5 10q-81 0 -151.5 -28t-127 -86.5t-96 -149t-57.5 -216.5q-5 -38 -8 -73.5t-3 -67.5q0 -91 21.5 -156t61 -106.5t96 -61 t127.5 -19.5q75 0 143 16.5t120 36.5l15 -203q-60 -29 -143 -48.5t-200 -19.5q-123 0 -222 39.5t-168.5 113t-107 178t-37.5 233.5zM516 1490l317 232h168l249 -232h-248l-104 110l-135 -110h-247z" />
<glyph unicode="&#x109;" horiz-adv-x="918" d="M62 407q0 23 1.5 46.5t5.5 48.5q18 121 67 217t123.5 163t172.5 102.5t213 35.5q90 0 156 -15t110 -39l-81 -196q-33 13 -72 22.5t-98 9.5q-56 0 -105 -17.5t-87.5 -54t-65.5 -93t-38 -135.5q-6 -44 -6 -81q0 -118 57.5 -170.5t156.5 -52.5q68 0 115 10t90 26l12 -189 q-51 -28 -120.5 -46.5t-166.5 -18.5q-102 0 -183.5 30t-138.5 85.5t-87.5 134.5t-30.5 177zM321 1150l317 232h168l249 -232h-248l-104 110l-135 -110h-247z" />
<glyph unicode="&#x10a;" horiz-adv-x="1086" d="M87 544q0 33 2.5 67.5t7.5 70.5q24 163 87.5 292.5t160.5 219.5t223.5 138t275.5 48q95 0 161.5 -16t112.5 -37l-78 -202q-42 17 -97.5 27t-118.5 10q-81 0 -151.5 -28t-127 -86.5t-96 -149t-57.5 -216.5q-5 -38 -8 -73.5t-3 -67.5q0 -91 21.5 -156t61 -106.5t96 -61 t127.5 -19.5q75 0 143 16.5t120 36.5l15 -203q-60 -29 -143 -48.5t-200 -19.5q-123 0 -222 39.5t-168.5 113t-107 178t-37.5 233.5zM720 1490l29 200h294l-29 -200h-294z" />
<glyph unicode="&#x10b;" horiz-adv-x="918" d="M62 407q0 23 1.5 46.5t5.5 48.5q18 121 67 217t123.5 163t172.5 102.5t213 35.5q90 0 156 -15t110 -39l-81 -196q-33 13 -72 22.5t-98 9.5q-56 0 -105 -17.5t-87.5 -54t-65.5 -93t-38 -135.5q-6 -44 -6 -81q0 -118 57.5 -170.5t156.5 -52.5q68 0 115 10t90 26l12 -189 q-51 -28 -120.5 -46.5t-166.5 -18.5q-102 0 -183.5 30t-138.5 85.5t-87.5 134.5t-30.5 177zM526 1151l29 200h294l-29 -200h-294z" />
<glyph unicode="&#x10c;" horiz-adv-x="1086" d="M87 544q0 33 2.5 67.5t7.5 70.5q24 163 87.5 292.5t160.5 219.5t223.5 138t275.5 48q95 0 161.5 -16t112.5 -37l-78 -202q-42 17 -97.5 27t-118.5 10q-81 0 -151.5 -28t-127 -86.5t-96 -149t-57.5 -216.5q-5 -38 -8 -73.5t-3 -67.5q0 -91 21.5 -156t61 -106.5t96 -61 t127.5 -19.5q75 0 143 16.5t120 36.5l15 -203q-60 -29 -143 -48.5t-200 -19.5q-123 0 -222 39.5t-168.5 113t-107 178t-37.5 233.5zM537 1724h248l103 -114l136 114h248l-317 -232h-167z" />
<glyph unicode="&#x10d;" horiz-adv-x="918" d="M62 407q0 23 1.5 46.5t5.5 48.5q18 121 67 217t123.5 163t172.5 102.5t213 35.5q90 0 156 -15t110 -39l-81 -196q-33 13 -72 22.5t-98 9.5q-56 0 -105 -17.5t-87.5 -54t-65.5 -93t-38 -135.5q-6 -44 -6 -81q0 -118 57.5 -170.5t156.5 -52.5q68 0 115 10t90 26l12 -189 q-51 -28 -120.5 -46.5t-166.5 -18.5q-102 0 -183.5 30t-138.5 85.5t-87.5 134.5t-30.5 177zM343 1384h248l103 -114l136 114h248l-317 -232h-167z" />
<glyph unicode="&#x10e;" horiz-adv-x="1324" d="M55 0l197 1360h439q128 0 231.5 -39t176 -111t112 -174t39.5 -229q0 -61 -9 -125q-23 -158 -87.5 -284.5t-161.5 -215t-223.5 -135.5t-274.5 -47h-439zM374 218h130q82 0 155 27t131 84t98.5 144.5t58.5 208.5q5 35 7.5 66.5t2.5 60.5q0 89 -22.5 152.5t-64 103.5 t-100.5 58.5t-132 18.5h-130zM368 1704h248l103 -114l136 114h248l-317 -232h-167z" />
<glyph unicode="&#x10f;" horiz-adv-x="1362" d="M67 386q0 56 9 116q18 121 60.5 217t104.5 163t141 102.5t169 35.5q91 0 151 -23.5t106 -67.5l68 471h286l-203 -1400h-250l-7 84q-31 -25 -62 -44t-67 -32.5t-78 -20.5t-95 -7q-77 0 -138.5 28.5t-104.5 81.5t-66.5 128t-23.5 168zM362 394q0 -98 39 -147t129 -49 q49 0 95 16.5t86 43.5l70 484q-32 26 -72.5 43t-90.5 17q-108 0 -167 -76.5t-80 -223.5q-9 -60 -9 -108zM1147 929l158 472h275l-239 -492z" />
<glyph unicode="&#x110;" horiz-adv-x="1382" d="M89 558l31 218h102l85 584h439q128 0 231.5 -38.5t176 -110.5t112 -174t39.5 -228q0 -31 -2.5 -62.5t-7.5 -64.5q-23 -158 -87 -284.5t-161.5 -215t-224 -135.5t-274.5 -47h-438l81 558h-102zM428 218h131q82 0 155 27t131 84t98.5 144.5t58.5 208.5q5 35 7.5 66t2.5 60 q0 90 -22.5 153t-64 103.5t-100.5 59t-132 18.5h-131l-53 -366h244l-32 -218h-243z" />
<glyph unicode="&#x111;" horiz-adv-x="1178" d="M63 386q0 56 9 116q18 121 60.5 217t104.5 163t141 102.5t169 35.5q91 0 151 -23.5t106 -67.5l68 471h286l-203 -1400h-250l-7 84q-31 -25 -62 -44t-67 -32.5t-78 -20.5t-95 -7q-77 0 -138.5 28.5t-104.5 81.5t-66.5 128t-23.5 168zM358 394q0 -98 39 -147t129 -49 q49 0 95 16.5t86 43.5l70 484q-32 26 -72.5 43t-90.5 17q-108 0 -167 -76.5t-80 -223.5q-9 -60 -9 -108zM462 1128l17 161h738l-18 -161h-737z" />
<glyph unicode="&#x112;" horiz-adv-x="1048" d="M55 0l197 1360h841l-32 -220h-554l-50 -346h492l-32 -220h-492l-51 -354h554l-32 -220h-841zM288 1475l17 161h738l-18 -161h-737z" />
<glyph unicode="&#x113;" horiz-adv-x="1061" d="M54 395q0 23 1.5 47t5.5 50q19 129 68 227.5t123 165.5t169.5 101t207.5 34q76 0 142 -24t115 -68.5t76.5 -107t27.5 -140.5q0 -15 -1.5 -30.5t-3.5 -32.5l-26 -182h-615v-15q0 -104 52 -161q56 -61 169 -61q78 0 147 12.5t117 26.5l31 -178q-66 -38 -153.5 -58.5 t-185.5 -20.5q-109 0 -195.5 27.5t-147 81t-92.5 130.5t-32 176zM375 617h346q2 13 3 25t1 23q0 40 -10.5 68.5t-29.5 46.5t-44 26t-54 8q-35 0 -66 -9.5t-58 -32.5t-49.5 -61t-38.5 -94zM217 1156l17 161h738l-18 -161h-737z" />
<glyph unicode="&#x116;" horiz-adv-x="1048" d="M55 0l197 1360h841l-32 -220h-554l-50 -346h492l-32 -220h-492l-51 -354h554l-32 -220h-841zM570 1470l29 200h294l-29 -200h-294z" />
<glyph unicode="&#x117;" horiz-adv-x="1061" d="M54 395q0 23 1.5 47t5.5 50q19 129 68 227.5t123 165.5t169.5 101t207.5 34q76 0 142 -24t115 -68.5t76.5 -107t27.5 -140.5q0 -15 -1.5 -30.5t-3.5 -32.5l-26 -182h-615v-15q0 -104 52 -161q56 -61 169 -61q78 0 147 12.5t117 26.5l31 -178q-66 -38 -153.5 -58.5 t-185.5 -20.5q-109 0 -195.5 27.5t-147 81t-92.5 130.5t-32 176zM375 617h346q2 13 3 25t1 23q0 40 -10.5 68.5t-29.5 46.5t-44 26t-54 8q-35 0 -66 -9.5t-58 -32.5t-49.5 -61t-38.5 -94zM499 1151l29 200h294l-29 -200h-294z" />
<glyph unicode="&#x118;" horiz-adv-x="1048" d="M55 0l197 1360h841l-32 -220h-554l-50 -346h492l-32 -220h-492l-51 -354h554l-32 -220h-841zM423 -231q0 8 2 16q9 63 38 110.5t69.5 82t88 56.5t93.5 34l139 -64v-4q-42 -15 -78.5 -32t-65 -38.5t-47 -48t-22.5 -58.5q-5 -35 16 -53.5t46 -18.5q22 0 38 2t34 8l-2 -158 q-7 -4 -20.5 -8t-30.5 -7t-36 -5t-38 -2q-105 0 -164.5 45.5t-59.5 126.5v16z" />
<glyph unicode="&#x119;" horiz-adv-x="1061" d="M54 395q0 23 1.5 47t5.5 50q19 129 68 227.5t123 165.5t169.5 101t207.5 34q76 0 142 -24t115 -68.5t76.5 -107t27.5 -140.5q0 -15 -1.5 -30.5t-3.5 -32.5l-26 -182h-615v-15q0 -104 52 -161q56 -61 169 -61q78 0 147 12.5t117 26.5l31 -178q-66 -38 -153.5 -58.5 t-185.5 -20.5q-109 0 -195.5 27.5t-147 81t-92.5 130.5t-32 176zM375 617h346q2 13 3 25t1 23q0 40 -10.5 68.5t-29.5 46.5t-44 26t-54 8q-35 0 -66 -9.5t-58 -32.5t-49.5 -61t-38.5 -94zM262 -231q0 8 2 16q9 63 38 110.5t69.5 82t88 56.5t93.5 34l139 -64v-4 q-42 -15 -78.5 -32t-65 -38.5t-47 -48t-22.5 -58.5q-5 -35 16 -53.5t46 -18.5q22 0 38 2t34 8l-2 -158q-7 -4 -20.5 -8t-30.5 -7t-36 -5t-38 -2q-105 0 -164.5 45.5t-59.5 126.5v16z" />
<glyph unicode="&#x11a;" horiz-adv-x="1048" d="M55 0l197 1360h841l-32 -220h-554l-50 -346h492l-32 -220h-492l-51 -354h554l-32 -220h-841zM388 1704h248l103 -114l136 114h248l-317 -232h-167z" />
<glyph unicode="&#x11b;" horiz-adv-x="1061" d="M54 395q0 23 1.5 47t5.5 50q19 129 68 227.5t123 165.5t169.5 101t207.5 34q76 0 142 -24t115 -68.5t76.5 -107t27.5 -140.5q0 -15 -1.5 -30.5t-3.5 -32.5l-26 -182h-615v-15q0 -104 52 -161q56 -61 169 -61q78 0 147 12.5t117 26.5l31 -178q-66 -38 -153.5 -58.5 t-185.5 -20.5q-109 0 -195.5 27.5t-147 81t-92.5 130.5t-32 176zM375 617h346q2 13 3 25t1 23q0 40 -10.5 68.5t-29.5 46.5t-44 26t-54 8q-35 0 -66 -9.5t-58 -32.5t-49.5 -61t-38.5 -94zM316 1384h248l103 -114l136 114h248l-317 -232h-167z" />
<glyph unicode="&#x11c;" horiz-adv-x="1314" d="M101 564q0 29 1.5 58t6.5 58q22 154 89.5 282.5t171.5 221.5t241 144.5t300 51.5q103 0 185 -19t138 -47l-70 -201q-52 19 -121.5 34t-154.5 15q-98 0 -181 -32.5t-146.5 -94t-106 -151.5t-59.5 -204q-4 -28 -6 -54.5t-2 -52.5q0 -84 21 -153t62.5 -118.5t103.5 -76.5 t143 -27q42 0 83.5 5t80.5 17l44 306h-241l32 218h504l-96 -664q-109 -48 -221.5 -74t-241.5 -26q-133 0 -237 45.5t-176 124.5t-109.5 185.5t-37.5 228.5zM560 1488l317 232h168l249 -232h-248l-104 110l-135 -110h-247z" />
<glyph unicode="&#x11d;" horiz-adv-x="1136" d="M55 386q0 56 9 116q18 121 60 217t104 163t141 102.5t170 35.5q48 0 87.5 -6t71.5 -18t59.5 -29.5t51.5 -39.5l26 73h255l-152 -1049q-18 -126 -65.5 -206.5t-119.5 -126.5t-166.5 -63.5t-207.5 -17.5q-43 0 -87.5 4t-85.5 11t-75.5 14.5t-57.5 15.5l62 208 q21 -5 51.5 -10.5t65 -10t71 -8t69.5 -3.5q59 0 104 10t76.5 32.5t51 59.5t27.5 91l16 112q-28 -19 -57 -33.5t-62.5 -24.5t-72.5 -15.5t-86 -5.5q-77 0 -138.5 28t-105 80t-67 126.5t-23.5 167.5zM349 398q0 -99 40 -147.5t131 -48.5q47 0 91.5 15.5t83.5 41.5l71 486 q-32 26 -71.5 41.5t-87.5 15.5q-108 0 -168.5 -76.5t-81.5 -223.5q-5 -29 -6.5 -55t-1.5 -49zM325 1148l317 232h168l249 -232h-248l-104 110l-135 -110h-247z" />
<glyph unicode="&#x11e;" horiz-adv-x="1314" d="M101 564q0 29 1.5 58t6.5 58q22 154 89.5 282.5t171.5 221.5t241 144.5t300 51.5q103 0 185 -19t138 -47l-70 -201q-52 19 -121.5 34t-154.5 15q-98 0 -181 -32.5t-146.5 -94t-106 -151.5t-59.5 -204q-4 -28 -6 -54.5t-2 -52.5q0 -84 21 -153t62.5 -118.5t103.5 -76.5 t143 -27q42 0 83.5 5t80.5 17l44 306h-241l32 218h504l-96 -664q-109 -48 -221.5 -74t-241.5 -26q-133 0 -237 45.5t-176 124.5t-109.5 185.5t-37.5 228.5zM549 1690q0 8 0.5 17.5t1.5 18.5h183q-7 -62 29 -98.5t113 -36.5q79 0 121.5 36t49.5 99h183q-7 -65 -37 -114.5 t-78 -83.5t-112.5 -51t-141.5 -16q-71 -1 -129 13.5t-98.5 43t-62.5 72t-22 100.5z" />
<glyph unicode="&#x11f;" horiz-adv-x="1136" d="M55 386q0 56 9 116q18 121 60 217t104 163t141 102.5t170 35.5q48 0 87.5 -6t71.5 -18t59.5 -29.5t51.5 -39.5l26 73h255l-152 -1049q-18 -126 -65.5 -206.5t-119.5 -126.5t-166.5 -63.5t-207.5 -17.5q-43 0 -87.5 4t-85.5 11t-75.5 14.5t-57.5 15.5l62 208 q21 -5 51.5 -10.5t65 -10t71 -8t69.5 -3.5q59 0 104 10t76.5 32.5t51 59.5t27.5 91l16 112q-28 -19 -57 -33.5t-62.5 -24.5t-72.5 -15.5t-86 -5.5q-77 0 -138.5 28t-105 80t-67 126.5t-23.5 167.5zM349 398q0 -99 40 -147.5t131 -48.5q47 0 91.5 15.5t83.5 41.5l71 486 q-32 26 -71.5 41.5t-87.5 15.5q-108 0 -168.5 -76.5t-81.5 -223.5q-5 -29 -6.5 -55t-1.5 -49zM313 1350q0 8 0.5 17.5t1.5 18.5h183q-7 -62 29 -98.5t113 -36.5q79 0 121.5 36t49.5 99h183q-7 -65 -37 -114.5t-78 -83.5t-112.5 -51t-141.5 -16q-71 -1 -129 13.5t-98.5 43 t-62.5 72t-22 100.5z" />
<glyph unicode="&#x120;" horiz-adv-x="1314" d="M101 564q0 29 1.5 58t6.5 58q22 154 89.5 282.5t171.5 221.5t241 144.5t300 51.5q103 0 185 -19t138 -47l-70 -201q-52 19 -121.5 34t-154.5 15q-98 0 -181 -32.5t-146.5 -94t-106 -151.5t-59.5 -204q-4 -28 -6 -54.5t-2 -52.5q0 -84 21 -153t62.5 -118.5t103.5 -76.5 t143 -27q42 0 83.5 5t80.5 17l44 306h-241l32 218h504l-96 -664q-109 -48 -221.5 -74t-241.5 -26q-133 0 -237 45.5t-176 124.5t-109.5 185.5t-37.5 228.5zM765 1488l29 200h294l-29 -200h-294z" />
<glyph unicode="&#x121;" horiz-adv-x="1136" d="M55 386q0 56 9 116q18 121 60 217t104 163t141 102.5t170 35.5q48 0 87.5 -6t71.5 -18t59.5 -29.5t51.5 -39.5l26 73h255l-152 -1049q-18 -126 -65.5 -206.5t-119.5 -126.5t-166.5 -63.5t-207.5 -17.5q-43 0 -87.5 4t-85.5 11t-75.5 14.5t-57.5 15.5l62 208 q21 -5 51.5 -10.5t65 -10t71 -8t69.5 -3.5q59 0 104 10t76.5 32.5t51 59.5t27.5 91l16 112q-28 -19 -57 -33.5t-62.5 -24.5t-72.5 -15.5t-86 -5.5q-77 0 -138.5 28t-105 80t-67 126.5t-23.5 167.5zM349 398q0 -99 40 -147.5t131 -48.5q47 0 91.5 15.5t83.5 41.5l71 486 q-32 26 -71.5 41.5t-87.5 15.5q-108 0 -168.5 -76.5t-81.5 -223.5q-5 -29 -6.5 -55t-1.5 -49zM529 1149l29 200h294l-29 -200h-294z" />
<glyph unicode="&#x122;" horiz-adv-x="1314" d="M101 564q0 29 1.5 58t6.5 58q22 154 89.5 282.5t171.5 221.5t241 144.5t300 51.5q103 0 185 -19t138 -47l-70 -201q-52 19 -121.5 34t-154.5 15q-98 0 -181 -32.5t-146.5 -94t-106 -151.5t-59.5 -204q-4 -28 -6 -54.5t-2 -52.5q0 -84 21 -153t62.5 -118.5t103.5 -76.5 t143 -27q42 0 83.5 5t80.5 17l44 306h-241l32 218h504l-96 -664q-109 -48 -221.5 -74t-241.5 -26q-133 0 -237 45.5t-176 124.5t-109.5 185.5t-37.5 228.5zM470 -468l126 377h260l-219 -409z" />
<glyph unicode="&#x123;" horiz-adv-x="1136" d="M55 386q0 56 9 116q18 121 60 217t104 163t141 102.5t170 35.5q48 0 87.5 -6t71.5 -18t59.5 -29.5t51.5 -39.5l26 73h255l-152 -1049q-18 -126 -65.5 -206.5t-119.5 -126.5t-166.5 -63.5t-207.5 -17.5q-43 0 -87.5 4t-85.5 11t-75.5 14.5t-57.5 15.5l62 208 q21 -5 51.5 -10.5t65 -10t71 -8t69.5 -3.5q59 0 104 10t76.5 32.5t51 59.5t27.5 91l16 112q-28 -19 -57 -33.5t-62.5 -24.5t-72.5 -15.5t-86 -5.5q-77 0 -138.5 28t-105 80t-67 126.5t-23.5 167.5zM349 398q0 -99 40 -147.5t131 -48.5q47 0 91.5 15.5t83.5 41.5l71 486 q-32 26 -71.5 41.5t-87.5 15.5q-108 0 -168.5 -76.5t-81.5 -223.5q-5 -29 -6.5 -55t-1.5 -49zM545 1124l240 492l194 -20l-159 -472h-275z" />
<glyph unicode="&#x124;" horiz-adv-x="1389" d="M55 0l197 1360h286l-83 -572h530l83 572h287l-197 -1360h-287l82 568h-530l-82 -568h-286zM487 1468l317 232h168l249 -232h-248l-104 110l-135 -110h-247z" />
<glyph unicode="&#x125;" horiz-adv-x="1188" d="M44 0l203 1400h289l-70 -487q71 51 147 79t159 28q65 0 119 -13.5t93 -45.5t60.5 -85t21.5 -133q0 -49 -9 -109l-92 -634h-286l92 634q2 17 3.5 31t1.5 27q0 62 -28 86t-86 24q-60 0 -116.5 -21.5t-107.5 -56.5l-105 -724h-289zM82 1500l317 232h168l249 -232h-248 l-104 110l-135 -110h-247z" />
<glyph unicode="&#x126;" horiz-adv-x="1391" d="M44 985l24 161h153l31 214h286l-31 -214h530l31 214h287l-31 -214h145l-23 -161h-145l-143 -985h-287l82 568h-530l-82 -568h-286l143 985h-154zM455 788h530l29 197h-530z" />
<glyph unicode="&#x127;" horiz-adv-x="1190" d="M37 1102l23 161h168l19 137h289l-20 -137h282l-24 -161h-281l-27 -189q71 51 147 79t159 28q65 0 119 -13.5t93 -45.5t60.5 -85t21.5 -133q0 -49 -9 -109l-92 -634h-286l92 634q2 17 3.5 31t1.5 27q0 62 -28 86t-86 24q-60 0 -116.5 -21.5t-107.5 -56.5l-105 -724h-289 l160 1102h-167z" />
<glyph unicode="&#x128;" horiz-adv-x="818" d="M14 0l24 170h164l148 1020h-164l25 170h615l-24 -170h-166l-147 -1020h165l-25 -170h-615zM169 1611q49 72 107.5 112t113.5 50q19 3 37 3q56 0 100 -23.5t80 -50.5q27 -24 55 -34.5t49 -8.5q9 1 24 6t33 16t38.5 29t40.5 46l104 -106q-51 -72 -108 -112.5t-112 -47.5 q-12 -2 -23 -3.5t-22 -1.5q-54 0 -96 23t-78 52q-29 22 -55.5 34t-47.5 10q-9 -1 -22.5 -5t-31 -14t-37.5 -28t-43 -46z" />
<glyph unicode="&#x129;" horiz-adv-x="479" d="M8 0l145 1000h287l-145 -1000h-287zM-82 1286q49 72 107.5 112t113.5 50q19 3 37 3q56 0 100 -23.5t80 -50.5q27 -24 55 -34.5t49 -8.5q9 1 24 6t33 16t38.5 29t40.5 46l104 -106q-51 -72 -108 -112.5t-112 -47.5q-12 -2 -23 -3.5t-22 -1.5q-54 0 -96 23t-78 52 q-29 22 -55.5 34t-47.5 10q-9 -1 -22.5 -5t-31 -14t-37.5 -28t-43 -46z" />
<glyph unicode="&#x12a;" horiz-adv-x="818" d="M14 0l24 170h164l148 1020h-164l25 170h615l-24 -170h-166l-147 -1020h165l-25 -170h-615zM137 1475l17 161h738l-18 -161h-737z" />
<glyph unicode="&#x12b;" horiz-adv-x="479" d="M8 0l145 1000h287l-145 -1000h-287zM-114 1151l17 161h738l-18 -161h-737z" />
<glyph unicode="&#x12e;" horiz-adv-x="818" d="M14 0l24 170h164l148 1020h-164l25 170h615l-24 -170h-166l-147 -1020h165l-25 -170h-615zM158 -231q0 8 2 16q9 63 38 110.5t69.5 82t88 56.5t93.5 34l139 -64v-4q-42 -15 -78.5 -32t-65 -38.5t-47 -48t-22.5 -58.5q-5 -35 16 -53.5t46 -18.5q22 0 38 2t34 8l-2 -158 q-7 -4 -20.5 -8t-30.5 -7t-36 -5t-38 -2q-105 0 -164.5 45.5t-59.5 126.5v16z" />
<glyph unicode="&#x12f;" horiz-adv-x="596" d="M67 0l145 1000h287l-145 -1000h-287zM236 1190l31 212h293l-31 -212h-293zM-143 -231q0 8 2 16q9 63 38 110.5t69.5 82t88 56.5t93.5 34l139 -64v-4q-42 -15 -78.5 -32t-65 -38.5t-47 -48t-22.5 -58.5q-5 -35 16 -53.5t46 -18.5q22 0 38 2t34 8l-2 -158q-7 -4 -20.5 -8 t-30.5 -7t-36 -5t-38 -2q-105 0 -164.5 45.5t-59.5 126.5v16z" />
<glyph unicode="&#x130;" horiz-adv-x="818" d="M14 0l24 170h164l148 1020h-164l25 170h615l-24 -170h-166l-147 -1020h165l-25 -170h-615zM417 1470l29 200h294l-29 -200h-294z" />
<glyph unicode="&#x131;" horiz-adv-x="479" d="M8 0l145 1000h287l-145 -1000h-287z" />
<glyph unicode="&#x134;" horiz-adv-x="905" d="M-28 32l66 202q18 -6 42 -12t51 -11t55 -8t54 -3q45 0 79.5 10t59.5 33t40.5 60t23.5 90l140 967h286l-142 -979q-17 -121 -57 -199t-99.5 -123t-136.5 -62t-168 -17q-43 0 -85 4t-80.5 11t-71.5 16.5t-57 20.5zM465 1468l317 232h168l249 -232h-248l-104 110l-135 -110 h-247z" />
<glyph unicode="&#x135;" horiz-adv-x="576" d="M-312 -416l61 197q11 -3 28 -6t37 -6t41.5 -5t41.5 -2q35 0 62 8.5t47 28t32.5 52t19.5 79.5l155 1070h286l-155 -1070q-17 -119 -56 -194.5t-93.5 -118.5t-121.5 -59t-140 -16q-30 0 -64.5 3t-68 9t-63 13.5t-49.5 16.5zM58 1182l317 232h168l249 -232h-248l-104 110 l-135 -110h-247z" />
<glyph unicode="&#x136;" horiz-adv-x="1247" d="M53 0l197 1360h287l-83 -571h150l364 571h298l-435 -674l308 -686h-316l-252 566h-149l-82 -566h-287zM323 -468l126 377h260l-219 -409z" />
<glyph unicode="&#x137;" horiz-adv-x="1073" d="M44 0l203 1400h289l-111 -771h103l236 371h305l-325 -474l224 -526h-313l-156 406h-107l-59 -406h-289zM246 -468l126 377h260l-219 -409z" />
<glyph unicode="&#x138;" horiz-adv-x="1115" d="M44 0l145 1000h289l-53 -368h170l253 368h304l-348 -474h-1l250 -526h-313l-176 406h-172l-59 -406h-289z" />
<glyph unicode="&#x139;" horiz-adv-x="970" d="M55 0l197 1360h286l-165 -1140h512l-32 -220h-798zM304 1512l257 256l274 -48l-349 -248z" />
<glyph unicode="&#x13a;" horiz-adv-x="596" d="M67 0l203 1400h287l-203 -1400h-287zM316 1572l257 256l274 -48l-349 -248z" />
<glyph unicode="&#x13b;" horiz-adv-x="970" d="M55 0l197 1360h286l-165 -1140h512l-32 -220h-798zM280 -468l126 377h260l-219 -409z" />
<glyph unicode="&#x13c;" horiz-adv-x="596" d="M67 0l203 1400h287l-203 -1400h-287zM-1 -468l126 377h260l-219 -409z" />
<glyph unicode="&#x13d;" horiz-adv-x="970" d="M55 0l197 1360h286l-165 -1140h512l-32 -220h-798zM582 877l158 472h275l-239 -492z" />
<glyph unicode="&#x13e;" horiz-adv-x="596" d="M67 0l203 1400h287l-203 -1400h-287zM594 936l158 472h275l-239 -492z" />
<glyph unicode="&#x141;" horiz-adv-x="1119" d="M89 522l25 170l125 42l91 626h286l-76 -526l195 66l-25 -170l-195 -66l-64 -444h511l-32 -220h-797l81 564z" />
<glyph unicode="&#x142;" horiz-adv-x="790" d="M63 522l25 170l184 51l95 657h286l-83 -573l175 49l-25 -170l-174 -49l-96 -657h-286l83 573z" />
<glyph unicode="&#x143;" horiz-adv-x="1418" d="M55 0l197 1360h286v-1l1 1l425 -917l133 917h287l-197 -1360h-287l-426 919l-133 -919h-286zM716 1512l257 256l274 -48l-349 -248z" />
<glyph unicode="&#x144;" horiz-adv-x="1188" d="M44 0l145 1000h242l12 -104q77 59 158 91.5t171 32.5q66 0 120 -13t92.5 -44.5t60 -84.5t21.5 -133q0 -24 -1.5 -51t-6.5 -56l-93 -638h-286l92 638q2 17 3.5 31t1.5 27q0 60 -28 83t-86 23q-60 0 -116.5 -22t-107.5 -57l-105 -723h-289zM560 1192l257 256l274 -48 l-349 -248z" />
<glyph unicode="&#x145;" horiz-adv-x="1418" d="M55 0l197 1360h286v-1l1 1l425 -917l133 917h287l-197 -1360h-287l-426 919l-133 -919h-286zM396 -468l126 377h260l-219 -409z" />
<glyph unicode="&#x146;" horiz-adv-x="1188" d="M44 0l145 1000h242l12 -104q77 59 158 91.5t171 32.5q66 0 120 -13t92.5 -44.5t60 -84.5t21.5 -133q0 -24 -1.5 -51t-6.5 -56l-93 -638h-286l92 638q2 17 3.5 31t1.5 27q0 60 -28 83t-86 23q-60 0 -116.5 -22t-107.5 -57l-105 -723h-289zM298 -468l126 377h260l-219 -409 z" />
<glyph unicode="&#x147;" horiz-adv-x="1418" d="M55 0l197 1360h286v-1l1 1l425 -917l133 917h287l-197 -1360h-287l-426 919l-133 -919h-286zM517 1704h248l103 -114l136 114h248l-317 -232h-167z" />
<glyph unicode="&#x148;" horiz-adv-x="1188" d="M44 0l145 1000h242l12 -104q77 59 158 91.5t171 32.5q66 0 120 -13t92.5 -44.5t60 -84.5t21.5 -133q0 -24 -1.5 -51t-6.5 -56l-93 -638h-286l92 638q2 17 3.5 31t1.5 27q0 60 -28 83t-86 23q-60 0 -116.5 -22t-107.5 -57l-105 -723h-289zM361 1384h248l103 -114l136 114 h248l-317 -232h-167z" />
<glyph unicode="&#x14a;" horiz-adv-x="1415" d="M55 0l197 1360h286v-1l1 1l424 -914l74 514h2l58 400h287l-197 -1360h-3l-3 -19q-18 -121 -57.5 -199t-99 -123t-136.5 -62t-168 -17q-43 0 -85 4t-80.5 11t-71.5 16.5t-57 20.5l66 202q18 -6 42 -12t51 -11t55 -8t54 -3q45 0 79.5 10t59 33t40.5 60t24 90l1 10l-424 916 l-133 -919h-286z" />
<glyph unicode="&#x14b;" horiz-adv-x="1182" d="M44 0l145 1000h242l12 -104q77 59 158 91.5t171 32.5q66 0 120 -13t92.5 -44.5t60 -84.5t21.5 -133q0 -24 -1.5 -51t-6.5 -56l-96 -657q-18 -121 -57.5 -198.5t-99 -122t-136.5 -61.5t-168 -17q-44 0 -86.5 3.5t-81.5 10.5t-72 16.5t-58 21.5l71 202q18 -6 41.5 -12 t50.5 -11t55.5 -8t55.5 -3q45 0 79 10t58.5 32.5t40 59t23.5 89.5l93 645q2 17 3.5 31t1.5 27q0 60 -28 83t-86 23q-60 0 -116.5 -22t-107.5 -57l-105 -723h-289z" />
<glyph unicode="&#x14c;" horiz-adv-x="1369" d="M76 534q0 35 3 71.5t8 74.5q24 166 86 296t154 220t210.5 137t257.5 47q119 0 214.5 -38t162.5 -110t103 -175t36 -232q0 -35 -3 -71t-8 -74q-24 -167 -86 -297t-154 -219.5t-210.5 -136.5t-257.5 -47q-119 0 -214.5 38t-162.5 109.5t-103 174t-36 232.5zM364 535 q0 -168 67 -252.5t192 -84.5q73 0 136.5 32t114 93.5t86 151t52.5 205.5q6 40 8.5 76.5t2.5 70.5q0 168 -67 251.5t-193 83.5q-72 0 -135 -32t-113.5 -93.5t-86.5 -151t-53 -205.5q-6 -39 -8.5 -75.5t-2.5 -69.5zM404 1493l17 161h738l-18 -161h-737z" />
<glyph unicode="&#x14d;" horiz-adv-x="1161" d="M55 403q0 23 1.5 47t5.5 50q18 124 68.5 221t126.5 163.5t173.5 101t209.5 34.5q97 0 177 -29t137 -83.5t88 -133t31 -177.5q0 -23 -1.5 -47t-5.5 -50q-18 -125 -68.5 -222t-126.5 -163t-173 -100.5t-209 -34.5q-97 0 -177 28.5t-137 83t-88.5 133t-31.5 178.5zM342 405 q0 -57 13 -96.5t36.5 -64t56 -35.5t72.5 -11q46 0 88 16t76 52t58.5 93.5t36.5 140.5q4 27 6 51t2 45q0 57 -13 96.5t-36.5 64t-56.5 35t-73 10.5q-46 0 -87.5 -16.5t-75.5 -52.5t-58.5 -93.5t-36.5 -139.5q-4 -26 -6 -50t-2 -45zM253 1154l17 161h738l-18 -161h-737z" />
<glyph unicode="&#x150;" horiz-adv-x="1369" d="M76 534q0 35 3 71.5t8 74.5q24 166 86 296t154 220t210.5 137t257.5 47q119 0 214.5 -38t162.5 -110t103 -175t36 -232q0 -35 -3 -71t-8 -74q-24 -167 -86 -297t-154 -219.5t-210.5 -136.5t-257.5 -47q-119 0 -214.5 38t-162.5 109.5t-103 174t-36 232.5zM364 535 q0 -168 67 -252.5t192 -84.5q73 0 136.5 32t114 93.5t86 151t52.5 205.5q6 40 8.5 76.5t2.5 70.5q0 168 -67 251.5t-193 83.5q-72 0 -135 -32t-113.5 -93.5t-86.5 -151t-53 -205.5q-6 -39 -8.5 -75.5t-2.5 -69.5zM542 1530l267 288l179 -60l-334 -268zM879 1530l330 288 l196 -60l-396 -268z" />
<glyph unicode="&#x151;" horiz-adv-x="1161" d="M55 403q0 23 1.5 47t5.5 50q18 124 68.5 221t126.5 163.5t173.5 101t209.5 34.5q97 0 177 -29t137 -83.5t88 -133t31 -177.5q0 -23 -1.5 -47t-5.5 -50q-18 -125 -68.5 -222t-126.5 -163t-173 -100.5t-209 -34.5q-97 0 -177 28.5t-137 83t-88.5 133t-31.5 178.5zM342 405 q0 -57 13 -96.5t36.5 -64t56 -35.5t72.5 -11q46 0 88 16t76 52t58.5 93.5t36.5 140.5q4 27 6 51t2 45q0 57 -13 96.5t-36.5 64t-56.5 35t-73 10.5q-46 0 -87.5 -16.5t-75.5 -52.5t-58.5 -93.5t-36.5 -139.5q-4 -26 -6 -50t-2 -45zM391 1190l267 288l179 -60l-334 -268z M728 1190l330 288l196 -60l-396 -268z" />
<glyph unicode="&#x152;" horiz-adv-x="1763" d="M97 552q0 31 2.5 63t7.5 65q23 162 89 288.5t167.5 214t236.5 133.5t296 46h30q17 0 33 -2h814l-32 -220h-554l-50 -346h491l-32 -220h-491l-51 -354h553l-31 -220h-802q-19 -2 -37.5 -3t-38.5 -1q-140 0 -251.5 38.5t-189 110.5t-119 175t-41.5 232zM386 570 q0 -171 87.5 -263.5t255.5 -92.5q9 0 18 0.5t19 1.5l134 926q-8 1 -17 1.5t-19 0.5q-93 0 -172.5 -32.5t-140.5 -92.5t-101.5 -146t-55.5 -193q-5 -29 -6.5 -56.5t-1.5 -53.5z" />
<glyph unicode="&#x153;" horiz-adv-x="1834" d="M74 403q0 23 1.5 47t5.5 50q18 124 69 221t126.5 163.5t173 101t209.5 34.5q106 0 193.5 -34.5t144.5 -99.5q74 66 167.5 100t204.5 34q76 0 142.5 -24t115 -68.5t76.5 -107t28 -140.5q0 -15 -1.5 -30.5t-3.5 -32.5l-27 -182h-615q-4 -115 51.5 -176t169.5 -61 q78 0 147 12.5t117 26.5l31 -178q-66 -38 -153.5 -58.5t-185.5 -20.5q-124 0 -219 34.5t-155 100.5q-75 -66 -171.5 -100.5t-207.5 -34.5q-97 0 -177 28.5t-137 83t-88.5 133t-31.5 178.5zM361 405q0 -57 13 -96.5t36.5 -64t56.5 -35.5t73 -11q46 0 88 16t75.5 52t58 93.5 t36.5 140.5q4 27 6 51t2 45q0 57 -13 96.5t-36.5 64t-56.5 35t-73 10.5q-46 0 -87.5 -16.5t-75.5 -52.5t-58.5 -93.5t-36.5 -139.5q-4 -26 -6 -50t-2 -45zM1115 617h347q2 13 3 25t1 23q0 41 -11 69.5t-29.5 46t-44 25.5t-54.5 8q-35 0 -66 -9.5t-58 -32.5t-49.5 -61 t-38.5 -94z" />
<glyph unicode="&#x154;" horiz-adv-x="1254" d="M55 0l197 1360h471q108 0 192 -24.5t141.5 -70t87.5 -110.5t30 -146q0 -17 -1 -34.5t-4 -35.5q-9 -60 -32.5 -112.5t-57.5 -97t-75.5 -82t-86.5 -67.5l189 -580h-301l-166 514h-222l-75 -514h-287zM448 732h322q17 16 33.5 35.5t30.5 44.5t25 56t17 71q2 14 3 26.5 t1 23.5q0 83 -49 118t-148 35h-175zM622 1512l257 256l274 -48l-349 -248z" />
<glyph unicode="&#x155;" horiz-adv-x="753" d="M44 0l145 1000h242l8 -137q70 86 140 121.5t144 35.5q18 0 40 -1t40 -3l-51 -242q-24 5 -49 6.5t-57 1.5q-57 0 -112 -34.5t-106 -91.5l-95 -656h-289zM344 1192l257 256l274 -48l-349 -248z" />
<glyph unicode="&#x156;" horiz-adv-x="1254" d="M55 0l197 1360h471q108 0 192 -24.5t141.5 -70t87.5 -110.5t30 -146q0 -17 -1 -34.5t-4 -35.5q-9 -60 -32.5 -112.5t-57.5 -97t-75.5 -82t-86.5 -67.5l189 -580h-301l-166 514h-222l-75 -514h-287zM448 732h322q17 16 33.5 35.5t30.5 44.5t25 56t17 71q2 14 3 26.5 t1 23.5q0 83 -49 118t-148 35h-175zM336 -468l126 377h260l-219 -409z" />
<glyph unicode="&#x157;" horiz-adv-x="753" d="M44 0l145 1000h242l8 -137q70 86 140 121.5t144 35.5q18 0 40 -1t40 -3l-51 -242q-24 5 -49 6.5t-57 1.5q-57 0 -112 -34.5t-106 -91.5l-95 -656h-289zM-26 -464l126 377h260l-219 -409z" />
<glyph unicode="&#x158;" horiz-adv-x="1254" d="M55 0l197 1360h471q108 0 192 -24.5t141.5 -70t87.5 -110.5t30 -146q0 -17 -1 -34.5t-4 -35.5q-9 -60 -32.5 -112.5t-57.5 -97t-75.5 -82t-86.5 -67.5l189 -580h-301l-166 514h-222l-75 -514h-287zM448 732h322q17 16 33.5 35.5t30.5 44.5t25 56t17 71q2 14 3 26.5 t1 23.5q0 83 -49 118t-148 35h-175zM423 1704h248l103 -114l136 114h248l-317 -232h-167z" />
<glyph unicode="&#x159;" horiz-adv-x="753" d="M44 0l145 1000h242l8 -137q70 86 140 121.5t144 35.5q18 0 40 -1t40 -3l-51 -242q-24 5 -49 6.5t-57 1.5q-57 0 -112 -34.5t-106 -91.5l-95 -656h-289zM147 1384h248l103 -114l136 114h248l-317 -232h-167z" />
<glyph unicode="&#x15a;" horiz-adv-x="1055" d="M23 78l93 216q91 -32 175 -53t178 -21q87 0 142 39.5t63 111.5q1 8 1 16q-1 27 -11 50q-14 29 -41 52.5t-68 43t-92 37.5q-78 28 -141.5 63t-108.5 79.5t-69 99.5t-24 123q0 22 3 45q10 93 51 167t108 125.5t156 79.5t195 28q58 0 116 -9.5t110.5 -24t96 -32.5t73.5 -36 l-78 -217q-45 17 -86 31.5t-80.5 25t-79 16.5t-82.5 6q-93 0 -145 -42t-60 -108q-1 -9 -1 -19q1 -55 37 -93q42 -46 151 -83q96 -33 165.5 -69.5t114 -80.5t65.5 -97t21 -118q0 -26 -3 -53q-10 -92 -51 -165.5t-108 -125t-156.5 -79t-195.5 -27.5q-55 0 -114 7t-116.5 19.5 t-110 30.5t-93.5 41zM572 1528l257 256l274 -48l-349 -248z" />
<glyph unicode="&#x15b;" horiz-adv-x="935" d="M24 60l61 198q38 -13 73.5 -25t71.5 -21t73 -14t77 -5q73 0 111.5 27t43.5 78q3 23 -8.5 40.5t-34 32t-54 25.5t-68.5 22q-57 16 -105 38.5t-83 54t-55 73.5t-20 97q0 8 0.5 17t1.5 18q8 71 44 127.5t94.5 95.5t137.5 60t173 21q102 0 184.5 -21t133.5 -45l-66 -202 q-35 12 -66 22t-60.5 17.5t-59.5 11.5t-63 4q-75 0 -113 -24t-43 -71q-2 -22 4.5 -38.5t23 -30t44 -25t67.5 -22.5q146 -42 217.5 -107t71.5 -164q0 -8 -0.5 -16.5t-1.5 -16.5q-8 -71 -43.5 -128.5t-94 -98t-137.5 -63t-173 -22.5q-50 0 -100 5.5t-96.5 16t-88 25.5 t-74.5 33zM448 1192l257 256l274 -48l-349 -248z" />
<glyph unicode="&#x15c;" horiz-adv-x="1055" d="M23 78l93 216q91 -32 175 -53t178 -21q87 0 142 39.5t63 111.5q1 8 1 16q-1 27 -11 50q-14 29 -41 52.5t-68 43t-92 37.5q-78 28 -141.5 63t-108.5 79.5t-69 99.5t-24 123q0 22 3 45q10 93 51 167t108 125.5t156 79.5t195 28q58 0 116 -9.5t110.5 -24t96 -32.5t73.5 -36 l-78 -217q-45 17 -86 31.5t-80.5 25t-79 16.5t-82.5 6q-93 0 -145 -42t-60 -108q-1 -9 -1 -19q1 -55 37 -93q42 -46 151 -83q96 -33 165.5 -69.5t114 -80.5t65.5 -97t21 -118q0 -26 -3 -53q-10 -92 -51 -165.5t-108 -125t-156.5 -79t-195.5 -27.5q-55 0 -114 7t-116.5 19.5 t-110 30.5t-93.5 41zM352 1486l317 232h168l249 -232h-248l-104 110l-135 -110h-247z" />
<glyph unicode="&#x15d;" horiz-adv-x="935" d="M24 60l61 198q38 -13 73.5 -25t71.5 -21t73 -14t77 -5q73 0 111.5 27t43.5 78q3 23 -8.5 40.5t-34 32t-54 25.5t-68.5 22q-57 16 -105 38.5t-83 54t-55 73.5t-20 97q0 8 0.5 17t1.5 18q8 71 44 127.5t94.5 95.5t137.5 60t173 21q102 0 184.5 -21t133.5 -45l-66 -202 q-35 12 -66 22t-60.5 17.5t-59.5 11.5t-63 4q-75 0 -113 -24t-43 -71q-2 -22 4.5 -38.5t23 -30t44 -25t67.5 -22.5q146 -42 217.5 -107t71.5 -164q0 -8 -0.5 -16.5t-1.5 -16.5q-8 -71 -43.5 -128.5t-94 -98t-137.5 -63t-173 -22.5q-50 0 -100 5.5t-96.5 16t-88 25.5 t-74.5 33zM227 1150l317 232h168l249 -232h-248l-104 110l-135 -110h-247z" />
<glyph unicode="&#x15e;" horiz-adv-x="1055" d="M23 78l93 216q91 -32 175 -53t178 -21q87 0 142 39.5t63 111.5q1 8 1 16q-1 27 -11 50q-14 29 -41 52.5t-68 43t-92 37.5q-78 28 -141.5 63t-108.5 79.5t-69 99.5t-24 123q0 22 3 45q10 93 51 167t108 125.5t156 79.5t195 28q58 0 116 -9.5t110.5 -24t96 -32.5t73.5 -36 l-78 -217q-45 17 -86 31.5t-80.5 25t-79 16.5t-82.5 6q-93 0 -145 -42t-60 -108q-1 -9 -1 -19q1 -55 37 -93q42 -46 151 -83q96 -33 165.5 -69.5t114 -80.5t65.5 -97t21 -118q0 -26 -3 -53q-10 -92 -51 -165.5t-108 -125t-156.5 -79t-195.5 -27.5q-55 0 -114 7t-116.5 19.5 t-110 30.5t-93.5 41zM134 -302q42 3 81 16.5t69 36.5t48 55.5t18 74.5q0 52 -32 113l233 25q18 -60 18 -118q0 -65 -23.5 -123.5t-72 -104t-123 -75.5t-175.5 -39z" />
<glyph unicode="&#x15f;" horiz-adv-x="935" d="M24 60l61 198q38 -13 73.5 -25t71.5 -21t73 -14t77 -5q73 0 111.5 27t43.5 78q3 23 -8.5 40.5t-34 32t-54 25.5t-68.5 22q-57 16 -105 38.5t-83 54t-55 73.5t-20 97q0 8 0.5 17t1.5 18q8 71 44 127.5t94.5 95.5t137.5 60t173 21q102 0 184.5 -21t133.5 -45l-66 -202 q-35 12 -66 22t-60.5 17.5t-59.5 11.5t-63 4q-75 0 -113 -24t-43 -71q-2 -22 4.5 -38.5t23 -30t44 -25t67.5 -22.5q146 -42 217.5 -107t71.5 -164q0 -8 -0.5 -16.5t-1.5 -16.5q-8 -71 -43.5 -128.5t-94 -98t-137.5 -63t-173 -22.5q-50 0 -100 5.5t-96.5 16t-88 25.5 t-74.5 33zM61 -283q42 3 81 16.5t69 36.5t48 55.5t18 74.5q0 52 -32 113l233 25q18 -60 18 -118q0 -65 -23.5 -123.5t-72 -104t-123 -75.5t-175.5 -39z" />
<glyph unicode="&#x160;" horiz-adv-x="1055" d="M23 78l93 216q91 -32 175 -53t178 -21q87 0 142 39.5t63 111.5q1 8 1 16q-1 27 -11 50q-14 29 -41 52.5t-68 43t-92 37.5q-78 28 -141.5 63t-108.5 79.5t-69 99.5t-24 123q0 22 3 45q10 93 51 167t108 125.5t156 79.5t195 28q58 0 116 -9.5t110.5 -24t96 -32.5t73.5 -36 l-78 -217q-45 17 -86 31.5t-80.5 25t-79 16.5t-82.5 6q-93 0 -145 -42t-60 -108q-1 -9 -1 -19q1 -55 37 -93q42 -46 151 -83q96 -33 165.5 -69.5t114 -80.5t65.5 -97t21 -118q0 -26 -3 -53q-10 -92 -51 -165.5t-108 -125t-156.5 -79t-195.5 -27.5q-55 0 -114 7t-116.5 19.5 t-110 30.5t-93.5 41zM374 1720h248l103 -114l136 114h248l-317 -232h-167z" />
<glyph unicode="&#x161;" horiz-adv-x="935" d="M24 60l61 198q38 -13 73.5 -25t71.5 -21t73 -14t77 -5q73 0 111.5 27t43.5 78q3 23 -8.5 40.5t-34 32t-54 25.5t-68.5 22q-57 16 -105 38.5t-83 54t-55 73.5t-20 97q0 8 0.5 17t1.5 18q8 71 44 127.5t94.5 95.5t137.5 60t173 21q102 0 184.5 -21t133.5 -45l-66 -202 q-35 12 -66 22t-60.5 17.5t-59.5 11.5t-63 4q-75 0 -113 -24t-43 -71q-2 -22 4.5 -38.5t23 -30t44 -25t67.5 -22.5q146 -42 217.5 -107t71.5 -164q0 -8 -0.5 -16.5t-1.5 -16.5q-8 -71 -43.5 -128.5t-94 -98t-137.5 -63t-173 -22.5q-50 0 -100 5.5t-96.5 16t-88 25.5 t-74.5 33zM249 1384h248l103 -114l136 114h248l-317 -232h-167z" />
<glyph unicode="&#x162;" horiz-adv-x="1102" d="M114 1140l32 220h1027l-32 -220h-370l-165 -1140h-287l165 1140h-370zM289 -468l126 377h260l-219 -409z" />
<glyph unicode="&#x163;" horiz-adv-x="795" d="M61 813l36 187h139l38 260l290 20l-41 -280h271l-27 -187h-271l-65 -452q-2 -14 -3 -26t-1 -23q0 -54 26.5 -74.5t83.5 -20.5q40 0 79 6t66 12l-7 -208q-22 -8 -50 -14.5t-58.5 -11t-61.5 -7.5t-60 -3q-70 0 -127 12t-97.5 42t-62.5 81.5t-22 130.5q0 23 1.5 49t6.5 55 l65 452h-148zM231 -468l126 377h260l-219 -409z" />
<glyph unicode="&#x164;" horiz-adv-x="1102" d="M114 1140l32 220h1027l-32 -220h-370l-165 -1140h-287l165 1140h-370zM399 1704h248l103 -114l136 114h248l-317 -232h-167z" />
<glyph unicode="&#x165;" horiz-adv-x="795" d="M61 813l36 187h139l38 260l290 20l-41 -280h271l-27 -187h-271l-65 -452q-2 -14 -3 -26t-1 -23q0 -54 26.5 -74.5t83.5 -20.5q40 0 79 6t66 12l-7 -208q-22 -8 -50 -14.5t-58.5 -11t-61.5 -7.5t-60 -3q-70 0 -127 12t-97.5 42t-62.5 81.5t-22 130.5q0 23 1.5 49t6.5 55 l65 452h-148zM833 835l158 472h275l-239 -492z" />
<glyph unicode="&#x166;" horiz-adv-x="1103" d="M64 771l23 161h367l30 208h-370l32 220h1027l-32 -220h-370l-30 -208h378l-23 -161h-378l-112 -771h-287l112 771h-367z" />
<glyph unicode="&#x167;" horiz-adv-x="809" d="M23 531l24 161h145l17 121h-148l36 187h139l38 260l290 20l-41 -280h271l-27 -187h-271l-17 -121h261l-23 -161h-262l-24 -170q-2 -14 -3 -26t-1 -23q0 -54 26.5 -74.5t83.5 -20.5q40 0 79 6t66 12l-7 -208q-22 -8 -50 -14.5t-58.5 -11t-61.5 -7.5t-60 -3q-70 0 -127 12 t-97.5 42t-62.5 81.5t-22 130.5q0 23 1.5 49t6.5 55l24 170h-145z" />
<glyph unicode="&#x168;" horiz-adv-x="1374" d="M114 367q0 17 1 35.5t4 37.5l133 920h287l-133 -920q-4 -23 -4 -48q0 -49 16 -85.5t45.5 -60.5t71 -36t91.5 -12q56 0 105.5 15.5t88.5 46t65 76t35 104.5l134 920h286l-134 -924q-16 -112 -68 -197.5t-132 -143t-185 -86.5t-227 -29q-107 0 -195.5 26t-151.5 75.5 t-98 121.5t-35 164zM444 1611q49 72 107.5 112t113.5 50q19 3 37 3q56 0 100 -23.5t80 -50.5q27 -24 55 -34.5t49 -8.5q9 1 24 6t33 16t38.5 29t40.5 46l104 -106q-51 -72 -108 -112.5t-112 -47.5q-12 -2 -23 -3.5t-22 -1.5q-54 0 -96 23t-78 52q-29 22 -55.5 34t-47.5 10 q-9 -1 -22.5 -5t-31 -14t-37.5 -28t-43 -46z" />
<glyph unicode="&#x169;" horiz-adv-x="1188" d="M90 263q0 52 9 115l90 622h289l-90 -622q-6 -38 -6 -67q0 -64 28 -88.5t85 -24.5q59 0 116 22t108 58l105 722h286l-145 -1000h-240l-10 108q-76 -60 -158.5 -94t-172.5 -34q-65 0 -119 13.5t-93 45.5t-60.5 86.5t-21.5 137.5zM291 1271q49 72 107.5 112t113.5 50 q19 3 37 3q56 0 100 -23.5t80 -50.5q27 -24 55 -34.5t49 -8.5q9 1 24 6t33 16t38.5 29t40.5 46l104 -106q-51 -72 -108 -112.5t-112 -47.5q-12 -2 -23 -3.5t-22 -1.5q-54 0 -96 23t-78 52q-29 22 -55.5 34t-47.5 10q-9 -1 -22.5 -5t-31 -14t-37.5 -28t-43 -46z" />
<glyph unicode="&#x16a;" horiz-adv-x="1374" d="M114 367q0 17 1 35.5t4 37.5l133 920h287l-133 -920q-4 -23 -4 -48q0 -49 16 -85.5t45.5 -60.5t71 -36t91.5 -12q56 0 105.5 15.5t88.5 46t65 76t35 104.5l134 920h286l-134 -924q-16 -112 -68 -197.5t-132 -143t-185 -86.5t-227 -29q-107 0 -195.5 26t-151.5 75.5 t-98 121.5t-35 164zM412 1475l17 161h738l-18 -161h-737z" />
<glyph unicode="&#x16b;" horiz-adv-x="1188" d="M90 263q0 52 9 115l90 622h289l-90 -622q-6 -38 -6 -67q0 -64 28 -88.5t85 -24.5q59 0 116 22t108 58l105 722h286l-145 -1000h-240l-10 108q-76 -60 -158.5 -94t-172.5 -34q-65 0 -119 13.5t-93 45.5t-60.5 86.5t-21.5 137.5zM259 1136l17 161h738l-18 -161h-737z" />
<glyph unicode="&#x16c;" horiz-adv-x="1374" d="M114 367q0 17 1 35.5t4 37.5l133 920h287l-133 -920q-4 -23 -4 -48q0 -49 16 -85.5t45.5 -60.5t71 -36t91.5 -12q56 0 105.5 15.5t88.5 46t65 76t35 104.5l134 920h286l-134 -924q-16 -112 -68 -197.5t-132 -143t-185 -86.5t-227 -29q-107 0 -195.5 26t-151.5 75.5 t-98 121.5t-35 164zM478 1672q0 8 0.5 17.5t1.5 18.5h183q-7 -62 29 -98.5t113 -36.5q79 0 121.5 36t49.5 99h183q-7 -65 -37 -114.5t-78 -83.5t-112.5 -51t-141.5 -16q-71 -1 -129 13.5t-98.5 43t-62.5 72t-22 100.5z" />
<glyph unicode="&#x16d;" horiz-adv-x="1188" d="M90 263q0 52 9 115l90 622h289l-90 -622q-6 -38 -6 -67q0 -64 28 -88.5t85 -24.5q59 0 116 22t108 58l105 722h286l-145 -1000h-240l-10 108q-76 -60 -158.5 -94t-172.5 -34q-65 0 -119 13.5t-93 45.5t-60.5 86.5t-21.5 137.5zM325 1333q0 8 0.5 17.5t1.5 18.5h183 q-7 -62 29 -98.5t113 -36.5q79 0 121.5 36t49.5 99h183q-7 -65 -37 -114.5t-78 -83.5t-112.5 -51t-141.5 -16q-71 -1 -129 13.5t-98.5 43t-62.5 72t-22 100.5z" />
<glyph unicode="&#x16e;" horiz-adv-x="1374" d="M114 367q0 17 1 35.5t4 37.5l133 920h287l-133 -920q-4 -23 -4 -48q0 -49 16 -85.5t45.5 -60.5t71 -36t91.5 -12q56 0 105.5 15.5t88.5 46t65 76t35 104.5l134 920h286l-134 -924q-16 -112 -68 -197.5t-132 -143t-185 -86.5t-227 -29q-107 0 -195.5 26t-151.5 75.5 t-98 121.5t-35 164zM622 1664q6 41 27 76.5t52.5 61.5t70 41t80.5 15q40 0 74.5 -15.5t58.5 -42t35.5 -61.5t5.5 -75q-6 -42 -27 -77.5t-52.5 -61.5t-70.5 -40.5t-80 -14.5t-75.5 15t-58.5 41.5t-35 61.5t-5 76zM742 1664q-2 -16 2.5 -30.5t14 -25t23.5 -16.5t30 -6 q35 0 61.5 23t31.5 55q5 34 -15 56t-55 22q-32 0 -60 -22.5t-33 -55.5z" />
<glyph unicode="&#x16f;" horiz-adv-x="1188" d="M90 263q0 52 9 115l90 622h289l-90 -622q-6 -38 -6 -67q0 -64 28 -88.5t85 -24.5q59 0 116 22t108 58l105 722h286l-145 -1000h-240l-10 108q-76 -60 -158.5 -94t-172.5 -34q-65 0 -119 13.5t-93 45.5t-60.5 86.5t-21.5 137.5zM469 1325q6 41 27 76.5t52.5 61.5t70 41 t80.5 15q40 0 74.5 -15.5t58.5 -42t35.5 -61.5t5.5 -75q-6 -42 -27 -77.5t-52.5 -61.5t-70.5 -40.5t-80 -14.5t-75.5 15t-58.5 41.5t-35 61.5t-5 76zM589 1325q-2 -16 2.5 -30.5t14 -25t23.5 -16.5t30 -6q35 0 61.5 23t31.5 55q5 34 -15 56t-55 22q-32 0 -60 -22.5 t-33 -55.5z" />
<glyph unicode="&#x170;" horiz-adv-x="1374" d="M114 367q0 17 1 35.5t4 37.5l133 920h287l-133 -920q-4 -23 -4 -48q0 -49 16 -85.5t45.5 -60.5t71 -36t91.5 -12q56 0 105.5 15.5t88.5 46t65 76t35 104.5l134 920h286l-134 -924q-16 -112 -68 -197.5t-132 -143t-185 -86.5t-227 -29q-107 0 -195.5 26t-151.5 75.5 t-98 121.5t-35 164zM550 1512l267 288l179 -60l-334 -268zM887 1512l330 288l196 -60l-396 -268z" />
<glyph unicode="&#x171;" horiz-adv-x="1188" d="M90 263q0 52 9 115l90 622h289l-90 -622q-6 -38 -6 -67q0 -64 28 -88.5t85 -24.5q59 0 116 22t108 58l105 722h286l-145 -1000h-240l-10 108q-76 -60 -158.5 -94t-172.5 -34q-65 0 -119 13.5t-93 45.5t-60.5 86.5t-21.5 137.5zM397 1172l267 288l179 -60l-334 -268z M734 1172l330 288l196 -60l-396 -268z" />
<glyph unicode="&#x172;" horiz-adv-x="1374" d="M114 367q0 17 1 35.5t4 37.5l133 920h287l-133 -920q-4 -23 -4 -48q0 -49 16 -85.5t45.5 -60.5t71 -36t91.5 -12q56 0 105.5 15.5t88.5 46t65 76t35 104.5l134 920h286l-134 -924q-16 -112 -68 -197.5t-132 -143t-185 -86.5t-227 -29q-107 0 -195.5 26t-151.5 75.5 t-98 121.5t-35 164zM343 -231q0 8 2 16q9 63 38 110.5t69.5 82t88 56.5t93.5 34l139 -64v-4q-42 -15 -78.5 -32t-65 -38.5t-47 -48t-22.5 -58.5q-5 -35 16 -53.5t46 -18.5q22 0 38 2t34 8l-2 -158q-7 -4 -20.5 -8t-30.5 -7t-36 -5t-38 -2q-105 0 -164.5 45.5t-59.5 126.5v16 z" />
<glyph unicode="&#x173;" horiz-adv-x="1188" d="M90 263q0 52 9 115l90 622h289l-90 -622q-6 -38 -6 -67q0 -64 28 -88.5t85 -24.5q59 0 116 22t108 58l105 722h286l-145 -1000h-240l-10 108q-76 -60 -158.5 -94t-172.5 -34q-65 0 -119 13.5t-93 45.5t-60.5 86.5t-21.5 137.5zM473 -231q0 8 2 16q9 63 38 110.5t69.5 82 t88 56.5t93.5 34l139 -64v-4q-42 -15 -78.5 -32t-65 -38.5t-47 -48t-22.5 -58.5q-5 -35 16 -53.5t46 -18.5q22 0 38 2t34 8l-2 -158q-7 -4 -20.5 -8t-30.5 -7t-36 -5t-38 -2q-105 0 -164.5 45.5t-59.5 126.5v16z" />
<glyph unicode="&#x178;" horiz-adv-x="1196" d="M146 1360h293l180 -600l357 600h290l-548 -902l-67 -458h-286l67 464zM357 1470l21 188h258l-21 -188h-258zM861 1470l21 188h258l-21 -188h-258z" />
<glyph unicode="&#x179;" horiz-adv-x="1150" d="M14 0l25 174l720 967h-574l32 219h917l-24 -170l-731 -971h635l-73 -219h-927zM596 1512l257 256l274 -48l-349 -248z" />
<glyph unicode="&#x17a;" horiz-adv-x="928" d="M-16 0l24 172l491 609h-396l32 219h746l-23 -156l-503 -625h465l-72 -219h-764zM488 1172l257 256l274 -48l-349 -248z" />
<glyph unicode="&#x17b;" horiz-adv-x="1150" d="M14 0l25 174l720 967h-574l32 219h917l-24 -170l-731 -971h635l-73 -219h-927zM580 1470l29 200h294l-29 -200h-294z" />
<glyph unicode="&#x17c;" horiz-adv-x="928" d="M-16 0l24 172l491 609h-396l32 219h746l-23 -156l-503 -625h465l-72 -219h-764zM472 1131l29 200h294l-29 -200h-294z" />
<glyph unicode="&#x17d;" horiz-adv-x="1150" d="M14 0l25 174l720 967h-574l32 219h917l-24 -170l-731 -971h635l-73 -219h-927zM397 1704h248l103 -114l136 114h248l-317 -232h-167z" />
<glyph unicode="&#x17e;" horiz-adv-x="928" d="M-16 0l24 172l491 609h-396l32 219h746l-23 -156l-503 -625h465l-72 -219h-764zM289 1365h248l103 -114l136 114h248l-317 -232h-167z" />
<glyph unicode="&#x192;" horiz-adv-x="749" d="M-161 -388l42 204q24 -5 55.5 -9.5t63.5 -4.5q54 0 80 24.5t33 84.5l99 907h-143l28 182h135l5 38q12 109 48 182t93 117.5t133.5 63.5t168.5 19q25 0 52 -2.5t53 -6.5t50 -9.5t43 -11.5l-40 -204q-27 5 -68.5 9.5t-83.5 4.5q-74 0 -112.5 -36t-48.5 -126l-5 -38h248 l-20 -182h-248l-96 -879q-11 -99 -44 -167t-85 -110.5t-120.5 -61t-150.5 -18.5q-44 0 -88 8.5t-77 21.5z" />
<glyph unicode="&#x237;" horiz-adv-x="576" d="M-312 -416l61 197q11 -3 28 -6t37 -6t41.5 -5t41.5 -2q35 0 62 8.5t47 28t32.5 52t19.5 79.5l155 1070h286l-155 -1070q-17 -119 -56 -194.5t-93.5 -118.5t-121.5 -59t-140 -16q-30 0 -64.5 3t-68 9t-63 13.5t-49.5 16.5z" />
<glyph unicode="&#x2c6;" horiz-adv-x="894" d="M167 1148l317 232h168l249 -232h-248l-104 110l-135 -110h-247z" />
<glyph unicode="&#x2c7;" horiz-adv-x="894" d="M200 1380h248l103 -114l136 114h248l-317 -232h-167z" />
<glyph unicode="&#x2d8;" horiz-adv-x="763" d="M144 1344q0 8 0.5 17.5t1.5 18.5h183q-7 -62 29 -98.5t113 -36.5q79 0 121.5 36t49.5 99h183q-7 -65 -37 -114.5t-78 -83.5t-112.5 -51t-141.5 -16q-71 -1 -129 13.5t-98.5 43t-62.5 72t-22 100.5z" />
<glyph unicode="&#x2d9;" horiz-adv-x="487" d="M186 1226l29 200h294l-29 -200h-294z" />
<glyph unicode="&#x2da;" horiz-adv-x="597" d="M214 1422q6 41 27 76.5t52.5 61.5t70 41t80.5 15q40 0 74.5 -15.5t58.5 -42t35.5 -61.5t5.5 -75q-6 -42 -27 -77.5t-52.5 -61.5t-70.5 -40.5t-80 -14.5t-75.5 15t-58.5 41.5t-35 61.5t-5 76zM334 1422q-2 -16 2.5 -30.5t14 -25t23.5 -16.5t30 -6q35 0 61.5 23t31.5 55 q5 34 -15 56t-55 22q-32 0 -60 -22.5t-33 -55.5z" />
<glyph unicode="&#x2db;" horiz-adv-x="485" d="M-103 -231q0 8 2 16q9 63 38 110.5t69.5 82t88 56.5t93.5 34l139 -64v-4q-42 -15 -78.5 -32t-65 -38.5t-47 -48t-22.5 -58.5q-5 -35 16 -53.5t46 -18.5q22 0 38 2t34 8l-2 -158q-7 -4 -20.5 -8t-30.5 -7t-36 -5t-38 -2q-105 0 -164.5 45.5t-59.5 126.5v16z" />
<glyph unicode="&#x2dc;" horiz-adv-x="970" d="M177 1267q49 72 107.5 112t113.5 50q19 3 37 3q56 0 100 -23.5t80 -50.5q27 -24 55 -34.5t49 -8.5q9 1 24 6t33 16t38.5 29t40.5 46l104 -106q-51 -72 -108 -112.5t-112 -47.5q-12 -2 -23 -3.5t-22 -1.5q-54 0 -96 23t-78 52q-29 22 -55.5 34t-47.5 10q-9 -1 -22.5 -5 t-31 -14t-37.5 -28t-43 -46z" />
<glyph unicode="&#x2dd;" horiz-adv-x="1071" d="M219 1152l267 288l179 -60l-334 -268zM556 1152l330 288l196 -60l-396 -268z" />
<glyph unicode="&#x3c0;" horiz-adv-x="1321" d="M84 806l28 194h1211l-28 -194h-179l-69 -474q-2 -8 -2 -15v-15q0 -24 7.5 -43.5t24.5 -33t44.5 -20.5t68.5 -5l-36 -212q-54 -6 -100 -6q-79 0 -136.5 17.5t-94.5 50.5t-55 80.5t-18 107.5q0 17 1.5 34t3.5 35l73 499h-264l-116 -806h-287l116 806h-193z" />
<glyph unicode="&#x2000;" horiz-adv-x="930" />
<glyph unicode="&#x2001;" horiz-adv-x="1860" />
<glyph unicode="&#x2002;" horiz-adv-x="930" />
<glyph unicode="&#x2003;" horiz-adv-x="1860" />
<glyph unicode="&#x2004;" horiz-adv-x="620" />
<glyph unicode="&#x2005;" horiz-adv-x="465" />
<glyph unicode="&#x2006;" horiz-adv-x="310" />
<glyph unicode="&#x2007;" horiz-adv-x="310" />
<glyph unicode="&#x2008;" horiz-adv-x="232" />
<glyph unicode="&#x2009;" horiz-adv-x="372" />
<glyph unicode="&#x200a;" horiz-adv-x="103" />
<glyph unicode="&#x2010;" horiz-adv-x="733" d="M91 570l32 226h541l-33 -226h-540z" />
<glyph unicode="&#x2011;" horiz-adv-x="733" d="M91 570l32 226h541l-33 -226h-540z" />
<glyph unicode="&#x2012;" horiz-adv-x="733" d="M91 570l32 226h541l-33 -226h-540z" />
<glyph unicode="&#x2013;" horiz-adv-x="1088" d="M63 538l28 194h938l-28 -194h-938z" />
<glyph unicode="&#x2014;" horiz-adv-x="1725" d="M84 538l28 194h1523l-28 -194h-1523z" />
<glyph unicode="&#x2018;" horiz-adv-x="556" d="M148 910l240 492l194 -20l-159 -472h-275z" />
<glyph unicode="&#x2019;" horiz-adv-x="546" d="M157 930l158 472h275l-239 -492z" />
<glyph unicode="&#x201a;" horiz-adv-x="558" d="M-18 -272l147 484h271l-236 -516z" />
<glyph unicode="&#x201c;" horiz-adv-x="920" d="M728.01 1382.06l-157.99 -471.971h-274.983l238.985 491.97zM1094.01 1382.06l-157.99 -471.971h-274.983l238.985 491.97z" />
<glyph unicode="&#x201d;" horiz-adv-x="920" d="M156 930l158 472h275l-239 -492zM517 930l158 472h275l-239 -492z" />
<glyph unicode="&#x201e;" horiz-adv-x="908" d="M-18 -272l147 484h271l-236 -516zM321 -272l147 484h271l-236 -516z" />
<glyph unicode="&#x2020;" horiz-adv-x="1046" d="M121 780l32 220h274l52 360h286l-52 -360h294l-32 -220h-294l-113 -780h-286l113 780h-274z" />
<glyph unicode="&#x2021;" horiz-adv-x="1046" d="M8 0l32 222h274l80 556h-273l32 222h274l52 360h286l-52 -360h294l-32 -222h-295l-80 -556h295l-33 -222h-294l-58 -400h-286l58 400h-274z" />
<glyph unicode="&#x2022;" horiz-adv-x="760" d="M111 597q0 17 3 37q8 56 35.5 104.5t68.5 84.5t93 56.5t109 20.5q51 0 94 -17.5t74.5 -48.5t49.5 -73t18 -90q0 -19 -3 -37q-8 -56 -36 -104.5t-69.5 -83.5t-94 -55t-110.5 -20q-50 0 -92.5 17.5t-73.5 47.5t-48.5 71.5t-17.5 89.5z" />
<glyph unicode="&#x2026;" horiz-adv-x="1612" d="M36 0l36 244h272l-35 -244h-273zM572 0l36 244h272l-35 -244h-273zM1121 0l36 244h272l-35 -244h-273z" />
<glyph unicode="&#x202f;" horiz-adv-x="372" />
<glyph unicode="&#x2030;" horiz-adv-x="1930" d="M126 0l1076 1360h184l-1076 -1360h-184zM160 1020q0 14 1 28t3 28q10 73 41 130t77 95.5t105 58.5t127 20q60 0 109 -17t84.5 -49t55 -78t19.5 -105q0 -14 -1 -27.5t-3 -27.5q-11 -74 -41.5 -131t-77 -95.5t-106 -58t-127.5 -19.5q-59 0 -108 16.5t-84 48t-54.5 78 t-19.5 105.5zM350 1035q0 -59 26 -89t71 -30q52 0 91 41.5t50 118.5q3 22 3 42q0 58 -26 87t-72 29q-25 0 -47.5 -10.5t-41.5 -30.5t-32 -49.5t-19 -67.5q-3 -23 -3 -41zM735 235q0 14 1 27.5t3 27.5q11 73 42 130t77 95.5t105 58.5t127 20q62 0 114 -19t87 -54 q46 35 102 54t122 19q60 0 109 -17t84.5 -49t55 -78.5t19.5 -105.5q0 -13 -1 -26.5t-3 -27.5q-11 -74 -42 -131t-77 -95.5t-105.5 -58t-127.5 -19.5q-63 0 -115.5 18.5t-87.5 53.5q-92 -72 -223 -72q-59 0 -107.5 16.5t-84 48.5t-55 78.5t-19.5 105.5zM925 249q0 -59 26 -89 t71 -30q51 0 91.5 41.5t51.5 118.5l1 7q1 8 1.5 15.5t0.5 15.5q0 59 -27 89.5t-73 30.5q-25 0 -47.5 -10.5t-41.5 -30.5t-32 -49.5t-19 -67.5q-3 -23 -3 -41zM1350 248q0 -57 26.5 -87.5t71.5 -30.5q50 0 90 41.5t51 118.5q3 22 3 41q0 59 -26.5 88t-71.5 29 q-49 0 -88.5 -39t-51.5 -112l-2 -15q-2 -9 -2 -18v-16z" />
<glyph unicode="&#x2039;" horiz-adv-x="671" d="M70 428l12 84l417 406l113 -110l-268 -336l173 -320l-145 -110z" />
<glyph unicode="&#x203a;" horiz-adv-x="671" d="M22 152l266 336l-171 320l145 110l301 -386l-12 -84l-416 -406z" />
<glyph unicode="&#x2044;" horiz-adv-x="1100" d="M-79 0l1076 1360h184l-1076 -1360h-184z" />
<glyph unicode="&#x205f;" horiz-adv-x="465" />
<glyph unicode="&#x2074;" horiz-adv-x="695" d="M53 792l14 100l429 475h176l-66 -453h82l-18 -122h-82l-17 -123h-158l18 123h-378zM238 914h211l40 281z" />
<glyph unicode="&#x20ac;" d="M33 446l21 146h180q2 22 4.5 44.5t5.5 45.5q2 15 4 28.5t5 27.5h-177l21 146h194q38 115 97 206.5t135.5 156t169.5 99t199 34.5q96 0 162.5 -16t112.5 -37l-78 -202q-42 17 -97.5 27t-119.5 10q-91 0 -167 -67t-123 -211h456l-22 -146h-469q-2 -14 -4.5 -28t-4.5 -28 q-4 -25 -6 -47t-4 -43h467l-21 -146h-448q11 -129 65.5 -188.5t144.5 -59.5q74 0 142 16.5t121 36.5l14 -203q-59 -29 -142.5 -48.5t-200.5 -19.5q-94 0 -171 32.5t-133.5 93t-90 146.5t-41.5 194h-201z" />
<glyph unicode="&#x2122;" horiz-adv-x="1346" d="M169 1248l16 112h489l-17 -112h-176l-56 -382h-133l55 382h-178zM687 866l72 494h179l90 -200l150 200h159l-72 -494h-121l50 341l-146 -199h-86l-89 203l-50 -345h-136z" />
<glyph unicode="&#x2212;" horiz-adv-x="1064" d="M88 550l30 206h870l-30 -206h-870z" />
<glyph unicode="&#x2264;" horiz-adv-x="1020" d="M83 499.764l36 202.763l900 289.186l-38 -212.734l-592 -177.833l530 -177.832l-37 -212.734zM11 -0.900391l30 177.572h870l-30 -177.572h-870z" />
<glyph unicode="&#x2265;" horiz-adv-x="1026" d="M40 210.578l37 212.734l592 177.832l-530 177.833l37 212.734l801 -289.186l-36 -202.763zM11 -0.900391l30 177.572h870l-30 -177.572h-870z" />
<glyph unicode="&#xe000;" horiz-adv-x="1000" d="M0 1000h1000v-1000h-1000v1000z" />
<glyph horiz-adv-x="550" d="M-53 -468l126 377h260l-219 -409z" />
<glyph horiz-adv-x="1176" d="M69 -418l61 208q22 -4 52.5 -9.5t65 -10.5t71 -8.5t69.5 -3.5q59 0 104 10.5t77 35.5t52 65t28 99l15 100q-66 -42 -134 -65t-141 -23q-65 0 -119 13t-92.5 45.5t-60 86.5t-21.5 136q0 52 9 117l90 622h286l-90 -622q-6 -38 -6 -67q0 -64 28 -88.5t85 -24.5 q51 0 99.5 15.5t93.5 42.5l108 744h287l-150 -1032q-19 -131 -66.5 -214.5t-120 -131.5t-167.5 -66t-207 -18q-43 0 -87.5 4t-85 10.5t-75.5 14.5t-58 15z" />
<glyph horiz-adv-x="1136" d="M-83 -247q0 17 3 35q10 70 58.5 124.5t145.5 97.5q-17 23 -29 52t-12 66v16q0 7 2 15q10 70 47 114t94 81q-63 37 -96.5 95.5t-33.5 138.5q0 14 1 28.5t3 29.5q13 92 57 162t112 117t156.5 71t191.5 24q44 0 86 -5t79 -15h370l-36 -140h-128q40 -68 40 -154q0 -14 -1 -29 t-3 -31q-13 -91 -56.5 -158t-111 -111t-155.5 -65.5t-190 -21.5q-35 0 -70 3t-67 8q-14 -16 -23.5 -35.5t-14.5 -46.5q-3 -21 1 -42.5t13 -38.5h237q101 0 173 -19t118 -53t67.5 -81.5t21.5 -104.5q0 -14 -1.5 -28.5t-3.5 -29.5q-13 -73 -61.5 -131t-123.5 -99t-173.5 -63 t-212.5 -22q-54 0 -110.5 5t-109 16t-99 29.5t-81 46t-54.5 64.5t-20 85zM218 -177q-5 -38 16.5 -60t54.5 -33.5t71 -14.5t65 -3q55 0 101 10t80 27.5t54.5 41t24.5 51.5q3 22 -1.5 40.5t-22 32t-49.5 21t-83 7.5h-235q-32 -22 -50.5 -49.5t-25.5 -70.5zM386 608 q0 -128 152 -128q85 0 135.5 43t61.5 123q3 19 3 38q0 66 -39.5 98t-111.5 32q-79 0 -132.5 -42t-65.5 -126q-3 -20 -3 -38z" />
<glyph horiz-adv-x="1092" d="M17 228q0 21 3 44q10 71 52 132t107 105.5t148 69.5t176 25h171l3 18q2 13 3 24t1 22q0 72 -42.5 97t-123.5 25q-36 0 -76.5 -5.5t-79.5 -14.5t-74.5 -20.5t-61.5 -23.5l-20 205q38 19 84 35t95 28t99.5 19t97.5 7q85 0 156.5 -14t123.5 -49t81.5 -94t29.5 -148 q0 -21 -1.5 -44t-5.5 -49l-90 -622h-257l-4 103q-22 -17 -54.5 -37.5t-73 -38.5t-88 -30.5t-99.5 -12.5q-68 0 -120 18.5t-87.5 51.5t-54 77.5t-18.5 96.5zM314 296q-4 -27 2 -47t19.5 -33.5t33.5 -20.5t44 -7q35 0 68.5 7.5t61.5 17.5t49 20t31 16l27 185h-149 q-51 -1 -86 -17t-56.5 -38t-32 -45t-12.5 -38z" />
<glyph horiz-adv-x="756" d="M44 0l145 1000h242l8 -137q70 86 140 121.5t144 35.5q18 0 40 -1t40 -3l-51 -242q-24 5 -49 6.5t-57 1.5q-57 0 -112 -34.5t-106 -91.5l-67 -467h129l-27 -189h-419z" />
<glyph horiz-adv-x="1277" d="M93 400q0 24 2 49.5t6 51.5q18 124 67 221t125.5 163t178.5 100.5t225 34.5q108 0 192.5 -28.5t143 -82.5t89.5 -131.5t31 -175.5q0 -24 -2 -49.5t-6 -51.5q-18 -125 -67 -222t-126 -163.5t-179.5 -101t-226.5 -34.5q-107 0 -191 28.5t-142 82.5t-89 132t-31 177z M381 413q0 -215 197 -215q113 0 185.5 77.5t93.5 225.5q4 26 5.5 49t1.5 44q0 220 -197 220q-112 0 -184.5 -79t-94.5 -234q-4 -24 -5.5 -46t-1.5 -42z" />
<glyph horiz-adv-x="852" d="M13 0l26 184h193l83 572l-229 -72l30 204l305 112h217l-119 -816h195l-26 -184h-675z" />
<glyph horiz-adv-x="1074" d="M-2 0l11 86q12 82 46 151t91.5 126t138.5 102.5t186 82.5q50 18 85.5 34.5t58.5 34t35.5 37.5t16.5 44q7 48 -35 73t-125 25q-48 0 -90.5 -7.5t-82.5 -19.5t-78 -28.5t-77 -34.5l-44 187q36 21 85 43t108 40.5t126 30.5t139 12q81 0 149.5 -17.5t118 -51.5t77 -82.5 t27.5 -109.5q0 -20 -3 -41q-9 -66 -39 -115.5t-74.5 -88t-102 -68.5t-122.5 -56q-61 -24 -107.5 -43.5t-80 -38.5t-56 -40t-34.5 -49h569l-32 -218h-885z" />
<glyph horiz-adv-x="1107" d="M0 -338l66 188q44 -7 89 -14.5t107 -7.5q76 0 142.5 14.5t117.5 44.5t84 76.5t42 110.5q3 18 3 35q0 42 -16 72.5t-46 50t-72.5 29t-94.5 9.5h-169l11 76l-2 144h192q47 0 87.5 10t71 30.5t51 51.5t26.5 74q6 39 -7 66.5t-40.5 45t-69.5 26t-95 8.5q-79 0 -145 -16 t-129 -41l-32 181q34 20 78 37.5t93 30t100.5 19.5t100.5 7q99 0 179 -21.5t136.5 -61.5t87 -96.5t30.5 -126.5q0 -22 -3 -46q-16 -105 -83 -177.5t-177 -110.5q103 -36 159.5 -107.5t56.5 -170.5q0 -13 -1 -25.5t-3 -26.5q-15 -100 -68.5 -179.5t-140 -134.5t-201.5 -84.5 t-251 -29.5q-35 0 -72.5 3t-73 8t-66.5 12.5t-53 16.5z" />
<glyph horiz-adv-x="1122" d="M-59 0l26 182l685 818h325l-114 -780h166l-32 -220h-165l-53 -360h-287l53 360h-604zM244 220h332l70 481z" />
<glyph horiz-adv-x="1021" d="M-27 -336l66 182q12 -4 31 -7t41.5 -5.5t47.5 -4t50 -1.5q86 0 152 16.5t113.5 52.5t76.5 92t40 135q3 21 3 39q0 78 -48 116.5t-127 38.5q-40 0 -77.5 -8.5t-66.5 -25.5l-233 40l193 676h691l-32 -220h-470l-83 -277q36 10 79.5 15.5t95.5 5.5q88 0 157.5 -22.5 t117.5 -64.5t73.5 -103t25.5 -137q0 -36 -6 -73q-17 -113 -73.5 -205.5t-143.5 -158.5t-201 -102t-244 -36q-33 0 -68 2.5t-68.5 7.5t-62.5 13t-50 19z" />
<glyph horiz-adv-x="1159" d="M95 480q0 44 3 90t11 96q24 167 84 299.5t147.5 224.5t199.5 141t240 49q52 0 91.5 -3.5t71 -10t57.5 -15.5t50 -19l-69 -202q-35 14 -82.5 23t-102.5 9q-62 0 -120 -23.5t-107 -73t-87.5 -126t-62.5 -181.5q69 62 147 88t164 26q155 0 238.5 -83t83.5 -242 q0 -23 -2 -48.5t-6 -51.5q-15 -102 -60 -188t-115.5 -148t-165 -96.5t-207.5 -34.5q-98 0 -172.5 33.5t-125.5 98t-77 157t-26 211.5zM385 460q0 -136 41 -199t122 -63q43 0 79 19t63 50.5t44.5 73t23.5 85.5q6 37 6 71q0 38 -8 70t-26.5 55t-47.5 35.5t-71 12.5 q-54 0 -111.5 -21t-108.5 -78q-6 -62 -6 -111z" />
<glyph horiz-adv-x="930" d="M113 793l30 208h966l-21 -146l-669 -1214h-283l637 1152h-660z" />
<glyph horiz-adv-x="1207" d="M43 322q0 15 1.5 30.5t3.5 32.5q17 111 87.5 190.5t181.5 125.5q-66 38 -100.5 98t-34.5 139q0 14 1 27.5t3 27.5q13 94 55 166.5t107 121.5t150 74t186 25q90 0 163 -21.5t125.5 -63t81 -101.5t28.5 -137q0 -16 -1.5 -31.5t-3.5 -32.5q-14 -102 -71.5 -174.5 t-148.5 -117.5q88 -41 136 -108.5t48 -157.5q0 -12 -1 -24.5t-3 -25.5q-14 -100 -61 -176t-120 -127t-168.5 -76.5t-206.5 -25.5q-97 0 -177.5 22.5t-138.5 66t-90 107.5t-32 146zM335 355q0 -78 49 -117.5t129 -39.5q44 0 84 13t71.5 37.5t52.5 60.5t28 82q3 19 3 38 q0 80 -50 123t-132 43q-43 0 -82 -14.5t-70 -41t-52 -64t-28 -84.5q-3 -20 -3 -36zM469 943q0 -70 35.5 -106.5t95.5 -36.5q35 0 66.5 12.5t56.5 36.5t42 58.5t24 79.5q3 19 3 37q0 68 -37.5 103t-101.5 35q-34 0 -64 -11.5t-54 -34t-40.5 -55t-22.5 -74.5q-3 -24 -3 -44z " />
<glyph horiz-adv-x="1158" d="M68 474q0 23 1.5 46t5.5 48q14 99 59.5 182t117 143t166 94t207.5 34q202 0 300 -127t98 -362q0 -101 -18 -221q-23 -160 -79 -288t-139 -217t-189.5 -137t-229.5 -48q-53 0 -93.5 3.5t-72.5 10t-58.5 15.5t-51.5 19l68 204q37 -15 86 -24.5t106 -9.5q58 0 111.5 23 t98 70.5t79 121t56.5 174.5q-69 -60 -145.5 -86.5t-152.5 -26.5q-80 0 -142 26t-104 73t-63.5 113.5t-21.5 146.5zM353 499q0 -38 8.5 -70t27 -55t48.5 -36t73 -13q25 0 52.5 4.5t55 16t55 31t52.5 48.5q6 69 6 122q0 74 -11 123.5t-32 79t-50 41.5t-65 12q-47 0 -83.5 -19 t-63.5 -51t-44 -75.5t-24 -91.5q-2 -17 -3.5 -34t-1.5 -33z" />
<glyph horiz-adv-x="1294" d="M-52 0l623 1160h310l285 -1160h-282l-60 276h-451l-141 -276h-284zM486 496h289l-87 393z" />
<glyph horiz-adv-x="1237" d="M55 0l168 1160h444q97 0 174.5 -18.5t132 -54t83.5 -86t29 -113.5q0 -21 -3 -42q-7 -50 -26 -88.5t-43.5 -68t-53 -51t-55.5 -37.5q96 -26 147 -81t51 -142q0 -22 -3 -44q-12 -80 -55 -142t-113 -104.5t-164.5 -65t-207.5 -22.5h-505zM374 230h199q51 0 94.5 6.5t76.5 21 t53 38t25 58.5q11 73 -38 104t-151 31h-221zM442 695h283q23 20 41.5 49t25.5 74q9 63 -37 87.5t-137 24.5h-142z" />
<glyph horiz-adv-x="1099" d="M71 486q0 26 1.5 53.5t6.5 56.5q19 135 80.5 243t157.5 184t222.5 116.5t275.5 40.5q48 0 87 -4.5t71.5 -11.5t59.5 -17t50 -20l-78 -202q-42 17 -94 27t-116 10q-81 0 -152 -22t-126 -67t-92.5 -114t-50.5 -163q-4 -28 -6 -53.5t-2 -49.5q0 -79 21.5 -135t62 -91.5 t98 -52t129.5 -16.5q75 0 145 16.5t121 36.5l16 -203q-60 -29 -145.5 -48.5t-201.5 -19.5q-125 0 -225 35.5t-170.5 101t-108 159t-37.5 210.5z" />
<glyph horiz-adv-x="1330" d="M55 0l168 1160h439q131 0 236.5 -34t180 -96t114.5 -150.5t40 -196.5q0 -21 -2 -43t-5 -45q-20 -140 -81.5 -250.5t-157 -187t-220.5 -117t-273 -40.5h-439zM374 218h130q82 0 154 21.5t128 67t93.5 117t51.5 171.5q6 40 6 76q0 71 -23 122.5t-65.5 84.5t-103 48.5 t-136.5 15.5h-130z" />
<glyph horiz-adv-x="1043" d="M55 0l168 1160h841l-32 -220h-555l-33 -228h493l-32 -220h-493l-39 -272h555l-32 -220h-841z" />
<glyph horiz-adv-x="959" d="M55 0l168 1160h800l-32 -220h-514l-37 -259h450l-32 -220h-450l-67 -461h-286z" />
<glyph horiz-adv-x="1326" d="M95 500q0 42 6 84q19 131 82 240.5t163 188.5t234 123t295 44q95 0 174.5 -15.5t129.5 -38.5l-75 -201q-45 15 -104 26t-132 11q-99 0 -181.5 -27.5t-145 -77.5t-102.5 -119.5t-52 -153.5q-2 -17 -3.5 -32.5t-1.5 -31.5q0 -67 21.5 -126t64.5 -102.5t106.5 -68.5 t147.5 -25q42 0 83.5 5t81.5 17l31 218h-224l32 218h487l-85 -588q-103 -41 -209.5 -64.5t-228.5 -23.5q-140 0 -250.5 40.5t-187 111t-117 165.5t-40.5 203z" />
<glyph horiz-adv-x="1389" d="M55 0l168 1160h287l-67 -460h529l67 460h287l-168 -1160h-287l70 480h-529l-70 -480h-287z" />
<glyph horiz-adv-x="818" d="M14 0l23 162h164l122 836h-165l24 162h615l-23 -162h-165l-122 -836h166l-24 -162h-615z" />
<glyph horiz-adv-x="903" d="M-32 34l70 200q18 -6 42 -12t51 -11t55 -8t54 -3q45 0 79.5 10t59.5 33t40.5 60t23.5 90l111 767h286l-113 -779q-17 -121 -57 -199t-99.5 -123t-136.5 -62t-168 -17q-44 0 -87 4t-82 11t-72 17t-57 22z" />
<glyph horiz-adv-x="1249" d="M55 0l168 1160h287l-65 -448h162l334 448h297l-416 -554h-1l320 -606h-316l-255 486h-158l-70 -486h-287z" />
<glyph horiz-adv-x="970" d="M55 0l168 1160h287l-136 -940h511l-32 -220h-798z" />
<glyph horiz-adv-x="1622" d="M55 0l168 1160h327l258 -590l428 590h323l-168 -1160h-287l55 381l87 424l-408 -571h-159l-246 580l-35 -423l-57 -391h-286z" />
<glyph horiz-adv-x="1418" d="M55 0l168 1160h287l447 -768l111 768h287l-168 -1160h-287l-447 768l-111 -768h-287z" />
<glyph horiz-adv-x="1341" d="M68 471q0 58 9 123q20 138 76 247t143 184.5t202 115t253 39.5q121 0 217 -33t162.5 -95.5t101.5 -151t35 -199.5q0 -26 -2 -52.5t-6 -54.5q-22 -149 -79 -263.5t-144.5 -192.5t-203.5 -118t-255 -40q-119 0 -213.5 33.5t-160 96.5t-100.5 154t-35 207zM356 480 q0 -143 64.5 -212.5t188.5 -69.5q149 0 241 100t121 296q4 27 6 52t2 48q0 268 -259 268q-71 0 -130.5 -24.5t-105 -71.5t-76 -115.5t-43.5 -156.5q-9 -62 -9 -114z" />
<glyph horiz-adv-x="1201" d="M55 0l168 1160h464q113 0 202 -23.5t150.5 -67t94 -105.5t32.5 -139q0 -14 -1 -27.5t-3 -27.5q-13 -92 -59 -165t-121.5 -124t-178.5 -78t-230 -27h-176l-55 -376h-287zM428 594h157q123 0 197.5 43t87.5 133q2 8 2 16v15q0 76 -61 108.5t-176 32.5h-156z" />
<glyph horiz-adv-x="1297" d="M68 471q0 58 9 123q20 138 76 247t143 184.5t202 115t253 39.5q121 0 217 -33t162.5 -95.5t101.5 -151t35 -199.5q0 -26 -2 -52.5t-6 -54.5q-24 -165 -90.5 -284.5t-172.5 -199.5l164 -275h-319l-96 163q-80 -18 -168 -18q-119 0 -213.5 33.5t-160 96.5t-100.5 154 t-35 207zM356 480q0 -143 64.5 -212.5t188.5 -69.5q149 0 241 100t121 296q4 27 6 52t2 48q0 268 -259 268q-71 0 -130.5 -24.5t-105 -71.5t-76 -115.5t-43.5 -156.5q-9 -62 -9 -114z" />
<glyph horiz-adv-x="1268" d="M55 0l168 1160h460q110 0 196 -22.5t145.5 -65t91 -102.5t31.5 -135q0 -14 -1 -28t-3 -28q-8 -55 -31.5 -102.5t-57 -88.5t-75 -74.5t-86.5 -60.5l224 -453h-301l-192 397h-224l-58 -397h-287zM431 615h322q32 25 60 63t37 101q2 8 2 15v16q0 70 -53 101t-155 31h-165z " />
<glyph horiz-adv-x="1055" d="M-4 78l100 214q90 -32 173.5 -52t177.5 -20q87 0 140 24.5t61 76.5q4 30 -9 51.5t-40.5 38.5t-68 31t-92.5 28q-71 21 -132.5 50t-106.5 68t-71 88.5t-26 111.5q0 21 3 42q12 83 54.5 148t110 110t157 68.5t196.5 23.5q57 0 114.5 -9.5t109 -24.5t95 -33t73.5 -35 l-85 -214q-45 16 -85.5 30t-79.5 24.5t-78.5 16t-82.5 5.5q-93 0 -144 -26t-59 -74q-4 -26 4 -47t30 -38t59 -32t92 -30q88 -28 155.5 -59.5t113 -69.5t68.5 -84.5t23 -104.5q0 -11 -1 -23t-3 -25q-12 -83 -54 -147.5t-109.5 -109t-157 -67.5t-196.5 -23q-54 0 -113 7 t-115.5 19.5t-108.5 30.5t-92 41z" />
<glyph horiz-adv-x="1077" d="M74 940l32 220h1025l-32 -220h-369l-136 -940h-288l137 940h-369z" />
<glyph horiz-adv-x="1374" d="M114 367q0 17 1 35.5t4 37.5l104 720h287l-104 -720q-4 -23 -4 -48q0 -49 16 -85.5t45.5 -60.5t71 -36t91.5 -12q56 0 105.5 15.5t88.5 46t65 76t35 104.5l105 720h286l-105 -724q-16 -112 -68 -197.5t-132 -143t-185 -86.5t-227 -29q-107 0 -195.5 26t-151.5 75.5 t-98 121.5t-35 164z" />
<glyph horiz-adv-x="1259" d="M117 1160h299l112 -625l47 -303l136 304l294 624h296l-603 -1160h-315z" />
<glyph horiz-adv-x="1776" d="M125 1160h300l38 -829l384 829h244l142 -831l281 831h296l-448 -1160h-311l-133 803l-370 -803h-309z" />
<glyph horiz-adv-x="1184" d="M-54 0l468 590l-300 570h309l193 -382l306 382h307l-465 -570l297 -590h-309l-191 393l-303 -393h-312z" />
<glyph horiz-adv-x="1196" d="M117 1160h293l193 -515l344 515h290l-530 -782l-55 -378h-287l55 381z" />
<glyph horiz-adv-x="1130" d="M14 0l25 174l664 767h-547l32 219h917l-24 -170l-676 -771h609l-73 -219h-927z" />
<glyph d="M88 488q0 45 3 91.5t11 97.5q24 166 74.5 296.5t124.5 221t170.5 138t212.5 47.5q96 0 170.5 -35.5t125.5 -102.5t77.5 -163t26.5 -216q0 -44 -3.5 -90t-10.5 -96q-24 -167 -75 -296.5t-126 -218.5t-172.5 -135.5t-215.5 -46.5q-95 0 -168 34.5t-123 100t-76 159.5 t-26 214zM369 454q0 -256 144 -256q97 0 165 120.5t103 358.5q10 67 15 125t5 107q0 265 -147 265q-95 0 -163 -126t-103 -371q-10 -65 -14.5 -120t-4.5 -103z" />
<glyph d="M122 0l29 196h264l135 933l-300 -78l28 197l371 112h220l-168 -1164h261l-29 -196h-811z" />
<glyph d="M36 0l17 127q15 101 52.5 183t99 152t146.5 131t195 121q64 35 109.5 66.5t75 63.5t45.5 66t22 75q5 36 -6 66t-35 51t-60.5 32.5t-81.5 11.5q-51 0 -98.5 -9t-93 -23.5t-88.5 -33t-84 -36.5l-41 193q36 23 88 48t113.5 46t130.5 35t140 14q90 0 166 -22.5t131.5 -64.5 t86.5 -103t31 -137q0 -14 -1 -28.5t-3 -28.5q-12 -84 -48.5 -148.5t-91.5 -117.5t-126 -98.5t-151 -93.5q-60 -36 -112 -69.5t-94 -70.5t-72 -81t-44 -99h636l-32 -218h-922z" />
<glyph d="M23 76l86 192q63 -30 140.5 -50t171.5 -20q60 0 112.5 12.5t92.5 36.5t65.5 59.5t32.5 82.5q3 18 3 35q0 45 -18 76t-50 50t-76.5 27.5t-96.5 8.5h-179l32 218h179q46 0 88.5 11.5t76 34.5t56.5 58.5t30 83.5q6 43 -6.5 75t-41 53t-71 31t-96.5 10q-81 0 -153.5 -16.5 t-135.5 -41.5l-49 178q34 20 82 38t101.5 31.5t109 21.5t106.5 8q99 0 179.5 -23.5t137.5 -66t88.5 -102.5t31.5 -133q0 -13 -1 -25t-3 -26q-16 -112 -87 -189.5t-185 -117.5q108 -35 166.5 -108t58.5 -173q0 -12 -1 -24.5t-3 -25.5q-13 -89 -60 -160.5t-122 -121.5 t-174 -77t-216 -27q-54 0 -112 7t-112 19.5t-100.5 30t-77.5 39.5z" />
<glyph d="M5 244l26 182l677 934h329l-129 -896h164l-32 -220h-164l-36 -244h-286l36 244h-585zM302 464h319l81 553z" />
<glyph d="M42 56l72 200q60 -26 129.5 -42t161.5 -16q68 0 124 14t97.5 43.5t68 74.5t35.5 108q2 14 3 26.5t1 23.5q0 45 -13.5 77t-38 52.5t-58 30t-73.5 9.5q-51 0 -104.5 -8t-90.5 -24l-228 40l194 695h746l-32 -220h-520l-90 -289q48 11 104.5 17.5t121.5 6.5q89 0 159.5 -23.5 t119 -68t74 -109.5t25.5 -148q0 -21 -2 -43t-5 -45q-15 -102 -65.5 -186.5t-130 -145t-184 -93.5t-228.5 -33q-52 0 -106 5.5t-104 15.5t-92.5 24t-70.5 31z" />
<glyph d="M96 480q0 44 3 90t11 96q24 167 84 299.5t147.5 224.5t199.5 141t240 49q52 0 91.5 -3.5t71 -10t57.5 -15.5t50 -19l-69 -202q-35 14 -82.5 23t-102.5 9q-62 0 -120 -23.5t-107 -73t-87.5 -126t-62.5 -181.5q69 62 147 88t164 26q155 0 238.5 -83t83.5 -242 q0 -23 -2 -48.5t-6 -51.5q-15 -102 -60 -188t-115.5 -148t-165 -96.5t-207.5 -34.5q-98 0 -172.5 33.5t-125.5 98t-77 157t-26 211.5zM386 460q0 -136 41 -199t122 -63q43 0 79 19t63 50.5t44.5 73t23.5 85.5q6 37 6 71q0 38 -8 70t-26.5 55t-47.5 35.5t-71 12.5 q-54 0 -111.5 -21t-108.5 -78q-6 -62 -6 -111z" />
<glyph d="M168 1152l30 208h966l-21 -146l-669 -1214h-283l637 1152h-660z" />
<glyph d="M41 322q0 15 1.5 30.5t3.5 32.5q17 111 87.5 190.5t181.5 125.5q-66 38 -100.5 98t-34.5 139q0 14 1 27.5t3 27.5q13 94 55 166.5t107 121.5t150 74t186 25q90 0 163 -21.5t125.5 -63t81 -101.5t28.5 -137q0 -16 -1.5 -31.5t-3.5 -32.5q-14 -102 -71.5 -174.5 t-148.5 -117.5q88 -41 136 -108.5t48 -157.5q0 -12 -1 -24.5t-3 -25.5q-14 -100 -61 -176t-120 -127t-168.5 -76.5t-206.5 -25.5q-97 0 -177.5 22.5t-138.5 66t-90 107.5t-32 146zM333 355q0 -78 49 -117.5t129 -39.5q44 0 84 13t71.5 37.5t52.5 60.5t28 82q3 19 3 38 q0 80 -50 123t-132 43q-43 0 -82 -14.5t-70 -41t-52 -64t-28 -84.5q-3 -20 -3 -36zM467 943q0 -70 35.5 -106.5t95.5 -36.5q35 0 66.5 12.5t56.5 36.5t42 58.5t24 79.5q3 19 3 37q0 68 -37.5 103t-101.5 35q-34 0 -64 -11.5t-54 -34t-40.5 -55t-22.5 -74.5q-3 -24 -3 -44z " />
<glyph d="M119 833q0 23 1.5 46t5.5 48q14 99 59.5 182t117 143t166 94t207.5 34q202 0 300 -127t98 -362q0 -101 -18 -221q-23 -160 -79 -288t-139 -217t-189.5 -137t-229.5 -48q-53 0 -93.5 3.5t-72.5 10t-58.5 15.5t-51.5 19l68 204q37 -15 86 -24.5t106 -9.5q58 0 111.5 23 t98 70.5t79 121t56.5 174.5q-69 -60 -145.5 -86.5t-152.5 -26.5q-80 0 -142 26t-104 73t-63.5 113.5t-21.5 146.5zM404 858q0 -38 8.5 -70t27 -55t48.5 -36t73 -13q25 0 52.5 4.5t55 16t55 31t52.5 48.5q6 69 6 122q0 74 -11 123.5t-32 79t-50 41.5t-65 12q-47 0 -83.5 -19 t-63.5 -51t-44 -75.5t-24 -91.5q-2 -17 -3.5 -34t-1.5 -33z" />
<glyph horiz-adv-x="1277" d="M116 505q0 42 3 85t10 90q24 166 77.5 296t133 220t183 137t226.5 47q104 0 185 -36t137 -104.5t85 -166.5t29 -221q0 -41 -3 -84t-10 -88q-24 -167 -78 -297t-134.5 -219.5t-184.5 -136t-228 -46.5q-102 0 -182.5 35.5t-135.5 103t-84 165t-29 220.5zM400 483 q0 -284 178 -284q113 0 192.5 121.5t114.5 359.5q8 57 12 106.5t4 93.5q0 294 -181 294q-112 0 -190.5 -125t-113.5 -369q-8 -56 -12 -105t-4 -92z" />
<glyph horiz-adv-x="892" d="M19 0l27 184h207l135 934l-243 -74l29 204l318 112h219l-170 -1176h206l-27 -184h-701z" />
<glyph horiz-adv-x="1074" d="M-2 0l16 127q15 101 53 182t99.5 150.5t147 131t195.5 124.5q63 35 108 66.5t75 63t46 66t22 75.5q11 73 -34.5 116.5t-137.5 43.5q-51 0 -97.5 -8.5t-90.5 -22.5t-86 -32t-83 -37l-42 197q36 23 86 47.5t109.5 44.5t127 32.5t139.5 12.5q90 0 165 -22.5t129 -65t84 -103 t30 -136.5q0 -14 -1 -28t-3 -29q-12 -84 -49.5 -149t-93 -118.5t-125 -99t-147.5 -91.5q-60 -36 -112.5 -70t-95 -71t-72.5 -80.5t-45 -98.5h637l-31 -218h-923z" />
<glyph horiz-adv-x="1098" d="M0 78l90 190q61 -30 129 -50t160 -20q60 0 112 11t91.5 33.5t64.5 56.5t31 79q3 21 3 40q0 88 -60.5 128t-163.5 40h-169l31 218h169q47 0 87.5 11.5t72 34.5t52.5 58.5t28 83.5q1 8 1.5 15t0.5 14q0 72 -53 106t-153 34q-81 0 -149 -16.5t-131 -41.5l-47 178 q34 20 80 38t97.5 31.5t105.5 21.5t104 8q99 0 178.5 -23.5t136 -66t87 -102.5t30.5 -133q0 -13 -1 -25t-3 -26q-17 -112 -87 -189.5t-182 -117.5q105 -35 161.5 -107t56.5 -172q0 -13 -1 -25.5t-3 -26.5q-13 -89 -59 -160.5t-119 -121.5t-171 -77t-215 -27q-53 0 -109.5 7 t-109 20t-98 31t-76.5 40z" />
<glyph horiz-adv-x="1127" d="M-18 244l26 182l703 934h324l-130 -896h166l-32 -220h-166l-36 -244h-287l36 244h-604zM283 464h335l80 554z" />
<glyph horiz-adv-x="1054" d="M32 58l69 198q58 -25 121.5 -41.5t146.5 -16.5q56 0 103 14t83 43.5t59.5 74.5t32.5 108q2 15 3 29t1 27q0 89 -45.5 130.5t-121.5 41.5q-41 0 -77.5 -7.5t-67.5 -24.5l-230 40l192 686h689l-32 -220h-469l-81 -273q63 17 150 17q92 0 164.5 -24.5t122.5 -70.5t76 -113 t26 -151q0 -21 -2 -42.5t-5 -44.5q-15 -102 -63.5 -186.5t-123 -145t-172 -93.5t-209.5 -33q-47 0 -96 5.5t-94 16t-84 25t-66 31.5z" />
<glyph horiz-adv-x="1195" d="M100 498q0 40 3 81.5t10 86.5q24 167 83 299.5t147 224.5t201 141t245 49q51 0 90.5 -3.5t71 -10t57.5 -15.5t50 -19l-68 -203q-37 14 -84 23.5t-104 9.5q-65 0 -124 -24t-108.5 -74t-87.5 -127.5t-61 -184.5q72 69 157.5 99.5t170.5 30.5q81 0 144 -24t106.5 -68.5 t66.5 -107.5t23 -142q0 -56 -12 -117q-16 -83 -62.5 -162.5t-118.5 -141.5t-166.5 -100.5t-207.5 -38.5q-102 0 -180.5 36.5t-132 104t-81.5 163t-28 214.5zM391 475q0 -144 46.5 -210.5t137.5 -66.5q44 0 81.5 19t66 50.5t47.5 73t25 85.5q2 17 3.5 33.5t1.5 32.5 q0 39 -9 72t-28.5 57t-50.5 37.5t-74 13.5q-29 0 -60.5 -6t-63 -19.5t-62 -35.5t-58.5 -55q-3 -44 -3 -81z" />
<glyph horiz-adv-x="901" d="M100 1152l30 208h837l-21 -148l-560 -1212h-280l540 1152h-546z" />
<glyph horiz-adv-x="1271" d="M75 330q0 15 1.5 30t3.5 31q16 110 89.5 187.5t188.5 122.5q-72 37 -110.5 96.5t-38.5 139.5q0 12 1 24.5t3 25.5q14 94 58.5 167.5t114.5 123.5t161.5 76t199.5 26q95 0 173 -22.5t133.5 -65.5t86 -105t30.5 -140q0 -14 -1 -29t-3 -31q-15 -102 -74.5 -172.5 t-154.5 -113.5q91 -39 142 -106t51 -157q0 -11 -1 -23t-3 -24q-14 -100 -63 -177t-125.5 -129t-176.5 -78.5t-217 -26.5q-104 0 -190 23.5t-148 68.5t-96.5 110t-34.5 148zM365 359q0 -40 15 -70t42.5 -50.5t66 -30.5t86.5 -10q51 0 96 13t80 37.5t58 60.5t29 82q3 18 3 35 q0 81 -56.5 124t-152.5 43q-51 0 -96 -14t-80.5 -40t-58.5 -63.5t-30 -84.5q-2 -8 -2 -16v-16zM497 951q0 -74 44.5 -112t121.5 -38q83 0 142 48t73 138q2 8 2 17v16q0 70 -43.5 106t-121.5 36q-41 0 -77.5 -11.5t-65 -34t-47.5 -55t-25 -74.5q-3 -20 -3 -36z" />
<glyph horiz-adv-x="1191" d="M125 812q0 56 15 118q19 86 65 167t116.5 144t164 101t206.5 38q101 0 180 -34.5t133 -100.5t82 -162.5t28 -221.5q0 -89 -15 -191q-23 -160 -81.5 -288t-145 -217t-198 -137t-241.5 -48q-53 0 -93.5 3.5t-73 10t-59 15.5t-51.5 19l68 204q38 -14 87.5 -24t108.5 -10 q64 0 122 23.5t106 72.5t85 124t58 178q-71 -67 -156 -95.5t-170 -28.5q-77 0 -139.5 24.5t-107.5 69.5t-69.5 107.5t-24.5 138.5zM414 857q0 -39 9 -71t28 -55t49.5 -36t73.5 -13q29 0 60.5 5.5t63.5 18.5t63 34.5t59 54.5q2 27 3 52t1 48q0 73 -11 124t-33 82.5t-54 46 t-74 14.5q-48 0 -87.5 -20t-69.5 -54t-49.5 -78t-26.5 -92q-2 -16 -3.5 -31.5t-1.5 -29.5z" />
<glyph d="M129 446l941 624l51 -101l-941 -618zM202 771l13 96h89l53 367l-103 -30l15 104l141 49h111l-71 -490h88l-15 -96h-321zM512 1l7 59q6 43 22 77t44.5 63.5t70 56.5t99.5 55q30 14 50.5 26.5t33.5 24.5t20 25.5t10 30.5q8 58 -82 58q-26 0 -50 -4t-45.5 -10.5t-43 -14.5 t-44.5 -17l-17 104q19 10 44 21.5t54.5 21t63 15.5t69.5 6q95 0 148.5 -38t53.5 -106q0 -7 -0.5 -13t-1.5 -12q-5 -37 -21 -64.5t-41.5 -50t-60 -43t-75.5 -41.5q-28 -14 -51 -27t-40 -26.5t-29.5 -28.5t-18.5 -33h297l-17 -115h-449z" />
<glyph d="M129 446l941 624l51 -101l-941 -618zM202 771l13 96h89l53 367l-103 -30l15 104l141 49h111l-71 -490h88l-15 -96h-321zM395 105l11 84l361 399h147l-55 -380h69l-15 -103h-69l-14 -103h-133l15 103h-317zM550 208h177l34 236z" />
<glyph d="M129 446l941 624l51 -101l-941 -618zM164 812l43 103q36 -14 71 -23t84 -9q53 0 89 17t41 53q6 38 -18.5 54.5t-76.5 16.5h-112l17 114h111q41 0 67 15t31 49q5 35 -19 48.5t-73 13.5q-43 0 -78 -7t-73 -19l-18 97q20 9 44 17.5t50 14.5t52.5 9.5t50.5 3.5 q108 0 160 -38.5t52 -102.5q0 -7 -0.5 -12.5t-1.5 -12.5q-7 -49 -37 -82t-81 -51q53 -17 78.5 -54t17.5 -88q-12 -80 -78 -125t-191 -45q-55 0 -109.5 11t-92.5 32zM395 105l11 84l361 399h147l-55 -380h69l-15 -103h-69l-14 -103h-133l15 103h-317zM550 208h177l34 236z " />
<glyph horiz-adv-x="461" d="M40 -1l8 54q8 47 51 47h34q20 0 31.5 -12t7.5 -36l-3 -21h72l-5 -32h-196zM58 124l4 31h158h6q5 0 7 -1l1 1q-2 2 -1.5 6t1.5 6l2 14q0 10 4 13l-1 2q-2 -2 -7 -2h-6h-158l4 31h153q46 0 40 -51q-8 -50 -55 -50h-152zM68 31l1 -1q2 1 7 1h6h50h7q4 0 6 -1l1 1q-2 4 0 13 l1 6q1 8 -4 13t-16 5h-29q-11 0 -18 -5t-8 -13l-1 -6q-1 -4 -1.5 -7.5t-1.5 -5.5zM77 254l5 33l110 34q6 2 12 3.5t11 3.5v2q-6 -1 -14.5 -2t-13.5 -1h-99l4 30h196l-5 -33l-112 -34l-23 -7v-2q4 1 13.5 2t15.5 1h101l-5 -30h-196zM100 436q4 28 18 39t37 11h12l-5 -31h-14 q-22 0 -25 -19t19 -19h112q8 0 15.5 5t9.5 15t-4.5 14.5t-14.5 4.5h-15l4 31h12q23 0 34.5 -11.5t7.5 -38.5q-5 -28 -18.5 -40t-38.5 -12h-105q-24 0 -34.5 12t-6.5 39zM115 515l5 32h66q2 0 6 -0.5t5 -0.5h3q-2 2 -1.5 6t1.5 8l1 13q1 2 2 6t3 6l-3 1q-2 -1 -6 -1.5 t-6 -0.5h-66l5 33h196l-5 -33h-79q-2 0 -6 0.5t-6 1.5l-1 -1q1 -2 0.5 -6t-1.5 -6l-2 -13q0 -4 -0.5 -8t-2.5 -6h1q2 0 6 0.5t7 0.5h79l-5 -32h-196zM138 699q4 28 18 39t37 11h12l-5 -31h-14q-22 0 -25 -19t19 -19h112q8 0 15.5 4.5t9.5 14.5t-4.5 14.5t-14.5 4.5h-15l4 31 h12q23 0 34.5 -11.5t7.5 -37.5q-5 -29 -18.5 -41t-38.5 -12h-105q-48 0 -41 52zM152 774l4 32h159q2 0 6 -0.5t6 -1.5l1 1q-1 2 -0.5 6t0.5 7l2 14q1 3 1.5 7t2.5 6l-1 1q-2 -2 -7 -2h-6h-158l4 31h153q48 0 40 -50q-8 -51 -55 -51h-152zM171 897l15 103h24l-4 -24 q0 -2 -0.5 -6t-2.5 -6l1 -1q2 1 6.5 1.5t6.5 0.5h159l-4 -32h-160h-6q-4 0 -6 1l-1 -1q1 -1 0.5 -5t-1.5 -7l-3 -24h-24zM255 -560l1 4h3v-4h-4z" />
<glyph horiz-adv-x="1193" d="M158 1022q0 14 1 28.5t4 28.5q10 72 39 128t72.5 94.5t99.5 58.5t121 20q57 0 104 -16.5t80.5 -48.5t51.5 -77.5t18 -102.5q0 -13 -1 -27.5t-3 -28.5q-11 -72 -40 -128t-73.5 -94t-101 -58t-122.5 -20q-57 0 -102.5 16.5t-78.5 47.5t-51 76.5t-18 102.5zM165 446l941 624 l50 -101l-941 -618zM333 1026q0 -31 7 -52.5t19.5 -35t29.5 -20t38 -6.5q25 0 48.5 9t42 29t32 52t19.5 77q3 15 3.5 29t0.5 25q0 63 -26.5 88.5t-70.5 25.5q-24 0 -46 -9t-41 -29t-32 -52t-20 -78q-1 -14 -2.5 -27.5t-1.5 -25.5zM488 221q0 14 1 28.5t4 28.5q10 72 39 128 t72.5 94.5t99.5 58.5t121 20q57 0 104 -16.5t80.5 -48.5t51.5 -77.5t18 -102.5q0 -13 -1 -27.5t-3 -28.5q-11 -72 -40 -128t-73.5 -94t-101 -58t-122.5 -20q-57 0 -102.5 16.5t-78.5 47.5t-51 76.5t-18 102.5zM663 225q0 -31 7 -52.5t19.5 -35t29.5 -20t38 -6.5q25 0 48.5 9 t42 29t32 52t19.5 77q3 15 3.5 29t0.5 25q0 63 -26.5 88.5t-70.5 25.5q-24 0 -46 -9t-41 -29t-32 -52t-20 -78q-1 -14 -2.5 -27.5t-1.5 -25.5z" />
<glyph horiz-adv-x="748" d="M68 818l34 182h135l5 33q16 108 61 183.5t115 123t162.5 69t202.5 21.5q34 0 69 -2.5t69 -6.5t64.5 -9.5t54.5 -11.5l-29 -204q-48 5 -117.5 9.5t-141.5 4.5q-101 0 -154.5 -40t-67.5 -137l-5 -33h259l-27 -182h-258l-119 -818h-288l119 818h-143z" />
<glyph horiz-adv-x="1301" d="M68 818l34 182h135l5 33q16 108 61 183.5t115 123t162.5 69t202.5 21.5q34 0 69 -2.5t69 -6.5t64.5 -9.5t54.5 -11.5l-29 -204q-48 5 -117.5 9.5t-141.5 4.5q-101 0 -154.5 -40t-67.5 -137l-5 -33h259l-27 -182h-258l-119 -818h-288l119 818h-143zM391 -416l61 197 q11 -3 28 -6t37 -6t41.5 -5t41.5 -2q35 0 62 8.5t47 28t32.5 52t19.5 79.5l155 1070h286l-155 -1070q-17 -119 -56 -194.5t-93.5 -118.5t-121.5 -59t-140 -16q-30 0 -64.5 3t-68 9t-63 13.5t-49.5 16.5z" />
</font>
</defs>
</svg>
